%TF.GenerationSoftware,KiCad,Pcbnew,8.0.7*%
%TF.CreationDate,2025-02-06T20:11:24-08:00*%
%TF.ProjectId,Mains_monitor,4d61696e-735f-46d6-9f6e-69746f722e6b,rev?*%
%TF.SameCoordinates,Original*%
%TF.FileFunction,Copper,L1,Top*%
%TF.FilePolarity,Positive*%
%FSLAX46Y46*%
G04 Gerber Fmt 4.6, Leading zero omitted, Abs format (unit mm)*
G04 Created by KiCad (PCBNEW 8.0.7) date 2025-02-06 20:11:24*
%MOMM*%
%LPD*%
G01*
G04 APERTURE LIST*
G04 Aperture macros list*
%AMRoundRect*
0 Rectangle with rounded corners*
0 $1 Rounding radius*
0 $2 $3 $4 $5 $6 $7 $8 $9 X,Y pos of 4 corners*
0 Add a 4 corners polygon primitive as box body*
4,1,4,$2,$3,$4,$5,$6,$7,$8,$9,$2,$3,0*
0 Add four circle primitives for the rounded corners*
1,1,$1+$1,$2,$3*
1,1,$1+$1,$4,$5*
1,1,$1+$1,$6,$7*
1,1,$1+$1,$8,$9*
0 Add four rect primitives between the rounded corners*
20,1,$1+$1,$2,$3,$4,$5,0*
20,1,$1+$1,$4,$5,$6,$7,0*
20,1,$1+$1,$6,$7,$8,$9,0*
20,1,$1+$1,$8,$9,$2,$3,0*%
G04 Aperture macros list end*
%TA.AperFunction,Conductor*%
%ADD10C,0.200000*%
%TD*%
%TA.AperFunction,ComponentPad*%
%ADD11R,1.300000X1.300000*%
%TD*%
%TA.AperFunction,ComponentPad*%
%ADD12C,1.300000*%
%TD*%
%TA.AperFunction,ComponentPad*%
%ADD13R,2.600000X2.600000*%
%TD*%
%TA.AperFunction,ComponentPad*%
%ADD14C,2.600000*%
%TD*%
%TA.AperFunction,ComponentPad*%
%ADD15C,1.600000*%
%TD*%
%TA.AperFunction,ComponentPad*%
%ADD16O,1.600000X1.600000*%
%TD*%
%TA.AperFunction,ComponentPad*%
%ADD17O,2.300000X2.000000*%
%TD*%
%TA.AperFunction,ComponentPad*%
%ADD18R,2.300000X2.000000*%
%TD*%
%TA.AperFunction,ComponentPad*%
%ADD19C,3.000000*%
%TD*%
%TA.AperFunction,ComponentPad*%
%ADD20C,2.500000*%
%TD*%
%TA.AperFunction,ComponentPad*%
%ADD21C,1.400000*%
%TD*%
%TA.AperFunction,ComponentPad*%
%ADD22RoundRect,0.550000X-0.550000X-0.550000X0.550000X-0.550000X0.550000X0.550000X-0.550000X0.550000X0*%
%TD*%
%TA.AperFunction,ComponentPad*%
%ADD23C,2.200000*%
%TD*%
%TA.AperFunction,ComponentPad*%
%ADD24O,1.600000X2.600000*%
%TD*%
%TA.AperFunction,ComponentPad*%
%ADD25RoundRect,0.250000X-0.550000X1.050000X-0.550000X-1.050000X0.550000X-1.050000X0.550000X1.050000X0*%
%TD*%
%TA.AperFunction,ComponentPad*%
%ADD26R,2.200000X2.200000*%
%TD*%
%TA.AperFunction,ComponentPad*%
%ADD27R,1.800000X1.800000*%
%TD*%
%TA.AperFunction,ComponentPad*%
%ADD28O,1.800000X1.800000*%
%TD*%
%TA.AperFunction,SMDPad,CuDef*%
%ADD29RoundRect,0.150000X-0.625000X-0.150000X0.625000X-0.150000X0.625000X0.150000X-0.625000X0.150000X0*%
%TD*%
%TA.AperFunction,ComponentPad*%
%ADD30R,1.524000X1.524000*%
%TD*%
%TA.AperFunction,ComponentPad*%
%ADD31C,1.524000*%
%TD*%
%TA.AperFunction,Conductor*%
%ADD32C,2.000000*%
%TD*%
G04 APERTURE END LIST*
%TO.N,Net-(J1-Pin_1)*%
D10*
X90500000Y-45000000D02*
X159500000Y-45000000D01*
X159500000Y-134000000D01*
X90500000Y-134000000D01*
X90500000Y-45000000D01*
%TD*%
D11*
%TO.P,Q1,1,C*%
%TO.N,Net-(D1-A)*%
X123750000Y-85960000D03*
D12*
%TO.P,Q1,2,B*%
%TO.N,Net-(Q1-B)*%
X125020000Y-87230000D03*
%TO.P,Q1,3,E*%
%TO.N,GND*%
X123750000Y-88500000D03*
%TD*%
D13*
%TO.P,J1,1,Pin_1*%
%TO.N,Net-(J1-Pin_1)*%
X102100000Y-62095000D03*
D14*
%TO.P,J1,2,Pin_2*%
%TO.N,AC_N*%
X97100000Y-62095000D03*
%TD*%
D15*
%TO.P,R13,1*%
%TO.N,Net-(R13-Pad1)*%
X93100000Y-85750000D03*
D16*
%TO.P,R13,2*%
%TO.N,Net-(R13-Pad2)*%
X93100000Y-88290000D03*
%TD*%
D15*
%TO.P,R6,1*%
%TO.N,AC_N*%
X93100000Y-80460000D03*
D16*
%TO.P,R6,2*%
%TO.N,Net-(R13-Pad1)*%
X93100000Y-83000000D03*
%TD*%
D17*
%TO.P,PS1,4,+Vout*%
%TO.N,+5V*%
X132157500Y-99792500D03*
%TO.P,PS1,3,-Vout*%
%TO.N,GND*%
X154757500Y-99792500D03*
%TO.P,PS1,2,AC/N*%
%TO.N,AC_N*%
X139557500Y-57292500D03*
D18*
%TO.P,PS1,1,AC/L*%
%TO.N,AC_H*%
X147357500Y-57292500D03*
%TD*%
D19*
%TO.P,K1,1*%
%TO.N,RELAY_OUT*%
X117000000Y-81200000D03*
D20*
%TO.P,K1,2*%
%TO.N,Net-(D1-A)*%
X123050000Y-79250000D03*
D19*
%TO.P,K1,3*%
%TO.N,unconnected-(K1-Pad3)*%
X123050000Y-67050000D03*
%TO.P,K1,4*%
%TO.N,AC_H*%
X111000000Y-67000000D03*
D20*
%TO.P,K1,5*%
%TO.N,+5V*%
X111050000Y-79250000D03*
%TD*%
D15*
%TO.P,C5,1*%
%TO.N,GND*%
X125000000Y-94000000D03*
%TO.P,C5,2*%
%TO.N,+5V*%
X125000000Y-92000000D03*
%TD*%
D21*
%TO.P,C2,1*%
%TO.N,IP*%
X107000000Y-103000000D03*
%TO.P,C2,2*%
%TO.N,GND*%
X107000000Y-100500000D03*
%TD*%
D15*
%TO.P,R8,1*%
%TO.N,/DATA_HV*%
X130190000Y-109500000D03*
D16*
%TO.P,R8,2*%
%TO.N,GND*%
X137810000Y-109500000D03*
%TD*%
D15*
%TO.P,R1,1*%
%TO.N,/RLY_CTRL*%
X110420000Y-90500000D03*
D16*
%TO.P,R1,2*%
%TO.N,Net-(Q1-B)*%
X118040000Y-90500000D03*
%TD*%
D15*
%TO.P,R7,1*%
%TO.N,GND*%
X104000000Y-95940000D03*
D16*
%TO.P,R7,2*%
%TO.N,Net-(R7-Pad2)*%
X104000000Y-103560000D03*
%TD*%
D22*
%TO.P,F1,1*%
%TO.N,Net-(J1-Pin_1)*%
X107600000Y-55000000D03*
X107600000Y-60000000D03*
D23*
%TO.P,F1,2*%
%TO.N,AC_H*%
X125400000Y-55000000D03*
X125400000Y-60000000D03*
%TD*%
D15*
%TO.P,R14,1*%
%TO.N,Net-(R13-Pad2)*%
X93100000Y-91155000D03*
D16*
%TO.P,R14,2*%
%TO.N,Net-(R14-Pad2)*%
X93100000Y-93695000D03*
%TD*%
D24*
%TO.P,A1,28,VBAT*%
%TO.N,unconnected-(A1-VBAT-Pad28)*%
X142960000Y-125520000D03*
%TO.P,A1,27,EN*%
%TO.N,unconnected-(A1-EN-Pad27)*%
X140420000Y-125520000D03*
%TO.P,A1,26,USB*%
%TO.N,+5V*%
X137880000Y-125520000D03*
%TO.P,A1,25,A12/IO13*%
%TO.N,unconnected-(A1-A12{slash}IO13-Pad25)*%
X135340000Y-125520000D03*
%TO.P,A1,24,A11/IO12*%
%TO.N,unconnected-(A1-A11{slash}IO12-Pad24)*%
X132800000Y-125520000D03*
%TO.P,A1,23,A10/IO27*%
%TO.N,unconnected-(A1-A10{slash}IO27-Pad23)*%
X130260000Y-125520000D03*
%TO.P,A1,22,A9/IO33*%
%TO.N,unconnected-(A1-A9{slash}IO33-Pad22)*%
X127720000Y-125520000D03*
%TO.P,A1,21,A8/IO15*%
%TO.N,unconnected-(A1-A8{slash}IO15-Pad21)*%
X125180000Y-125520000D03*
%TO.P,A1,20,A7/IO32*%
%TO.N,unconnected-(A1-A7{slash}IO32-Pad20)*%
X122640000Y-125520000D03*
%TO.P,A1,19,A6/IO14*%
%TO.N,/RLY_CTRL*%
X120100000Y-125520000D03*
%TO.P,A1,18,SCL/IO22*%
%TO.N,unconnected-(A1-SCL{slash}IO22-Pad18)*%
X117560000Y-125520000D03*
%TO.P,A1,17,SDA/IO23*%
%TO.N,unconnected-(A1-SDA{slash}IO23-Pad17)*%
X115020000Y-125520000D03*
%TO.P,A1,16,IO21*%
%TO.N,unconnected-(A1-IO21-Pad16)*%
X115020000Y-105800000D03*
%TO.P,A1,15,TX/IO17*%
%TO.N,unconnected-(A1-TX{slash}IO17-Pad15)*%
X117560000Y-105800000D03*
%TO.P,A1,14,RX/IO16*%
%TO.N,/DATA_LV*%
X120100000Y-105800000D03*
%TO.P,A1,13,MISO/IO19*%
%TO.N,unconnected-(A1-MISO{slash}IO19-Pad13)*%
X122640000Y-105800000D03*
%TO.P,A1,12,MOSI/IO18*%
%TO.N,unconnected-(A1-MOSI{slash}IO18-Pad12)*%
X125180000Y-105800000D03*
%TO.P,A1,11,SCK/IO5*%
%TO.N,unconnected-(A1-SCK{slash}IO5-Pad11)*%
X127720000Y-105800000D03*
%TO.P,A1,10,IO4/A5*%
%TO.N,unconnected-(A1-IO4{slash}A5-Pad10)*%
X130260000Y-105800000D03*
%TO.P,A1,9,IO36/A4*%
%TO.N,unconnected-(A1-IO36{slash}A4-Pad9)*%
X132800000Y-105800000D03*
%TO.P,A1,8,I39/A3*%
%TO.N,unconnected-(A1-I39{slash}A3-Pad8)*%
X135340000Y-105800000D03*
%TO.P,A1,7,I34/A2*%
%TO.N,unconnected-(A1-I34{slash}A2-Pad7)*%
X137880000Y-105800000D03*
%TO.P,A1,6,DAC1/A1*%
%TO.N,unconnected-(A1-DAC1{slash}A1-Pad6)*%
X140420000Y-105800000D03*
%TO.P,A1,5,DAC2/A0*%
%TO.N,unconnected-(A1-DAC2{slash}A0-Pad5)*%
X142960000Y-105800000D03*
%TO.P,A1,4,GND*%
%TO.N,GND*%
X145500000Y-105800000D03*
%TO.P,A1,3,NC*%
%TO.N,unconnected-(A1-NC-Pad3)*%
X148040000Y-105800000D03*
%TO.P,A1,2,3V3*%
%TO.N,unconnected-(A1-3V3-Pad2)*%
X150580000Y-105800000D03*
D25*
%TO.P,A1,1,~{RESET}*%
%TO.N,unconnected-(A1-~{RESET}-Pad1)*%
X153120000Y-105800000D03*
%TD*%
D15*
%TO.P,C4,1*%
%TO.N,+5V*%
X120000000Y-94000000D03*
%TO.P,C4,2*%
%TO.N,GND*%
X120000000Y-96500000D03*
%TD*%
%TO.P,R12,1*%
%TO.N,Net-(R11-Pad2)*%
X105700000Y-91015000D03*
D16*
%TO.P,R12,2*%
%TO.N,Net-(R12-Pad2)*%
X105700000Y-93555000D03*
%TD*%
%TO.P,R2,2*%
%TO.N,GND*%
X107000000Y-120690000D03*
D15*
%TO.P,R2,1*%
%TO.N,Net-(R2-Pad1)*%
X107000000Y-128310000D03*
%TD*%
D26*
%TO.P,TR1,1*%
%TO.N,GND*%
X97112500Y-129787500D03*
D23*
%TO.P,TR1,2*%
%TO.N,Net-(R2-Pad1)*%
X97112500Y-117987500D03*
%TD*%
D16*
%TO.P,R11,2*%
%TO.N,Net-(R11-Pad2)*%
X105700000Y-88290000D03*
D15*
%TO.P,R11,1*%
%TO.N,Net-(R11-Pad1)*%
X105700000Y-85750000D03*
%TD*%
%TO.P,R10,1*%
%TO.N,/DATA_HV*%
X127810000Y-109500000D03*
D16*
%TO.P,R10,2*%
%TO.N,/DATA_LV*%
X120190000Y-109500000D03*
%TD*%
D27*
%TO.P,D1,1,K*%
%TO.N,+5V*%
X110690000Y-87000000D03*
D28*
%TO.P,D1,2,A*%
%TO.N,Net-(D1-A)*%
X118310000Y-87000000D03*
%TD*%
D21*
%TO.P,C3,1*%
%TO.N,GND*%
X107000000Y-105750000D03*
%TO.P,C3,2*%
%TO.N,IN*%
X107000000Y-108250000D03*
%TD*%
D29*
%TO.P,U1,1,VDD*%
%TO.N,+5V*%
X112150000Y-112000000D03*
%TO.P,U1,2,IP*%
%TO.N,IP*%
X112150000Y-113270000D03*
%TO.P,U1,3,IN*%
%TO.N,IN*%
X112150000Y-114540000D03*
%TO.P,U1,4,VP*%
%TO.N,VP*%
X112150000Y-115810000D03*
%TO.P,U1,5,GND*%
%TO.N,GND*%
X117500000Y-115810000D03*
%TO.P,U1,6,TX*%
%TO.N,/DATA_HV*%
X117500000Y-114540000D03*
%TO.P,U1,7,PF*%
%TO.N,unconnected-(U1-PF-Pad7)*%
X117500000Y-113270000D03*
%TO.P,U1,8,RX*%
%TO.N,unconnected-(U1-RX-Pad8)*%
X117500000Y-112000000D03*
%TD*%
D15*
%TO.P,R9,1*%
%TO.N,Net-(R7-Pad2)*%
X104000000Y-105690000D03*
D16*
%TO.P,R9,2*%
%TO.N,VP*%
X104000000Y-113310000D03*
%TD*%
D15*
%TO.P,R4,1*%
%TO.N,GND*%
X107000000Y-118310000D03*
D16*
%TO.P,R4,2*%
%TO.N,IN*%
X107000000Y-110690000D03*
%TD*%
D21*
%TO.P,C6,1*%
%TO.N,VP*%
X104000000Y-116000000D03*
%TO.P,C6,2*%
%TO.N,GND*%
X104000000Y-118500000D03*
%TD*%
D13*
%TO.P,J2,1,Pin_1*%
%TO.N,AC_N*%
X97114900Y-73546200D03*
D14*
%TO.P,J2,2,Pin_2*%
%TO.N,RELAY_OUT*%
X102114900Y-73546200D03*
%TD*%
D15*
%TO.P,R5,1*%
%TO.N,RELAY_OUT*%
X105700000Y-80400000D03*
D16*
%TO.P,R5,2*%
%TO.N,Net-(R11-Pad1)*%
X105700000Y-82940000D03*
%TD*%
D30*
%TO.P,TR2,1,1*%
%TO.N,Net-(R14-Pad2)*%
X93300000Y-96350000D03*
D31*
%TO.P,TR2,2,2*%
%TO.N,Net-(R12-Pad2)*%
X100500000Y-96350000D03*
%TO.P,TR2,3,3*%
%TO.N,GND*%
X93300000Y-112650000D03*
%TO.P,TR2,4,4*%
%TO.N,Net-(R7-Pad2)*%
X100500000Y-112650000D03*
%TD*%
D15*
%TO.P,R3,1*%
%TO.N,Net-(R2-Pad1)*%
X104000000Y-128810000D03*
D16*
%TO.P,R3,2*%
%TO.N,IP*%
X104000000Y-121190000D03*
%TD*%
D32*
%TO.N,AC_N*%
X97114900Y-62080100D02*
X97100000Y-62095000D01*
D10*
%TO.N,IP*%
X104000000Y-121190000D02*
X105900000Y-119290000D01*
X105900000Y-119290000D02*
X105900000Y-117854365D01*
X113225000Y-113570001D02*
X112924999Y-113270000D01*
X112924999Y-113270000D02*
X112150000Y-113270000D01*
X105900000Y-117854365D02*
X107344365Y-116410000D01*
X113225000Y-116150552D02*
X113225000Y-113570001D01*
X107344365Y-116410000D02*
X112965552Y-116410000D01*
X112965552Y-116410000D02*
X113225000Y-116150552D01*
%TO.N,AC_H*%
X147358000Y-59642500D02*
X147358000Y-57293000D01*
D32*
X147358000Y-57293000D02*
X147357500Y-57292500D01*
D10*
%TO.N,/DATA_LV*%
X120190000Y-108398300D02*
X120100000Y-108308300D01*
X120100000Y-108308300D02*
X120100000Y-105500000D01*
X120190000Y-109500000D02*
X120190000Y-108398300D01*
%TO.N,/RLY_CTRL*%
X113918300Y-117736600D02*
X113918300Y-93998300D01*
X120100000Y-125820000D02*
X120100000Y-123918300D01*
X113918300Y-93998300D02*
X110420000Y-90500000D01*
X120100000Y-123918300D02*
X113918300Y-117736600D01*
%TO.N,+5V*%
X112150000Y-112000000D02*
X109266200Y-109116200D01*
X134070000Y-103006700D02*
X132157500Y-101094200D01*
X132157500Y-99792500D02*
X132157500Y-101094200D01*
X137880000Y-123918300D02*
X134070000Y-120108300D01*
X111050000Y-79250000D02*
X111050000Y-87240800D01*
X110690000Y-87000000D02*
X110690000Y-87600800D01*
X137880000Y-125820000D02*
X137880000Y-123918300D01*
X111050000Y-87240800D02*
X110690000Y-87600800D01*
X109266200Y-89024600D02*
X110690000Y-87600800D01*
X109266200Y-109116200D02*
X109266200Y-89024600D01*
X134070000Y-120108300D02*
X134070000Y-103006700D01*
%TO.N,IP*%
X112150000Y-113270000D02*
X111945400Y-113270000D01*
X108749800Y-104749800D02*
X107000000Y-103000000D01*
X111945400Y-113270000D02*
X108749800Y-110074400D01*
X108749800Y-110074400D02*
X108749800Y-104749800D01*
%TO.N,IN*%
X107000000Y-108250000D02*
X107000000Y-110690000D01*
X112150000Y-114540000D02*
X111951700Y-114540000D01*
X107000000Y-110690000D02*
X108101700Y-110690000D01*
X111951700Y-114540000D02*
X108101700Y-110690000D01*
%TO.N,VP*%
X112150000Y-115810000D02*
X104310000Y-115810000D01*
X104310000Y-115810000D02*
X104000000Y-115500000D01*
X104000000Y-115500000D02*
X104000000Y-113120000D01*
%TO.N,Net-(D1-A)*%
X123640000Y-84903300D02*
X123050000Y-84313300D01*
X123050000Y-84313300D02*
X123050000Y-79250000D01*
X123640000Y-85730000D02*
X123640000Y-84903300D01*
D32*
%TO.N,AC_H*%
X118000000Y-60000000D02*
X111000000Y-67000000D01*
X125400000Y-60000000D02*
X118000000Y-60000000D01*
X125400000Y-55000000D02*
X125400000Y-60000000D01*
D10*
X135500000Y-64000000D02*
X143000000Y-64000000D01*
X143000000Y-64000000D02*
X147358000Y-59642500D01*
X131500000Y-60000000D02*
X135500000Y-64000000D01*
X125400000Y-60000000D02*
X131500000Y-60000000D01*
%TO.N,AC_N*%
X139558000Y-56520700D02*
X139557500Y-56521200D01*
X93100000Y-80120000D02*
X93100000Y-77561100D01*
X139558000Y-56984000D02*
X139557500Y-56984500D01*
D32*
X97100000Y-62095000D02*
X97100000Y-73531300D01*
D10*
X139557500Y-56984500D02*
X139557500Y-57292500D01*
X139558000Y-56675000D02*
X139558000Y-56675500D01*
X139558000Y-56057500D02*
X132500000Y-49000000D01*
X93100000Y-77561100D02*
X97114900Y-73546200D01*
X139557500Y-56675500D02*
X139557500Y-57292500D01*
X139557500Y-56521200D02*
X139557500Y-57292500D01*
X139558000Y-56675000D02*
X139558000Y-56057500D01*
X105500000Y-49000000D02*
X97114900Y-57385100D01*
X132500000Y-49000000D02*
X105500000Y-49000000D01*
D32*
%TO.N,RELAY_OUT*%
X117000000Y-81200000D02*
X117000000Y-77000000D01*
D10*
X103000000Y-74351300D02*
X102194900Y-73546200D01*
D32*
X117000000Y-77000000D02*
X113546200Y-73546200D01*
X113546200Y-73546200D02*
X102194900Y-73546200D01*
D10*
X105700000Y-77131300D02*
X105700000Y-80060000D01*
%TO.N,Net-(R2-Pad1)*%
X97112500Y-121422500D02*
X104000000Y-128310000D01*
X97112500Y-117987500D02*
X97112500Y-121422500D01*
%TO.N,Net-(R11-Pad1)*%
X105700000Y-82600000D02*
X105700000Y-85515000D01*
%TO.N,Net-(R13-Pad1)*%
X93100000Y-82660000D02*
X93100000Y-85655000D01*
%TO.N,/DATA_HV*%
X117500000Y-114540000D02*
X122770000Y-114540000D01*
X122770000Y-114540000D02*
X127810000Y-109500000D01*
%TO.N,Net-(R11-Pad2)*%
X105700000Y-88055000D02*
X105700000Y-91015000D01*
%TO.N,Net-(R13-Pad2)*%
X93100000Y-91155000D02*
X93100000Y-88195000D01*
%TO.N,Net-(R7-Pad2)*%
X100500000Y-112650000D02*
X100500000Y-109000000D01*
X104000000Y-105500000D02*
X104000000Y-103310000D01*
X100500000Y-109000000D02*
X104000000Y-105500000D01*
%TO.N,Net-(R14-Pad2)*%
X93300000Y-95286300D02*
X93100000Y-95086300D01*
X93100000Y-95086300D02*
X93100000Y-93695000D01*
X93300000Y-96350000D02*
X93300000Y-95286300D01*
D32*
%TO.N,Net-(J1-Pin_1)*%
X105505000Y-62095000D02*
X107600000Y-60000000D01*
X107600000Y-55000000D02*
X107600000Y-60000000D01*
X102100000Y-62095000D02*
X105505000Y-62095000D01*
D10*
%TO.N,AC_N*%
X97114900Y-57385100D02*
X97114900Y-62080100D01*
%TO.N,RELAY_OUT*%
X102114900Y-73546200D02*
X105700000Y-77131300D01*
%TD*%
%TA.AperFunction,Conductor*%
%TO.N,GND*%
G36*
X158742539Y-45720185D02*
G01*
X158788294Y-45772989D01*
X158799500Y-45824500D01*
X158799500Y-133175500D01*
X158779815Y-133242539D01*
X158727011Y-133288294D01*
X158675500Y-133299500D01*
X91324500Y-133299500D01*
X91257461Y-133279815D01*
X91211706Y-133227011D01*
X91200500Y-133175500D01*
X91200500Y-128639655D01*
X95512500Y-128639655D01*
X95512500Y-129537500D01*
X96564018Y-129537500D01*
X96553389Y-129555909D01*
X96512500Y-129708509D01*
X96512500Y-129866491D01*
X96553389Y-130019091D01*
X96564018Y-130037500D01*
X95512500Y-130037500D01*
X95512500Y-130935344D01*
X95518901Y-130994872D01*
X95518903Y-130994879D01*
X95569145Y-131129586D01*
X95569149Y-131129593D01*
X95655309Y-131244687D01*
X95655312Y-131244690D01*
X95770406Y-131330850D01*
X95770413Y-131330854D01*
X95905120Y-131381096D01*
X95905127Y-131381098D01*
X95964655Y-131387499D01*
X95964672Y-131387500D01*
X96862500Y-131387500D01*
X96862500Y-130335982D01*
X96880909Y-130346611D01*
X97033509Y-130387500D01*
X97191491Y-130387500D01*
X97344091Y-130346611D01*
X97362500Y-130335982D01*
X97362500Y-131387500D01*
X98260328Y-131387500D01*
X98260344Y-131387499D01*
X98319872Y-131381098D01*
X98319879Y-131381096D01*
X98454586Y-131330854D01*
X98454593Y-131330850D01*
X98569687Y-131244690D01*
X98569690Y-131244687D01*
X98655850Y-131129593D01*
X98655854Y-131129586D01*
X98706096Y-130994879D01*
X98706098Y-130994872D01*
X98712499Y-130935344D01*
X98712500Y-130935327D01*
X98712500Y-130037500D01*
X97660982Y-130037500D01*
X97671611Y-130019091D01*
X97712500Y-129866491D01*
X97712500Y-129708509D01*
X97671611Y-129555909D01*
X97660982Y-129537500D01*
X98712500Y-129537500D01*
X98712500Y-128639672D01*
X98712499Y-128639655D01*
X98706098Y-128580127D01*
X98706096Y-128580120D01*
X98655854Y-128445413D01*
X98655850Y-128445406D01*
X98569690Y-128330312D01*
X98569687Y-128330309D01*
X98454593Y-128244149D01*
X98454586Y-128244145D01*
X98319879Y-128193903D01*
X98319872Y-128193901D01*
X98260344Y-128187500D01*
X97362500Y-128187500D01*
X97362500Y-129239017D01*
X97344091Y-129228389D01*
X97191491Y-129187500D01*
X97033509Y-129187500D01*
X96880909Y-129228389D01*
X96862500Y-129239017D01*
X96862500Y-128187500D01*
X95964655Y-128187500D01*
X95905127Y-128193901D01*
X95905120Y-128193903D01*
X95770413Y-128244145D01*
X95770406Y-128244149D01*
X95655312Y-128330309D01*
X95655309Y-128330312D01*
X95569149Y-128445406D01*
X95569145Y-128445413D01*
X95518903Y-128580120D01*
X95518901Y-128580127D01*
X95512500Y-128639655D01*
X91200500Y-128639655D01*
X91200500Y-117987500D01*
X95507051Y-117987500D01*
X95526817Y-118238651D01*
X95585626Y-118483610D01*
X95682033Y-118716359D01*
X95813660Y-118931153D01*
X95813661Y-118931156D01*
X95813664Y-118931159D01*
X95977276Y-119122724D01*
X96080566Y-119210942D01*
X96168843Y-119286338D01*
X96168846Y-119286339D01*
X96379035Y-119415144D01*
X96383641Y-119417966D01*
X96435453Y-119439427D01*
X96489855Y-119483265D01*
X96511921Y-119549559D01*
X96512000Y-119553987D01*
X96512000Y-121335830D01*
X96511999Y-121335848D01*
X96511999Y-121501554D01*
X96511998Y-121501554D01*
X96511999Y-121501557D01*
X96552923Y-121654285D01*
X96562295Y-121670517D01*
X96562296Y-121670520D01*
X96631975Y-121791209D01*
X96631981Y-121791217D01*
X96750849Y-121910085D01*
X96750855Y-121910090D01*
X102849222Y-128008457D01*
X102882707Y-128069780D01*
X102877723Y-128139472D01*
X102871663Y-128152333D01*
X102871720Y-128152360D01*
X102869432Y-128157264D01*
X102869432Y-128157266D01*
X102859694Y-128178149D01*
X102773261Y-128363502D01*
X102773258Y-128363511D01*
X102714366Y-128583302D01*
X102714364Y-128583313D01*
X102694532Y-128809998D01*
X102694532Y-128810001D01*
X102714364Y-129036686D01*
X102714366Y-129036697D01*
X102773258Y-129256488D01*
X102773261Y-129256497D01*
X102869431Y-129462732D01*
X102869432Y-129462734D01*
X102999954Y-129649141D01*
X103160858Y-129810045D01*
X103160861Y-129810047D01*
X103347266Y-129940568D01*
X103553504Y-130036739D01*
X103773308Y-130095635D01*
X103935230Y-130109801D01*
X103999998Y-130115468D01*
X104000000Y-130115468D01*
X104000002Y-130115468D01*
X104056673Y-130110509D01*
X104226692Y-130095635D01*
X104446496Y-130036739D01*
X104652734Y-129940568D01*
X104839139Y-129810047D01*
X105000047Y-129649139D01*
X105130568Y-129462734D01*
X105226739Y-129256496D01*
X105285635Y-129036692D01*
X105305468Y-128810000D01*
X105285635Y-128583308D01*
X105226739Y-128363504D01*
X105201789Y-128309998D01*
X105694532Y-128309998D01*
X105694532Y-128310001D01*
X105714364Y-128536686D01*
X105714366Y-128536697D01*
X105773258Y-128756488D01*
X105773261Y-128756497D01*
X105869431Y-128962732D01*
X105869432Y-128962734D01*
X105999954Y-129149141D01*
X106160858Y-129310045D01*
X106160861Y-129310047D01*
X106347266Y-129440568D01*
X106553504Y-129536739D01*
X106773308Y-129595635D01*
X106935230Y-129609801D01*
X106999998Y-129615468D01*
X107000000Y-129615468D01*
X107000002Y-129615468D01*
X107056673Y-129610509D01*
X107226692Y-129595635D01*
X107446496Y-129536739D01*
X107652734Y-129440568D01*
X107755127Y-129368872D01*
X109999500Y-129368872D01*
X109999500Y-129631127D01*
X110023057Y-129810047D01*
X110033730Y-129891116D01*
X110093845Y-130115468D01*
X110101602Y-130144418D01*
X110101605Y-130144428D01*
X110201953Y-130386690D01*
X110201958Y-130386700D01*
X110333075Y-130613803D01*
X110492718Y-130821851D01*
X110492726Y-130821860D01*
X110678140Y-131007274D01*
X110678148Y-131007281D01*
X110886196Y-131166924D01*
X111113299Y-131298041D01*
X111113309Y-131298046D01*
X111329271Y-131387500D01*
X111355581Y-131398398D01*
X111608884Y-131466270D01*
X111868880Y-131500500D01*
X111868887Y-131500500D01*
X112131113Y-131500500D01*
X112131120Y-131500500D01*
X112391116Y-131466270D01*
X112644419Y-131398398D01*
X112886697Y-131298043D01*
X113113803Y-131166924D01*
X113321851Y-131007282D01*
X113321855Y-131007277D01*
X113321860Y-131007274D01*
X113507274Y-130821860D01*
X113507277Y-130821855D01*
X113507282Y-130821851D01*
X113666924Y-130613803D01*
X113798043Y-130386697D01*
X113898398Y-130144419D01*
X113966270Y-129891116D01*
X114000500Y-129631120D01*
X114000500Y-129368880D01*
X114000499Y-129368872D01*
X152999500Y-129368872D01*
X152999500Y-129631127D01*
X153023057Y-129810047D01*
X153033730Y-129891116D01*
X153093845Y-130115468D01*
X153101602Y-130144418D01*
X153101605Y-130144428D01*
X153201953Y-130386690D01*
X153201958Y-130386700D01*
X153333075Y-130613803D01*
X153492718Y-130821851D01*
X153492726Y-130821860D01*
X153678140Y-131007274D01*
X153678148Y-131007281D01*
X153886196Y-131166924D01*
X154113299Y-131298041D01*
X154113309Y-131298046D01*
X154329271Y-131387500D01*
X154355581Y-131398398D01*
X154608884Y-131466270D01*
X154868880Y-131500500D01*
X154868887Y-131500500D01*
X155131113Y-131500500D01*
X155131120Y-131500500D01*
X155391116Y-131466270D01*
X155644419Y-131398398D01*
X155886697Y-131298043D01*
X156113803Y-131166924D01*
X156321851Y-131007282D01*
X156321855Y-131007277D01*
X156321860Y-131007274D01*
X156507274Y-130821860D01*
X156507277Y-130821855D01*
X156507282Y-130821851D01*
X156666924Y-130613803D01*
X156798043Y-130386697D01*
X156898398Y-130144419D01*
X156966270Y-129891116D01*
X157000500Y-129631120D01*
X157000500Y-129368880D01*
X156966270Y-129108884D01*
X156898398Y-128855581D01*
X156857356Y-128756496D01*
X156798046Y-128613309D01*
X156798041Y-128613299D01*
X156666924Y-128386196D01*
X156544424Y-128226554D01*
X156507282Y-128178149D01*
X156507281Y-128178148D01*
X156507274Y-128178140D01*
X156321860Y-127992726D01*
X156321851Y-127992718D01*
X156113803Y-127833075D01*
X155886700Y-127701958D01*
X155886690Y-127701953D01*
X155644428Y-127601605D01*
X155644421Y-127601603D01*
X155644419Y-127601602D01*
X155391116Y-127533730D01*
X155333339Y-127526123D01*
X155131127Y-127499500D01*
X155131120Y-127499500D01*
X154868880Y-127499500D01*
X154868872Y-127499500D01*
X154637772Y-127529926D01*
X154608884Y-127533730D01*
X154424042Y-127583258D01*
X154355581Y-127601602D01*
X154355571Y-127601605D01*
X154113309Y-127701953D01*
X154113299Y-127701958D01*
X153886196Y-127833075D01*
X153678148Y-127992718D01*
X153492718Y-128178148D01*
X153333075Y-128386196D01*
X153201958Y-128613299D01*
X153201953Y-128613309D01*
X153101605Y-128855571D01*
X153101602Y-128855581D01*
X153053073Y-129036697D01*
X153033730Y-129108885D01*
X152999500Y-129368872D01*
X114000499Y-129368872D01*
X113966270Y-129108884D01*
X113898398Y-128855581D01*
X113857356Y-128756496D01*
X113798046Y-128613309D01*
X113798041Y-128613299D01*
X113666924Y-128386196D01*
X113544424Y-128226554D01*
X113507282Y-128178149D01*
X113507281Y-128178148D01*
X113507274Y-128178140D01*
X113321860Y-127992726D01*
X113321851Y-127992718D01*
X113113803Y-127833075D01*
X112886700Y-127701958D01*
X112886690Y-127701953D01*
X112644428Y-127601605D01*
X112644421Y-127601603D01*
X112644419Y-127601602D01*
X112391116Y-127533730D01*
X112333339Y-127526123D01*
X112131127Y-127499500D01*
X112131120Y-127499500D01*
X111868880Y-127499500D01*
X111868872Y-127499500D01*
X111637772Y-127529926D01*
X111608884Y-127533730D01*
X111424042Y-127583258D01*
X111355581Y-127601602D01*
X111355571Y-127601605D01*
X111113309Y-127701953D01*
X111113299Y-127701958D01*
X110886196Y-127833075D01*
X110678148Y-127992718D01*
X110492718Y-128178148D01*
X110333075Y-128386196D01*
X110201958Y-128613299D01*
X110201953Y-128613309D01*
X110101605Y-128855571D01*
X110101602Y-128855581D01*
X110053073Y-129036697D01*
X110033730Y-129108885D01*
X109999500Y-129368872D01*
X107755127Y-129368872D01*
X107839139Y-129310047D01*
X108000047Y-129149139D01*
X108130568Y-128962734D01*
X108226739Y-128756496D01*
X108285635Y-128536692D01*
X108305468Y-128310000D01*
X108285635Y-128083308D01*
X108226739Y-127863504D01*
X108130568Y-127657266D01*
X108000047Y-127470861D01*
X108000045Y-127470858D01*
X107839141Y-127309954D01*
X107652734Y-127179432D01*
X107652732Y-127179431D01*
X107446497Y-127083261D01*
X107446488Y-127083258D01*
X107226697Y-127024366D01*
X107226693Y-127024365D01*
X107226692Y-127024365D01*
X107226691Y-127024364D01*
X107226686Y-127024364D01*
X107000002Y-127004532D01*
X106999998Y-127004532D01*
X106773313Y-127024364D01*
X106773302Y-127024366D01*
X106553511Y-127083258D01*
X106553502Y-127083261D01*
X106347267Y-127179431D01*
X106347265Y-127179432D01*
X106160858Y-127309954D01*
X105999954Y-127470858D01*
X105869432Y-127657265D01*
X105869431Y-127657267D01*
X105773261Y-127863502D01*
X105773258Y-127863511D01*
X105714366Y-128083302D01*
X105714364Y-128083313D01*
X105694532Y-128309998D01*
X105201789Y-128309998D01*
X105130568Y-128157266D01*
X105000047Y-127970861D01*
X105000045Y-127970858D01*
X104839141Y-127809954D01*
X104652734Y-127679432D01*
X104652732Y-127679431D01*
X104446497Y-127583261D01*
X104446488Y-127583258D01*
X104226697Y-127524366D01*
X104226687Y-127524364D01*
X104092922Y-127512661D01*
X104027853Y-127487208D01*
X104016049Y-127476814D01*
X102657778Y-126118543D01*
X114019499Y-126118543D01*
X114057947Y-126311829D01*
X114057950Y-126311839D01*
X114133364Y-126493907D01*
X114133371Y-126493920D01*
X114242860Y-126657781D01*
X114242863Y-126657785D01*
X114382214Y-126797136D01*
X114382218Y-126797139D01*
X114546079Y-126906628D01*
X114546092Y-126906635D01*
X114728160Y-126982049D01*
X114728165Y-126982051D01*
X114728169Y-126982051D01*
X114728170Y-126982052D01*
X114921456Y-127020500D01*
X114921459Y-127020500D01*
X115118543Y-127020500D01*
X115248582Y-126994632D01*
X115311835Y-126982051D01*
X115493914Y-126906632D01*
X115657782Y-126797139D01*
X115797139Y-126657782D01*
X115906632Y-126493914D01*
X115982051Y-126311835D01*
X116020500Y-126118543D01*
X116559499Y-126118543D01*
X116597947Y-126311829D01*
X116597950Y-126311839D01*
X116673364Y-126493907D01*
X116673371Y-126493920D01*
X116782860Y-126657781D01*
X116782863Y-126657785D01*
X116922214Y-126797136D01*
X116922218Y-126797139D01*
X117086079Y-126906628D01*
X117086092Y-126906635D01*
X117268160Y-126982049D01*
X117268165Y-126982051D01*
X117268169Y-126982051D01*
X117268170Y-126982052D01*
X117461456Y-127020500D01*
X117461459Y-127020500D01*
X117658543Y-127020500D01*
X117788582Y-126994632D01*
X117851835Y-126982051D01*
X118033914Y-126906632D01*
X118197782Y-126797139D01*
X118337139Y-126657782D01*
X118446632Y-126493914D01*
X118522051Y-126311835D01*
X118560500Y-126118541D01*
X118560500Y-124921459D01*
X118560500Y-124921456D01*
X118522052Y-124728170D01*
X118522051Y-124728169D01*
X118522051Y-124728165D01*
X118522049Y-124728160D01*
X118446635Y-124546092D01*
X118446628Y-124546079D01*
X118337139Y-124382218D01*
X118337136Y-124382214D01*
X118197785Y-124242863D01*
X118197781Y-124242860D01*
X118033920Y-124133371D01*
X118033907Y-124133364D01*
X117851839Y-124057950D01*
X117851829Y-124057947D01*
X117658543Y-124019500D01*
X117658541Y-124019500D01*
X117461459Y-124019500D01*
X117461457Y-124019500D01*
X117268170Y-124057947D01*
X117268160Y-124057950D01*
X117086092Y-124133364D01*
X117086079Y-124133371D01*
X116922218Y-124242860D01*
X116922214Y-124242863D01*
X116782863Y-124382214D01*
X116782860Y-124382218D01*
X116673371Y-124546079D01*
X116673364Y-124546092D01*
X116597950Y-124728160D01*
X116597947Y-124728170D01*
X116559500Y-124921456D01*
X116559500Y-124921459D01*
X116559500Y-126118541D01*
X116559500Y-126118543D01*
X116559499Y-126118543D01*
X116020500Y-126118543D01*
X116020500Y-126118541D01*
X116020500Y-124921459D01*
X116020500Y-124921456D01*
X115982052Y-124728170D01*
X115982051Y-124728169D01*
X115982051Y-124728165D01*
X115982049Y-124728160D01*
X115906635Y-124546092D01*
X115906628Y-124546079D01*
X115797139Y-124382218D01*
X115797136Y-124382214D01*
X115657785Y-124242863D01*
X115657781Y-124242860D01*
X115493920Y-124133371D01*
X115493907Y-124133364D01*
X115311839Y-124057950D01*
X115311829Y-124057947D01*
X115118543Y-124019500D01*
X115118541Y-124019500D01*
X114921459Y-124019500D01*
X114921457Y-124019500D01*
X114728170Y-124057947D01*
X114728160Y-124057950D01*
X114546092Y-124133364D01*
X114546079Y-124133371D01*
X114382218Y-124242860D01*
X114382214Y-124242863D01*
X114242863Y-124382214D01*
X114242860Y-124382218D01*
X114133371Y-124546079D01*
X114133364Y-124546092D01*
X114057950Y-124728160D01*
X114057947Y-124728170D01*
X114019500Y-124921456D01*
X114019500Y-124921459D01*
X114019500Y-126118541D01*
X114019500Y-126118543D01*
X114019499Y-126118543D01*
X102657778Y-126118543D01*
X97749319Y-121210084D01*
X97715834Y-121148761D01*
X97713000Y-121122403D01*
X97713000Y-119553987D01*
X97732685Y-119486948D01*
X97785489Y-119441193D01*
X97789502Y-119439445D01*
X97841359Y-119417966D01*
X98056159Y-119286336D01*
X98247724Y-119122724D01*
X98411336Y-118931159D01*
X98542966Y-118716359D01*
X98632585Y-118499999D01*
X102794859Y-118499999D01*
X102794859Y-118500000D01*
X102815378Y-118721439D01*
X102876240Y-118935350D01*
X102975364Y-119134419D01*
X102975366Y-119134421D01*
X102991138Y-119155306D01*
X103646446Y-118500000D01*
X103646446Y-118499999D01*
X102991138Y-117844691D01*
X102991137Y-117844691D01*
X102975369Y-117865571D01*
X102876240Y-118064649D01*
X102815378Y-118278560D01*
X102794859Y-118499999D01*
X98632585Y-118499999D01*
X98639373Y-118483611D01*
X98698183Y-118238648D01*
X98717949Y-117987500D01*
X98698183Y-117736352D01*
X98639373Y-117491389D01*
X98590684Y-117373843D01*
X98542966Y-117258640D01*
X98411339Y-117043846D01*
X98411338Y-117043843D01*
X98356062Y-116979124D01*
X98247724Y-116852276D01*
X98121071Y-116744104D01*
X98056156Y-116688661D01*
X98056153Y-116688660D01*
X97841359Y-116557033D01*
X97608610Y-116460626D01*
X97363651Y-116401817D01*
X97112500Y-116382051D01*
X96861348Y-116401817D01*
X96616389Y-116460626D01*
X96383640Y-116557033D01*
X96168846Y-116688660D01*
X96168843Y-116688661D01*
X95977276Y-116852276D01*
X95813661Y-117043843D01*
X95813660Y-117043846D01*
X95682033Y-117258640D01*
X95585626Y-117491389D01*
X95526817Y-117736348D01*
X95507051Y-117987500D01*
X91200500Y-117987500D01*
X91200500Y-112649999D01*
X92033179Y-112649999D01*
X92033179Y-112650000D01*
X92052424Y-112869976D01*
X92052426Y-112869986D01*
X92109575Y-113083270D01*
X92109580Y-113083284D01*
X92202898Y-113283405D01*
X92202901Y-113283411D01*
X92248258Y-113348187D01*
X92248258Y-113348188D01*
X92919000Y-112677446D01*
X92919000Y-112700160D01*
X92944964Y-112797061D01*
X92995124Y-112883940D01*
X93066060Y-112954876D01*
X93152939Y-113005036D01*
X93249840Y-113031000D01*
X93272553Y-113031000D01*
X92601810Y-113701740D01*
X92666590Y-113747099D01*
X92666592Y-113747100D01*
X92866715Y-113840419D01*
X92866729Y-113840424D01*
X93080013Y-113897573D01*
X93080023Y-113897575D01*
X93299999Y-113916821D01*
X93300001Y-113916821D01*
X93519976Y-113897575D01*
X93519986Y-113897573D01*
X93733270Y-113840424D01*
X93733284Y-113840419D01*
X93933407Y-113747100D01*
X93933417Y-113747094D01*
X93998188Y-113701741D01*
X93327448Y-113031000D01*
X93350160Y-113031000D01*
X93447061Y-113005036D01*
X93533940Y-112954876D01*
X93604876Y-112883940D01*
X93655036Y-112797061D01*
X93681000Y-112700160D01*
X93681000Y-112677447D01*
X94351741Y-113348188D01*
X94397094Y-113283417D01*
X94397100Y-113283407D01*
X94490419Y-113083284D01*
X94490424Y-113083270D01*
X94547573Y-112869986D01*
X94547575Y-112869976D01*
X94566821Y-112650000D01*
X94566821Y-112649999D01*
X94566821Y-112649997D01*
X99232677Y-112649997D01*
X99232677Y-112650002D01*
X99251929Y-112870062D01*
X99251930Y-112870070D01*
X99309104Y-113083445D01*
X99309105Y-113083447D01*
X99309106Y-113083450D01*
X99402346Y-113283405D01*
X99402466Y-113283662D01*
X99402468Y-113283666D01*
X99529170Y-113464615D01*
X99529175Y-113464621D01*
X99685378Y-113620824D01*
X99685384Y-113620829D01*
X99866333Y-113747531D01*
X99866335Y-113747532D01*
X99866338Y-113747534D01*
X100066550Y-113840894D01*
X100279932Y-113898070D01*
X100437123Y-113911822D01*
X100499998Y-113917323D01*
X100500000Y-113917323D01*
X100500002Y-113917323D01*
X100555017Y-113912509D01*
X100720068Y-113898070D01*
X100933450Y-113840894D01*
X101133662Y-113747534D01*
X101314620Y-113620826D01*
X101470826Y-113464620D01*
X101579093Y-113309998D01*
X102694532Y-113309998D01*
X102694532Y-113310001D01*
X102714364Y-113536686D01*
X102714366Y-113536697D01*
X102773258Y-113756488D01*
X102773261Y-113756497D01*
X102869431Y-113962732D01*
X102869432Y-113962734D01*
X102999954Y-114149141D01*
X103160858Y-114310045D01*
X103160861Y-114310047D01*
X103346624Y-114440118D01*
X103390248Y-114494693D01*
X103399500Y-114541692D01*
X103399500Y-114890754D01*
X103379815Y-114957793D01*
X103340778Y-114996181D01*
X103273436Y-115037877D01*
X103109020Y-115187761D01*
X102974943Y-115365308D01*
X102974938Y-115365316D01*
X102875775Y-115564461D01*
X102875769Y-115564476D01*
X102814885Y-115778462D01*
X102814884Y-115778464D01*
X102794357Y-115999999D01*
X102794357Y-116000000D01*
X102814884Y-116221535D01*
X102814885Y-116221537D01*
X102875769Y-116435523D01*
X102875775Y-116435538D01*
X102974938Y-116634683D01*
X102974943Y-116634691D01*
X103109020Y-116812238D01*
X103273437Y-116962123D01*
X103273439Y-116962125D01*
X103462595Y-117079245D01*
X103462597Y-117079246D01*
X103462599Y-117079247D01*
X103605587Y-117134641D01*
X103660988Y-117177213D01*
X103684579Y-117242979D01*
X103668868Y-117311060D01*
X103618844Y-117359839D01*
X103605587Y-117365893D01*
X103462833Y-117421196D01*
X103462818Y-117421204D01*
X103346672Y-117493117D01*
X103346671Y-117493118D01*
X104000000Y-118146446D01*
X104000001Y-118146446D01*
X104653327Y-117493118D01*
X104653326Y-117493117D01*
X104537181Y-117421203D01*
X104537175Y-117421200D01*
X104394412Y-117365894D01*
X104339010Y-117323321D01*
X104315420Y-117257554D01*
X104331131Y-117189474D01*
X104381155Y-117140695D01*
X104394398Y-117134646D01*
X104537401Y-117079247D01*
X104726562Y-116962124D01*
X104890981Y-116812236D01*
X105025058Y-116634689D01*
X105102469Y-116479228D01*
X105149972Y-116427991D01*
X105213469Y-116410500D01*
X106195267Y-116410500D01*
X106262306Y-116430185D01*
X106308061Y-116482989D01*
X106318005Y-116552147D01*
X106288980Y-116615703D01*
X106282948Y-116622181D01*
X105531286Y-117373843D01*
X105531284Y-117373845D01*
X105483933Y-117421196D01*
X105419481Y-117485647D01*
X105419480Y-117485649D01*
X105408415Y-117504815D01*
X105340423Y-117622580D01*
X105299499Y-117775308D01*
X105299499Y-117775310D01*
X105299499Y-117890365D01*
X105279814Y-117957404D01*
X105227010Y-118003159D01*
X105157852Y-118013103D01*
X105094296Y-117984078D01*
X105064499Y-117945637D01*
X105024633Y-117865577D01*
X105024631Y-117865574D01*
X105008860Y-117844691D01*
X104350000Y-118503553D01*
X104350000Y-118453922D01*
X104326148Y-118364905D01*
X104280070Y-118285095D01*
X104214905Y-118219930D01*
X104135095Y-118173852D01*
X104046078Y-118150000D01*
X103953922Y-118150000D01*
X103864905Y-118173852D01*
X103785095Y-118219930D01*
X103719930Y-118285095D01*
X103673852Y-118364905D01*
X103650000Y-118453922D01*
X103650000Y-118546078D01*
X103673852Y-118635095D01*
X103719930Y-118714905D01*
X103785095Y-118780070D01*
X103864905Y-118826148D01*
X103953922Y-118850000D01*
X104003553Y-118850000D01*
X103346671Y-119506880D01*
X103462823Y-119578798D01*
X103462824Y-119578799D01*
X103670195Y-119659135D01*
X103733290Y-119670929D01*
X103795571Y-119702597D01*
X103830845Y-119762909D01*
X103827912Y-119832717D01*
X103787703Y-119889857D01*
X103742599Y-119912593D01*
X103553511Y-119963258D01*
X103553502Y-119963261D01*
X103347267Y-120059431D01*
X103347265Y-120059432D01*
X103160858Y-120189954D01*
X102999954Y-120350858D01*
X102869432Y-120537265D01*
X102869431Y-120537267D01*
X102773261Y-120743502D01*
X102773258Y-120743511D01*
X102714366Y-120963302D01*
X102714364Y-120963313D01*
X102694532Y-121189998D01*
X102694532Y-121190001D01*
X102714364Y-121416686D01*
X102714366Y-121416697D01*
X102773258Y-121636488D01*
X102773261Y-121636497D01*
X102869431Y-121842732D01*
X102869432Y-121842734D01*
X102999954Y-122029141D01*
X103160858Y-122190045D01*
X103160861Y-122190047D01*
X103347266Y-122320568D01*
X103553504Y-122416739D01*
X103773308Y-122475635D01*
X103935230Y-122489801D01*
X103999998Y-122495468D01*
X104000000Y-122495468D01*
X104000002Y-122495468D01*
X104056673Y-122490509D01*
X104226692Y-122475635D01*
X104446496Y-122416739D01*
X104652734Y-122320568D01*
X104839139Y-122190047D01*
X105000047Y-122029139D01*
X105130568Y-121842734D01*
X105226739Y-121636496D01*
X105285635Y-121416692D01*
X105305468Y-121190000D01*
X105285635Y-120963308D01*
X105259847Y-120867066D01*
X105261510Y-120797217D01*
X105291939Y-120747294D01*
X105568226Y-120471008D01*
X105629546Y-120437525D01*
X105664154Y-120440000D01*
X106684314Y-120440000D01*
X106679920Y-120444394D01*
X106627259Y-120535606D01*
X106600000Y-120637339D01*
X106600000Y-120742661D01*
X106627259Y-120844394D01*
X106679920Y-120935606D01*
X106684314Y-120940000D01*
X105721128Y-120940000D01*
X105773730Y-121136317D01*
X105773734Y-121136326D01*
X105869865Y-121342482D01*
X106000342Y-121528820D01*
X106161179Y-121689657D01*
X106347517Y-121820134D01*
X106553673Y-121916265D01*
X106553682Y-121916269D01*
X106749999Y-121968872D01*
X106750000Y-121968871D01*
X106750000Y-121005686D01*
X106754394Y-121010080D01*
X106845606Y-121062741D01*
X106947339Y-121090000D01*
X107052661Y-121090000D01*
X107154394Y-121062741D01*
X107245606Y-121010080D01*
X107250000Y-121005686D01*
X107250000Y-121968872D01*
X107446317Y-121916269D01*
X107446326Y-121916265D01*
X107652482Y-121820134D01*
X107838820Y-121689657D01*
X107999657Y-121528820D01*
X108130134Y-121342482D01*
X108226265Y-121136326D01*
X108226269Y-121136317D01*
X108278872Y-120940000D01*
X107315686Y-120940000D01*
X107320080Y-120935606D01*
X107372741Y-120844394D01*
X107400000Y-120742661D01*
X107400000Y-120637339D01*
X107372741Y-120535606D01*
X107320080Y-120444394D01*
X107315686Y-120440000D01*
X108278872Y-120440000D01*
X108278872Y-120439999D01*
X108226269Y-120243682D01*
X108226265Y-120243673D01*
X108130134Y-120037517D01*
X107999657Y-119851179D01*
X107838820Y-119690342D01*
X107712047Y-119601574D01*
X107668422Y-119546997D01*
X107661230Y-119477498D01*
X107692752Y-119415144D01*
X107712047Y-119398424D01*
X107725471Y-119389024D01*
X107046447Y-118710000D01*
X107052661Y-118710000D01*
X107154394Y-118682741D01*
X107245606Y-118630080D01*
X107320080Y-118555606D01*
X107372741Y-118464394D01*
X107400000Y-118362661D01*
X107400000Y-118356447D01*
X108079024Y-119035471D01*
X108130136Y-118962478D01*
X108226264Y-118756331D01*
X108226269Y-118756317D01*
X108285139Y-118536610D01*
X108285141Y-118536599D01*
X108304966Y-118310002D01*
X108304966Y-118309997D01*
X108285141Y-118083400D01*
X108285139Y-118083389D01*
X108226269Y-117863682D01*
X108226264Y-117863668D01*
X108130136Y-117657521D01*
X108130132Y-117657513D01*
X108079025Y-117584526D01*
X107400000Y-118263551D01*
X107400000Y-118257339D01*
X107372741Y-118155606D01*
X107320080Y-118064394D01*
X107245606Y-117989920D01*
X107154394Y-117937259D01*
X107052661Y-117910000D01*
X107046446Y-117910000D01*
X107725472Y-117230974D01*
X107725078Y-117226468D01*
X107689132Y-117181498D01*
X107681938Y-117112000D01*
X107713461Y-117049645D01*
X107773691Y-117014231D01*
X107803880Y-117010500D01*
X112878883Y-117010500D01*
X112878899Y-117010501D01*
X112886495Y-117010501D01*
X113044606Y-117010501D01*
X113044609Y-117010501D01*
X113161707Y-116979124D01*
X113231556Y-116980787D01*
X113289419Y-117019949D01*
X113316923Y-117084178D01*
X113317800Y-117098899D01*
X113317800Y-117649930D01*
X113317799Y-117649948D01*
X113317799Y-117815654D01*
X113317798Y-117815654D01*
X113349355Y-117933425D01*
X113358723Y-117968385D01*
X113378800Y-118003159D01*
X113387658Y-118018500D01*
X113387659Y-118018504D01*
X113387660Y-118018504D01*
X113428873Y-118089889D01*
X113437779Y-118105314D01*
X113437781Y-118105317D01*
X113556649Y-118224185D01*
X113556655Y-118224190D01*
X119431090Y-124098625D01*
X119464575Y-124159948D01*
X119459591Y-124229640D01*
X119431091Y-124273987D01*
X119322860Y-124382218D01*
X119213371Y-124546079D01*
X119213364Y-124546092D01*
X119137950Y-124728160D01*
X119137947Y-124728170D01*
X119099500Y-124921456D01*
X119099500Y-124921459D01*
X119099500Y-126118541D01*
X119099500Y-126118543D01*
X119099499Y-126118543D01*
X119137947Y-126311829D01*
X119137950Y-126311839D01*
X119213364Y-126493907D01*
X119213371Y-126493920D01*
X119322860Y-126657781D01*
X119322863Y-126657785D01*
X119462214Y-126797136D01*
X119462218Y-126797139D01*
X119626079Y-126906628D01*
X119626092Y-126906635D01*
X119808160Y-126982049D01*
X119808165Y-126982051D01*
X119808169Y-126982051D01*
X119808170Y-126982052D01*
X120001456Y-127020500D01*
X120001459Y-127020500D01*
X120198543Y-127020500D01*
X120328582Y-126994632D01*
X120391835Y-126982051D01*
X120573914Y-126906632D01*
X120737782Y-126797139D01*
X120877139Y-126657782D01*
X120986632Y-126493914D01*
X121062051Y-126311835D01*
X121100500Y-126118543D01*
X121639499Y-126118543D01*
X121677947Y-126311829D01*
X121677950Y-126311839D01*
X121753364Y-126493907D01*
X121753371Y-126493920D01*
X121862860Y-126657781D01*
X121862863Y-126657785D01*
X122002214Y-126797136D01*
X122002218Y-126797139D01*
X122166079Y-126906628D01*
X122166092Y-126906635D01*
X122348160Y-126982049D01*
X122348165Y-126982051D01*
X122348169Y-126982051D01*
X122348170Y-126982052D01*
X122541456Y-127020500D01*
X122541459Y-127020500D01*
X122738543Y-127020500D01*
X122868582Y-126994632D01*
X122931835Y-126982051D01*
X123113914Y-126906632D01*
X123277782Y-126797139D01*
X123417139Y-126657782D01*
X123526632Y-126493914D01*
X123602051Y-126311835D01*
X123640500Y-126118543D01*
X124179499Y-126118543D01*
X124217947Y-126311829D01*
X124217950Y-126311839D01*
X124293364Y-126493907D01*
X124293371Y-126493920D01*
X124402860Y-126657781D01*
X124402863Y-126657785D01*
X124542214Y-126797136D01*
X124542218Y-126797139D01*
X124706079Y-126906628D01*
X124706092Y-126906635D01*
X124888160Y-126982049D01*
X124888165Y-126982051D01*
X124888169Y-126982051D01*
X124888170Y-126982052D01*
X125081456Y-127020500D01*
X125081459Y-127020500D01*
X125278543Y-127020500D01*
X125408582Y-126994632D01*
X125471835Y-126982051D01*
X125653914Y-126906632D01*
X125817782Y-126797139D01*
X125957139Y-126657782D01*
X126066632Y-126493914D01*
X126142051Y-126311835D01*
X126180500Y-126118543D01*
X126719499Y-126118543D01*
X126757947Y-126311829D01*
X126757950Y-126311839D01*
X126833364Y-126493907D01*
X126833371Y-126493920D01*
X126942860Y-126657781D01*
X126942863Y-126657785D01*
X127082214Y-126797136D01*
X127082218Y-126797139D01*
X127246079Y-126906628D01*
X127246092Y-126906635D01*
X127428160Y-126982049D01*
X127428165Y-126982051D01*
X127428169Y-126982051D01*
X127428170Y-126982052D01*
X127621456Y-127020500D01*
X127621459Y-127020500D01*
X127818543Y-127020500D01*
X127948582Y-126994632D01*
X128011835Y-126982051D01*
X128193914Y-126906632D01*
X128357782Y-126797139D01*
X128497139Y-126657782D01*
X128606632Y-126493914D01*
X128682051Y-126311835D01*
X128720500Y-126118543D01*
X129259499Y-126118543D01*
X129297947Y-126311829D01*
X129297950Y-126311839D01*
X129373364Y-126493907D01*
X129373371Y-126493920D01*
X129482860Y-126657781D01*
X129482863Y-126657785D01*
X129622214Y-126797136D01*
X129622218Y-126797139D01*
X129786079Y-126906628D01*
X129786092Y-126906635D01*
X129968160Y-126982049D01*
X129968165Y-126982051D01*
X129968169Y-126982051D01*
X129968170Y-126982052D01*
X130161456Y-127020500D01*
X130161459Y-127020500D01*
X130358543Y-127020500D01*
X130488582Y-126994632D01*
X130551835Y-126982051D01*
X130733914Y-126906632D01*
X130897782Y-126797139D01*
X131037139Y-126657782D01*
X131146632Y-126493914D01*
X131222051Y-126311835D01*
X131260500Y-126118543D01*
X131799499Y-126118543D01*
X131837947Y-126311829D01*
X131837950Y-126311839D01*
X131913364Y-126493907D01*
X131913371Y-126493920D01*
X132022860Y-126657781D01*
X132022863Y-126657785D01*
X132162214Y-126797136D01*
X132162218Y-126797139D01*
X132326079Y-126906628D01*
X132326092Y-126906635D01*
X132508160Y-126982049D01*
X132508165Y-126982051D01*
X132508169Y-126982051D01*
X132508170Y-126982052D01*
X132701456Y-127020500D01*
X132701459Y-127020500D01*
X132898543Y-127020500D01*
X133028582Y-126994632D01*
X133091835Y-126982051D01*
X133273914Y-126906632D01*
X133437782Y-126797139D01*
X133577139Y-126657782D01*
X133686632Y-126493914D01*
X133762051Y-126311835D01*
X133800500Y-126118543D01*
X134339499Y-126118543D01*
X134377947Y-126311829D01*
X134377950Y-126311839D01*
X134453364Y-126493907D01*
X134453371Y-126493920D01*
X134562860Y-126657781D01*
X134562863Y-126657785D01*
X134702214Y-126797136D01*
X134702218Y-126797139D01*
X134866079Y-126906628D01*
X134866092Y-126906635D01*
X135048160Y-126982049D01*
X135048165Y-126982051D01*
X135048169Y-126982051D01*
X135048170Y-126982052D01*
X135241456Y-127020500D01*
X135241459Y-127020500D01*
X135438543Y-127020500D01*
X135568582Y-126994632D01*
X135631835Y-126982051D01*
X135813914Y-126906632D01*
X135977782Y-126797139D01*
X136117139Y-126657782D01*
X136226632Y-126493914D01*
X136302051Y-126311835D01*
X136340500Y-126118541D01*
X136340500Y-124921459D01*
X136340500Y-124921456D01*
X136302052Y-124728170D01*
X136302051Y-124728169D01*
X136302051Y-124728165D01*
X136302049Y-124728160D01*
X136226635Y-124546092D01*
X136226628Y-124546079D01*
X136117139Y-124382218D01*
X136117136Y-124382214D01*
X135977785Y-124242863D01*
X135977781Y-124242860D01*
X135813920Y-124133371D01*
X135813907Y-124133364D01*
X135631839Y-124057950D01*
X135631829Y-124057947D01*
X135438543Y-124019500D01*
X135438541Y-124019500D01*
X135241459Y-124019500D01*
X135241457Y-124019500D01*
X135048170Y-124057947D01*
X135048160Y-124057950D01*
X134866092Y-124133364D01*
X134866079Y-124133371D01*
X134702218Y-124242860D01*
X134702214Y-124242863D01*
X134562863Y-124382214D01*
X134562860Y-124382218D01*
X134453371Y-124546079D01*
X134453364Y-124546092D01*
X134377950Y-124728160D01*
X134377947Y-124728170D01*
X134339500Y-124921456D01*
X134339500Y-124921459D01*
X134339500Y-126118541D01*
X134339500Y-126118543D01*
X134339499Y-126118543D01*
X133800500Y-126118543D01*
X133800500Y-126118541D01*
X133800500Y-124921459D01*
X133800500Y-124921456D01*
X133762052Y-124728170D01*
X133762051Y-124728169D01*
X133762051Y-124728165D01*
X133762049Y-124728160D01*
X133686635Y-124546092D01*
X133686628Y-124546079D01*
X133577139Y-124382218D01*
X133577136Y-124382214D01*
X133437785Y-124242863D01*
X133437781Y-124242860D01*
X133273920Y-124133371D01*
X133273907Y-124133364D01*
X133091839Y-124057950D01*
X133091829Y-124057947D01*
X132898543Y-124019500D01*
X132898541Y-124019500D01*
X132701459Y-124019500D01*
X132701457Y-124019500D01*
X132508170Y-124057947D01*
X132508160Y-124057950D01*
X132326092Y-124133364D01*
X132326079Y-124133371D01*
X132162218Y-124242860D01*
X132162214Y-124242863D01*
X132022863Y-124382214D01*
X132022860Y-124382218D01*
X131913371Y-124546079D01*
X131913364Y-124546092D01*
X131837950Y-124728160D01*
X131837947Y-124728170D01*
X131799500Y-124921456D01*
X131799500Y-124921459D01*
X131799500Y-126118541D01*
X131799500Y-126118543D01*
X131799499Y-126118543D01*
X131260500Y-126118543D01*
X131260500Y-126118541D01*
X131260500Y-124921459D01*
X131260500Y-124921456D01*
X131222052Y-124728170D01*
X131222051Y-124728169D01*
X131222051Y-124728165D01*
X131222049Y-124728160D01*
X131146635Y-124546092D01*
X131146628Y-124546079D01*
X131037139Y-124382218D01*
X131037136Y-124382214D01*
X130897785Y-124242863D01*
X130897781Y-124242860D01*
X130733920Y-124133371D01*
X130733907Y-124133364D01*
X130551839Y-124057950D01*
X130551829Y-124057947D01*
X130358543Y-124019500D01*
X130358541Y-124019500D01*
X130161459Y-124019500D01*
X130161457Y-124019500D01*
X129968170Y-124057947D01*
X129968160Y-124057950D01*
X129786092Y-124133364D01*
X129786079Y-124133371D01*
X129622218Y-124242860D01*
X129622214Y-124242863D01*
X129482863Y-124382214D01*
X129482860Y-124382218D01*
X129373371Y-124546079D01*
X129373364Y-124546092D01*
X129297950Y-124728160D01*
X129297947Y-124728170D01*
X129259500Y-124921456D01*
X129259500Y-124921459D01*
X129259500Y-126118541D01*
X129259500Y-126118543D01*
X129259499Y-126118543D01*
X128720500Y-126118543D01*
X128720500Y-126118541D01*
X128720500Y-124921459D01*
X128720500Y-124921456D01*
X128682052Y-124728170D01*
X128682051Y-124728169D01*
X128682051Y-124728165D01*
X128682049Y-124728160D01*
X128606635Y-124546092D01*
X128606628Y-124546079D01*
X128497139Y-124382218D01*
X128497136Y-124382214D01*
X128357785Y-124242863D01*
X128357781Y-124242860D01*
X128193920Y-124133371D01*
X128193907Y-124133364D01*
X128011839Y-124057950D01*
X128011829Y-124057947D01*
X127818543Y-124019500D01*
X127818541Y-124019500D01*
X127621459Y-124019500D01*
X127621457Y-124019500D01*
X127428170Y-124057947D01*
X127428160Y-124057950D01*
X127246092Y-124133364D01*
X127246079Y-124133371D01*
X127082218Y-124242860D01*
X127082214Y-124242863D01*
X126942863Y-124382214D01*
X126942860Y-124382218D01*
X126833371Y-124546079D01*
X126833364Y-124546092D01*
X126757950Y-124728160D01*
X126757947Y-124728170D01*
X126719500Y-124921456D01*
X126719500Y-124921459D01*
X126719500Y-126118541D01*
X126719500Y-126118543D01*
X126719499Y-126118543D01*
X126180500Y-126118543D01*
X126180500Y-126118541D01*
X126180500Y-124921459D01*
X126180500Y-124921456D01*
X126142052Y-124728170D01*
X126142051Y-124728169D01*
X126142051Y-124728165D01*
X126142049Y-124728160D01*
X126066635Y-124546092D01*
X126066628Y-124546079D01*
X125957139Y-124382218D01*
X125957136Y-124382214D01*
X125817785Y-124242863D01*
X125817781Y-124242860D01*
X125653920Y-124133371D01*
X125653907Y-124133364D01*
X125471839Y-124057950D01*
X125471829Y-124057947D01*
X125278543Y-124019500D01*
X125278541Y-124019500D01*
X125081459Y-124019500D01*
X125081457Y-124019500D01*
X124888170Y-124057947D01*
X124888160Y-124057950D01*
X124706092Y-124133364D01*
X124706079Y-124133371D01*
X124542218Y-124242860D01*
X124542214Y-124242863D01*
X124402863Y-124382214D01*
X124402860Y-124382218D01*
X124293371Y-124546079D01*
X124293364Y-124546092D01*
X124217950Y-124728160D01*
X124217947Y-124728170D01*
X124179500Y-124921456D01*
X124179500Y-124921459D01*
X124179500Y-126118541D01*
X124179500Y-126118543D01*
X124179499Y-126118543D01*
X123640500Y-126118543D01*
X123640500Y-126118541D01*
X123640500Y-124921459D01*
X123640500Y-124921456D01*
X123602052Y-124728170D01*
X123602051Y-124728169D01*
X123602051Y-124728165D01*
X123602049Y-124728160D01*
X123526635Y-124546092D01*
X123526628Y-124546079D01*
X123417139Y-124382218D01*
X123417136Y-124382214D01*
X123277785Y-124242863D01*
X123277781Y-124242860D01*
X123113920Y-124133371D01*
X123113907Y-124133364D01*
X122931839Y-124057950D01*
X122931829Y-124057947D01*
X122738543Y-124019500D01*
X122738541Y-124019500D01*
X122541459Y-124019500D01*
X122541457Y-124019500D01*
X122348170Y-124057947D01*
X122348160Y-124057950D01*
X122166092Y-124133364D01*
X122166079Y-124133371D01*
X122002218Y-124242860D01*
X122002214Y-124242863D01*
X121862863Y-124382214D01*
X121862860Y-124382218D01*
X121753371Y-124546079D01*
X121753364Y-124546092D01*
X121677950Y-124728160D01*
X121677947Y-124728170D01*
X121639500Y-124921456D01*
X121639500Y-124921459D01*
X121639500Y-126118541D01*
X121639500Y-126118543D01*
X121639499Y-126118543D01*
X121100500Y-126118543D01*
X121100500Y-126118541D01*
X121100500Y-124921459D01*
X121100500Y-124921456D01*
X121062052Y-124728170D01*
X121062051Y-124728169D01*
X121062051Y-124728165D01*
X121062049Y-124728160D01*
X120986635Y-124546092D01*
X120986628Y-124546079D01*
X120877139Y-124382218D01*
X120877136Y-124382214D01*
X120736819Y-124241897D01*
X120703334Y-124180574D01*
X120700500Y-124154216D01*
X120700500Y-124007359D01*
X120700501Y-124007346D01*
X120700501Y-123839245D01*
X120700501Y-123839244D01*
X120700501Y-123839243D01*
X120659577Y-123686515D01*
X120630639Y-123636395D01*
X120580520Y-123549584D01*
X120468716Y-123437780D01*
X120468715Y-123437779D01*
X120464385Y-123433449D01*
X120464374Y-123433439D01*
X114555119Y-117524184D01*
X114521634Y-117462861D01*
X114518800Y-117436503D01*
X114518800Y-116060001D01*
X116227704Y-116060001D01*
X116227899Y-116062486D01*
X116273718Y-116220198D01*
X116357314Y-116361552D01*
X116357321Y-116361561D01*
X116473438Y-116477678D01*
X116473447Y-116477685D01*
X116614803Y-116561282D01*
X116614806Y-116561283D01*
X116772504Y-116607099D01*
X116772510Y-116607100D01*
X116809350Y-116609999D01*
X116809366Y-116610000D01*
X117250000Y-116610000D01*
X117750000Y-116610000D01*
X118190634Y-116610000D01*
X118190649Y-116609999D01*
X118227489Y-116607100D01*
X118227495Y-116607099D01*
X118385193Y-116561283D01*
X118385196Y-116561282D01*
X118526552Y-116477685D01*
X118526561Y-116477678D01*
X118642678Y-116361561D01*
X118642685Y-116361552D01*
X118726281Y-116220198D01*
X118772100Y-116062486D01*
X118772295Y-116060001D01*
X118772295Y-116060000D01*
X117750000Y-116060000D01*
X117750000Y-116610000D01*
X117250000Y-116610000D01*
X117250000Y-116060000D01*
X116227705Y-116060000D01*
X116227704Y-116060001D01*
X114518800Y-116060001D01*
X114518800Y-111784298D01*
X116224500Y-111784298D01*
X116224500Y-112215701D01*
X116227401Y-112252567D01*
X116227402Y-112252573D01*
X116273254Y-112410393D01*
X116273255Y-112410396D01*
X116273256Y-112410398D01*
X116284807Y-112429929D01*
X116356917Y-112551862D01*
X116361702Y-112558031D01*
X116359256Y-112559927D01*
X116385857Y-112608642D01*
X116380873Y-112678334D01*
X116360069Y-112710703D01*
X116361702Y-112711969D01*
X116356917Y-112718137D01*
X116273255Y-112859603D01*
X116273254Y-112859606D01*
X116227402Y-113017426D01*
X116227401Y-113017432D01*
X116224500Y-113054298D01*
X116224500Y-113485701D01*
X116227401Y-113522567D01*
X116227402Y-113522573D01*
X116273254Y-113680393D01*
X116273255Y-113680396D01*
X116356917Y-113821862D01*
X116361702Y-113828031D01*
X116359256Y-113829927D01*
X116385857Y-113878642D01*
X116380873Y-113948334D01*
X116360069Y-113980703D01*
X116361702Y-113981969D01*
X116356917Y-113988137D01*
X116273255Y-114129603D01*
X116273254Y-114129606D01*
X116227402Y-114287426D01*
X116227401Y-114287432D01*
X116224500Y-114324298D01*
X116224500Y-114755701D01*
X116227401Y-114792567D01*
X116227402Y-114792573D01*
X116273254Y-114950393D01*
X116273255Y-114950396D01*
X116273256Y-114950398D01*
X116278829Y-114959822D01*
X116356917Y-115091862D01*
X116361702Y-115098031D01*
X116359369Y-115099840D01*
X116386210Y-115148995D01*
X116381226Y-115218687D01*
X116360470Y-115251021D01*
X116362097Y-115252283D01*
X116357313Y-115258449D01*
X116273718Y-115399801D01*
X116227899Y-115557513D01*
X116227704Y-115559998D01*
X116227705Y-115560000D01*
X118772295Y-115560000D01*
X118772295Y-115559998D01*
X118772100Y-115557513D01*
X118726281Y-115399801D01*
X118683594Y-115327621D01*
X118666411Y-115259897D01*
X118688571Y-115193635D01*
X118743037Y-115149871D01*
X118790326Y-115140500D01*
X122683331Y-115140500D01*
X122683347Y-115140501D01*
X122690943Y-115140501D01*
X122849054Y-115140501D01*
X122849057Y-115140501D01*
X123001785Y-115099577D01*
X123051904Y-115070639D01*
X123138716Y-115020520D01*
X123250520Y-114908716D01*
X123250520Y-114908714D01*
X123260728Y-114898507D01*
X123260730Y-114898504D01*
X127367294Y-110791939D01*
X127428615Y-110758456D01*
X127487066Y-110759847D01*
X127506604Y-110765082D01*
X127583308Y-110785635D01*
X127745230Y-110799801D01*
X127809998Y-110805468D01*
X127810000Y-110805468D01*
X127810002Y-110805468D01*
X127866673Y-110800509D01*
X128036692Y-110785635D01*
X128256496Y-110726739D01*
X128462734Y-110630568D01*
X128649139Y-110500047D01*
X128810047Y-110339139D01*
X128898426Y-110212919D01*
X128953001Y-110169295D01*
X129022499Y-110162101D01*
X129084854Y-110193623D01*
X129101570Y-110212915D01*
X129181816Y-110327518D01*
X129189955Y-110339142D01*
X129350858Y-110500045D01*
X129350861Y-110500047D01*
X129537266Y-110630568D01*
X129743504Y-110726739D01*
X129963308Y-110785635D01*
X130125230Y-110799801D01*
X130189998Y-110805468D01*
X130190000Y-110805468D01*
X130190002Y-110805468D01*
X130246673Y-110800509D01*
X130416692Y-110785635D01*
X130636496Y-110726739D01*
X130842734Y-110630568D01*
X131029139Y-110500047D01*
X131190047Y-110339139D01*
X131320568Y-110152734D01*
X131416739Y-109946496D01*
X131475635Y-109726692D01*
X131495468Y-109500000D01*
X131475635Y-109273308D01*
X131416739Y-109053504D01*
X131320568Y-108847266D01*
X131207315Y-108685523D01*
X131190045Y-108660858D01*
X131029141Y-108499954D01*
X130842734Y-108369432D01*
X130842732Y-108369431D01*
X130636497Y-108273261D01*
X130636488Y-108273258D01*
X130416697Y-108214366D01*
X130416693Y-108214365D01*
X130416692Y-108214365D01*
X130416691Y-108214364D01*
X130416686Y-108214364D01*
X130190002Y-108194532D01*
X130189998Y-108194532D01*
X129963313Y-108214364D01*
X129963302Y-108214366D01*
X129743511Y-108273258D01*
X129743502Y-108273261D01*
X129537267Y-108369431D01*
X129537265Y-108369432D01*
X129350858Y-108499954D01*
X129189954Y-108660858D01*
X129101575Y-108787079D01*
X129046999Y-108830704D01*
X128977500Y-108837898D01*
X128915145Y-108806376D01*
X128898425Y-108787079D01*
X128810045Y-108660858D01*
X128649141Y-108499954D01*
X128462734Y-108369432D01*
X128462732Y-108369431D01*
X128256497Y-108273261D01*
X128256488Y-108273258D01*
X128036697Y-108214366D01*
X128036693Y-108214365D01*
X128036692Y-108214365D01*
X128036691Y-108214364D01*
X128036686Y-108214364D01*
X127810002Y-108194532D01*
X127809998Y-108194532D01*
X127583313Y-108214364D01*
X127583302Y-108214366D01*
X127363511Y-108273258D01*
X127363502Y-108273261D01*
X127157267Y-108369431D01*
X127157265Y-108369432D01*
X126970858Y-108499954D01*
X126809954Y-108660858D01*
X126679432Y-108847265D01*
X126679431Y-108847267D01*
X126583261Y-109053502D01*
X126583258Y-109053511D01*
X126524366Y-109273302D01*
X126524364Y-109273313D01*
X126504532Y-109499998D01*
X126504532Y-109500001D01*
X126524364Y-109726686D01*
X126524366Y-109726697D01*
X126550152Y-109822931D01*
X126548489Y-109892781D01*
X126518058Y-109942705D01*
X122557584Y-113903181D01*
X122496261Y-113936666D01*
X122469903Y-113939500D01*
X118790907Y-113939500D01*
X118723868Y-113919815D01*
X118678113Y-113867011D01*
X118668169Y-113797853D01*
X118684175Y-113752380D01*
X118714122Y-113701740D01*
X118726744Y-113680398D01*
X118760505Y-113564191D01*
X118772597Y-113522573D01*
X118772598Y-113522567D01*
X118775499Y-113485701D01*
X118775500Y-113485694D01*
X118775500Y-113054306D01*
X118772598Y-113017431D01*
X118726744Y-112859602D01*
X118643081Y-112718135D01*
X118643078Y-112718132D01*
X118638298Y-112711969D01*
X118640750Y-112710066D01*
X118614155Y-112661421D01*
X118619104Y-112591726D01*
X118639940Y-112559304D01*
X118638298Y-112558031D01*
X118643075Y-112551870D01*
X118643081Y-112551865D01*
X118726744Y-112410398D01*
X118772598Y-112252569D01*
X118775500Y-112215694D01*
X118775500Y-111784306D01*
X118772598Y-111747431D01*
X118752767Y-111679174D01*
X118726745Y-111589606D01*
X118726744Y-111589603D01*
X118726744Y-111589602D01*
X118643081Y-111448135D01*
X118643079Y-111448133D01*
X118643076Y-111448129D01*
X118526870Y-111331923D01*
X118526862Y-111331917D01*
X118385396Y-111248255D01*
X118385393Y-111248254D01*
X118227573Y-111202402D01*
X118227567Y-111202401D01*
X118190701Y-111199500D01*
X118190694Y-111199500D01*
X116809306Y-111199500D01*
X116809298Y-111199500D01*
X116772432Y-111202401D01*
X116772426Y-111202402D01*
X116614606Y-111248254D01*
X116614603Y-111248255D01*
X116473137Y-111331917D01*
X116473129Y-111331923D01*
X116356923Y-111448129D01*
X116356917Y-111448137D01*
X116273255Y-111589603D01*
X116273254Y-111589606D01*
X116227402Y-111747426D01*
X116227401Y-111747432D01*
X116224500Y-111784298D01*
X114518800Y-111784298D01*
X114518800Y-109499998D01*
X118884532Y-109499998D01*
X118884532Y-109500001D01*
X118904364Y-109726686D01*
X118904366Y-109726697D01*
X118963258Y-109946488D01*
X118963261Y-109946497D01*
X119059431Y-110152732D01*
X119059432Y-110152734D01*
X119189954Y-110339141D01*
X119350858Y-110500045D01*
X119350861Y-110500047D01*
X119537266Y-110630568D01*
X119743504Y-110726739D01*
X119963308Y-110785635D01*
X120125230Y-110799801D01*
X120189998Y-110805468D01*
X120190000Y-110805468D01*
X120190002Y-110805468D01*
X120246673Y-110800509D01*
X120416692Y-110785635D01*
X120636496Y-110726739D01*
X120842734Y-110630568D01*
X121029139Y-110500047D01*
X121190047Y-110339139D01*
X121320568Y-110152734D01*
X121416739Y-109946496D01*
X121475635Y-109726692D01*
X121495468Y-109500000D01*
X121475635Y-109273308D01*
X121416739Y-109053504D01*
X121320568Y-108847266D01*
X121207315Y-108685523D01*
X121190045Y-108660858D01*
X121029141Y-108499954D01*
X120842739Y-108369435D01*
X120841327Y-108368620D01*
X120840829Y-108368098D01*
X120838300Y-108366327D01*
X120838656Y-108365818D01*
X120793113Y-108318051D01*
X120783558Y-108293334D01*
X120771947Y-108250000D01*
X120749577Y-108166515D01*
X120749575Y-108166511D01*
X120717113Y-108110285D01*
X120700500Y-108048285D01*
X120700500Y-107165784D01*
X120720185Y-107098745D01*
X120736819Y-107078103D01*
X120877136Y-106937785D01*
X120877139Y-106937782D01*
X120986632Y-106773914D01*
X121062051Y-106591835D01*
X121074656Y-106528464D01*
X121100500Y-106398543D01*
X121639499Y-106398543D01*
X121677947Y-106591829D01*
X121677950Y-106591839D01*
X121753364Y-106773907D01*
X121753371Y-106773920D01*
X121862860Y-106937781D01*
X121862863Y-106937785D01*
X122002214Y-107077136D01*
X122002218Y-107077139D01*
X122166079Y-107186628D01*
X122166092Y-107186635D01*
X122325814Y-107252793D01*
X122348165Y-107262051D01*
X122348169Y-107262051D01*
X122348170Y-107262052D01*
X122541456Y-107300500D01*
X122541459Y-107300500D01*
X122738543Y-107300500D01*
X122868582Y-107274632D01*
X122931835Y-107262051D01*
X123113914Y-107186632D01*
X123277782Y-107077139D01*
X123417139Y-106937782D01*
X123526632Y-106773914D01*
X123602051Y-106591835D01*
X123614656Y-106528464D01*
X123640500Y-106398543D01*
X124179499Y-106398543D01*
X124217947Y-106591829D01*
X124217950Y-106591839D01*
X124293364Y-106773907D01*
X124293371Y-106773920D01*
X124402860Y-106937781D01*
X124402863Y-106937785D01*
X124542214Y-107077136D01*
X124542218Y-107077139D01*
X124706079Y-107186628D01*
X124706092Y-107186635D01*
X124865814Y-107252793D01*
X124888165Y-107262051D01*
X124888169Y-107262051D01*
X124888170Y-107262052D01*
X125081456Y-107300500D01*
X125081459Y-107300500D01*
X125278543Y-107300500D01*
X125408582Y-107274632D01*
X125471835Y-107262051D01*
X125653914Y-107186632D01*
X125817782Y-107077139D01*
X125957139Y-106937782D01*
X126066632Y-106773914D01*
X126142051Y-106591835D01*
X126154656Y-106528464D01*
X126180500Y-106398543D01*
X126719499Y-106398543D01*
X126757947Y-106591829D01*
X126757950Y-106591839D01*
X126833364Y-106773907D01*
X126833371Y-106773920D01*
X126942860Y-106937781D01*
X126942863Y-106937785D01*
X127082214Y-107077136D01*
X127082218Y-107077139D01*
X127246079Y-107186628D01*
X127246092Y-107186635D01*
X127405814Y-107252793D01*
X127428165Y-107262051D01*
X127428169Y-107262051D01*
X127428170Y-107262052D01*
X127621456Y-107300500D01*
X127621459Y-107300500D01*
X127818543Y-107300500D01*
X127948582Y-107274632D01*
X128011835Y-107262051D01*
X128193914Y-107186632D01*
X128357782Y-107077139D01*
X128497139Y-106937782D01*
X128606632Y-106773914D01*
X128682051Y-106591835D01*
X128694656Y-106528464D01*
X128720500Y-106398543D01*
X129259499Y-106398543D01*
X129297947Y-106591829D01*
X129297950Y-106591839D01*
X129373364Y-106773907D01*
X129373371Y-106773920D01*
X129482860Y-106937781D01*
X129482863Y-106937785D01*
X129622214Y-107077136D01*
X129622218Y-107077139D01*
X129786079Y-107186628D01*
X129786092Y-107186635D01*
X129945814Y-107252793D01*
X129968165Y-107262051D01*
X129968169Y-107262051D01*
X129968170Y-107262052D01*
X130161456Y-107300500D01*
X130161459Y-107300500D01*
X130358543Y-107300500D01*
X130488582Y-107274632D01*
X130551835Y-107262051D01*
X130733914Y-107186632D01*
X130897782Y-107077139D01*
X131037139Y-106937782D01*
X131146632Y-106773914D01*
X131222051Y-106591835D01*
X131234656Y-106528464D01*
X131260500Y-106398543D01*
X131260500Y-105201456D01*
X131222052Y-105008170D01*
X131222051Y-105008169D01*
X131222051Y-105008165D01*
X131216839Y-104995581D01*
X131146635Y-104826092D01*
X131146628Y-104826079D01*
X131037139Y-104662218D01*
X131037136Y-104662214D01*
X130897785Y-104522863D01*
X130897781Y-104522860D01*
X130733920Y-104413371D01*
X130733907Y-104413364D01*
X130551839Y-104337950D01*
X130551829Y-104337947D01*
X130358543Y-104299500D01*
X130358541Y-104299500D01*
X130161459Y-104299500D01*
X130161457Y-104299500D01*
X129968170Y-104337947D01*
X129968160Y-104337950D01*
X129786092Y-104413364D01*
X129786079Y-104413371D01*
X129622218Y-104522860D01*
X129622214Y-104522863D01*
X129482863Y-104662214D01*
X129482860Y-104662218D01*
X129373371Y-104826079D01*
X129373364Y-104826092D01*
X129297950Y-105008160D01*
X129297947Y-105008170D01*
X129259500Y-105201456D01*
X129259500Y-105201459D01*
X129259500Y-106398541D01*
X129259500Y-106398543D01*
X129259499Y-106398543D01*
X128720500Y-106398543D01*
X128720500Y-105201456D01*
X128682052Y-105008170D01*
X128682051Y-105008169D01*
X128682051Y-105008165D01*
X128676839Y-104995581D01*
X128606635Y-104826092D01*
X128606628Y-104826079D01*
X128497139Y-104662218D01*
X128497136Y-104662214D01*
X128357785Y-104522863D01*
X128357781Y-104522860D01*
X128193920Y-104413371D01*
X128193907Y-104413364D01*
X128011839Y-104337950D01*
X128011829Y-104337947D01*
X127818543Y-104299500D01*
X127818541Y-104299500D01*
X127621459Y-104299500D01*
X127621457Y-104299500D01*
X127428170Y-104337947D01*
X127428160Y-104337950D01*
X127246092Y-104413364D01*
X127246079Y-104413371D01*
X127082218Y-104522860D01*
X127082214Y-104522863D01*
X126942863Y-104662214D01*
X126942860Y-104662218D01*
X126833371Y-104826079D01*
X126833364Y-104826092D01*
X126757950Y-105008160D01*
X126757947Y-105008170D01*
X126719500Y-105201456D01*
X126719500Y-105201459D01*
X126719500Y-106398541D01*
X126719500Y-106398543D01*
X126719499Y-106398543D01*
X126180500Y-106398543D01*
X126180500Y-105201456D01*
X126142052Y-105008170D01*
X126142051Y-105008169D01*
X126142051Y-105008165D01*
X126136839Y-104995581D01*
X126066635Y-104826092D01*
X126066628Y-104826079D01*
X125957139Y-104662218D01*
X125957136Y-104662214D01*
X125817785Y-104522863D01*
X125817781Y-104522860D01*
X125653920Y-104413371D01*
X125653907Y-104413364D01*
X125471839Y-104337950D01*
X125471829Y-104337947D01*
X125278543Y-104299500D01*
X125278541Y-104299500D01*
X125081459Y-104299500D01*
X125081457Y-104299500D01*
X124888170Y-104337947D01*
X124888160Y-104337950D01*
X124706092Y-104413364D01*
X124706079Y-104413371D01*
X124542218Y-104522860D01*
X124542214Y-104522863D01*
X124402863Y-104662214D01*
X124402860Y-104662218D01*
X124293371Y-104826079D01*
X124293364Y-104826092D01*
X124217950Y-105008160D01*
X124217947Y-105008170D01*
X124179500Y-105201456D01*
X124179500Y-105201459D01*
X124179500Y-106398541D01*
X124179500Y-106398543D01*
X124179499Y-106398543D01*
X123640500Y-106398543D01*
X123640500Y-105201456D01*
X123602052Y-105008170D01*
X123602051Y-105008169D01*
X123602051Y-105008165D01*
X123596839Y-104995581D01*
X123526635Y-104826092D01*
X123526628Y-104826079D01*
X123417139Y-104662218D01*
X123417136Y-104662214D01*
X123277785Y-104522863D01*
X123277781Y-104522860D01*
X123113920Y-104413371D01*
X123113907Y-104413364D01*
X122931839Y-104337950D01*
X122931829Y-104337947D01*
X122738543Y-104299500D01*
X122738541Y-104299500D01*
X122541459Y-104299500D01*
X122541457Y-104299500D01*
X122348170Y-104337947D01*
X122348160Y-104337950D01*
X122166092Y-104413364D01*
X122166079Y-104413371D01*
X122002218Y-104522860D01*
X122002214Y-104522863D01*
X121862863Y-104662214D01*
X121862860Y-104662218D01*
X121753371Y-104826079D01*
X121753364Y-104826092D01*
X121677950Y-105008160D01*
X121677947Y-105008170D01*
X121639500Y-105201456D01*
X121639500Y-105201459D01*
X121639500Y-106398541D01*
X121639500Y-106398543D01*
X121639499Y-106398543D01*
X121100500Y-106398543D01*
X121100500Y-105201456D01*
X121062052Y-105008170D01*
X121062051Y-105008169D01*
X121062051Y-105008165D01*
X121056839Y-104995581D01*
X120986635Y-104826092D01*
X120986628Y-104826079D01*
X120877139Y-104662218D01*
X120877136Y-104662214D01*
X120737785Y-104522863D01*
X120737781Y-104522860D01*
X120573920Y-104413371D01*
X120573907Y-104413364D01*
X120391839Y-104337950D01*
X120391829Y-104337947D01*
X120198543Y-104299500D01*
X120198541Y-104299500D01*
X120001459Y-104299500D01*
X120001457Y-104299500D01*
X119808170Y-104337947D01*
X119808160Y-104337950D01*
X119626092Y-104413364D01*
X119626079Y-104413371D01*
X119462218Y-104522860D01*
X119462214Y-104522863D01*
X119322863Y-104662214D01*
X119322860Y-104662218D01*
X119213371Y-104826079D01*
X119213364Y-104826092D01*
X119137950Y-105008160D01*
X119137947Y-105008170D01*
X119099500Y-105201456D01*
X119099500Y-105201459D01*
X119099500Y-106398541D01*
X119099500Y-106398543D01*
X119099499Y-106398543D01*
X119137947Y-106591829D01*
X119137950Y-106591839D01*
X119213364Y-106773907D01*
X119213371Y-106773920D01*
X119322860Y-106937781D01*
X119322863Y-106937785D01*
X119463181Y-107078103D01*
X119496666Y-107139426D01*
X119499500Y-107165784D01*
X119499500Y-108221630D01*
X119499499Y-108221648D01*
X119499499Y-108331325D01*
X119479814Y-108398364D01*
X119446622Y-108432900D01*
X119350859Y-108499953D01*
X119189954Y-108660858D01*
X119059432Y-108847265D01*
X119059431Y-108847267D01*
X118963261Y-109053502D01*
X118963258Y-109053511D01*
X118904366Y-109273302D01*
X118904364Y-109273313D01*
X118884532Y-109499998D01*
X114518800Y-109499998D01*
X114518800Y-107360908D01*
X114538485Y-107293869D01*
X114591289Y-107248114D01*
X114660447Y-107238170D01*
X114690249Y-107246346D01*
X114728165Y-107262051D01*
X114728169Y-107262051D01*
X114728170Y-107262052D01*
X114921456Y-107300500D01*
X114921459Y-107300500D01*
X115118543Y-107300500D01*
X115248582Y-107274632D01*
X115311835Y-107262051D01*
X115493914Y-107186632D01*
X115657782Y-107077139D01*
X115797139Y-106937782D01*
X115906632Y-106773914D01*
X115982051Y-106591835D01*
X115994656Y-106528464D01*
X116020500Y-106398543D01*
X116559499Y-106398543D01*
X116597947Y-106591829D01*
X116597950Y-106591839D01*
X116673364Y-106773907D01*
X116673371Y-106773920D01*
X116782860Y-106937781D01*
X116782863Y-106937785D01*
X116922214Y-107077136D01*
X116922218Y-107077139D01*
X117086079Y-107186628D01*
X117086092Y-107186635D01*
X117245814Y-107252793D01*
X117268165Y-107262051D01*
X117268169Y-107262051D01*
X117268170Y-107262052D01*
X117461456Y-107300500D01*
X117461459Y-107300500D01*
X117658543Y-107300500D01*
X117788582Y-107274632D01*
X117851835Y-107262051D01*
X118033914Y-107186632D01*
X118197782Y-107077139D01*
X118337139Y-106937782D01*
X118446632Y-106773914D01*
X118522051Y-106591835D01*
X118534656Y-106528464D01*
X118560500Y-106398543D01*
X118560500Y-105201456D01*
X118522052Y-105008170D01*
X118522051Y-105008169D01*
X118522051Y-105008165D01*
X118516839Y-104995581D01*
X118446635Y-104826092D01*
X118446628Y-104826079D01*
X118337139Y-104662218D01*
X118337136Y-104662214D01*
X118197785Y-104522863D01*
X118197781Y-104522860D01*
X118033920Y-104413371D01*
X118033907Y-104413364D01*
X117851839Y-104337950D01*
X117851829Y-104337947D01*
X117658543Y-104299500D01*
X117658541Y-104299500D01*
X117461459Y-104299500D01*
X117461457Y-104299500D01*
X117268170Y-104337947D01*
X117268160Y-104337950D01*
X117086092Y-104413364D01*
X117086079Y-104413371D01*
X116922218Y-104522860D01*
X116922214Y-104522863D01*
X116782863Y-104662214D01*
X116782860Y-104662218D01*
X116673371Y-104826079D01*
X116673364Y-104826092D01*
X116597950Y-105008160D01*
X116597947Y-105008170D01*
X116559500Y-105201456D01*
X116559500Y-105201459D01*
X116559500Y-106398541D01*
X116559500Y-106398543D01*
X116559499Y-106398543D01*
X116020500Y-106398543D01*
X116020500Y-105201456D01*
X115982052Y-105008170D01*
X115982051Y-105008169D01*
X115982051Y-105008165D01*
X115976839Y-104995581D01*
X115906635Y-104826092D01*
X115906628Y-104826079D01*
X115797139Y-104662218D01*
X115797136Y-104662214D01*
X115657785Y-104522863D01*
X115657781Y-104522860D01*
X115493920Y-104413371D01*
X115493907Y-104413364D01*
X115311839Y-104337950D01*
X115311829Y-104337947D01*
X115118543Y-104299500D01*
X115118541Y-104299500D01*
X114921459Y-104299500D01*
X114921457Y-104299500D01*
X114728170Y-104337947D01*
X114728164Y-104337949D01*
X114690251Y-104353653D01*
X114620781Y-104361120D01*
X114558303Y-104329844D01*
X114522651Y-104269755D01*
X114518800Y-104239091D01*
X114518800Y-99674402D01*
X130507000Y-99674402D01*
X130507000Y-99910597D01*
X130543946Y-100143868D01*
X130616933Y-100368496D01*
X130724024Y-100578671D01*
X130724157Y-100578933D01*
X130862983Y-100770010D01*
X131029990Y-100937017D01*
X131221067Y-101075843D01*
X131290993Y-101111472D01*
X131431507Y-101183068D01*
X131431513Y-101183070D01*
X131507813Y-101207861D01*
X131565489Y-101247298D01*
X131589270Y-101293696D01*
X131597922Y-101325983D01*
X131626858Y-101376100D01*
X131626859Y-101376104D01*
X131626860Y-101376104D01*
X131676979Y-101462914D01*
X131676981Y-101462917D01*
X131795849Y-101581785D01*
X131795855Y-101581790D01*
X133433181Y-103219116D01*
X133466666Y-103280439D01*
X133469500Y-103306797D01*
X133469500Y-104312066D01*
X133449815Y-104379105D01*
X133397011Y-104424860D01*
X133327853Y-104434804D01*
X133279309Y-104416203D01*
X133279289Y-104416241D01*
X133278988Y-104416080D01*
X133276610Y-104415169D01*
X133273918Y-104413370D01*
X133273907Y-104413364D01*
X133091839Y-104337950D01*
X133091829Y-104337947D01*
X132898543Y-104299500D01*
X132898541Y-104299500D01*
X132701459Y-104299500D01*
X132701457Y-104299500D01*
X132508170Y-104337947D01*
X132508160Y-104337950D01*
X132326092Y-104413364D01*
X132326079Y-104413371D01*
X132162218Y-104522860D01*
X132162214Y-104522863D01*
X132022863Y-104662214D01*
X132022860Y-104662218D01*
X131913371Y-104826079D01*
X131913364Y-104826092D01*
X131837950Y-105008160D01*
X131837947Y-105008170D01*
X131799500Y-105201456D01*
X131799500Y-105201459D01*
X131799500Y-106398541D01*
X131799500Y-106398543D01*
X131799499Y-106398543D01*
X131837947Y-106591829D01*
X131837950Y-106591839D01*
X131913364Y-106773907D01*
X131913371Y-106773920D01*
X132022860Y-106937781D01*
X132022863Y-106937785D01*
X132162214Y-107077136D01*
X132162218Y-107077139D01*
X132326079Y-107186628D01*
X132326092Y-107186635D01*
X132485814Y-107252793D01*
X132508165Y-107262051D01*
X132508169Y-107262051D01*
X132508170Y-107262052D01*
X132701456Y-107300500D01*
X132701459Y-107300500D01*
X132898543Y-107300500D01*
X133028582Y-107274632D01*
X133091835Y-107262051D01*
X133273914Y-107186632D01*
X133276602Y-107184835D01*
X133278226Y-107184326D01*
X133279289Y-107183759D01*
X133279396Y-107183960D01*
X133343276Y-107163953D01*
X133410658Y-107182432D01*
X133457353Y-107234407D01*
X133469500Y-107287933D01*
X133469500Y-120021630D01*
X133469499Y-120021648D01*
X133469499Y-120187354D01*
X133469498Y-120187354D01*
X133510422Y-120340081D01*
X133510425Y-120340089D01*
X133516647Y-120350865D01*
X133589477Y-120477012D01*
X133589481Y-120477017D01*
X133708349Y-120595885D01*
X133708355Y-120595890D01*
X137211090Y-124098625D01*
X137244575Y-124159948D01*
X137239591Y-124229640D01*
X137211091Y-124273987D01*
X137102860Y-124382218D01*
X136993371Y-124546079D01*
X136993364Y-124546092D01*
X136917950Y-124728160D01*
X136917947Y-124728170D01*
X136879500Y-124921456D01*
X136879500Y-124921459D01*
X136879500Y-126118541D01*
X136879500Y-126118543D01*
X136879499Y-126118543D01*
X136917947Y-126311829D01*
X136917950Y-126311839D01*
X136993364Y-126493907D01*
X136993371Y-126493920D01*
X137102860Y-126657781D01*
X137102863Y-126657785D01*
X137242214Y-126797136D01*
X137242218Y-126797139D01*
X137406079Y-126906628D01*
X137406092Y-126906635D01*
X137588160Y-126982049D01*
X137588165Y-126982051D01*
X137588169Y-126982051D01*
X137588170Y-126982052D01*
X137781456Y-127020500D01*
X137781459Y-127020500D01*
X137978543Y-127020500D01*
X138108582Y-126994632D01*
X138171835Y-126982051D01*
X138353914Y-126906632D01*
X138517782Y-126797139D01*
X138657139Y-126657782D01*
X138766632Y-126493914D01*
X138842051Y-126311835D01*
X138880500Y-126118543D01*
X139419499Y-126118543D01*
X139457947Y-126311829D01*
X139457950Y-126311839D01*
X139533364Y-126493907D01*
X139533371Y-126493920D01*
X139642860Y-126657781D01*
X139642863Y-126657785D01*
X139782214Y-126797136D01*
X139782218Y-126797139D01*
X139946079Y-126906628D01*
X139946092Y-126906635D01*
X140128160Y-126982049D01*
X140128165Y-126982051D01*
X140128169Y-126982051D01*
X140128170Y-126982052D01*
X140321456Y-127020500D01*
X140321459Y-127020500D01*
X140518543Y-127020500D01*
X140648582Y-126994632D01*
X140711835Y-126982051D01*
X140893914Y-126906632D01*
X141057782Y-126797139D01*
X141197139Y-126657782D01*
X141306632Y-126493914D01*
X141382051Y-126311835D01*
X141420500Y-126118543D01*
X141959499Y-126118543D01*
X141997947Y-126311829D01*
X141997950Y-126311839D01*
X142073364Y-126493907D01*
X142073371Y-126493920D01*
X142182860Y-126657781D01*
X142182863Y-126657785D01*
X142322214Y-126797136D01*
X142322218Y-126797139D01*
X142486079Y-126906628D01*
X142486092Y-126906635D01*
X142668160Y-126982049D01*
X142668165Y-126982051D01*
X142668169Y-126982051D01*
X142668170Y-126982052D01*
X142861456Y-127020500D01*
X142861459Y-127020500D01*
X143058543Y-127020500D01*
X143188582Y-126994632D01*
X143251835Y-126982051D01*
X143433914Y-126906632D01*
X143597782Y-126797139D01*
X143737139Y-126657782D01*
X143846632Y-126493914D01*
X143922051Y-126311835D01*
X143960500Y-126118541D01*
X143960500Y-124921459D01*
X143960500Y-124921456D01*
X143922052Y-124728170D01*
X143922051Y-124728169D01*
X143922051Y-124728165D01*
X143922049Y-124728160D01*
X143846635Y-124546092D01*
X143846628Y-124546079D01*
X143737139Y-124382218D01*
X143737136Y-124382214D01*
X143597785Y-124242863D01*
X143597781Y-124242860D01*
X143433920Y-124133371D01*
X143433907Y-124133364D01*
X143251839Y-124057950D01*
X143251829Y-124057947D01*
X143058543Y-124019500D01*
X143058541Y-124019500D01*
X142861459Y-124019500D01*
X142861457Y-124019500D01*
X142668170Y-124057947D01*
X142668160Y-124057950D01*
X142486092Y-124133364D01*
X142486079Y-124133371D01*
X142322218Y-124242860D01*
X142322214Y-124242863D01*
X142182863Y-124382214D01*
X142182860Y-124382218D01*
X142073371Y-124546079D01*
X142073364Y-124546092D01*
X141997950Y-124728160D01*
X141997947Y-124728170D01*
X141959500Y-124921456D01*
X141959500Y-124921459D01*
X141959500Y-126118541D01*
X141959500Y-126118543D01*
X141959499Y-126118543D01*
X141420500Y-126118543D01*
X141420500Y-126118541D01*
X141420500Y-124921459D01*
X141420500Y-124921456D01*
X141382052Y-124728170D01*
X141382051Y-124728169D01*
X141382051Y-124728165D01*
X141382049Y-124728160D01*
X141306635Y-124546092D01*
X141306628Y-124546079D01*
X141197139Y-124382218D01*
X141197136Y-124382214D01*
X141057785Y-124242863D01*
X141057781Y-124242860D01*
X140893920Y-124133371D01*
X140893907Y-124133364D01*
X140711839Y-124057950D01*
X140711829Y-124057947D01*
X140518543Y-124019500D01*
X140518541Y-124019500D01*
X140321459Y-124019500D01*
X140321457Y-124019500D01*
X140128170Y-124057947D01*
X140128160Y-124057950D01*
X139946092Y-124133364D01*
X139946079Y-124133371D01*
X139782218Y-124242860D01*
X139782214Y-124242863D01*
X139642863Y-124382214D01*
X139642860Y-124382218D01*
X139533371Y-124546079D01*
X139533364Y-124546092D01*
X139457950Y-124728160D01*
X139457947Y-124728170D01*
X139419500Y-124921456D01*
X139419500Y-124921459D01*
X139419500Y-126118541D01*
X139419500Y-126118543D01*
X139419499Y-126118543D01*
X138880500Y-126118543D01*
X138880500Y-126118541D01*
X138880500Y-124921459D01*
X138880500Y-124921456D01*
X138842052Y-124728170D01*
X138842051Y-124728169D01*
X138842051Y-124728165D01*
X138842049Y-124728160D01*
X138766635Y-124546092D01*
X138766628Y-124546079D01*
X138657139Y-124382218D01*
X138657136Y-124382214D01*
X138516819Y-124241897D01*
X138483334Y-124180574D01*
X138480500Y-124154216D01*
X138480500Y-124007360D01*
X138480501Y-124007347D01*
X138480501Y-123839244D01*
X138439576Y-123686514D01*
X138439573Y-123686509D01*
X138360524Y-123549590D01*
X138360521Y-123549586D01*
X138360520Y-123549584D01*
X134706819Y-119895883D01*
X134673334Y-119834560D01*
X134670500Y-119808202D01*
X134670500Y-109249999D01*
X136531127Y-109249999D01*
X136531128Y-109250000D01*
X137494314Y-109250000D01*
X137489920Y-109254394D01*
X137437259Y-109345606D01*
X137410000Y-109447339D01*
X137410000Y-109552661D01*
X137437259Y-109654394D01*
X137489920Y-109745606D01*
X137494314Y-109750000D01*
X136531128Y-109750000D01*
X136583730Y-109946317D01*
X136583734Y-109946326D01*
X136679865Y-110152482D01*
X136810342Y-110338820D01*
X136971179Y-110499657D01*
X137157517Y-110630134D01*
X137363673Y-110726265D01*
X137363682Y-110726269D01*
X137559999Y-110778872D01*
X137560000Y-110778871D01*
X137560000Y-109815686D01*
X137564394Y-109820080D01*
X137655606Y-109872741D01*
X137757339Y-109900000D01*
X137862661Y-109900000D01*
X137964394Y-109872741D01*
X138055606Y-109820080D01*
X138060000Y-109815686D01*
X138060000Y-110778872D01*
X138256317Y-110726269D01*
X138256326Y-110726265D01*
X138462482Y-110630134D01*
X138648820Y-110499657D01*
X138809657Y-110338820D01*
X138940134Y-110152482D01*
X139036265Y-109946326D01*
X139036269Y-109946317D01*
X139088872Y-109750000D01*
X138125686Y-109750000D01*
X138130080Y-109745606D01*
X138182741Y-109654394D01*
X138210000Y-109552661D01*
X138210000Y-109447339D01*
X138182741Y-109345606D01*
X138130080Y-109254394D01*
X138125686Y-109250000D01*
X139088872Y-109250000D01*
X139088872Y-109249999D01*
X139036269Y-109053682D01*
X139036265Y-109053673D01*
X138940134Y-108847517D01*
X138809657Y-108661179D01*
X138648820Y-108500342D01*
X138462482Y-108369865D01*
X138256328Y-108273734D01*
X138060000Y-108221127D01*
X138060000Y-109184314D01*
X138055606Y-109179920D01*
X137964394Y-109127259D01*
X137862661Y-109100000D01*
X137757339Y-109100000D01*
X137655606Y-109127259D01*
X137564394Y-109179920D01*
X137560000Y-109184314D01*
X137560000Y-108221127D01*
X137363671Y-108273734D01*
X137157517Y-108369865D01*
X136971179Y-108500342D01*
X136810342Y-108661179D01*
X136679865Y-108847517D01*
X136583734Y-109053673D01*
X136583730Y-109053682D01*
X136531127Y-109249999D01*
X134670500Y-109249999D01*
X134670500Y-107287933D01*
X134690185Y-107220894D01*
X134742989Y-107175139D01*
X134812147Y-107165195D01*
X134860690Y-107183797D01*
X134860711Y-107183759D01*
X134861021Y-107183924D01*
X134863396Y-107184835D01*
X134866080Y-107186628D01*
X134866086Y-107186632D01*
X134866092Y-107186635D01*
X135025814Y-107252793D01*
X135048165Y-107262051D01*
X135048169Y-107262051D01*
X135048170Y-107262052D01*
X135241456Y-107300500D01*
X135241459Y-107300500D01*
X135438543Y-107300500D01*
X135568582Y-107274632D01*
X135631835Y-107262051D01*
X135813914Y-107186632D01*
X135977782Y-107077139D01*
X136117139Y-106937782D01*
X136226632Y-106773914D01*
X136302051Y-106591835D01*
X136314656Y-106528464D01*
X136340500Y-106398543D01*
X136879499Y-106398543D01*
X136917947Y-106591829D01*
X136917950Y-106591839D01*
X136993364Y-106773907D01*
X136993371Y-106773920D01*
X137102860Y-106937781D01*
X137102863Y-106937785D01*
X137242214Y-107077136D01*
X137242218Y-107077139D01*
X137406079Y-107186628D01*
X137406092Y-107186635D01*
X137565814Y-107252793D01*
X137588165Y-107262051D01*
X137588169Y-107262051D01*
X137588170Y-107262052D01*
X137781456Y-107300500D01*
X137781459Y-107300500D01*
X137978543Y-107300500D01*
X138108582Y-107274632D01*
X138171835Y-107262051D01*
X138353914Y-107186632D01*
X138517782Y-107077139D01*
X138657139Y-106937782D01*
X138766632Y-106773914D01*
X138842051Y-106591835D01*
X138854656Y-106528464D01*
X138880500Y-106398543D01*
X139419499Y-106398543D01*
X139457947Y-106591829D01*
X139457950Y-106591839D01*
X139533364Y-106773907D01*
X139533371Y-106773920D01*
X139642860Y-106937781D01*
X139642863Y-106937785D01*
X139782214Y-107077136D01*
X139782218Y-107077139D01*
X139946079Y-107186628D01*
X139946092Y-107186635D01*
X140105814Y-107252793D01*
X140128165Y-107262051D01*
X140128169Y-107262051D01*
X140128170Y-107262052D01*
X140321456Y-107300500D01*
X140321459Y-107300500D01*
X140518543Y-107300500D01*
X140648582Y-107274632D01*
X140711835Y-107262051D01*
X140893914Y-107186632D01*
X141057782Y-107077139D01*
X141197139Y-106937782D01*
X141306632Y-106773914D01*
X141382051Y-106591835D01*
X141394656Y-106528464D01*
X141420500Y-106398543D01*
X141959499Y-106398543D01*
X141997947Y-106591829D01*
X141997950Y-106591839D01*
X142073364Y-106773907D01*
X142073371Y-106773920D01*
X142182860Y-106937781D01*
X142182863Y-106937785D01*
X142322214Y-107077136D01*
X142322218Y-107077139D01*
X142486079Y-107186628D01*
X142486092Y-107186635D01*
X142645814Y-107252793D01*
X142668165Y-107262051D01*
X142668169Y-107262051D01*
X142668170Y-107262052D01*
X142861456Y-107300500D01*
X142861459Y-107300500D01*
X143058543Y-107300500D01*
X143188582Y-107274632D01*
X143251835Y-107262051D01*
X143433914Y-107186632D01*
X143597782Y-107077139D01*
X143737139Y-106937782D01*
X143846632Y-106773914D01*
X143922051Y-106591835D01*
X143958034Y-106410937D01*
X143990419Y-106349027D01*
X144051134Y-106314453D01*
X144120904Y-106318192D01*
X144177576Y-106359059D01*
X144202124Y-106415731D01*
X144232009Y-106604417D01*
X144295244Y-106799031D01*
X144388140Y-106981349D01*
X144508417Y-107146894D01*
X144508417Y-107146895D01*
X144653104Y-107291582D01*
X144818650Y-107411859D01*
X145000968Y-107504754D01*
X145195578Y-107567988D01*
X145250000Y-107576607D01*
X145250000Y-105933012D01*
X145307007Y-105965925D01*
X145434174Y-106000000D01*
X145565826Y-106000000D01*
X145692993Y-105965925D01*
X145750000Y-105933012D01*
X145750000Y-107576606D01*
X145804421Y-107567988D01*
X145999031Y-107504754D01*
X146181349Y-107411859D01*
X146346894Y-107291582D01*
X146346895Y-107291582D01*
X146491582Y-107146895D01*
X146491582Y-107146894D01*
X146611859Y-106981349D01*
X146704755Y-106799031D01*
X146767990Y-106604417D01*
X146797875Y-106415731D01*
X146827804Y-106352596D01*
X146887116Y-106315665D01*
X146956978Y-106316663D01*
X147015211Y-106355273D01*
X147041965Y-106410937D01*
X147077947Y-106591829D01*
X147077950Y-106591839D01*
X147153364Y-106773907D01*
X147153371Y-106773920D01*
X147262860Y-106937781D01*
X147262863Y-106937785D01*
X147402214Y-107077136D01*
X147402218Y-107077139D01*
X147566079Y-107186628D01*
X147566092Y-107186635D01*
X147725814Y-107252793D01*
X147748165Y-107262051D01*
X147748169Y-107262051D01*
X147748170Y-107262052D01*
X147941456Y-107300500D01*
X147941459Y-107300500D01*
X148138543Y-107300500D01*
X148268582Y-107274632D01*
X148331835Y-107262051D01*
X148513914Y-107186632D01*
X148677782Y-107077139D01*
X148817139Y-106937782D01*
X148926632Y-106773914D01*
X149002051Y-106591835D01*
X149014656Y-106528464D01*
X149040500Y-106398543D01*
X149579499Y-106398543D01*
X149617947Y-106591829D01*
X149617950Y-106591839D01*
X149693364Y-106773907D01*
X149693371Y-106773920D01*
X149802860Y-106937781D01*
X149802863Y-106937785D01*
X149942214Y-107077136D01*
X149942218Y-107077139D01*
X150106079Y-107186628D01*
X150106092Y-107186635D01*
X150265814Y-107252793D01*
X150288165Y-107262051D01*
X150288169Y-107262051D01*
X150288170Y-107262052D01*
X150481456Y-107300500D01*
X150481459Y-107300500D01*
X150678543Y-107300500D01*
X150808582Y-107274632D01*
X150871835Y-107262051D01*
X151053914Y-107186632D01*
X151217782Y-107077139D01*
X151357139Y-106937782D01*
X151466632Y-106773914D01*
X151542051Y-106591835D01*
X151554656Y-106528464D01*
X151580500Y-106398543D01*
X151580500Y-105201456D01*
X151542052Y-105008170D01*
X151542051Y-105008169D01*
X151542051Y-105008165D01*
X151536839Y-104995581D01*
X151466635Y-104826092D01*
X151466628Y-104826079D01*
X151379531Y-104695730D01*
X152119500Y-104695730D01*
X152119500Y-106904269D01*
X152122353Y-106934699D01*
X152122353Y-106934701D01*
X152161097Y-107045421D01*
X152167207Y-107062882D01*
X152247850Y-107172150D01*
X152357118Y-107252793D01*
X152383573Y-107262050D01*
X152485299Y-107297646D01*
X152515730Y-107300500D01*
X152515734Y-107300500D01*
X153724270Y-107300500D01*
X153754699Y-107297646D01*
X153754701Y-107297646D01*
X153818790Y-107275219D01*
X153882882Y-107252793D01*
X153992150Y-107172150D01*
X154072793Y-107062882D01*
X154103323Y-106975633D01*
X154117646Y-106934701D01*
X154117646Y-106934699D01*
X154120500Y-106904269D01*
X154120500Y-104695730D01*
X154117646Y-104665300D01*
X154117646Y-104665298D01*
X154078903Y-104554579D01*
X154072793Y-104537118D01*
X153992150Y-104427850D01*
X153882882Y-104347207D01*
X153882880Y-104347206D01*
X153754700Y-104302353D01*
X153724270Y-104299500D01*
X153724266Y-104299500D01*
X152515734Y-104299500D01*
X152515730Y-104299500D01*
X152485300Y-104302353D01*
X152485298Y-104302353D01*
X152357119Y-104347206D01*
X152357117Y-104347207D01*
X152247850Y-104427850D01*
X152167207Y-104537117D01*
X152167206Y-104537119D01*
X152122353Y-104665298D01*
X152122353Y-104665300D01*
X152119500Y-104695730D01*
X151379531Y-104695730D01*
X151357139Y-104662218D01*
X151357136Y-104662214D01*
X151217785Y-104522863D01*
X151217781Y-104522860D01*
X151053920Y-104413371D01*
X151053907Y-104413364D01*
X150871839Y-104337950D01*
X150871829Y-104337947D01*
X150678543Y-104299500D01*
X150678541Y-104299500D01*
X150481459Y-104299500D01*
X150481457Y-104299500D01*
X150288170Y-104337947D01*
X150288160Y-104337950D01*
X150106092Y-104413364D01*
X150106079Y-104413371D01*
X149942218Y-104522860D01*
X149942214Y-104522863D01*
X149802863Y-104662214D01*
X149802860Y-104662218D01*
X149693371Y-104826079D01*
X149693364Y-104826092D01*
X149617950Y-105008160D01*
X149617947Y-105008170D01*
X149579500Y-105201456D01*
X149579500Y-105201459D01*
X149579500Y-106398541D01*
X149579500Y-106398543D01*
X149579499Y-106398543D01*
X149040500Y-106398543D01*
X149040500Y-105201456D01*
X149002052Y-105008170D01*
X149002051Y-105008169D01*
X149002051Y-105008165D01*
X148996839Y-104995581D01*
X148926635Y-104826092D01*
X148926628Y-104826079D01*
X148817139Y-104662218D01*
X148817136Y-104662214D01*
X148677785Y-104522863D01*
X148677781Y-104522860D01*
X148513920Y-104413371D01*
X148513907Y-104413364D01*
X148331839Y-104337950D01*
X148331829Y-104337947D01*
X148138543Y-104299500D01*
X148138541Y-104299500D01*
X147941459Y-104299500D01*
X147941457Y-104299500D01*
X147748170Y-104337947D01*
X147748160Y-104337950D01*
X147566092Y-104413364D01*
X147566079Y-104413371D01*
X147402218Y-104522860D01*
X147402214Y-104522863D01*
X147262863Y-104662214D01*
X147262860Y-104662218D01*
X147153371Y-104826079D01*
X147153364Y-104826092D01*
X147077950Y-105008160D01*
X147077947Y-105008170D01*
X147041965Y-105189062D01*
X147009580Y-105250973D01*
X146948864Y-105285547D01*
X146879094Y-105281806D01*
X146822423Y-105240940D01*
X146797875Y-105184268D01*
X146767990Y-104995582D01*
X146704755Y-104800968D01*
X146611859Y-104618650D01*
X146491582Y-104453105D01*
X146491582Y-104453104D01*
X146346895Y-104308417D01*
X146181349Y-104188140D01*
X145999029Y-104095244D01*
X145804413Y-104032009D01*
X145750000Y-104023390D01*
X145750000Y-105066988D01*
X145692993Y-105034075D01*
X145565826Y-105000000D01*
X145434174Y-105000000D01*
X145307007Y-105034075D01*
X145250000Y-105066988D01*
X145250000Y-104023390D01*
X145195586Y-104032009D01*
X145000970Y-104095244D01*
X144818650Y-104188140D01*
X144653105Y-104308417D01*
X144653104Y-104308417D01*
X144508417Y-104453104D01*
X144508417Y-104453105D01*
X144388140Y-104618650D01*
X144295244Y-104800968D01*
X144232010Y-104995581D01*
X144202124Y-105184269D01*
X144172194Y-105247403D01*
X144112883Y-105284334D01*
X144043020Y-105283336D01*
X143984788Y-105244726D01*
X143958034Y-105189061D01*
X143927840Y-105037267D01*
X143922051Y-105008165D01*
X143916839Y-104995581D01*
X143846635Y-104826092D01*
X143846628Y-104826079D01*
X143737139Y-104662218D01*
X143737136Y-104662214D01*
X143597785Y-104522863D01*
X143597781Y-104522860D01*
X143433920Y-104413371D01*
X143433907Y-104413364D01*
X143251839Y-104337950D01*
X143251829Y-104337947D01*
X143058543Y-104299500D01*
X143058541Y-104299500D01*
X142861459Y-104299500D01*
X142861457Y-104299500D01*
X142668170Y-104337947D01*
X142668160Y-104337950D01*
X142486092Y-104413364D01*
X142486079Y-104413371D01*
X142322218Y-104522860D01*
X142322214Y-104522863D01*
X142182863Y-104662214D01*
X142182860Y-104662218D01*
X142073371Y-104826079D01*
X142073364Y-104826092D01*
X141997950Y-105008160D01*
X141997947Y-105008170D01*
X141959500Y-105201456D01*
X141959500Y-105201459D01*
X141959500Y-106398541D01*
X141959500Y-106398543D01*
X141959499Y-106398543D01*
X141420500Y-106398543D01*
X141420500Y-105201456D01*
X141382052Y-105008170D01*
X141382051Y-105008169D01*
X141382051Y-105008165D01*
X141376839Y-104995581D01*
X141306635Y-104826092D01*
X141306628Y-104826079D01*
X141197139Y-104662218D01*
X141197136Y-104662214D01*
X141057785Y-104522863D01*
X141057781Y-104522860D01*
X140893920Y-104413371D01*
X140893907Y-104413364D01*
X140711839Y-104337950D01*
X140711829Y-104337947D01*
X140518543Y-104299500D01*
X140518541Y-104299500D01*
X140321459Y-104299500D01*
X140321457Y-104299500D01*
X140128170Y-104337947D01*
X140128160Y-104337950D01*
X139946092Y-104413364D01*
X139946079Y-104413371D01*
X139782218Y-104522860D01*
X139782214Y-104522863D01*
X139642863Y-104662214D01*
X139642860Y-104662218D01*
X139533371Y-104826079D01*
X139533364Y-104826092D01*
X139457950Y-105008160D01*
X139457947Y-105008170D01*
X139419500Y-105201456D01*
X139419500Y-105201459D01*
X139419500Y-106398541D01*
X139419500Y-106398543D01*
X139419499Y-106398543D01*
X138880500Y-106398543D01*
X138880500Y-105201456D01*
X138842052Y-105008170D01*
X138842051Y-105008169D01*
X138842051Y-105008165D01*
X138836839Y-104995581D01*
X138766635Y-104826092D01*
X138766628Y-104826079D01*
X138657139Y-104662218D01*
X138657136Y-104662214D01*
X138517785Y-104522863D01*
X138517781Y-104522860D01*
X138353920Y-104413371D01*
X138353907Y-104413364D01*
X138171839Y-104337950D01*
X138171829Y-104337947D01*
X137978543Y-104299500D01*
X137978541Y-104299500D01*
X137781459Y-104299500D01*
X137781457Y-104299500D01*
X137588170Y-104337947D01*
X137588160Y-104337950D01*
X137406092Y-104413364D01*
X137406079Y-104413371D01*
X137242218Y-104522860D01*
X137242214Y-104522863D01*
X137102863Y-104662214D01*
X137102860Y-104662218D01*
X136993371Y-104826079D01*
X136993364Y-104826092D01*
X136917950Y-105008160D01*
X136917947Y-105008170D01*
X136879500Y-105201456D01*
X136879500Y-105201459D01*
X136879500Y-106398541D01*
X136879500Y-106398543D01*
X136879499Y-106398543D01*
X136340500Y-106398543D01*
X136340500Y-105201456D01*
X136302052Y-105008170D01*
X136302051Y-105008169D01*
X136302051Y-105008165D01*
X136296839Y-104995581D01*
X136226635Y-104826092D01*
X136226628Y-104826079D01*
X136117139Y-104662218D01*
X136117136Y-104662214D01*
X135977785Y-104522863D01*
X135977781Y-104522860D01*
X135813920Y-104413371D01*
X135813907Y-104413364D01*
X135631839Y-104337950D01*
X135631829Y-104337947D01*
X135438543Y-104299500D01*
X135438541Y-104299500D01*
X135241459Y-104299500D01*
X135241457Y-104299500D01*
X135048170Y-104337947D01*
X135048160Y-104337950D01*
X134866092Y-104413364D01*
X134866081Y-104413370D01*
X134863390Y-104415169D01*
X134861764Y-104415677D01*
X134860711Y-104416241D01*
X134860604Y-104416041D01*
X134796713Y-104436046D01*
X134729333Y-104417561D01*
X134682643Y-104365582D01*
X134670500Y-104312066D01*
X134670500Y-102927645D01*
X134670500Y-102927643D01*
X134629577Y-102774916D01*
X134598367Y-102720858D01*
X134550524Y-102637990D01*
X134550521Y-102637986D01*
X134550520Y-102637984D01*
X134438716Y-102526180D01*
X134438715Y-102526179D01*
X134434385Y-102521849D01*
X134434374Y-102521839D01*
X133135457Y-101222922D01*
X133101972Y-101161599D01*
X133106956Y-101091907D01*
X133148828Y-101035974D01*
X133150162Y-101034989D01*
X133285010Y-100937017D01*
X133452017Y-100770010D01*
X133590843Y-100578933D01*
X133698068Y-100368492D01*
X133771053Y-100143868D01*
X133796675Y-99982098D01*
X133808000Y-99910597D01*
X133808000Y-99674402D01*
X133787108Y-99542500D01*
X153128398Y-99542500D01*
X154157499Y-99542500D01*
X154132479Y-99602902D01*
X154107500Y-99728481D01*
X154107500Y-99856519D01*
X154132479Y-99982098D01*
X154157499Y-100042500D01*
X153128398Y-100042500D01*
X153144434Y-100143747D01*
X153217397Y-100368302D01*
X153324585Y-100578671D01*
X153463366Y-100769686D01*
X153630313Y-100936633D01*
X153821328Y-101075414D01*
X154031697Y-101182602D01*
X154256252Y-101255565D01*
X154256251Y-101255565D01*
X154489448Y-101292500D01*
X154507500Y-101292500D01*
X154507500Y-100392501D01*
X154567902Y-100417521D01*
X154693481Y-100442500D01*
X154821519Y-100442500D01*
X154947098Y-100417521D01*
X155007500Y-100392501D01*
X155007500Y-101292500D01*
X155025552Y-101292500D01*
X155258747Y-101255565D01*
X155483302Y-101182602D01*
X155693671Y-101075414D01*
X155884686Y-100936633D01*
X156051633Y-100769686D01*
X156190414Y-100578671D01*
X156297602Y-100368302D01*
X156370565Y-100143747D01*
X156386602Y-100042500D01*
X155357501Y-100042500D01*
X155382521Y-99982098D01*
X155407500Y-99856519D01*
X155407500Y-99728481D01*
X155382521Y-99602902D01*
X155357501Y-99542500D01*
X156386602Y-99542500D01*
X156370565Y-99441252D01*
X156297602Y-99216697D01*
X156190414Y-99006328D01*
X156051633Y-98815313D01*
X155884686Y-98648366D01*
X155693671Y-98509585D01*
X155483302Y-98402397D01*
X155258747Y-98329434D01*
X155258748Y-98329434D01*
X155025552Y-98292500D01*
X155007500Y-98292500D01*
X155007500Y-99192498D01*
X154947098Y-99167479D01*
X154821519Y-99142500D01*
X154693481Y-99142500D01*
X154567902Y-99167479D01*
X154507500Y-99192498D01*
X154507500Y-98292500D01*
X154489448Y-98292500D01*
X154256252Y-98329434D01*
X154031697Y-98402397D01*
X153821328Y-98509585D01*
X153630313Y-98648366D01*
X153463366Y-98815313D01*
X153324585Y-99006328D01*
X153217397Y-99216697D01*
X153144434Y-99441252D01*
X153128398Y-99542500D01*
X133787108Y-99542500D01*
X133771053Y-99441131D01*
X133698066Y-99216503D01*
X133641502Y-99105491D01*
X133590843Y-99006067D01*
X133452017Y-98814990D01*
X133285010Y-98647983D01*
X133093933Y-98509157D01*
X132883496Y-98401933D01*
X132658868Y-98328946D01*
X132425597Y-98292000D01*
X132425592Y-98292000D01*
X131889408Y-98292000D01*
X131889403Y-98292000D01*
X131656131Y-98328946D01*
X131431503Y-98401933D01*
X131221066Y-98509157D01*
X131112050Y-98588362D01*
X131029990Y-98647983D01*
X131029988Y-98647985D01*
X131029987Y-98647985D01*
X130862985Y-98814987D01*
X130862985Y-98814988D01*
X130862983Y-98814990D01*
X130803362Y-98897050D01*
X130724157Y-99006066D01*
X130616933Y-99216503D01*
X130543946Y-99441131D01*
X130507000Y-99674402D01*
X114518800Y-99674402D01*
X114518800Y-93999998D01*
X118694532Y-93999998D01*
X118694532Y-94000001D01*
X118714364Y-94226686D01*
X118714366Y-94226697D01*
X118773258Y-94446488D01*
X118773261Y-94446497D01*
X118869431Y-94652732D01*
X118869432Y-94652734D01*
X118999954Y-94839141D01*
X119160858Y-95000045D01*
X119160861Y-95000047D01*
X119347266Y-95130568D01*
X119362975Y-95137893D01*
X119415414Y-95184064D01*
X119434567Y-95251257D01*
X119414352Y-95318138D01*
X119362979Y-95362656D01*
X119347514Y-95369867D01*
X119347512Y-95369868D01*
X119274526Y-95420973D01*
X119274526Y-95420974D01*
X119953553Y-96100000D01*
X119947339Y-96100000D01*
X119845606Y-96127259D01*
X119754394Y-96179920D01*
X119679920Y-96254394D01*
X119627259Y-96345606D01*
X119600000Y-96447339D01*
X119600000Y-96453552D01*
X118920974Y-95774526D01*
X118920973Y-95774526D01*
X118869868Y-95847512D01*
X118869866Y-95847516D01*
X118773734Y-96053673D01*
X118773730Y-96053682D01*
X118714860Y-96273389D01*
X118714858Y-96273400D01*
X118695034Y-96499997D01*
X118695034Y-96500002D01*
X118714858Y-96726599D01*
X118714860Y-96726610D01*
X118773730Y-96946317D01*
X118773735Y-96946331D01*
X118869863Y-97152478D01*
X118920974Y-97225472D01*
X119600000Y-96546446D01*
X119600000Y-96552661D01*
X119627259Y-96654394D01*
X119679920Y-96745606D01*
X119754394Y-96820080D01*
X119845606Y-96872741D01*
X119947339Y-96900000D01*
X119953553Y-96900000D01*
X119274526Y-97579025D01*
X119347513Y-97630132D01*
X119347521Y-97630136D01*
X119553668Y-97726264D01*
X119553682Y-97726269D01*
X119773389Y-97785139D01*
X119773400Y-97785141D01*
X119999998Y-97804966D01*
X120000002Y-97804966D01*
X120226599Y-97785141D01*
X120226610Y-97785139D01*
X120446317Y-97726269D01*
X120446331Y-97726264D01*
X120652478Y-97630136D01*
X120725471Y-97579024D01*
X120046447Y-96900000D01*
X120052661Y-96900000D01*
X120154394Y-96872741D01*
X120245606Y-96820080D01*
X120320080Y-96745606D01*
X120372741Y-96654394D01*
X120400000Y-96552661D01*
X120400000Y-96546447D01*
X121079024Y-97225471D01*
X121130136Y-97152478D01*
X121226264Y-96946331D01*
X121226269Y-96946317D01*
X121285139Y-96726610D01*
X121285141Y-96726599D01*
X121304966Y-96500002D01*
X121304966Y-96499997D01*
X121285141Y-96273400D01*
X121285139Y-96273389D01*
X121226269Y-96053682D01*
X121226264Y-96053668D01*
X121130136Y-95847521D01*
X121130132Y-95847513D01*
X121079025Y-95774526D01*
X120400000Y-96453551D01*
X120400000Y-96447339D01*
X120372741Y-96345606D01*
X120320080Y-96254394D01*
X120245606Y-96179920D01*
X120154394Y-96127259D01*
X120052661Y-96100000D01*
X120046445Y-96100000D01*
X120725472Y-95420974D01*
X120652480Y-95369864D01*
X120637024Y-95362657D01*
X120584585Y-95316484D01*
X120565433Y-95249290D01*
X120585649Y-95182409D01*
X120637023Y-95137893D01*
X120652734Y-95130568D01*
X120839139Y-95000047D01*
X121000047Y-94839139D01*
X121130568Y-94652734D01*
X121226739Y-94446496D01*
X121285635Y-94226692D01*
X121305468Y-94000000D01*
X121285635Y-93773308D01*
X121226739Y-93553504D01*
X121130568Y-93347266D01*
X121000047Y-93160861D01*
X121000045Y-93160858D01*
X120839141Y-92999954D01*
X120652734Y-92869432D01*
X120652732Y-92869431D01*
X120446497Y-92773261D01*
X120446488Y-92773258D01*
X120226697Y-92714366D01*
X120226693Y-92714365D01*
X120226692Y-92714365D01*
X120226691Y-92714364D01*
X120226686Y-92714364D01*
X120000002Y-92694532D01*
X119999998Y-92694532D01*
X119773313Y-92714364D01*
X119773302Y-92714366D01*
X119553511Y-92773258D01*
X119553502Y-92773261D01*
X119347267Y-92869431D01*
X119347265Y-92869432D01*
X119160858Y-92999954D01*
X118999954Y-93160858D01*
X118869432Y-93347265D01*
X118869431Y-93347267D01*
X118773261Y-93553502D01*
X118773258Y-93553511D01*
X118714366Y-93773302D01*
X118714364Y-93773313D01*
X118694532Y-93999998D01*
X114518800Y-93999998D01*
X114518800Y-93919245D01*
X114518799Y-93919241D01*
X114481946Y-93781698D01*
X114481946Y-93781699D01*
X114481627Y-93780511D01*
X114477877Y-93766515D01*
X114448939Y-93716395D01*
X114398820Y-93629584D01*
X114287016Y-93517780D01*
X114287015Y-93517779D01*
X114282685Y-93513449D01*
X114282674Y-93513439D01*
X112769233Y-91999998D01*
X123694532Y-91999998D01*
X123694532Y-92000001D01*
X123714364Y-92226686D01*
X123714366Y-92226697D01*
X123773258Y-92446488D01*
X123773261Y-92446497D01*
X123869431Y-92652732D01*
X123869432Y-92652734D01*
X123999954Y-92839141D01*
X124160858Y-93000045D01*
X124160861Y-93000047D01*
X124347266Y-93130568D01*
X124553504Y-93226739D01*
X124553506Y-93226739D01*
X124553513Y-93226742D01*
X124558003Y-93227945D01*
X124613592Y-93260039D01*
X124953554Y-93600000D01*
X124947339Y-93600000D01*
X124845606Y-93627259D01*
X124754394Y-93679920D01*
X124679920Y-93754394D01*
X124627259Y-93845606D01*
X124600000Y-93947339D01*
X124600000Y-93953552D01*
X123920974Y-93274526D01*
X123920973Y-93274526D01*
X123869868Y-93347512D01*
X123869866Y-93347516D01*
X123773734Y-93553673D01*
X123773730Y-93553682D01*
X123714860Y-93773389D01*
X123714858Y-93773400D01*
X123695034Y-93999997D01*
X123695034Y-94000002D01*
X123714858Y-94226599D01*
X123714860Y-94226610D01*
X123773730Y-94446317D01*
X123773735Y-94446331D01*
X123869863Y-94652478D01*
X123920974Y-94725472D01*
X124600000Y-94046446D01*
X124600000Y-94052661D01*
X124627259Y-94154394D01*
X124679920Y-94245606D01*
X124754394Y-94320080D01*
X124845606Y-94372741D01*
X124947339Y-94400000D01*
X124953553Y-94400000D01*
X124274526Y-95079025D01*
X124347513Y-95130132D01*
X124347521Y-95130136D01*
X124553668Y-95226264D01*
X124553682Y-95226269D01*
X124773389Y-95285139D01*
X124773400Y-95285141D01*
X124999998Y-95304966D01*
X125000002Y-95304966D01*
X125226599Y-95285141D01*
X125226610Y-95285139D01*
X125446317Y-95226269D01*
X125446331Y-95226264D01*
X125652478Y-95130136D01*
X125725471Y-95079024D01*
X125046447Y-94400000D01*
X125052661Y-94400000D01*
X125154394Y-94372741D01*
X125245606Y-94320080D01*
X125320080Y-94245606D01*
X125372741Y-94154394D01*
X125400000Y-94052661D01*
X125400000Y-94046447D01*
X126079024Y-94725471D01*
X126130136Y-94652478D01*
X126226264Y-94446331D01*
X126226269Y-94446317D01*
X126285139Y-94226610D01*
X126285141Y-94226599D01*
X126304966Y-94000002D01*
X126304966Y-93999997D01*
X126285141Y-93773400D01*
X126285139Y-93773389D01*
X126226269Y-93553682D01*
X126226264Y-93553668D01*
X126130136Y-93347521D01*
X126130132Y-93347513D01*
X126079025Y-93274526D01*
X125400000Y-93953551D01*
X125400000Y-93947339D01*
X125372741Y-93845606D01*
X125320080Y-93754394D01*
X125245606Y-93679920D01*
X125154394Y-93627259D01*
X125052661Y-93600000D01*
X125046447Y-93600000D01*
X125386407Y-93260039D01*
X125441996Y-93227945D01*
X125443833Y-93227452D01*
X125446496Y-93226739D01*
X125652734Y-93130568D01*
X125839139Y-93000047D01*
X126000047Y-92839139D01*
X126130568Y-92652734D01*
X126226739Y-92446496D01*
X126285635Y-92226692D01*
X126305468Y-92000000D01*
X126304955Y-91994141D01*
X126288647Y-91807734D01*
X126285635Y-91773308D01*
X126226739Y-91553504D01*
X126130568Y-91347266D01*
X126000047Y-91160861D01*
X126000045Y-91160858D01*
X125839141Y-90999954D01*
X125652734Y-90869432D01*
X125652732Y-90869431D01*
X125446497Y-90773261D01*
X125446488Y-90773258D01*
X125226697Y-90714366D01*
X125226693Y-90714365D01*
X125226692Y-90714365D01*
X125226691Y-90714364D01*
X125226686Y-90714364D01*
X125000002Y-90694532D01*
X124999998Y-90694532D01*
X124773313Y-90714364D01*
X124773302Y-90714366D01*
X124553511Y-90773258D01*
X124553502Y-90773261D01*
X124347267Y-90869431D01*
X124347265Y-90869432D01*
X124160858Y-90999954D01*
X123999954Y-91160858D01*
X123869432Y-91347265D01*
X123869431Y-91347267D01*
X123773261Y-91553502D01*
X123773258Y-91553511D01*
X123714366Y-91773302D01*
X123714364Y-91773313D01*
X123694532Y-91999998D01*
X112769233Y-91999998D01*
X111711941Y-90942706D01*
X111678456Y-90881383D01*
X111679847Y-90822931D01*
X111689123Y-90788313D01*
X111705635Y-90726692D01*
X111725468Y-90500000D01*
X111725468Y-90499998D01*
X116734532Y-90499998D01*
X116734532Y-90500001D01*
X116754364Y-90726686D01*
X116754366Y-90726697D01*
X116813258Y-90946488D01*
X116813261Y-90946497D01*
X116909431Y-91152732D01*
X116909432Y-91152734D01*
X117039954Y-91339141D01*
X117200858Y-91500045D01*
X117200861Y-91500047D01*
X117387266Y-91630568D01*
X117593504Y-91726739D01*
X117813308Y-91785635D01*
X117975230Y-91799801D01*
X118039998Y-91805468D01*
X118040000Y-91805468D01*
X118040002Y-91805468D01*
X118096673Y-91800509D01*
X118266692Y-91785635D01*
X118486496Y-91726739D01*
X118692734Y-91630568D01*
X118879139Y-91500047D01*
X119040047Y-91339139D01*
X119170568Y-91152734D01*
X119266739Y-90946496D01*
X119325635Y-90726692D01*
X119345468Y-90500000D01*
X119325635Y-90273308D01*
X119266739Y-90053504D01*
X119170568Y-89847266D01*
X119040047Y-89660861D01*
X119040045Y-89660858D01*
X118879141Y-89499954D01*
X118692734Y-89369432D01*
X118692732Y-89369431D01*
X118486497Y-89273261D01*
X118486488Y-89273258D01*
X118266697Y-89214366D01*
X118266693Y-89214365D01*
X118266692Y-89214365D01*
X118266691Y-89214364D01*
X118266686Y-89214364D01*
X118040002Y-89194532D01*
X118039998Y-89194532D01*
X117813313Y-89214364D01*
X117813302Y-89214366D01*
X117593511Y-89273258D01*
X117593502Y-89273261D01*
X117387267Y-89369431D01*
X117387265Y-89369432D01*
X117200858Y-89499954D01*
X117039954Y-89660858D01*
X116909432Y-89847265D01*
X116909431Y-89847267D01*
X116813261Y-90053502D01*
X116813258Y-90053511D01*
X116754366Y-90273302D01*
X116754364Y-90273313D01*
X116734532Y-90499998D01*
X111725468Y-90499998D01*
X111705635Y-90273308D01*
X111646739Y-90053504D01*
X111550568Y-89847266D01*
X111420047Y-89660861D01*
X111420045Y-89660858D01*
X111259141Y-89499954D01*
X111072734Y-89369432D01*
X111072732Y-89369431D01*
X110866497Y-89273261D01*
X110866488Y-89273258D01*
X110646697Y-89214366D01*
X110646693Y-89214365D01*
X110646692Y-89214365D01*
X110646691Y-89214364D01*
X110646686Y-89214364D01*
X110420002Y-89194532D01*
X110419998Y-89194532D01*
X110239399Y-89210332D01*
X110170899Y-89196565D01*
X110120716Y-89147950D01*
X110104783Y-89079921D01*
X110128159Y-89014078D01*
X110140907Y-88999127D01*
X110703216Y-88436817D01*
X110764539Y-88403333D01*
X110790897Y-88400499D01*
X111637871Y-88400499D01*
X111637872Y-88400499D01*
X111697483Y-88394091D01*
X111832331Y-88343796D01*
X111947546Y-88257546D01*
X112033796Y-88142331D01*
X112084091Y-88007483D01*
X112090500Y-87947873D01*
X112090499Y-86999993D01*
X116904700Y-86999993D01*
X116904700Y-87000006D01*
X116923864Y-87231297D01*
X116923866Y-87231308D01*
X116980842Y-87456300D01*
X117074075Y-87668848D01*
X117201016Y-87863147D01*
X117201019Y-87863151D01*
X117201021Y-87863153D01*
X117358216Y-88033913D01*
X117358219Y-88033915D01*
X117358222Y-88033918D01*
X117541365Y-88176464D01*
X117541371Y-88176468D01*
X117541374Y-88176470D01*
X117745497Y-88286936D01*
X117859487Y-88326068D01*
X117965015Y-88362297D01*
X117965017Y-88362297D01*
X117965019Y-88362298D01*
X118193951Y-88400500D01*
X118193952Y-88400500D01*
X118426048Y-88400500D01*
X118426049Y-88400500D01*
X118654981Y-88362298D01*
X118874503Y-88286936D01*
X119078626Y-88176470D01*
X119109999Y-88152052D01*
X119198970Y-88082803D01*
X119261784Y-88033913D01*
X119418979Y-87863153D01*
X119545924Y-87668849D01*
X119639157Y-87456300D01*
X119696134Y-87231305D01*
X119696242Y-87230000D01*
X119715300Y-87000006D01*
X119715300Y-86999993D01*
X119696135Y-86768702D01*
X119696133Y-86768691D01*
X119639157Y-86543699D01*
X119545924Y-86331151D01*
X119418983Y-86136852D01*
X119418980Y-86136849D01*
X119418979Y-86136847D01*
X119261784Y-85966087D01*
X119261779Y-85966083D01*
X119261777Y-85966081D01*
X119078634Y-85823535D01*
X119078628Y-85823531D01*
X118874504Y-85713064D01*
X118874495Y-85713061D01*
X118654984Y-85637702D01*
X118464450Y-85605908D01*
X118426049Y-85599500D01*
X118193951Y-85599500D01*
X118155550Y-85605908D01*
X117965015Y-85637702D01*
X117745504Y-85713061D01*
X117745495Y-85713064D01*
X117541371Y-85823531D01*
X117541365Y-85823535D01*
X117358222Y-85966081D01*
X117358219Y-85966084D01*
X117358216Y-85966086D01*
X117358216Y-85966087D01*
X117333886Y-85992517D01*
X117201016Y-86136852D01*
X117074075Y-86331151D01*
X116980842Y-86543699D01*
X116923866Y-86768691D01*
X116923864Y-86768702D01*
X116904700Y-86999993D01*
X112090499Y-86999993D01*
X112090499Y-86052128D01*
X112084091Y-85992517D01*
X112078186Y-85976686D01*
X112033797Y-85857671D01*
X112033793Y-85857664D01*
X111947547Y-85742455D01*
X111947544Y-85742452D01*
X111832335Y-85656206D01*
X111832328Y-85656202D01*
X111731167Y-85618472D01*
X111675233Y-85576601D01*
X111650816Y-85511137D01*
X111650500Y-85502290D01*
X111650500Y-80981636D01*
X111670185Y-80914597D01*
X111720698Y-80869916D01*
X111927704Y-80770228D01*
X112144479Y-80622433D01*
X112336805Y-80443981D01*
X112500386Y-80238857D01*
X112631568Y-80011643D01*
X112727420Y-79767416D01*
X112785802Y-79511630D01*
X112785803Y-79511620D01*
X112805408Y-79250004D01*
X112805408Y-79249995D01*
X112785803Y-78988379D01*
X112785802Y-78988374D01*
X112785802Y-78988370D01*
X112727420Y-78732584D01*
X112631568Y-78488357D01*
X112500386Y-78261143D01*
X112336805Y-78056019D01*
X112336804Y-78056018D01*
X112336801Y-78056014D01*
X112144479Y-77877567D01*
X112082894Y-77835579D01*
X111927704Y-77729772D01*
X111927700Y-77729770D01*
X111927697Y-77729768D01*
X111927696Y-77729767D01*
X111691325Y-77615938D01*
X111691327Y-77615938D01*
X111440623Y-77538606D01*
X111440619Y-77538605D01*
X111440615Y-77538604D01*
X111315823Y-77519794D01*
X111181187Y-77499500D01*
X111181182Y-77499500D01*
X110918818Y-77499500D01*
X110918812Y-77499500D01*
X110757247Y-77523853D01*
X110659385Y-77538604D01*
X110659382Y-77538605D01*
X110659376Y-77538606D01*
X110408673Y-77615938D01*
X110172303Y-77729767D01*
X110172302Y-77729768D01*
X109955520Y-77877567D01*
X109763198Y-78056014D01*
X109599614Y-78261143D01*
X109468432Y-78488356D01*
X109372582Y-78732578D01*
X109372576Y-78732597D01*
X109314197Y-78988374D01*
X109314196Y-78988379D01*
X109294592Y-79249995D01*
X109294592Y-79250004D01*
X109314196Y-79511620D01*
X109314197Y-79511625D01*
X109372576Y-79767402D01*
X109372578Y-79767411D01*
X109372580Y-79767416D01*
X109468432Y-80011643D01*
X109599614Y-80238857D01*
X109697182Y-80361203D01*
X109763198Y-80443985D01*
X109944753Y-80612441D01*
X109955521Y-80622433D01*
X110172296Y-80770228D01*
X110172301Y-80770230D01*
X110172302Y-80770231D01*
X110172303Y-80770232D01*
X110316301Y-80839577D01*
X110379301Y-80869916D01*
X110431161Y-80916738D01*
X110449500Y-80981636D01*
X110449500Y-85475500D01*
X110429815Y-85542539D01*
X110377011Y-85588294D01*
X110325500Y-85599500D01*
X109742129Y-85599500D01*
X109742123Y-85599501D01*
X109682516Y-85605908D01*
X109547671Y-85656202D01*
X109547664Y-85656206D01*
X109432455Y-85742452D01*
X109432452Y-85742455D01*
X109346206Y-85857664D01*
X109346202Y-85857671D01*
X109295908Y-85992517D01*
X109289501Y-86052116D01*
X109289501Y-86052123D01*
X109289500Y-86052135D01*
X109289500Y-87947870D01*
X109289501Y-87947876D01*
X109295908Y-88007482D01*
X109305596Y-88033457D01*
X109310579Y-88103149D01*
X109277094Y-88164469D01*
X108897486Y-88544078D01*
X108785681Y-88655882D01*
X108785679Y-88655885D01*
X108750658Y-88716545D01*
X108750657Y-88716547D01*
X108706623Y-88792814D01*
X108692981Y-88843724D01*
X108665699Y-88945543D01*
X108665699Y-88945545D01*
X108665699Y-89113646D01*
X108665700Y-89113659D01*
X108665700Y-103517103D01*
X108646015Y-103584142D01*
X108593211Y-103629897D01*
X108524053Y-103639841D01*
X108460497Y-103610816D01*
X108454019Y-103604784D01*
X108211314Y-103362079D01*
X108177829Y-103300756D01*
X108179730Y-103240460D01*
X108185115Y-103221536D01*
X108205643Y-103000000D01*
X108185115Y-102778464D01*
X108124229Y-102564472D01*
X108124224Y-102564461D01*
X108025061Y-102365316D01*
X108025056Y-102365308D01*
X107890979Y-102187761D01*
X107726562Y-102037876D01*
X107726560Y-102037874D01*
X107537404Y-101920754D01*
X107537398Y-101920751D01*
X107437225Y-101881944D01*
X107394411Y-101865358D01*
X107339011Y-101822786D01*
X107315420Y-101757019D01*
X107331131Y-101688939D01*
X107381155Y-101640160D01*
X107394413Y-101634105D01*
X107537174Y-101578799D01*
X107537178Y-101578797D01*
X107653327Y-101506880D01*
X107000001Y-100853554D01*
X107000000Y-100853554D01*
X106346671Y-101506880D01*
X106462824Y-101578798D01*
X106605587Y-101634105D01*
X106660988Y-101676678D01*
X106684579Y-101742445D01*
X106668868Y-101810525D01*
X106618844Y-101859304D01*
X106605587Y-101865359D01*
X106462601Y-101920751D01*
X106462595Y-101920754D01*
X106273439Y-102037874D01*
X106273437Y-102037876D01*
X106109020Y-102187761D01*
X105974943Y-102365308D01*
X105974938Y-102365316D01*
X105875775Y-102564461D01*
X105875769Y-102564476D01*
X105814885Y-102778462D01*
X105814884Y-102778464D01*
X105794357Y-102999999D01*
X105794357Y-103000000D01*
X105814884Y-103221535D01*
X105814885Y-103221537D01*
X105875769Y-103435523D01*
X105875775Y-103435538D01*
X105974938Y-103634683D01*
X105974943Y-103634691D01*
X106109020Y-103812238D01*
X106273437Y-103962123D01*
X106273439Y-103962125D01*
X106462595Y-104079245D01*
X106462596Y-104079245D01*
X106462599Y-104079247D01*
X106670060Y-104159618D01*
X106888757Y-104200500D01*
X106888759Y-104200500D01*
X107111241Y-104200500D01*
X107111243Y-104200500D01*
X107249215Y-104174708D01*
X107318730Y-104181739D01*
X107359681Y-104208916D01*
X107586410Y-104435645D01*
X107619895Y-104496968D01*
X107614911Y-104566660D01*
X107573039Y-104622593D01*
X107507575Y-104647010D01*
X107453935Y-104638953D01*
X107329805Y-104590865D01*
X107111193Y-104550000D01*
X106888807Y-104550000D01*
X106670195Y-104590865D01*
X106462824Y-104671200D01*
X106462818Y-104671204D01*
X106346672Y-104743117D01*
X106346671Y-104743118D01*
X107003554Y-105400000D01*
X106953922Y-105400000D01*
X106864905Y-105423852D01*
X106785095Y-105469930D01*
X106719930Y-105535095D01*
X106673852Y-105614905D01*
X106650000Y-105703922D01*
X106650000Y-105796078D01*
X106673852Y-105885095D01*
X106719930Y-105964905D01*
X106785095Y-106030070D01*
X106864905Y-106076148D01*
X106953922Y-106100000D01*
X107046078Y-106100000D01*
X107135095Y-106076148D01*
X107214905Y-106030070D01*
X107280070Y-105964905D01*
X107326148Y-105885095D01*
X107350000Y-105796078D01*
X107350000Y-105746446D01*
X108008860Y-106405306D01*
X108016717Y-106404761D01*
X108084958Y-106419758D01*
X108134258Y-106469268D01*
X108149300Y-106528464D01*
X108149300Y-107409867D01*
X108129615Y-107476906D01*
X108076811Y-107522661D01*
X108007653Y-107532605D01*
X107944097Y-107503580D01*
X107926347Y-107484595D01*
X107890980Y-107437762D01*
X107726562Y-107287876D01*
X107726560Y-107287874D01*
X107537404Y-107170754D01*
X107537398Y-107170751D01*
X107437225Y-107131944D01*
X107394411Y-107115358D01*
X107339011Y-107072786D01*
X107315420Y-107007019D01*
X107331131Y-106938939D01*
X107381155Y-106890160D01*
X107394413Y-106884105D01*
X107537174Y-106828799D01*
X107537178Y-106828797D01*
X107653327Y-106756880D01*
X107000001Y-106103554D01*
X107000000Y-106103554D01*
X106346671Y-106756880D01*
X106462824Y-106828798D01*
X106605587Y-106884105D01*
X106660988Y-106926678D01*
X106684579Y-106992445D01*
X106668868Y-107060525D01*
X106618844Y-107109304D01*
X106605587Y-107115359D01*
X106462601Y-107170751D01*
X106462595Y-107170754D01*
X106273439Y-107287874D01*
X106273437Y-107287876D01*
X106109020Y-107437761D01*
X105974943Y-107615308D01*
X105974938Y-107615316D01*
X105875775Y-107814461D01*
X105875769Y-107814476D01*
X105814885Y-108028462D01*
X105814884Y-108028464D01*
X105796280Y-108229243D01*
X105794357Y-108250000D01*
X105799171Y-108301952D01*
X105814884Y-108471535D01*
X105814885Y-108471537D01*
X105875769Y-108685523D01*
X105875775Y-108685538D01*
X105974938Y-108884683D01*
X105974943Y-108884691D01*
X106109020Y-109062238D01*
X106273433Y-109212120D01*
X106273435Y-109212121D01*
X106273438Y-109212124D01*
X106340778Y-109253818D01*
X106387412Y-109305843D01*
X106399500Y-109359244D01*
X106399500Y-109458306D01*
X106379815Y-109525345D01*
X106346623Y-109559881D01*
X106160859Y-109689953D01*
X105999954Y-109850858D01*
X105869432Y-110037265D01*
X105869431Y-110037267D01*
X105773261Y-110243502D01*
X105773258Y-110243511D01*
X105714366Y-110463302D01*
X105714364Y-110463313D01*
X105694532Y-110689998D01*
X105694532Y-110690001D01*
X105714364Y-110916686D01*
X105714366Y-110916697D01*
X105773258Y-111136488D01*
X105773261Y-111136497D01*
X105869431Y-111342732D01*
X105869432Y-111342734D01*
X105999954Y-111529141D01*
X106160858Y-111690045D01*
X106160861Y-111690047D01*
X106347266Y-111820568D01*
X106553504Y-111916739D01*
X106773308Y-111975635D01*
X106935230Y-111989801D01*
X106999998Y-111995468D01*
X107000000Y-111995468D01*
X107000002Y-111995468D01*
X107056673Y-111990509D01*
X107226692Y-111975635D01*
X107446496Y-111916739D01*
X107652734Y-111820568D01*
X107839139Y-111690047D01*
X107850016Y-111679170D01*
X107958145Y-111571042D01*
X108019468Y-111537557D01*
X108089160Y-111542541D01*
X108133507Y-111571042D01*
X110838181Y-114275716D01*
X110871666Y-114337039D01*
X110874500Y-114363397D01*
X110874500Y-114755701D01*
X110877401Y-114792567D01*
X110877402Y-114792573D01*
X110923254Y-114950393D01*
X110923257Y-114950400D01*
X110965825Y-115022380D01*
X110983008Y-115090104D01*
X110960848Y-115156366D01*
X110906381Y-115200129D01*
X110859093Y-115209500D01*
X104962862Y-115209500D01*
X104895823Y-115189815D01*
X104879324Y-115177137D01*
X104726563Y-115037877D01*
X104726562Y-115037876D01*
X104659221Y-114996180D01*
X104612587Y-114944153D01*
X104600500Y-114890754D01*
X104600500Y-114541692D01*
X104620185Y-114474653D01*
X104653374Y-114440119D01*
X104839139Y-114310047D01*
X105000047Y-114149139D01*
X105130568Y-113962734D01*
X105226739Y-113756496D01*
X105285635Y-113536692D01*
X105305468Y-113310000D01*
X105303141Y-113283407D01*
X105299801Y-113245230D01*
X105285635Y-113083308D01*
X105226739Y-112863504D01*
X105130568Y-112657266D01*
X105000047Y-112470861D01*
X105000045Y-112470858D01*
X104839141Y-112309954D01*
X104652734Y-112179432D01*
X104652732Y-112179431D01*
X104446497Y-112083261D01*
X104446488Y-112083258D01*
X104226697Y-112024366D01*
X104226693Y-112024365D01*
X104226692Y-112024365D01*
X104226691Y-112024364D01*
X104226686Y-112024364D01*
X104000002Y-112004532D01*
X103999998Y-112004532D01*
X103773313Y-112024364D01*
X103773302Y-112024366D01*
X103553511Y-112083258D01*
X103553502Y-112083261D01*
X103347267Y-112179431D01*
X103347265Y-112179432D01*
X103160858Y-112309954D01*
X102999954Y-112470858D01*
X102869432Y-112657265D01*
X102869431Y-112657267D01*
X102773261Y-112863502D01*
X102773258Y-112863511D01*
X102714366Y-113083302D01*
X102714364Y-113083313D01*
X102694532Y-113309998D01*
X101579093Y-113309998D01*
X101597534Y-113283662D01*
X101690894Y-113083450D01*
X101748070Y-112870068D01*
X101766687Y-112657266D01*
X101767323Y-112650002D01*
X101767323Y-112649997D01*
X101759277Y-112558031D01*
X101748070Y-112429932D01*
X101690894Y-112216550D01*
X101597534Y-112016339D01*
X101470826Y-111835380D01*
X101314620Y-111679174D01*
X101314616Y-111679171D01*
X101314615Y-111679170D01*
X101153377Y-111566270D01*
X101109752Y-111511693D01*
X101100500Y-111464695D01*
X101100500Y-109300096D01*
X101120185Y-109233057D01*
X101136814Y-109212420D01*
X103409584Y-106939649D01*
X103470905Y-106906166D01*
X103540597Y-106911150D01*
X103549663Y-106914948D01*
X103553504Y-106916739D01*
X103773308Y-106975635D01*
X103935230Y-106989801D01*
X103999998Y-106995468D01*
X104000000Y-106995468D01*
X104000002Y-106995468D01*
X104056673Y-106990509D01*
X104226692Y-106975635D01*
X104446496Y-106916739D01*
X104652734Y-106820568D01*
X104839139Y-106690047D01*
X105000047Y-106529139D01*
X105130568Y-106342734D01*
X105226739Y-106136496D01*
X105285635Y-105916692D01*
X105300219Y-105749999D01*
X105794859Y-105749999D01*
X105794859Y-105750000D01*
X105815378Y-105971439D01*
X105876240Y-106185350D01*
X105975364Y-106384419D01*
X105975366Y-106384421D01*
X105991138Y-106405306D01*
X106646446Y-105750000D01*
X106646446Y-105749999D01*
X105991138Y-105094691D01*
X105991137Y-105094691D01*
X105975369Y-105115571D01*
X105876240Y-105314649D01*
X105815378Y-105528560D01*
X105794859Y-105749999D01*
X105300219Y-105749999D01*
X105305468Y-105690000D01*
X105285635Y-105463308D01*
X105227784Y-105247403D01*
X105226741Y-105243511D01*
X105226738Y-105243502D01*
X105207133Y-105201459D01*
X105130568Y-105037266D01*
X105000047Y-104850861D01*
X105000045Y-104850858D01*
X104861868Y-104712681D01*
X104828383Y-104651358D01*
X104833367Y-104581666D01*
X104861868Y-104537319D01*
X105000045Y-104399141D01*
X105000047Y-104399139D01*
X105130568Y-104212734D01*
X105226739Y-104006496D01*
X105285635Y-103786692D01*
X105305468Y-103560000D01*
X105285635Y-103333308D01*
X105226739Y-103113504D01*
X105130568Y-102907266D01*
X105000047Y-102720861D01*
X105000045Y-102720858D01*
X104839141Y-102559954D01*
X104652734Y-102429432D01*
X104652732Y-102429431D01*
X104446497Y-102333261D01*
X104446488Y-102333258D01*
X104226697Y-102274366D01*
X104226693Y-102274365D01*
X104226692Y-102274365D01*
X104226691Y-102274364D01*
X104226686Y-102274364D01*
X104000002Y-102254532D01*
X103999998Y-102254532D01*
X103773313Y-102274364D01*
X103773302Y-102274366D01*
X103553511Y-102333258D01*
X103553502Y-102333261D01*
X103347267Y-102429431D01*
X103347265Y-102429432D01*
X103160858Y-102559954D01*
X102999954Y-102720858D01*
X102869432Y-102907265D01*
X102869431Y-102907267D01*
X102773261Y-103113502D01*
X102773258Y-103113511D01*
X102714366Y-103333302D01*
X102714364Y-103333313D01*
X102694532Y-103559998D01*
X102694532Y-103560001D01*
X102714364Y-103786686D01*
X102714366Y-103786697D01*
X102773258Y-104006488D01*
X102773261Y-104006497D01*
X102869431Y-104212732D01*
X102869432Y-104212734D01*
X102999954Y-104399141D01*
X103138132Y-104537319D01*
X103171617Y-104598642D01*
X103166633Y-104668334D01*
X103138132Y-104712681D01*
X102999954Y-104850858D01*
X102869432Y-105037265D01*
X102869431Y-105037267D01*
X102773261Y-105243502D01*
X102773258Y-105243511D01*
X102714366Y-105463302D01*
X102714364Y-105463313D01*
X102694532Y-105689998D01*
X102694532Y-105690000D01*
X102710911Y-105877210D01*
X102697144Y-105945710D01*
X102675064Y-105975699D01*
X100131286Y-108519478D01*
X100019481Y-108631282D01*
X100019479Y-108631284D01*
X100002406Y-108660858D01*
X99993077Y-108677016D01*
X99940423Y-108768215D01*
X99899499Y-108920943D01*
X99899499Y-108920945D01*
X99899499Y-109089046D01*
X99899500Y-109089059D01*
X99899500Y-111464695D01*
X99879815Y-111531734D01*
X99846623Y-111566270D01*
X99685378Y-111679174D01*
X99529175Y-111835377D01*
X99402466Y-112016338D01*
X99402465Y-112016340D01*
X99309107Y-112216548D01*
X99309104Y-112216554D01*
X99251930Y-112429929D01*
X99251929Y-112429937D01*
X99232677Y-112649997D01*
X94566821Y-112649997D01*
X94547575Y-112430023D01*
X94547573Y-112430013D01*
X94490424Y-112216729D01*
X94490420Y-112216720D01*
X94397096Y-112016586D01*
X94351741Y-111951811D01*
X94351740Y-111951810D01*
X93681000Y-112622551D01*
X93681000Y-112599840D01*
X93655036Y-112502939D01*
X93604876Y-112416060D01*
X93533940Y-112345124D01*
X93447061Y-112294964D01*
X93350160Y-112269000D01*
X93327447Y-112269000D01*
X93998188Y-111598258D01*
X93933411Y-111552901D01*
X93933405Y-111552898D01*
X93733284Y-111459580D01*
X93733270Y-111459575D01*
X93519986Y-111402426D01*
X93519976Y-111402424D01*
X93300001Y-111383179D01*
X93299999Y-111383179D01*
X93080023Y-111402424D01*
X93080013Y-111402426D01*
X92866729Y-111459575D01*
X92866720Y-111459579D01*
X92666590Y-111552901D01*
X92601811Y-111598258D01*
X93272554Y-112269000D01*
X93249840Y-112269000D01*
X93152939Y-112294964D01*
X93066060Y-112345124D01*
X92995124Y-112416060D01*
X92944964Y-112502939D01*
X92919000Y-112599840D01*
X92919000Y-112622553D01*
X92248258Y-111951811D01*
X92202901Y-112016590D01*
X92109579Y-112216720D01*
X92109575Y-112216729D01*
X92052426Y-112430013D01*
X92052424Y-112430023D01*
X92033179Y-112649999D01*
X91200500Y-112649999D01*
X91200500Y-100499999D01*
X105794859Y-100499999D01*
X105794859Y-100500000D01*
X105815378Y-100721439D01*
X105876240Y-100935350D01*
X105975364Y-101134419D01*
X105975366Y-101134421D01*
X105991138Y-101155306D01*
X106646446Y-100500000D01*
X106646446Y-100499999D01*
X106600369Y-100453922D01*
X106650000Y-100453922D01*
X106650000Y-100546078D01*
X106673852Y-100635095D01*
X106719930Y-100714905D01*
X106785095Y-100780070D01*
X106864905Y-100826148D01*
X106953922Y-100850000D01*
X107046078Y-100850000D01*
X107135095Y-100826148D01*
X107214905Y-100780070D01*
X107280070Y-100714905D01*
X107326148Y-100635095D01*
X107350000Y-100546078D01*
X107350000Y-100499999D01*
X107353554Y-100499999D01*
X107353554Y-100500000D01*
X108008860Y-101155306D01*
X108008861Y-101155306D01*
X108024631Y-101134425D01*
X108024632Y-101134422D01*
X108123759Y-100935350D01*
X108184621Y-100721439D01*
X108205141Y-100500000D01*
X108205141Y-100499999D01*
X108184621Y-100278560D01*
X108123759Y-100064649D01*
X108024633Y-99865577D01*
X108024631Y-99865574D01*
X108008860Y-99844691D01*
X107353554Y-100499999D01*
X107350000Y-100499999D01*
X107350000Y-100453922D01*
X107326148Y-100364905D01*
X107280070Y-100285095D01*
X107214905Y-100219930D01*
X107135095Y-100173852D01*
X107046078Y-100150000D01*
X106953922Y-100150000D01*
X106864905Y-100173852D01*
X106785095Y-100219930D01*
X106719930Y-100285095D01*
X106673852Y-100364905D01*
X106650000Y-100453922D01*
X106600369Y-100453922D01*
X105991138Y-99844691D01*
X105991137Y-99844691D01*
X105975369Y-99865571D01*
X105876240Y-100064649D01*
X105815378Y-100278560D01*
X105794859Y-100499999D01*
X91200500Y-100499999D01*
X91200500Y-99493118D01*
X106346671Y-99493118D01*
X107000000Y-100146446D01*
X107000001Y-100146446D01*
X107653327Y-99493118D01*
X107653326Y-99493117D01*
X107537181Y-99421203D01*
X107537175Y-99421200D01*
X107329804Y-99340865D01*
X107111193Y-99300000D01*
X106888807Y-99300000D01*
X106670195Y-99340865D01*
X106462824Y-99421200D01*
X106462818Y-99421204D01*
X106346672Y-99493117D01*
X106346671Y-99493118D01*
X91200500Y-99493118D01*
X91200500Y-80459993D01*
X91694700Y-80459993D01*
X91694700Y-80460006D01*
X91713864Y-80691297D01*
X91713866Y-80691308D01*
X91770842Y-80916300D01*
X91864075Y-81128848D01*
X91991016Y-81323147D01*
X91991019Y-81323151D01*
X91991021Y-81323153D01*
X92148216Y-81493913D01*
X92148219Y-81493915D01*
X92148222Y-81493918D01*
X92331365Y-81636464D01*
X92331372Y-81636468D01*
X92331374Y-81636470D01*
X92407904Y-81677886D01*
X92457495Y-81727105D01*
X92472603Y-81795322D01*
X92448433Y-81860878D01*
X92420010Y-81888516D01*
X92260858Y-81999954D01*
X92099954Y-82160858D01*
X91969432Y-82347265D01*
X91969431Y-82347267D01*
X91873261Y-82553502D01*
X91873258Y-82553511D01*
X91814366Y-82773302D01*
X91814364Y-82773313D01*
X91794532Y-82999998D01*
X91794532Y-83000001D01*
X91814364Y-83226686D01*
X91814366Y-83226697D01*
X91873258Y-83446488D01*
X91873261Y-83446497D01*
X91969431Y-83652732D01*
X91969432Y-83652734D01*
X92099954Y-83839141D01*
X92260858Y-84000045D01*
X92260861Y-84000047D01*
X92446624Y-84130118D01*
X92490248Y-84184693D01*
X92499500Y-84231692D01*
X92499500Y-84518306D01*
X92479815Y-84585345D01*
X92446623Y-84619881D01*
X92260859Y-84749953D01*
X92099954Y-84910858D01*
X91969432Y-85097265D01*
X91969431Y-85097267D01*
X91873261Y-85303502D01*
X91873258Y-85303511D01*
X91814366Y-85523302D01*
X91814364Y-85523313D01*
X91794532Y-85749998D01*
X91794532Y-85750001D01*
X91814364Y-85976686D01*
X91814366Y-85976697D01*
X91873258Y-86196488D01*
X91873261Y-86196497D01*
X91969431Y-86402732D01*
X91969432Y-86402734D01*
X92099954Y-86589141D01*
X92260858Y-86750045D01*
X92260861Y-86750047D01*
X92447266Y-86880568D01*
X92505275Y-86907618D01*
X92557714Y-86953791D01*
X92576866Y-87020984D01*
X92556650Y-87087865D01*
X92505275Y-87132382D01*
X92447267Y-87159431D01*
X92447265Y-87159432D01*
X92260858Y-87289954D01*
X92099954Y-87450858D01*
X91969432Y-87637265D01*
X91969431Y-87637267D01*
X91873261Y-87843502D01*
X91873258Y-87843511D01*
X91814366Y-88063302D01*
X91814364Y-88063313D01*
X91794532Y-88289998D01*
X91794532Y-88290001D01*
X91814364Y-88516686D01*
X91814366Y-88516697D01*
X91873258Y-88736488D01*
X91873261Y-88736497D01*
X91969431Y-88942732D01*
X91969432Y-88942734D01*
X92099954Y-89129141D01*
X92260858Y-89290045D01*
X92260861Y-89290047D01*
X92446624Y-89420118D01*
X92490248Y-89474693D01*
X92499500Y-89521692D01*
X92499500Y-89923306D01*
X92479815Y-89990345D01*
X92446623Y-90024881D01*
X92260859Y-90154953D01*
X92099954Y-90315858D01*
X91969432Y-90502265D01*
X91969431Y-90502267D01*
X91873261Y-90708502D01*
X91873258Y-90708511D01*
X91814366Y-90928302D01*
X91814364Y-90928313D01*
X91794532Y-91154998D01*
X91794532Y-91155001D01*
X91814364Y-91381686D01*
X91814366Y-91381697D01*
X91873258Y-91601488D01*
X91873261Y-91601497D01*
X91969431Y-91807732D01*
X91969432Y-91807734D01*
X92099954Y-91994141D01*
X92260858Y-92155045D01*
X92260861Y-92155047D01*
X92447266Y-92285568D01*
X92505275Y-92312618D01*
X92557714Y-92358791D01*
X92576866Y-92425984D01*
X92556650Y-92492865D01*
X92505275Y-92537382D01*
X92447267Y-92564431D01*
X92447265Y-92564432D01*
X92260858Y-92694954D01*
X92099954Y-92855858D01*
X91969432Y-93042265D01*
X91969431Y-93042267D01*
X91873261Y-93248502D01*
X91873258Y-93248511D01*
X91814366Y-93468302D01*
X91814364Y-93468313D01*
X91794532Y-93694998D01*
X91794532Y-93695001D01*
X91814364Y-93921686D01*
X91814366Y-93921697D01*
X91873258Y-94141488D01*
X91873261Y-94141497D01*
X91969431Y-94347732D01*
X91969432Y-94347734D01*
X92099954Y-94534141D01*
X92260858Y-94695045D01*
X92260861Y-94695047D01*
X92446624Y-94825118D01*
X92490248Y-94879693D01*
X92499500Y-94926692D01*
X92499500Y-94982084D01*
X92479815Y-95049123D01*
X92427011Y-95094878D01*
X92418833Y-95098266D01*
X92295671Y-95144202D01*
X92295664Y-95144206D01*
X92180455Y-95230452D01*
X92180452Y-95230455D01*
X92094206Y-95345664D01*
X92094202Y-95345671D01*
X92043908Y-95480517D01*
X92037501Y-95540116D01*
X92037501Y-95540123D01*
X92037500Y-95540135D01*
X92037500Y-97159870D01*
X92037501Y-97159876D01*
X92043908Y-97219483D01*
X92094202Y-97354328D01*
X92094206Y-97354335D01*
X92180452Y-97469544D01*
X92180455Y-97469547D01*
X92295664Y-97555793D01*
X92295671Y-97555797D01*
X92430517Y-97606091D01*
X92430516Y-97606091D01*
X92437444Y-97606835D01*
X92490127Y-97612500D01*
X94109872Y-97612499D01*
X94169483Y-97606091D01*
X94304331Y-97555796D01*
X94419546Y-97469546D01*
X94505796Y-97354331D01*
X94556091Y-97219483D01*
X94562500Y-97159873D01*
X94562499Y-96349997D01*
X99232677Y-96349997D01*
X99232677Y-96350002D01*
X99251929Y-96570062D01*
X99251930Y-96570070D01*
X99309104Y-96783445D01*
X99309105Y-96783447D01*
X99309106Y-96783450D01*
X99350743Y-96872741D01*
X99402466Y-96983662D01*
X99402468Y-96983666D01*
X99529170Y-97164615D01*
X99529175Y-97164621D01*
X99685378Y-97320824D01*
X99685384Y-97320829D01*
X99866333Y-97447531D01*
X99866335Y-97447532D01*
X99866338Y-97447534D01*
X100066550Y-97540894D01*
X100279932Y-97598070D01*
X100437123Y-97611822D01*
X100499998Y-97617323D01*
X100500000Y-97617323D01*
X100500002Y-97617323D01*
X100555151Y-97612498D01*
X100720068Y-97598070D01*
X100933450Y-97540894D01*
X101133662Y-97447534D01*
X101314620Y-97320826D01*
X101470826Y-97164620D01*
X101597534Y-96983662D01*
X101690894Y-96783450D01*
X101748070Y-96570068D01*
X101767323Y-96350000D01*
X101748070Y-96129932D01*
X101697177Y-95939997D01*
X102695034Y-95939997D01*
X102695034Y-95940002D01*
X102714858Y-96166599D01*
X102714860Y-96166610D01*
X102773730Y-96386317D01*
X102773735Y-96386331D01*
X102869863Y-96592478D01*
X102920974Y-96665472D01*
X103600000Y-95986446D01*
X103600000Y-95992661D01*
X103627259Y-96094394D01*
X103679920Y-96185606D01*
X103754394Y-96260080D01*
X103845606Y-96312741D01*
X103947339Y-96340000D01*
X103953553Y-96340000D01*
X103274526Y-97019025D01*
X103347513Y-97070132D01*
X103347521Y-97070136D01*
X103553668Y-97166264D01*
X103553682Y-97166269D01*
X103773389Y-97225139D01*
X103773400Y-97225141D01*
X103999998Y-97244966D01*
X104000002Y-97244966D01*
X104226599Y-97225141D01*
X104226610Y-97225139D01*
X104446317Y-97166269D01*
X104446331Y-97166264D01*
X104652478Y-97070136D01*
X104725471Y-97019024D01*
X104046447Y-96340000D01*
X104052661Y-96340000D01*
X104154394Y-96312741D01*
X104245606Y-96260080D01*
X104320080Y-96185606D01*
X104372741Y-96094394D01*
X104400000Y-95992661D01*
X104400000Y-95986447D01*
X105079024Y-96665471D01*
X105130136Y-96592478D01*
X105226264Y-96386331D01*
X105226269Y-96386317D01*
X105285139Y-96166610D01*
X105285141Y-96166599D01*
X105304966Y-95940002D01*
X105304966Y-95939997D01*
X105285141Y-95713400D01*
X105285139Y-95713389D01*
X105226269Y-95493682D01*
X105226264Y-95493668D01*
X105130136Y-95287521D01*
X105130132Y-95287513D01*
X105079025Y-95214526D01*
X104400000Y-95893551D01*
X104400000Y-95887339D01*
X104372741Y-95785606D01*
X104320080Y-95694394D01*
X104245606Y-95619920D01*
X104154394Y-95567259D01*
X104052661Y-95540000D01*
X104046445Y-95540000D01*
X104725472Y-94860974D01*
X104652478Y-94809863D01*
X104446331Y-94713735D01*
X104446317Y-94713730D01*
X104226610Y-94654860D01*
X104226599Y-94654858D01*
X104000002Y-94635034D01*
X103999998Y-94635034D01*
X103773400Y-94654858D01*
X103773389Y-94654860D01*
X103553682Y-94713730D01*
X103553673Y-94713734D01*
X103347516Y-94809866D01*
X103347512Y-94809868D01*
X103274526Y-94860973D01*
X103274526Y-94860974D01*
X103953553Y-95540000D01*
X103947339Y-95540000D01*
X103845606Y-95567259D01*
X103754394Y-95619920D01*
X103679920Y-95694394D01*
X103627259Y-95785606D01*
X103600000Y-95887339D01*
X103600000Y-95893552D01*
X102920974Y-95214526D01*
X102920973Y-95214526D01*
X102869868Y-95287512D01*
X102869866Y-95287516D01*
X102773734Y-95493673D01*
X102773730Y-95493682D01*
X102714860Y-95713389D01*
X102714858Y-95713400D01*
X102695034Y-95939997D01*
X101697177Y-95939997D01*
X101690894Y-95916550D01*
X101597534Y-95716339D01*
X101493148Y-95567259D01*
X101470827Y-95535381D01*
X101415962Y-95480516D01*
X101314620Y-95379174D01*
X101314616Y-95379171D01*
X101314615Y-95379170D01*
X101133666Y-95252468D01*
X101133662Y-95252466D01*
X101086457Y-95230454D01*
X100933450Y-95159106D01*
X100933447Y-95159105D01*
X100933445Y-95159104D01*
X100720070Y-95101930D01*
X100720062Y-95101929D01*
X100500002Y-95082677D01*
X100499998Y-95082677D01*
X100279937Y-95101929D01*
X100279929Y-95101930D01*
X100066554Y-95159104D01*
X100066548Y-95159107D01*
X99866340Y-95252465D01*
X99866338Y-95252466D01*
X99685377Y-95379175D01*
X99529175Y-95535377D01*
X99402466Y-95716338D01*
X99402465Y-95716340D01*
X99309107Y-95916548D01*
X99309104Y-95916554D01*
X99251930Y-96129929D01*
X99251929Y-96129937D01*
X99232677Y-96349997D01*
X94562499Y-96349997D01*
X94562499Y-95540128D01*
X94556091Y-95480517D01*
X94514821Y-95369867D01*
X94505797Y-95345671D01*
X94505793Y-95345664D01*
X94419547Y-95230455D01*
X94419544Y-95230452D01*
X94304335Y-95144206D01*
X94304328Y-95144202D01*
X94169482Y-95093908D01*
X94169483Y-95093908D01*
X94109883Y-95087501D01*
X94109881Y-95087500D01*
X94109873Y-95087500D01*
X94109865Y-95087500D01*
X93950212Y-95087500D01*
X93883173Y-95067815D01*
X93842825Y-95025499D01*
X93791502Y-94936604D01*
X93775029Y-94868704D01*
X93797882Y-94802677D01*
X93827760Y-94773034D01*
X93939139Y-94695047D01*
X94100047Y-94534139D01*
X94230568Y-94347734D01*
X94326739Y-94141496D01*
X94385635Y-93921692D01*
X94405468Y-93695000D01*
X94385635Y-93468308D01*
X94326739Y-93248504D01*
X94230568Y-93042266D01*
X94132539Y-92902265D01*
X94100045Y-92855858D01*
X93939141Y-92694954D01*
X93752734Y-92564432D01*
X93752728Y-92564429D01*
X93694725Y-92537382D01*
X93642285Y-92491210D01*
X93623133Y-92424017D01*
X93643348Y-92357135D01*
X93694725Y-92312618D01*
X93752734Y-92285568D01*
X93939139Y-92155047D01*
X94100047Y-91994139D01*
X94230568Y-91807734D01*
X94326739Y-91601496D01*
X94385635Y-91381692D01*
X94404955Y-91160861D01*
X94405468Y-91155001D01*
X94405468Y-91154998D01*
X94399801Y-91090230D01*
X94385635Y-90928308D01*
X94331613Y-90726693D01*
X94326741Y-90708511D01*
X94326738Y-90708502D01*
X94320224Y-90694532D01*
X94230568Y-90502266D01*
X94100047Y-90315861D01*
X94100045Y-90315858D01*
X93939140Y-90154953D01*
X93753377Y-90024881D01*
X93709752Y-89970304D01*
X93700500Y-89923306D01*
X93700500Y-89521692D01*
X93720185Y-89454653D01*
X93753374Y-89420119D01*
X93939139Y-89290047D01*
X94100047Y-89129139D01*
X94230568Y-88942734D01*
X94326739Y-88736496D01*
X94385635Y-88516692D01*
X94405468Y-88290000D01*
X94402628Y-88257544D01*
X94392549Y-88142335D01*
X94385635Y-88063308D01*
X94326739Y-87843504D01*
X94230568Y-87637266D01*
X94100047Y-87450861D01*
X94100045Y-87450858D01*
X93939141Y-87289954D01*
X93752734Y-87159432D01*
X93752728Y-87159429D01*
X93694725Y-87132382D01*
X93642285Y-87086210D01*
X93623133Y-87019017D01*
X93643348Y-86952135D01*
X93694725Y-86907618D01*
X93752734Y-86880568D01*
X93939139Y-86750047D01*
X94100047Y-86589139D01*
X94230568Y-86402734D01*
X94326739Y-86196496D01*
X94385635Y-85976692D01*
X94405468Y-85750000D01*
X94385635Y-85523308D01*
X94326739Y-85303504D01*
X94230568Y-85097266D01*
X94100047Y-84910861D01*
X94100045Y-84910858D01*
X93939140Y-84749953D01*
X93753377Y-84619881D01*
X93709752Y-84565304D01*
X93700500Y-84518306D01*
X93700500Y-84231692D01*
X93720185Y-84164653D01*
X93753374Y-84130119D01*
X93939139Y-84000047D01*
X94100047Y-83839139D01*
X94230568Y-83652734D01*
X94326739Y-83446496D01*
X94385635Y-83226692D01*
X94405468Y-83000000D01*
X94400218Y-82939998D01*
X94385635Y-82773313D01*
X94385635Y-82773308D01*
X94326739Y-82553504D01*
X94230568Y-82347266D01*
X94100047Y-82160861D01*
X94100045Y-82160858D01*
X93939141Y-81999954D01*
X93779989Y-81888516D01*
X93736364Y-81833940D01*
X93729170Y-81764441D01*
X93760692Y-81702086D01*
X93792092Y-81677887D01*
X93868626Y-81636470D01*
X94051784Y-81493913D01*
X94208979Y-81323153D01*
X94335924Y-81128849D01*
X94429157Y-80916300D01*
X94486134Y-80691305D01*
X94491051Y-80631965D01*
X94505300Y-80460006D01*
X94505300Y-80459993D01*
X94486135Y-80228702D01*
X94486133Y-80228691D01*
X94429157Y-80003699D01*
X94335924Y-79791151D01*
X94208983Y-79596852D01*
X94208980Y-79596849D01*
X94208979Y-79596847D01*
X94051784Y-79426087D01*
X94051779Y-79426083D01*
X94051777Y-79426081D01*
X93868634Y-79283535D01*
X93868622Y-79283527D01*
X93865473Y-79281823D01*
X93864433Y-79280790D01*
X93864334Y-79280726D01*
X93864347Y-79280705D01*
X93815887Y-79232599D01*
X93800500Y-79172773D01*
X93800500Y-77902618D01*
X93820185Y-77835579D01*
X93836814Y-77814942D01*
X96168738Y-75483017D01*
X96230061Y-75449533D01*
X96256419Y-75446699D01*
X98454263Y-75446699D01*
X98571653Y-75431246D01*
X98571657Y-75431244D01*
X98571662Y-75431244D01*
X98717741Y-75370736D01*
X98843182Y-75274482D01*
X98939436Y-75149041D01*
X98999944Y-75002962D01*
X99015400Y-74885561D01*
X99015399Y-73546198D01*
X100209545Y-73546198D01*
X100209545Y-73546201D01*
X100228939Y-73817360D01*
X100228940Y-73817367D01*
X100286723Y-74082993D01*
X100286725Y-74083001D01*
X100363230Y-74288120D01*
X100381730Y-74337719D01*
X100512009Y-74576307D01*
X100512010Y-74576308D01*
X100512013Y-74576313D01*
X100674929Y-74793942D01*
X100674933Y-74793946D01*
X100674938Y-74793952D01*
X100867147Y-74986161D01*
X100867153Y-74986166D01*
X100867158Y-74986171D01*
X101084787Y-75149087D01*
X101084791Y-75149089D01*
X101084792Y-75149090D01*
X101323381Y-75279369D01*
X101323380Y-75279369D01*
X101323384Y-75279370D01*
X101323387Y-75279372D01*
X101578099Y-75374375D01*
X101843740Y-75432161D01*
X102095505Y-75450167D01*
X102114899Y-75451555D01*
X102114900Y-75451555D01*
X102114901Y-75451555D01*
X102133000Y-75450260D01*
X102386060Y-75432161D01*
X102594878Y-75386735D01*
X102651697Y-75374376D01*
X102651697Y-75374375D01*
X102651701Y-75374375D01*
X102796060Y-75320530D01*
X102865750Y-75315546D01*
X102927071Y-75349028D01*
X102927074Y-75349031D01*
X104963181Y-77385138D01*
X104996666Y-77446461D01*
X104999500Y-77472819D01*
X104999500Y-79112773D01*
X104979815Y-79179812D01*
X104934527Y-79221823D01*
X104931377Y-79223527D01*
X104931365Y-79223535D01*
X104748222Y-79366081D01*
X104748219Y-79366084D01*
X104591016Y-79536852D01*
X104464075Y-79731151D01*
X104370842Y-79943699D01*
X104313866Y-80168691D01*
X104313864Y-80168702D01*
X104294700Y-80399993D01*
X104294700Y-80400006D01*
X104313864Y-80631297D01*
X104313866Y-80631308D01*
X104370842Y-80856300D01*
X104464075Y-81068848D01*
X104591016Y-81263147D01*
X104591019Y-81263151D01*
X104591021Y-81263153D01*
X104748216Y-81433913D01*
X104748219Y-81433915D01*
X104748222Y-81433918D01*
X104931365Y-81576464D01*
X104931376Y-81576471D01*
X105007904Y-81617886D01*
X105057495Y-81667105D01*
X105072603Y-81735322D01*
X105048433Y-81800878D01*
X105020010Y-81828516D01*
X104860858Y-81939954D01*
X104699954Y-82100858D01*
X104569432Y-82287265D01*
X104569431Y-82287267D01*
X104473261Y-82493502D01*
X104473258Y-82493511D01*
X104414366Y-82713302D01*
X104414364Y-82713313D01*
X104394532Y-82939998D01*
X104394532Y-82940001D01*
X104414364Y-83166686D01*
X104414366Y-83166697D01*
X104473258Y-83386488D01*
X104473261Y-83386497D01*
X104569431Y-83592732D01*
X104569432Y-83592734D01*
X104699954Y-83779141D01*
X104860858Y-83940045D01*
X104860861Y-83940047D01*
X105046624Y-84070118D01*
X105090248Y-84124693D01*
X105099500Y-84171692D01*
X105099500Y-84518306D01*
X105079815Y-84585345D01*
X105046623Y-84619881D01*
X104860859Y-84749953D01*
X104699954Y-84910858D01*
X104569432Y-85097265D01*
X104569431Y-85097267D01*
X104473261Y-85303502D01*
X104473258Y-85303511D01*
X104414366Y-85523302D01*
X104414364Y-85523313D01*
X104394532Y-85749998D01*
X104394532Y-85750001D01*
X104414364Y-85976686D01*
X104414366Y-85976697D01*
X104473258Y-86196488D01*
X104473261Y-86196497D01*
X104569431Y-86402732D01*
X104569432Y-86402734D01*
X104699954Y-86589141D01*
X104860858Y-86750045D01*
X104860861Y-86750047D01*
X105047266Y-86880568D01*
X105105275Y-86907618D01*
X105157714Y-86953791D01*
X105176866Y-87020984D01*
X105156650Y-87087865D01*
X105105275Y-87132382D01*
X105047267Y-87159431D01*
X105047265Y-87159432D01*
X104860858Y-87289954D01*
X104699954Y-87450858D01*
X104569432Y-87637265D01*
X104569431Y-87637267D01*
X104473261Y-87843502D01*
X104473258Y-87843511D01*
X104414366Y-88063302D01*
X104414364Y-88063313D01*
X104394532Y-88289998D01*
X104394532Y-88290001D01*
X104414364Y-88516686D01*
X104414366Y-88516697D01*
X104473258Y-88736488D01*
X104473261Y-88736497D01*
X104569431Y-88942732D01*
X104569432Y-88942734D01*
X104699954Y-89129141D01*
X104860858Y-89290045D01*
X104860861Y-89290047D01*
X105046624Y-89420118D01*
X105090248Y-89474693D01*
X105099500Y-89521692D01*
X105099500Y-89783306D01*
X105079815Y-89850345D01*
X105046623Y-89884881D01*
X104860859Y-90014953D01*
X104699954Y-90175858D01*
X104569432Y-90362265D01*
X104569431Y-90362267D01*
X104473261Y-90568502D01*
X104473258Y-90568511D01*
X104414366Y-90788302D01*
X104414364Y-90788313D01*
X104394532Y-91014998D01*
X104394532Y-91015001D01*
X104414364Y-91241686D01*
X104414366Y-91241697D01*
X104473258Y-91461488D01*
X104473261Y-91461497D01*
X104569431Y-91667732D01*
X104569432Y-91667734D01*
X104699954Y-91854141D01*
X104860858Y-92015045D01*
X104860861Y-92015047D01*
X105047266Y-92145568D01*
X105067594Y-92155047D01*
X105105275Y-92172618D01*
X105157714Y-92218791D01*
X105176866Y-92285984D01*
X105156650Y-92352865D01*
X105105275Y-92397382D01*
X105047267Y-92424431D01*
X105047265Y-92424432D01*
X104860858Y-92554954D01*
X104699954Y-92715858D01*
X104569432Y-92902265D01*
X104569431Y-92902267D01*
X104473261Y-93108502D01*
X104473258Y-93108511D01*
X104414366Y-93328302D01*
X104414364Y-93328313D01*
X104394532Y-93554998D01*
X104394532Y-93555001D01*
X104414364Y-93781686D01*
X104414366Y-93781697D01*
X104473258Y-94001488D01*
X104473261Y-94001497D01*
X104569431Y-94207732D01*
X104569432Y-94207734D01*
X104699954Y-94394141D01*
X104860858Y-94555045D01*
X104860861Y-94555047D01*
X105047266Y-94685568D01*
X105253504Y-94781739D01*
X105473308Y-94840635D01*
X105635230Y-94854801D01*
X105699998Y-94860468D01*
X105700000Y-94860468D01*
X105700002Y-94860468D01*
X105756673Y-94855509D01*
X105926692Y-94840635D01*
X106146496Y-94781739D01*
X106352734Y-94685568D01*
X106539139Y-94555047D01*
X106700047Y-94394139D01*
X106830568Y-94207734D01*
X106926739Y-94001496D01*
X106985635Y-93781692D01*
X107005468Y-93555000D01*
X107005351Y-93553668D01*
X106987315Y-93347512D01*
X106985635Y-93328308D01*
X106926739Y-93108504D01*
X106830568Y-92902266D01*
X106700047Y-92715861D01*
X106700045Y-92715858D01*
X106539141Y-92554954D01*
X106352734Y-92424432D01*
X106352728Y-92424429D01*
X106294725Y-92397382D01*
X106242285Y-92351210D01*
X106223133Y-92284017D01*
X106243348Y-92217135D01*
X106294725Y-92172618D01*
X106352734Y-92145568D01*
X106539139Y-92015047D01*
X106700047Y-91854139D01*
X106830568Y-91667734D01*
X106926739Y-91461496D01*
X106985635Y-91241692D01*
X107005468Y-91015000D01*
X106985635Y-90788308D01*
X106926739Y-90568504D01*
X106830568Y-90362266D01*
X106700047Y-90175861D01*
X106700045Y-90175858D01*
X106539140Y-90014953D01*
X106353377Y-89884881D01*
X106309752Y-89830304D01*
X106300500Y-89783306D01*
X106300500Y-89521692D01*
X106320185Y-89454653D01*
X106353374Y-89420119D01*
X106539139Y-89290047D01*
X106700047Y-89129139D01*
X106830568Y-88942734D01*
X106926739Y-88736496D01*
X106985635Y-88516692D01*
X107005468Y-88290000D01*
X107002628Y-88257544D01*
X106992549Y-88142335D01*
X106985635Y-88063308D01*
X106926739Y-87843504D01*
X106830568Y-87637266D01*
X106700047Y-87450861D01*
X106700045Y-87450858D01*
X106539141Y-87289954D01*
X106352734Y-87159432D01*
X106352728Y-87159429D01*
X106294725Y-87132382D01*
X106242285Y-87086210D01*
X106223133Y-87019017D01*
X106243348Y-86952135D01*
X106294725Y-86907618D01*
X106352734Y-86880568D01*
X106539139Y-86750047D01*
X106700047Y-86589139D01*
X106830568Y-86402734D01*
X106926739Y-86196496D01*
X106985635Y-85976692D01*
X107005468Y-85750000D01*
X106985635Y-85523308D01*
X106926739Y-85303504D01*
X106830568Y-85097266D01*
X106700047Y-84910861D01*
X106700045Y-84910858D01*
X106539140Y-84749953D01*
X106353377Y-84619881D01*
X106309752Y-84565304D01*
X106300500Y-84518306D01*
X106300500Y-84171692D01*
X106320185Y-84104653D01*
X106353374Y-84070119D01*
X106539139Y-83940047D01*
X106700047Y-83779139D01*
X106830568Y-83592734D01*
X106926739Y-83386496D01*
X106985635Y-83166692D01*
X107005468Y-82940000D01*
X106985635Y-82713308D01*
X106926739Y-82493504D01*
X106830568Y-82287266D01*
X106700047Y-82100861D01*
X106700045Y-82100858D01*
X106539141Y-81939954D01*
X106379989Y-81828516D01*
X106336364Y-81773940D01*
X106329170Y-81704441D01*
X106360692Y-81642086D01*
X106392092Y-81617887D01*
X106468626Y-81576470D01*
X106651784Y-81433913D01*
X106808979Y-81263153D01*
X106935924Y-81068849D01*
X107029157Y-80856300D01*
X107086134Y-80631305D01*
X107086869Y-80622433D01*
X107105300Y-80400006D01*
X107105300Y-80399993D01*
X107086135Y-80168702D01*
X107086133Y-80168691D01*
X107029157Y-79943699D01*
X106935924Y-79731151D01*
X106808983Y-79536852D01*
X106808980Y-79536849D01*
X106808979Y-79536847D01*
X106651784Y-79366087D01*
X106651779Y-79366083D01*
X106651777Y-79366081D01*
X106468634Y-79223535D01*
X106468622Y-79223527D01*
X106465473Y-79221823D01*
X106464433Y-79220790D01*
X106464334Y-79220726D01*
X106464347Y-79220705D01*
X106415887Y-79172599D01*
X106400500Y-79112773D01*
X106400500Y-77062304D01*
X106373581Y-76926977D01*
X106373580Y-76926976D01*
X106373580Y-76926972D01*
X106351654Y-76874038D01*
X106320777Y-76799492D01*
X106244112Y-76684754D01*
X106244111Y-76684753D01*
X104917738Y-75358381D01*
X104884253Y-75297058D01*
X104889237Y-75227366D01*
X104931109Y-75171433D01*
X104996573Y-75147016D01*
X105005419Y-75146700D01*
X112831889Y-75146700D01*
X112898928Y-75166385D01*
X112919570Y-75183019D01*
X115363181Y-77626630D01*
X115396666Y-77687953D01*
X115399500Y-77714311D01*
X115399500Y-79787401D01*
X115379815Y-79854440D01*
X115369340Y-79867902D01*
X115369483Y-79868018D01*
X115366809Y-79871304D01*
X115201098Y-80106064D01*
X115068894Y-80361206D01*
X114972667Y-80631962D01*
X114972666Y-80631965D01*
X114914201Y-80913319D01*
X114894592Y-81200000D01*
X114914201Y-81486680D01*
X114972666Y-81768034D01*
X114972667Y-81768037D01*
X115068894Y-82038793D01*
X115068893Y-82038793D01*
X115201098Y-82293935D01*
X115366812Y-82528700D01*
X115451923Y-82619831D01*
X115562947Y-82738708D01*
X115785853Y-82920055D01*
X115917316Y-83000000D01*
X116031382Y-83069365D01*
X116218237Y-83150526D01*
X116294942Y-83183844D01*
X116571642Y-83261371D01*
X116821920Y-83295771D01*
X116856321Y-83300500D01*
X116856322Y-83300500D01*
X117143679Y-83300500D01*
X117174370Y-83296281D01*
X117428358Y-83261371D01*
X117705058Y-83183844D01*
X117818015Y-83134779D01*
X117968617Y-83069365D01*
X117968620Y-83069363D01*
X117968625Y-83069361D01*
X118214147Y-82920055D01*
X118437053Y-82738708D01*
X118633189Y-82528698D01*
X118798901Y-82293936D01*
X118931104Y-82038797D01*
X119027334Y-81768032D01*
X119085798Y-81486686D01*
X119105408Y-81200000D01*
X119085798Y-80913314D01*
X119027334Y-80631968D01*
X119027099Y-80631308D01*
X118931105Y-80361206D01*
X118931106Y-80361206D01*
X118798901Y-80106064D01*
X118726644Y-80003699D01*
X118633189Y-79871302D01*
X118633184Y-79871296D01*
X118630517Y-79868018D01*
X118631467Y-79867244D01*
X118602504Y-79809606D01*
X118600500Y-79787401D01*
X118600500Y-79249995D01*
X121294592Y-79249995D01*
X121294592Y-79250004D01*
X121314196Y-79511620D01*
X121314197Y-79511625D01*
X121372576Y-79767402D01*
X121372578Y-79767411D01*
X121372580Y-79767416D01*
X121468432Y-80011643D01*
X121599614Y-80238857D01*
X121697182Y-80361203D01*
X121763198Y-80443985D01*
X121944753Y-80612441D01*
X121955521Y-80622433D01*
X122172296Y-80770228D01*
X122172301Y-80770230D01*
X122172302Y-80770231D01*
X122172303Y-80770232D01*
X122316301Y-80839577D01*
X122379301Y-80869916D01*
X122431161Y-80916738D01*
X122449500Y-80981636D01*
X122449500Y-84226630D01*
X122449499Y-84226648D01*
X122449499Y-84392354D01*
X122449498Y-84392354D01*
X122490423Y-84545085D01*
X122519358Y-84595200D01*
X122519359Y-84595204D01*
X122519360Y-84595204D01*
X122569479Y-84682014D01*
X122569481Y-84682017D01*
X122688349Y-84800885D01*
X122688355Y-84800890D01*
X122708203Y-84820738D01*
X122741688Y-84882061D01*
X122736704Y-84951753D01*
X122719789Y-84982730D01*
X122656204Y-85067668D01*
X122656202Y-85067671D01*
X122605908Y-85202517D01*
X122599501Y-85262116D01*
X122599501Y-85262123D01*
X122599500Y-85262135D01*
X122599500Y-86657870D01*
X122599501Y-86657876D01*
X122605908Y-86717483D01*
X122656202Y-86852328D01*
X122656206Y-86852335D01*
X122742452Y-86967544D01*
X122742455Y-86967547D01*
X122857664Y-87053793D01*
X122857671Y-87053797D01*
X122992517Y-87104091D01*
X122992516Y-87104091D01*
X122999444Y-87104835D01*
X123052127Y-87110500D01*
X123586480Y-87110499D01*
X123653518Y-87130183D01*
X123699273Y-87182987D01*
X123709217Y-87252146D01*
X123680192Y-87315702D01*
X123621414Y-87353476D01*
X123609264Y-87356388D01*
X123433941Y-87389162D01*
X123433936Y-87389163D01*
X123235210Y-87466149D01*
X123235201Y-87466154D01*
X123132992Y-87529438D01*
X123132991Y-87529439D01*
X123728554Y-88125000D01*
X123700630Y-88125000D01*
X123605255Y-88150556D01*
X123519745Y-88199925D01*
X123449925Y-88269745D01*
X123400556Y-88355255D01*
X123375000Y-88450630D01*
X123375000Y-88478554D01*
X122776835Y-87880389D01*
X122768056Y-87892015D01*
X122673066Y-88082783D01*
X122673058Y-88082803D01*
X122614738Y-88287780D01*
X122614737Y-88287783D01*
X122595073Y-88499999D01*
X122595073Y-88500000D01*
X122614737Y-88712216D01*
X122614738Y-88712219D01*
X122673058Y-88917196D01*
X122673066Y-88917216D01*
X122768060Y-89107990D01*
X122776834Y-89119609D01*
X122776835Y-89119609D01*
X123375000Y-88521445D01*
X123375000Y-88549370D01*
X123400556Y-88644745D01*
X123449925Y-88730255D01*
X123519745Y-88800075D01*
X123605255Y-88849444D01*
X123700630Y-88875000D01*
X123728553Y-88875000D01*
X123132991Y-89470559D01*
X123235204Y-89533847D01*
X123235208Y-89533849D01*
X123433936Y-89610836D01*
X123433941Y-89610837D01*
X123643439Y-89650000D01*
X123856561Y-89650000D01*
X124066058Y-89610837D01*
X124066063Y-89610836D01*
X124264791Y-89533849D01*
X124264798Y-89533846D01*
X124367006Y-89470560D01*
X124367006Y-89470559D01*
X123771448Y-88875000D01*
X123799370Y-88875000D01*
X123894745Y-88849444D01*
X123980255Y-88800075D01*
X124050075Y-88730255D01*
X124099444Y-88644745D01*
X124125000Y-88549370D01*
X124125000Y-88521446D01*
X124723163Y-89119610D01*
X124731935Y-89107996D01*
X124731938Y-89107991D01*
X124826935Y-88917211D01*
X124826941Y-88917196D01*
X124885261Y-88712219D01*
X124885262Y-88712216D01*
X124905456Y-88494292D01*
X124907859Y-88494514D01*
X124924612Y-88437461D01*
X124977416Y-88391706D01*
X125028927Y-88380500D01*
X125126608Y-88380500D01*
X125126610Y-88380500D01*
X125336198Y-88341321D01*
X125535019Y-88264298D01*
X125716302Y-88152052D01*
X125873872Y-88008407D01*
X126002366Y-87838255D01*
X126002367Y-87838253D01*
X126097403Y-87647394D01*
X126097403Y-87647393D01*
X126097405Y-87647389D01*
X126155756Y-87442310D01*
X126175429Y-87230000D01*
X126155756Y-87017690D01*
X126097405Y-86812611D01*
X126097403Y-86812606D01*
X126097403Y-86812605D01*
X126002367Y-86621746D01*
X125873872Y-86451593D01*
X125716302Y-86307948D01*
X125535019Y-86195702D01*
X125535017Y-86195701D01*
X125383095Y-86136847D01*
X125336198Y-86118679D01*
X125126610Y-86079500D01*
X125024499Y-86079500D01*
X124957460Y-86059815D01*
X124911705Y-86007011D01*
X124900499Y-85955500D01*
X124900499Y-85262129D01*
X124900498Y-85262123D01*
X124900497Y-85262116D01*
X124894091Y-85202517D01*
X124854835Y-85097267D01*
X124843797Y-85067671D01*
X124843793Y-85067664D01*
X124757547Y-84952455D01*
X124757544Y-84952452D01*
X124642335Y-84866206D01*
X124642328Y-84866202D01*
X124507482Y-84815908D01*
X124507483Y-84815908D01*
X124447883Y-84809501D01*
X124447881Y-84809500D01*
X124447873Y-84809500D01*
X124447865Y-84809500D01*
X124331698Y-84809500D01*
X124264659Y-84789815D01*
X124218904Y-84737011D01*
X124211925Y-84717599D01*
X124199577Y-84671515D01*
X124169507Y-84619432D01*
X124120520Y-84534584D01*
X124008716Y-84422780D01*
X124008715Y-84422779D01*
X124004385Y-84418449D01*
X124004374Y-84418439D01*
X123686819Y-84100884D01*
X123653334Y-84039561D01*
X123650500Y-84013203D01*
X123650500Y-80981636D01*
X123670185Y-80914597D01*
X123720698Y-80869916D01*
X123927704Y-80770228D01*
X124144479Y-80622433D01*
X124336805Y-80443981D01*
X124500386Y-80238857D01*
X124631568Y-80011643D01*
X124727420Y-79767416D01*
X124785802Y-79511630D01*
X124785803Y-79511620D01*
X124805408Y-79250004D01*
X124805408Y-79249995D01*
X124785803Y-78988379D01*
X124785802Y-78988374D01*
X124785802Y-78988370D01*
X124727420Y-78732584D01*
X124631568Y-78488357D01*
X124500386Y-78261143D01*
X124336805Y-78056019D01*
X124336804Y-78056018D01*
X124336801Y-78056014D01*
X124144479Y-77877567D01*
X124082894Y-77835579D01*
X123927704Y-77729772D01*
X123927700Y-77729770D01*
X123927697Y-77729768D01*
X123927696Y-77729767D01*
X123691325Y-77615938D01*
X123691327Y-77615938D01*
X123440623Y-77538606D01*
X123440619Y-77538605D01*
X123440615Y-77538604D01*
X123315823Y-77519794D01*
X123181187Y-77499500D01*
X123181182Y-77499500D01*
X122918818Y-77499500D01*
X122918812Y-77499500D01*
X122757247Y-77523853D01*
X122659385Y-77538604D01*
X122659382Y-77538605D01*
X122659376Y-77538606D01*
X122408673Y-77615938D01*
X122172303Y-77729767D01*
X122172302Y-77729768D01*
X121955520Y-77877567D01*
X121763198Y-78056014D01*
X121599614Y-78261143D01*
X121468432Y-78488356D01*
X121372582Y-78732578D01*
X121372576Y-78732597D01*
X121314197Y-78988374D01*
X121314196Y-78988379D01*
X121294592Y-79249995D01*
X118600500Y-79249995D01*
X118600500Y-76874038D01*
X118588693Y-76799492D01*
X118561090Y-76625215D01*
X118483241Y-76385621D01*
X118483239Y-76385618D01*
X118483239Y-76385616D01*
X118441747Y-76304184D01*
X118368870Y-76161155D01*
X118349952Y-76135117D01*
X118220798Y-75957350D01*
X118220794Y-75957345D01*
X114588858Y-72325409D01*
X114588856Y-72325407D01*
X114547968Y-72295700D01*
X114385045Y-72177330D01*
X114314947Y-72141613D01*
X114160583Y-72062960D01*
X113920985Y-71985110D01*
X113672162Y-71945700D01*
X113672161Y-71945700D01*
X103181034Y-71945700D01*
X103121607Y-71930532D01*
X102906418Y-71813030D01*
X102906419Y-71813030D01*
X102856820Y-71794530D01*
X102651701Y-71718025D01*
X102651694Y-71718023D01*
X102651693Y-71718023D01*
X102386067Y-71660240D01*
X102386060Y-71660239D01*
X102114901Y-71640845D01*
X102114899Y-71640845D01*
X101843739Y-71660239D01*
X101843732Y-71660240D01*
X101578106Y-71718023D01*
X101578102Y-71718024D01*
X101578099Y-71718025D01*
X101450743Y-71765526D01*
X101323380Y-71813030D01*
X101084792Y-71943309D01*
X101084791Y-71943310D01*
X100867159Y-72106228D01*
X100867147Y-72106238D01*
X100674938Y-72298447D01*
X100674928Y-72298459D01*
X100512010Y-72516091D01*
X100512009Y-72516092D01*
X100381730Y-72754680D01*
X100334226Y-72882043D01*
X100286725Y-73009399D01*
X100286724Y-73009402D01*
X100286723Y-73009406D01*
X100228940Y-73275032D01*
X100228939Y-73275039D01*
X100209545Y-73546198D01*
X99015399Y-73546198D01*
X99015399Y-72206840D01*
X99015399Y-72206839D01*
X99015399Y-72206836D01*
X98999946Y-72089446D01*
X98999944Y-72089439D01*
X98999944Y-72089438D01*
X98939436Y-71943359D01*
X98843182Y-71817918D01*
X98749012Y-71745659D01*
X98707811Y-71689232D01*
X98700500Y-71647284D01*
X98700500Y-67000000D01*
X108894592Y-67000000D01*
X108914201Y-67286680D01*
X108972666Y-67568034D01*
X108972667Y-67568037D01*
X109068894Y-67838793D01*
X109068893Y-67838793D01*
X109201098Y-68093935D01*
X109366812Y-68328700D01*
X109399225Y-68363405D01*
X109562947Y-68538708D01*
X109596173Y-68565739D01*
X109785853Y-68720055D01*
X110031382Y-68869365D01*
X110218237Y-68950526D01*
X110294942Y-68983844D01*
X110571642Y-69061371D01*
X110821920Y-69095771D01*
X110856321Y-69100500D01*
X110856322Y-69100500D01*
X111143679Y-69100500D01*
X111174370Y-69096281D01*
X111428358Y-69061371D01*
X111705058Y-68983844D01*
X111818015Y-68934779D01*
X111968617Y-68869365D01*
X111968620Y-68869363D01*
X111968625Y-68869361D01*
X112214147Y-68720055D01*
X112437053Y-68538708D01*
X112633189Y-68328698D01*
X112798901Y-68093936D01*
X112931104Y-67838797D01*
X113027334Y-67568032D01*
X113085798Y-67286686D01*
X113090632Y-67216004D01*
X113114845Y-67150465D01*
X113126655Y-67136792D01*
X113213449Y-67049998D01*
X121044390Y-67049998D01*
X121044390Y-67050001D01*
X121064804Y-67335433D01*
X121125628Y-67615037D01*
X121225635Y-67883166D01*
X121362770Y-68134309D01*
X121362775Y-68134317D01*
X121534254Y-68363387D01*
X121534270Y-68363405D01*
X121736594Y-68565729D01*
X121736612Y-68565745D01*
X121965682Y-68737224D01*
X121965690Y-68737229D01*
X122216833Y-68874364D01*
X122216832Y-68874364D01*
X122216836Y-68874365D01*
X122216839Y-68874367D01*
X122484954Y-68974369D01*
X122484960Y-68974370D01*
X122484962Y-68974371D01*
X122764566Y-69035195D01*
X122764568Y-69035195D01*
X122764572Y-69035196D01*
X123018220Y-69053337D01*
X123049999Y-69055610D01*
X123050000Y-69055610D01*
X123050001Y-69055610D01*
X123078595Y-69053564D01*
X123335428Y-69035196D01*
X123615046Y-68974369D01*
X123883161Y-68874367D01*
X124134315Y-68737226D01*
X124363395Y-68565739D01*
X124565739Y-68363395D01*
X124737226Y-68134315D01*
X124874367Y-67883161D01*
X124974369Y-67615046D01*
X125035196Y-67335428D01*
X125055610Y-67050000D01*
X125035196Y-66764572D01*
X124974369Y-66484954D01*
X124874367Y-66216839D01*
X124843987Y-66161203D01*
X124737229Y-65965690D01*
X124737224Y-65965682D01*
X124565745Y-65736612D01*
X124565729Y-65736594D01*
X124363405Y-65534270D01*
X124363387Y-65534254D01*
X124134317Y-65362775D01*
X124134309Y-65362770D01*
X123883166Y-65225635D01*
X123883167Y-65225635D01*
X123775915Y-65185632D01*
X123615046Y-65125631D01*
X123615043Y-65125630D01*
X123615037Y-65125628D01*
X123335433Y-65064804D01*
X123050001Y-65044390D01*
X123049999Y-65044390D01*
X122764566Y-65064804D01*
X122484962Y-65125628D01*
X122216833Y-65225635D01*
X121965690Y-65362770D01*
X121965682Y-65362775D01*
X121736612Y-65534254D01*
X121736594Y-65534270D01*
X121534270Y-65736594D01*
X121534254Y-65736612D01*
X121362775Y-65965682D01*
X121362770Y-65965690D01*
X121225635Y-66216833D01*
X121125628Y-66484962D01*
X121064804Y-66764566D01*
X121044390Y-67049998D01*
X113213449Y-67049998D01*
X118626630Y-61636819D01*
X118687953Y-61603334D01*
X118714311Y-61600500D01*
X124800811Y-61600500D01*
X124837360Y-61606008D01*
X125020542Y-61662513D01*
X125272565Y-61700500D01*
X125527435Y-61700500D01*
X125779458Y-61662513D01*
X126023004Y-61587389D01*
X126252634Y-61476805D01*
X126463217Y-61333232D01*
X126650050Y-61159877D01*
X126808959Y-60960612D01*
X126923338Y-60762499D01*
X126973905Y-60714285D01*
X127030725Y-60700500D01*
X131158481Y-60700500D01*
X131225520Y-60720185D01*
X131246162Y-60736819D01*
X135053453Y-64544111D01*
X135053454Y-64544112D01*
X135168190Y-64620776D01*
X135266790Y-64661617D01*
X135295671Y-64673580D01*
X135295672Y-64673580D01*
X135295677Y-64673582D01*
X135322545Y-64678925D01*
X135322551Y-64678926D01*
X135322591Y-64678934D01*
X135412937Y-64696905D01*
X135431006Y-64700500D01*
X142999960Y-64700500D01*
X143068954Y-64700504D01*
X143068970Y-64700500D01*
X143068978Y-64700500D01*
X143068993Y-64700500D01*
X143130978Y-64688169D01*
X143130978Y-64688171D01*
X143130986Y-64688167D01*
X143188899Y-64676652D01*
X143202576Y-64673933D01*
X143204304Y-64673617D01*
X143204306Y-64673616D01*
X143205845Y-64672951D01*
X143262136Y-64649635D01*
X143330808Y-64621194D01*
X143331826Y-64620786D01*
X143331828Y-64620785D01*
X143332973Y-64619999D01*
X143353729Y-64606128D01*
X143385645Y-64584802D01*
X143385653Y-64584800D01*
X143385652Y-64584799D01*
X143404802Y-64572004D01*
X143445113Y-64545073D01*
X143446568Y-64544132D01*
X143446578Y-64544124D01*
X143447932Y-64542723D01*
X143490108Y-64500547D01*
X147799550Y-60191598D01*
X147799600Y-60191555D01*
X147804539Y-60186615D01*
X147804542Y-60186614D01*
X147849772Y-60141383D01*
X147900601Y-60090560D01*
X147902055Y-60089159D01*
X147902073Y-60089138D01*
X147902897Y-60087870D01*
X147938693Y-60034297D01*
X147978531Y-59974683D01*
X147978765Y-59974338D01*
X147978767Y-59974335D01*
X147978875Y-59974067D01*
X147995658Y-59933550D01*
X148006780Y-59906703D01*
X148006780Y-59906702D01*
X148010137Y-59898596D01*
X148030453Y-59849557D01*
X148031635Y-59846893D01*
X148032117Y-59844125D01*
X148045171Y-59778500D01*
X148058496Y-59711534D01*
X148058496Y-59711523D01*
X148058498Y-59711500D01*
X148058500Y-59711493D01*
X148058500Y-59625215D01*
X148058503Y-59573546D01*
X148058501Y-59573539D01*
X148058502Y-59567834D01*
X148058500Y-59567768D01*
X148058500Y-59016999D01*
X148078185Y-58949960D01*
X148130989Y-58904205D01*
X148182500Y-58892999D01*
X148546863Y-58892999D01*
X148664253Y-58877546D01*
X148664257Y-58877544D01*
X148664262Y-58877544D01*
X148810341Y-58817036D01*
X148935782Y-58720782D01*
X149032036Y-58595341D01*
X149092544Y-58449262D01*
X149108000Y-58331861D01*
X149107999Y-56253140D01*
X149107999Y-56253139D01*
X149107999Y-56253136D01*
X149092546Y-56135746D01*
X149092544Y-56135739D01*
X149092544Y-56135738D01*
X149032036Y-55989659D01*
X148935782Y-55864218D01*
X148810341Y-55767964D01*
X148758633Y-55746546D01*
X148664262Y-55707456D01*
X148664260Y-55707455D01*
X148546870Y-55692001D01*
X148546867Y-55692000D01*
X148546861Y-55692000D01*
X147483464Y-55692000D01*
X147483462Y-55692000D01*
X147231538Y-55692000D01*
X147231534Y-55692000D01*
X146168136Y-55692000D01*
X146050746Y-55707453D01*
X146050737Y-55707456D01*
X145904660Y-55767963D01*
X145779218Y-55864218D01*
X145682963Y-55989660D01*
X145622456Y-56135737D01*
X145622455Y-56135739D01*
X145607433Y-56249850D01*
X145607001Y-56253136D01*
X145607000Y-56253145D01*
X145607000Y-58331863D01*
X145622453Y-58449253D01*
X145622456Y-58449262D01*
X145648978Y-58513293D01*
X145682964Y-58595341D01*
X145779218Y-58720782D01*
X145904659Y-58817036D01*
X146050738Y-58877544D01*
X146168139Y-58893000D01*
X146533500Y-58892999D01*
X146600539Y-58912683D01*
X146646294Y-58965487D01*
X146657500Y-59016999D01*
X146657500Y-59300952D01*
X146637815Y-59367991D01*
X146621176Y-59388638D01*
X142746185Y-63263186D01*
X142684860Y-63296668D01*
X142658509Y-63299500D01*
X135841519Y-63299500D01*
X135774480Y-63279815D01*
X135753838Y-63263181D01*
X131946546Y-59455888D01*
X131946545Y-59455887D01*
X131831807Y-59379222D01*
X131704332Y-59326421D01*
X131704322Y-59326418D01*
X131568996Y-59299500D01*
X131568994Y-59299500D01*
X131568993Y-59299500D01*
X127124500Y-59299500D01*
X127057461Y-59279815D01*
X127011706Y-59227011D01*
X127000500Y-59175500D01*
X127000500Y-55600009D01*
X127009072Y-55554706D01*
X127009203Y-55554372D01*
X127029508Y-55502637D01*
X127086222Y-55254157D01*
X127105268Y-55000000D01*
X127086222Y-54745843D01*
X127029508Y-54497363D01*
X126936393Y-54260112D01*
X126808959Y-54039388D01*
X126650050Y-53840123D01*
X126463217Y-53666768D01*
X126252634Y-53523195D01*
X126252630Y-53523193D01*
X126252627Y-53523191D01*
X126252626Y-53523190D01*
X126023006Y-53412612D01*
X126023008Y-53412612D01*
X125779466Y-53337489D01*
X125779462Y-53337488D01*
X125779458Y-53337487D01*
X125658231Y-53319214D01*
X125527440Y-53299500D01*
X125527435Y-53299500D01*
X125272565Y-53299500D01*
X125272559Y-53299500D01*
X125115609Y-53323157D01*
X125020542Y-53337487D01*
X125020539Y-53337488D01*
X125020533Y-53337489D01*
X124776992Y-53412612D01*
X124547373Y-53523190D01*
X124547372Y-53523191D01*
X124336782Y-53666768D01*
X124149952Y-53840121D01*
X124149950Y-53840123D01*
X123991041Y-54039388D01*
X123863608Y-54260109D01*
X123770492Y-54497362D01*
X123770490Y-54497369D01*
X123713777Y-54745845D01*
X123694732Y-54999995D01*
X123694732Y-55000004D01*
X123713777Y-55254154D01*
X123770490Y-55502630D01*
X123770492Y-55502637D01*
X123790928Y-55554706D01*
X123799500Y-55600009D01*
X123799500Y-58275500D01*
X123779815Y-58342539D01*
X123727011Y-58388294D01*
X123675500Y-58399500D01*
X117874038Y-58399500D01*
X117749626Y-58419205D01*
X117625214Y-58438910D01*
X117385616Y-58516760D01*
X117161154Y-58631130D01*
X117119537Y-58661367D01*
X116962115Y-58775741D01*
X116962111Y-58775744D01*
X116957350Y-58779201D01*
X116957339Y-58779211D01*
X110863465Y-64873084D01*
X110802142Y-64906569D01*
X110792670Y-64908248D01*
X110571639Y-64938629D01*
X110371040Y-64994834D01*
X110294942Y-65016156D01*
X110294939Y-65016156D01*
X110294936Y-65016158D01*
X110294935Y-65016158D01*
X110031382Y-65130634D01*
X109785853Y-65279944D01*
X109562950Y-65461289D01*
X109366812Y-65671299D01*
X109201098Y-65906064D01*
X109068894Y-66161206D01*
X108972667Y-66431962D01*
X108972666Y-66431965D01*
X108914201Y-66713319D01*
X108894592Y-67000000D01*
X98700500Y-67000000D01*
X98700500Y-63161132D01*
X98715667Y-63101707D01*
X98833172Y-62886513D01*
X98928175Y-62631801D01*
X98985961Y-62366160D01*
X99005355Y-62095000D01*
X98985961Y-61823840D01*
X98928175Y-61558199D01*
X98833172Y-61303487D01*
X98833170Y-61303484D01*
X98833169Y-61303480D01*
X98702890Y-61064892D01*
X98702889Y-61064891D01*
X98702887Y-61064887D01*
X98539971Y-60847258D01*
X98539966Y-60847253D01*
X98539961Y-60847247D01*
X98448359Y-60755645D01*
X100199500Y-60755645D01*
X100199500Y-63434363D01*
X100214953Y-63551753D01*
X100214956Y-63551762D01*
X100275464Y-63697841D01*
X100371718Y-63823282D01*
X100497159Y-63919536D01*
X100643238Y-63980044D01*
X100760639Y-63995500D01*
X103439360Y-63995499D01*
X103439363Y-63995499D01*
X103556753Y-63980046D01*
X103556757Y-63980044D01*
X103556762Y-63980044D01*
X103702841Y-63919536D01*
X103828282Y-63823282D01*
X103889106Y-63744013D01*
X103945534Y-63702811D01*
X103987482Y-63695500D01*
X105630961Y-63695500D01*
X105630962Y-63695500D01*
X105879785Y-63656090D01*
X106119379Y-63578241D01*
X106343845Y-63463870D01*
X106547656Y-63315793D01*
X106725793Y-63137656D01*
X108126630Y-61736819D01*
X108187953Y-61703334D01*
X108214311Y-61700500D01*
X108221016Y-61700500D01*
X108256459Y-61698039D01*
X108309630Y-61694349D01*
X108309636Y-61694347D01*
X108309640Y-61694347D01*
X108517176Y-61645534D01*
X108517174Y-61645534D01*
X108517185Y-61645532D01*
X108712237Y-61559409D01*
X108888142Y-61438911D01*
X109038911Y-61288142D01*
X109159409Y-61112237D01*
X109245532Y-60917185D01*
X109281914Y-60762500D01*
X109294347Y-60709640D01*
X109294347Y-60709636D01*
X109294349Y-60709630D01*
X109300500Y-60621012D01*
X109300500Y-59378988D01*
X109294349Y-59290370D01*
X109294347Y-59290364D01*
X109294347Y-59290359D01*
X109245533Y-59082820D01*
X109245532Y-59082815D01*
X109211065Y-59004753D01*
X109200500Y-58954668D01*
X109200500Y-56045329D01*
X109211065Y-55995244D01*
X109245532Y-55917185D01*
X109280629Y-55767963D01*
X109294347Y-55709640D01*
X109294347Y-55709636D01*
X109294349Y-55709630D01*
X109300500Y-55621012D01*
X109300500Y-54378988D01*
X109294349Y-54290370D01*
X109294347Y-54290364D01*
X109294347Y-54290359D01*
X109245534Y-54082823D01*
X109245532Y-54082817D01*
X109245532Y-54082815D01*
X109159409Y-53887763D01*
X109038911Y-53711858D01*
X109038906Y-53711852D01*
X108888147Y-53561093D01*
X108888141Y-53561088D01*
X108712238Y-53440592D01*
X108712239Y-53440592D01*
X108712237Y-53440591D01*
X108517185Y-53354468D01*
X108517183Y-53354467D01*
X108517182Y-53354467D01*
X108517176Y-53354465D01*
X108309640Y-53305652D01*
X108309624Y-53305650D01*
X108221016Y-53299500D01*
X108221012Y-53299500D01*
X106978988Y-53299500D01*
X106978984Y-53299500D01*
X106890375Y-53305650D01*
X106890359Y-53305652D01*
X106682823Y-53354465D01*
X106682817Y-53354467D01*
X106487761Y-53440592D01*
X106311858Y-53561088D01*
X106311852Y-53561093D01*
X106161093Y-53711852D01*
X106161088Y-53711858D01*
X106040592Y-53887761D01*
X105954467Y-54082817D01*
X105954465Y-54082823D01*
X105905652Y-54290359D01*
X105905650Y-54290375D01*
X105899500Y-54378984D01*
X105899500Y-55621015D01*
X105905650Y-55709624D01*
X105905652Y-55709640D01*
X105954465Y-55917176D01*
X105954468Y-55917187D01*
X105964185Y-55939192D01*
X105988934Y-55995244D01*
X105999500Y-56045329D01*
X105999500Y-58954668D01*
X105988935Y-59004753D01*
X105954466Y-59082820D01*
X105905652Y-59290359D01*
X105905650Y-59290375D01*
X105899500Y-59378984D01*
X105899500Y-59385689D01*
X105879815Y-59452728D01*
X105863181Y-59473370D01*
X104878370Y-60458181D01*
X104817047Y-60491666D01*
X104790689Y-60494500D01*
X103987482Y-60494500D01*
X103920443Y-60474815D01*
X103889106Y-60445986D01*
X103828283Y-60366719D01*
X103828282Y-60366718D01*
X103702841Y-60270464D01*
X103556762Y-60209956D01*
X103556760Y-60209955D01*
X103439370Y-60194501D01*
X103439367Y-60194500D01*
X103439361Y-60194500D01*
X103439354Y-60194500D01*
X100760636Y-60194500D01*
X100643246Y-60209953D01*
X100643237Y-60209956D01*
X100497160Y-60270463D01*
X100371718Y-60366718D01*
X100275463Y-60492160D01*
X100214956Y-60638237D01*
X100214955Y-60638239D01*
X100199501Y-60755629D01*
X100199500Y-60755645D01*
X98448359Y-60755645D01*
X98347752Y-60655038D01*
X98347746Y-60655033D01*
X98347742Y-60655029D01*
X98130113Y-60492113D01*
X98130108Y-60492110D01*
X98130107Y-60492109D01*
X97891508Y-60361824D01*
X97887889Y-60360172D01*
X97835085Y-60314418D01*
X97815400Y-60247378D01*
X97815400Y-57726619D01*
X97835085Y-57659580D01*
X97851719Y-57638938D01*
X105753838Y-49736819D01*
X105815161Y-49703334D01*
X105841519Y-49700500D01*
X132158499Y-49700500D01*
X132225538Y-49720185D01*
X132246174Y-49736814D01*
X138277751Y-55767963D01*
X138387666Y-55877870D01*
X138421153Y-55939192D01*
X138416171Y-56008883D01*
X138374302Y-56064818D01*
X138372882Y-56065866D01*
X138364847Y-56071704D01*
X138364841Y-56071709D01*
X138186705Y-56249845D01*
X138186701Y-56249850D01*
X138038632Y-56453651D01*
X137924260Y-56678116D01*
X137846410Y-56917714D01*
X137807000Y-57166538D01*
X137807000Y-57418461D01*
X137846410Y-57667285D01*
X137924260Y-57906883D01*
X138038632Y-58131348D01*
X138186701Y-58335149D01*
X138186705Y-58335154D01*
X138364845Y-58513294D01*
X138364850Y-58513298D01*
X138527033Y-58631130D01*
X138568655Y-58661370D01*
X138685256Y-58720781D01*
X138793116Y-58775739D01*
X138793118Y-58775739D01*
X138793121Y-58775741D01*
X139032715Y-58853590D01*
X139281538Y-58893000D01*
X139281539Y-58893000D01*
X139833461Y-58893000D01*
X139833462Y-58893000D01*
X140082285Y-58853590D01*
X140321879Y-58775741D01*
X140546345Y-58661370D01*
X140750156Y-58513293D01*
X140928293Y-58335156D01*
X141076370Y-58131345D01*
X141190741Y-57906879D01*
X141268590Y-57667285D01*
X141308000Y-57418462D01*
X141308000Y-57166538D01*
X141268590Y-56917715D01*
X141190741Y-56678121D01*
X141190739Y-56678118D01*
X141190739Y-56678116D01*
X141149247Y-56596684D01*
X141076370Y-56453655D01*
X141057452Y-56427617D01*
X140928298Y-56249850D01*
X140928294Y-56249845D01*
X140750154Y-56071705D01*
X140750149Y-56071701D01*
X140546348Y-55923632D01*
X140546347Y-55923631D01*
X140546345Y-55923630D01*
X140429742Y-55864218D01*
X140321882Y-55809260D01*
X140321879Y-55809259D01*
X140250249Y-55785984D01*
X140192575Y-55746546D01*
X140179085Y-55726272D01*
X140178817Y-55725768D01*
X140178768Y-55725675D01*
X140168042Y-55709624D01*
X140139973Y-55667619D01*
X140102114Y-55610958D01*
X140102113Y-55610956D01*
X140102101Y-55610942D01*
X140102098Y-55610938D01*
X140045532Y-55554376D01*
X140045528Y-55554372D01*
X140000237Y-55509080D01*
X140000191Y-55509038D01*
X133859591Y-49368872D01*
X152999500Y-49368872D01*
X152999500Y-49631127D01*
X153026123Y-49833339D01*
X153033730Y-49891116D01*
X153101602Y-50144418D01*
X153101605Y-50144428D01*
X153201953Y-50386690D01*
X153201958Y-50386700D01*
X153333075Y-50613803D01*
X153492718Y-50821851D01*
X153492726Y-50821860D01*
X153678140Y-51007274D01*
X153678148Y-51007281D01*
X153886196Y-51166924D01*
X154113299Y-51298041D01*
X154113309Y-51298046D01*
X154355571Y-51398394D01*
X154355581Y-51398398D01*
X154608884Y-51466270D01*
X154868880Y-51500500D01*
X154868887Y-51500500D01*
X155131113Y-51500500D01*
X155131120Y-51500500D01*
X155391116Y-51466270D01*
X155644419Y-51398398D01*
X155829198Y-51321860D01*
X155886690Y-51298046D01*
X155886691Y-51298045D01*
X155886697Y-51298043D01*
X156113803Y-51166924D01*
X156321851Y-51007282D01*
X156321855Y-51007277D01*
X156321860Y-51007274D01*
X156507274Y-50821860D01*
X156507277Y-50821855D01*
X156507282Y-50821851D01*
X156666924Y-50613803D01*
X156798043Y-50386697D01*
X156898398Y-50144419D01*
X156966270Y-49891116D01*
X157000500Y-49631120D01*
X157000500Y-49368880D01*
X156966270Y-49108884D01*
X156898398Y-48855581D01*
X156898394Y-48855571D01*
X156798046Y-48613309D01*
X156798041Y-48613299D01*
X156666924Y-48386196D01*
X156525551Y-48201957D01*
X156507282Y-48178149D01*
X156507281Y-48178148D01*
X156507274Y-48178140D01*
X156321860Y-47992726D01*
X156321851Y-47992718D01*
X156113803Y-47833075D01*
X155886700Y-47701958D01*
X155886690Y-47701953D01*
X155644428Y-47601605D01*
X155644421Y-47601603D01*
X155644419Y-47601602D01*
X155391116Y-47533730D01*
X155333339Y-47526123D01*
X155131127Y-47499500D01*
X155131120Y-47499500D01*
X154868880Y-47499500D01*
X154868872Y-47499500D01*
X154637772Y-47529926D01*
X154608884Y-47533730D01*
X154355581Y-47601602D01*
X154355571Y-47601605D01*
X154113309Y-47701953D01*
X154113299Y-47701958D01*
X153886196Y-47833075D01*
X153678148Y-47992718D01*
X153492718Y-48178148D01*
X153333075Y-48386196D01*
X153201958Y-48613299D01*
X153201953Y-48613309D01*
X153101605Y-48855571D01*
X153101602Y-48855581D01*
X153033730Y-49108884D01*
X153029926Y-49137772D01*
X152999500Y-49368872D01*
X133859591Y-49368872D01*
X132974806Y-48484150D01*
X132946528Y-48455872D01*
X132887116Y-48416178D01*
X132887111Y-48416175D01*
X132842244Y-48386196D01*
X132831811Y-48379225D01*
X132831809Y-48379224D01*
X132831806Y-48379222D01*
X132831795Y-48379217D01*
X132831789Y-48379214D01*
X132777282Y-48356638D01*
X132777280Y-48356637D01*
X132704316Y-48326414D01*
X132641179Y-48313858D01*
X132641177Y-48313857D01*
X132569001Y-48299500D01*
X132568978Y-48299498D01*
X132568969Y-48299498D01*
X132513774Y-48299500D01*
X105431003Y-48299500D01*
X105322590Y-48321065D01*
X105322589Y-48321065D01*
X105295706Y-48326413D01*
X105295671Y-48326420D01*
X105168190Y-48379224D01*
X105053454Y-48455887D01*
X96570787Y-56938554D01*
X96525353Y-57006551D01*
X96494322Y-57052994D01*
X96494125Y-57053289D01*
X96494124Y-57053290D01*
X96441320Y-57180771D01*
X96441318Y-57180777D01*
X96414400Y-57316104D01*
X96414400Y-60236229D01*
X96394715Y-60303268D01*
X96341911Y-60349023D01*
X96333737Y-60352410D01*
X96308480Y-60361830D01*
X96069892Y-60492109D01*
X96069891Y-60492110D01*
X95852259Y-60655028D01*
X95852247Y-60655038D01*
X95660038Y-60847247D01*
X95660028Y-60847259D01*
X95497110Y-61064891D01*
X95497109Y-61064892D01*
X95366830Y-61303480D01*
X95319326Y-61430843D01*
X95271825Y-61558199D01*
X95271824Y-61558202D01*
X95271823Y-61558206D01*
X95214040Y-61823832D01*
X95214039Y-61823839D01*
X95194645Y-62094998D01*
X95194645Y-62095001D01*
X95214039Y-62366160D01*
X95214040Y-62366167D01*
X95271823Y-62631793D01*
X95271825Y-62631801D01*
X95366828Y-62886513D01*
X95366830Y-62886518D01*
X95427235Y-62997141D01*
X95484332Y-63101707D01*
X95499500Y-63161132D01*
X95499500Y-71670149D01*
X95479815Y-71737188D01*
X95450987Y-71768524D01*
X95386622Y-71817914D01*
X95386620Y-71817916D01*
X95386618Y-71817918D01*
X95309614Y-71918270D01*
X95290363Y-71943360D01*
X95229856Y-72089437D01*
X95229855Y-72089439D01*
X95214401Y-72206829D01*
X95214401Y-72206836D01*
X95214400Y-72206845D01*
X95214400Y-74404680D01*
X95194715Y-74471719D01*
X95178081Y-74492361D01*
X92555890Y-77114551D01*
X92555884Y-77114558D01*
X92498599Y-77200293D01*
X92479226Y-77229286D01*
X92479222Y-77229293D01*
X92426421Y-77356767D01*
X92426418Y-77356777D01*
X92399500Y-77492104D01*
X92399500Y-79172773D01*
X92379815Y-79239812D01*
X92334527Y-79281823D01*
X92331377Y-79283527D01*
X92331365Y-79283535D01*
X92148222Y-79426081D01*
X92148219Y-79426084D01*
X91991016Y-79596852D01*
X91864075Y-79791151D01*
X91770842Y-80003699D01*
X91713866Y-80228691D01*
X91713864Y-80228702D01*
X91694700Y-80459993D01*
X91200500Y-80459993D01*
X91200500Y-49868872D01*
X93249500Y-49868872D01*
X93249500Y-50131127D01*
X93276123Y-50333339D01*
X93283730Y-50391116D01*
X93343399Y-50613803D01*
X93351602Y-50644418D01*
X93351605Y-50644428D01*
X93451953Y-50886690D01*
X93451958Y-50886700D01*
X93583075Y-51113803D01*
X93742718Y-51321851D01*
X93742726Y-51321860D01*
X93928140Y-51507274D01*
X93928148Y-51507281D01*
X94136196Y-51666924D01*
X94363299Y-51798041D01*
X94363309Y-51798046D01*
X94605571Y-51898394D01*
X94605581Y-51898398D01*
X94858884Y-51966270D01*
X95118880Y-52000500D01*
X95118887Y-52000500D01*
X95381113Y-52000500D01*
X95381120Y-52000500D01*
X95641116Y-51966270D01*
X95894419Y-51898398D01*
X96136697Y-51798043D01*
X96363803Y-51666924D01*
X96571851Y-51507282D01*
X96571855Y-51507277D01*
X96571860Y-51507274D01*
X96757274Y-51321860D01*
X96757277Y-51321855D01*
X96757282Y-51321851D01*
X96916924Y-51113803D01*
X97048043Y-50886697D01*
X97148398Y-50644419D01*
X97216270Y-50391116D01*
X97250500Y-50131120D01*
X97250500Y-49868880D01*
X97216270Y-49608884D01*
X97148398Y-49355581D01*
X97148394Y-49355571D01*
X97048046Y-49113309D01*
X97048041Y-49113299D01*
X96916924Y-48886196D01*
X96757281Y-48678148D01*
X96757274Y-48678140D01*
X96571860Y-48492726D01*
X96571851Y-48492718D01*
X96363803Y-48333075D01*
X96136700Y-48201958D01*
X96136690Y-48201953D01*
X95894428Y-48101605D01*
X95894421Y-48101603D01*
X95894419Y-48101602D01*
X95641116Y-48033730D01*
X95583339Y-48026123D01*
X95381127Y-47999500D01*
X95381120Y-47999500D01*
X95118880Y-47999500D01*
X95118872Y-47999500D01*
X94887772Y-48029926D01*
X94858884Y-48033730D01*
X94605581Y-48101602D01*
X94605571Y-48101605D01*
X94363309Y-48201953D01*
X94363299Y-48201958D01*
X94136196Y-48333075D01*
X93928148Y-48492718D01*
X93742718Y-48678148D01*
X93583075Y-48886196D01*
X93451958Y-49113299D01*
X93451953Y-49113309D01*
X93351605Y-49355571D01*
X93351602Y-49355581D01*
X93283730Y-49608885D01*
X93249500Y-49868872D01*
X91200500Y-49868872D01*
X91200500Y-45824500D01*
X91220185Y-45757461D01*
X91272989Y-45711706D01*
X91324500Y-45700500D01*
X158675500Y-45700500D01*
X158742539Y-45720185D01*
G37*
%TD.AperFunction*%
%TD*%
M02*
