%TF.GenerationSoftware,KiCad,Pcbnew,8.0.7*%
%TF.CreationDate,2025-02-06T20:11:24-08:00*%
%TF.ProjectId,Mains_monitor,4d61696e-735f-46d6-9f6e-69746f722e6b,rev?*%
%TF.SameCoordinates,Original*%
%TF.FileFunction,Soldermask,Top*%
%TF.FilePolarity,Negative*%
%FSLAX46Y46*%
G04 Gerber Fmt 4.6, Leading zero omitted, Abs format (unit mm)*
G04 Created by KiCad (PCBNEW 8.0.7) date 2025-02-06 20:11:24*
%MOMM*%
%LPD*%
G01*
G04 APERTURE LIST*
G04 Aperture macros list*
%AMRoundRect*
0 Rectangle with rounded corners*
0 $1 Rounding radius*
0 $2 $3 $4 $5 $6 $7 $8 $9 X,Y pos of 4 corners*
0 Add a 4 corners polygon primitive as box body*
4,1,4,$2,$3,$4,$5,$6,$7,$8,$9,$2,$3,0*
0 Add four circle primitives for the rounded corners*
1,1,$1+$1,$2,$3*
1,1,$1+$1,$4,$5*
1,1,$1+$1,$6,$7*
1,1,$1+$1,$8,$9*
0 Add four rect primitives between the rounded corners*
20,1,$1+$1,$2,$3,$4,$5,0*
20,1,$1+$1,$4,$5,$6,$7,0*
20,1,$1+$1,$6,$7,$8,$9,0*
20,1,$1+$1,$8,$9,$2,$3,0*%
G04 Aperture macros list end*
%ADD10R,1.300000X1.300000*%
%ADD11C,1.300000*%
%ADD12R,2.600000X2.600000*%
%ADD13C,2.600000*%
%ADD14C,1.600000*%
%ADD15O,1.600000X1.600000*%
%ADD16O,2.300000X2.000000*%
%ADD17R,2.300000X2.000000*%
%ADD18C,3.000000*%
%ADD19C,2.500000*%
%ADD20C,1.400000*%
%ADD21RoundRect,0.550000X-0.550000X-0.550000X0.550000X-0.550000X0.550000X0.550000X-0.550000X0.550000X0*%
%ADD22C,2.200000*%
%ADD23O,1.600000X2.600000*%
%ADD24RoundRect,0.250000X-0.550000X1.050000X-0.550000X-1.050000X0.550000X-1.050000X0.550000X1.050000X0*%
%ADD25C,3.500000*%
%ADD26R,2.200000X2.200000*%
%ADD27R,1.800000X1.800000*%
%ADD28O,1.800000X1.800000*%
%ADD29RoundRect,0.150000X-0.625000X-0.150000X0.625000X-0.150000X0.625000X0.150000X-0.625000X0.150000X0*%
%ADD30R,1.524000X1.524000*%
%ADD31C,1.524000*%
G04 APERTURE END LIST*
D10*
%TO.C,Q1*%
X123750000Y-85960000D03*
D11*
X125020000Y-87230000D03*
X123750000Y-88500000D03*
%TD*%
D12*
%TO.C,J1*%
X102100000Y-62095000D03*
D13*
X97100000Y-62095000D03*
%TD*%
D14*
%TO.C,R13*%
X93100000Y-85750000D03*
D15*
X93100000Y-88290000D03*
%TD*%
D14*
%TO.C,R6*%
X93100000Y-80460000D03*
D15*
X93100000Y-83000000D03*
%TD*%
D16*
%TO.C,PS1*%
X132157500Y-99792500D03*
X154757500Y-99792500D03*
X139557500Y-57292500D03*
D17*
X147357500Y-57292500D03*
%TD*%
D18*
%TO.C,K1*%
X117000000Y-81200000D03*
D19*
X123050000Y-79250000D03*
D18*
X123050000Y-67050000D03*
X111000000Y-67000000D03*
D19*
X111050000Y-79250000D03*
%TD*%
D14*
%TO.C,C5*%
X125000000Y-94000000D03*
X125000000Y-92000000D03*
%TD*%
D20*
%TO.C,C2*%
X107000000Y-103000000D03*
X107000000Y-100500000D03*
%TD*%
D14*
%TO.C,R8*%
X130190000Y-109500000D03*
D15*
X137810000Y-109500000D03*
%TD*%
D14*
%TO.C,R1*%
X110420000Y-90500000D03*
D15*
X118040000Y-90500000D03*
%TD*%
D14*
%TO.C,R7*%
X104000000Y-95940000D03*
D15*
X104000000Y-103560000D03*
%TD*%
D21*
%TO.C,F1*%
X107600000Y-55000000D03*
X107600000Y-60000000D03*
D22*
X125400000Y-55000000D03*
X125400000Y-60000000D03*
%TD*%
D14*
%TO.C,R14*%
X93100000Y-91155000D03*
D15*
X93100000Y-93695000D03*
%TD*%
D23*
%TO.C,A1*%
X142960000Y-125520000D03*
X140420000Y-125520000D03*
X137880000Y-125520000D03*
X135340000Y-125520000D03*
X132800000Y-125520000D03*
X130260000Y-125520000D03*
X127720000Y-125520000D03*
X125180000Y-125520000D03*
X122640000Y-125520000D03*
X120100000Y-125520000D03*
X117560000Y-125520000D03*
X115020000Y-125520000D03*
X115020000Y-105800000D03*
X117560000Y-105800000D03*
X120100000Y-105800000D03*
X122640000Y-105800000D03*
X125180000Y-105800000D03*
X127720000Y-105800000D03*
X130260000Y-105800000D03*
X132800000Y-105800000D03*
X135340000Y-105800000D03*
X137880000Y-105800000D03*
X140420000Y-105800000D03*
X142960000Y-105800000D03*
X145500000Y-105800000D03*
X148040000Y-105800000D03*
X150580000Y-105800000D03*
D24*
X153120000Y-105800000D03*
%TD*%
D14*
%TO.C,C4*%
X120000000Y-94000000D03*
X120000000Y-96500000D03*
%TD*%
%TO.C,R12*%
X105700000Y-91015000D03*
D15*
X105700000Y-93555000D03*
%TD*%
%TO.C,R2*%
X107000000Y-120690000D03*
D14*
X107000000Y-128310000D03*
%TD*%
D25*
%TO.C,H2*%
X155000000Y-49500000D03*
%TD*%
D26*
%TO.C,TR1*%
X97112500Y-129787500D03*
D22*
X97112500Y-117987500D03*
%TD*%
D25*
%TO.C,H1*%
X95250000Y-50000000D03*
%TD*%
D15*
%TO.C,R11*%
X105700000Y-88290000D03*
D14*
X105700000Y-85750000D03*
%TD*%
%TO.C,R10*%
X127810000Y-109500000D03*
D15*
X120190000Y-109500000D03*
%TD*%
D27*
%TO.C,D1*%
X110690000Y-87000000D03*
D28*
X118310000Y-87000000D03*
%TD*%
D20*
%TO.C,C3*%
X107000000Y-105750000D03*
X107000000Y-108250000D03*
%TD*%
D29*
%TO.C,U1*%
X112150000Y-112000000D03*
X112150000Y-113270000D03*
X112150000Y-114540000D03*
X112150000Y-115810000D03*
X117500000Y-115810000D03*
X117500000Y-114540000D03*
X117500000Y-113270000D03*
X117500000Y-112000000D03*
%TD*%
D14*
%TO.C,R9*%
X104000000Y-105690000D03*
D15*
X104000000Y-113310000D03*
%TD*%
D25*
%TO.C,H3*%
X112000000Y-129500000D03*
%TD*%
D14*
%TO.C,R4*%
X107000000Y-118310000D03*
D15*
X107000000Y-110690000D03*
%TD*%
D20*
%TO.C,C6*%
X104000000Y-116000000D03*
X104000000Y-118500000D03*
%TD*%
D12*
%TO.C,J2*%
X97114900Y-73546200D03*
D13*
X102114900Y-73546200D03*
%TD*%
D14*
%TO.C,R5*%
X105700000Y-80400000D03*
D15*
X105700000Y-82940000D03*
%TD*%
D30*
%TO.C,TR2*%
X93300000Y-96350000D03*
D31*
X100500000Y-96350000D03*
X93300000Y-112650000D03*
X100500000Y-112650000D03*
%TD*%
D25*
%TO.C,H4*%
X155000000Y-129500000D03*
%TD*%
D14*
%TO.C,R3*%
X104000000Y-128810000D03*
D15*
X104000000Y-121190000D03*
%TD*%
M02*
