%TF.GenerationSoftware,KiCad,Pcbnew,8.0.7*%
%TF.CreationDate,2025-02-06T20:11:24-08:00*%
%TF.ProjectId,Mains_monitor,4d61696e-735f-46d6-9f6e-69746f722e6b,rev?*%
%TF.SameCoordinates,Original*%
%TF.FileFunction,Copper,L2,Bot*%
%TF.FilePolarity,Positive*%
%FSLAX46Y46*%
G04 Gerber Fmt 4.6, Leading zero omitted, Abs format (unit mm)*
G04 Created by KiCad (PCBNEW 8.0.7) date 2025-02-06 20:11:24*
%MOMM*%
%LPD*%
G01*
G04 APERTURE LIST*
G04 Aperture macros list*
%AMRoundRect*
0 Rectangle with rounded corners*
0 $1 Rounding radius*
0 $2 $3 $4 $5 $6 $7 $8 $9 X,Y pos of 4 corners*
0 Add a 4 corners polygon primitive as box body*
4,1,4,$2,$3,$4,$5,$6,$7,$8,$9,$2,$3,0*
0 Add four circle primitives for the rounded corners*
1,1,$1+$1,$2,$3*
1,1,$1+$1,$4,$5*
1,1,$1+$1,$6,$7*
1,1,$1+$1,$8,$9*
0 Add four rect primitives between the rounded corners*
20,1,$1+$1,$2,$3,$4,$5,0*
20,1,$1+$1,$4,$5,$6,$7,0*
20,1,$1+$1,$6,$7,$8,$9,0*
20,1,$1+$1,$8,$9,$2,$3,0*%
G04 Aperture macros list end*
%TA.AperFunction,ComponentPad*%
%ADD10R,1.300000X1.300000*%
%TD*%
%TA.AperFunction,ComponentPad*%
%ADD11C,1.300000*%
%TD*%
%TA.AperFunction,ComponentPad*%
%ADD12R,2.600000X2.600000*%
%TD*%
%TA.AperFunction,ComponentPad*%
%ADD13C,2.600000*%
%TD*%
%TA.AperFunction,ComponentPad*%
%ADD14C,1.600000*%
%TD*%
%TA.AperFunction,ComponentPad*%
%ADD15O,1.600000X1.600000*%
%TD*%
%TA.AperFunction,ComponentPad*%
%ADD16O,2.300000X2.000000*%
%TD*%
%TA.AperFunction,ComponentPad*%
%ADD17R,2.300000X2.000000*%
%TD*%
%TA.AperFunction,ComponentPad*%
%ADD18C,3.000000*%
%TD*%
%TA.AperFunction,ComponentPad*%
%ADD19C,2.500000*%
%TD*%
%TA.AperFunction,ComponentPad*%
%ADD20C,1.400000*%
%TD*%
%TA.AperFunction,ComponentPad*%
%ADD21RoundRect,0.550000X-0.550000X-0.550000X0.550000X-0.550000X0.550000X0.550000X-0.550000X0.550000X0*%
%TD*%
%TA.AperFunction,ComponentPad*%
%ADD22C,2.200000*%
%TD*%
%TA.AperFunction,ComponentPad*%
%ADD23O,1.600000X2.600000*%
%TD*%
%TA.AperFunction,ComponentPad*%
%ADD24RoundRect,0.250000X-0.550000X1.050000X-0.550000X-1.050000X0.550000X-1.050000X0.550000X1.050000X0*%
%TD*%
%TA.AperFunction,ComponentPad*%
%ADD25R,2.200000X2.200000*%
%TD*%
%TA.AperFunction,ComponentPad*%
%ADD26R,1.800000X1.800000*%
%TD*%
%TA.AperFunction,ComponentPad*%
%ADD27O,1.800000X1.800000*%
%TD*%
%TA.AperFunction,ComponentPad*%
%ADD28R,1.524000X1.524000*%
%TD*%
%TA.AperFunction,ComponentPad*%
%ADD29C,1.524000*%
%TD*%
%TA.AperFunction,Conductor*%
%ADD30C,0.200000*%
%TD*%
%TA.AperFunction,Conductor*%
%ADD31C,2.000000*%
%TD*%
G04 APERTURE END LIST*
D10*
%TO.P,Q1,1,C*%
%TO.N,Net-(D1-A)*%
X123750000Y-85960000D03*
D11*
%TO.P,Q1,2,B*%
%TO.N,Net-(Q1-B)*%
X125020000Y-87230000D03*
%TO.P,Q1,3,E*%
%TO.N,GND*%
X123750000Y-88500000D03*
%TD*%
D12*
%TO.P,J1,1,Pin_1*%
%TO.N,Net-(J1-Pin_1)*%
X102100000Y-62095000D03*
D13*
%TO.P,J1,2,Pin_2*%
%TO.N,AC_N*%
X97100000Y-62095000D03*
%TD*%
D14*
%TO.P,R13,1*%
%TO.N,Net-(R13-Pad1)*%
X93100000Y-85750000D03*
D15*
%TO.P,R13,2*%
%TO.N,Net-(R13-Pad2)*%
X93100000Y-88290000D03*
%TD*%
D14*
%TO.P,R6,1*%
%TO.N,AC_N*%
X93100000Y-80460000D03*
D15*
%TO.P,R6,2*%
%TO.N,Net-(R13-Pad1)*%
X93100000Y-83000000D03*
%TD*%
D16*
%TO.P,PS1,4,+Vout*%
%TO.N,+5V*%
X132157500Y-99792500D03*
%TO.P,PS1,3,-Vout*%
%TO.N,GND*%
X154757500Y-99792500D03*
%TO.P,PS1,2,AC/N*%
%TO.N,AC_N*%
X139557500Y-57292500D03*
D17*
%TO.P,PS1,1,AC/L*%
%TO.N,AC_H*%
X147357500Y-57292500D03*
%TD*%
D18*
%TO.P,K1,1*%
%TO.N,RELAY_OUT*%
X117000000Y-81200000D03*
D19*
%TO.P,K1,2*%
%TO.N,Net-(D1-A)*%
X123050000Y-79250000D03*
D18*
%TO.P,K1,3*%
%TO.N,unconnected-(K1-Pad3)*%
X123050000Y-67050000D03*
%TO.P,K1,4*%
%TO.N,AC_H*%
X111000000Y-67000000D03*
D19*
%TO.P,K1,5*%
%TO.N,+5V*%
X111050000Y-79250000D03*
%TD*%
D14*
%TO.P,C5,1*%
%TO.N,GND*%
X125000000Y-94000000D03*
%TO.P,C5,2*%
%TO.N,+5V*%
X125000000Y-92000000D03*
%TD*%
D20*
%TO.P,C2,1*%
%TO.N,IP*%
X107000000Y-103000000D03*
%TO.P,C2,2*%
%TO.N,GND*%
X107000000Y-100500000D03*
%TD*%
D14*
%TO.P,R8,1*%
%TO.N,/DATA_HV*%
X130190000Y-109500000D03*
D15*
%TO.P,R8,2*%
%TO.N,GND*%
X137810000Y-109500000D03*
%TD*%
D14*
%TO.P,R1,1*%
%TO.N,/RLY_CTRL*%
X110420000Y-90500000D03*
D15*
%TO.P,R1,2*%
%TO.N,Net-(Q1-B)*%
X118040000Y-90500000D03*
%TD*%
D14*
%TO.P,R7,1*%
%TO.N,GND*%
X104000000Y-95940000D03*
D15*
%TO.P,R7,2*%
%TO.N,Net-(R7-Pad2)*%
X104000000Y-103560000D03*
%TD*%
D21*
%TO.P,F1,1*%
%TO.N,Net-(J1-Pin_1)*%
X107600000Y-55000000D03*
X107600000Y-60000000D03*
D22*
%TO.P,F1,2*%
%TO.N,AC_H*%
X125400000Y-55000000D03*
X125400000Y-60000000D03*
%TD*%
D14*
%TO.P,R14,1*%
%TO.N,Net-(R13-Pad2)*%
X93100000Y-91155000D03*
D15*
%TO.P,R14,2*%
%TO.N,Net-(R14-Pad2)*%
X93100000Y-93695000D03*
%TD*%
D23*
%TO.P,A1,28,VBAT*%
%TO.N,unconnected-(A1-VBAT-Pad28)*%
X142960000Y-125520000D03*
%TO.P,A1,27,EN*%
%TO.N,unconnected-(A1-EN-Pad27)*%
X140420000Y-125520000D03*
%TO.P,A1,26,USB*%
%TO.N,+5V*%
X137880000Y-125520000D03*
%TO.P,A1,25,A12/IO13*%
%TO.N,unconnected-(A1-A12{slash}IO13-Pad25)*%
X135340000Y-125520000D03*
%TO.P,A1,24,A11/IO12*%
%TO.N,unconnected-(A1-A11{slash}IO12-Pad24)*%
X132800000Y-125520000D03*
%TO.P,A1,23,A10/IO27*%
%TO.N,unconnected-(A1-A10{slash}IO27-Pad23)*%
X130260000Y-125520000D03*
%TO.P,A1,22,A9/IO33*%
%TO.N,unconnected-(A1-A9{slash}IO33-Pad22)*%
X127720000Y-125520000D03*
%TO.P,A1,21,A8/IO15*%
%TO.N,unconnected-(A1-A8{slash}IO15-Pad21)*%
X125180000Y-125520000D03*
%TO.P,A1,20,A7/IO32*%
%TO.N,unconnected-(A1-A7{slash}IO32-Pad20)*%
X122640000Y-125520000D03*
%TO.P,A1,19,A6/IO14*%
%TO.N,/RLY_CTRL*%
X120100000Y-125520000D03*
%TO.P,A1,18,SCL/IO22*%
%TO.N,unconnected-(A1-SCL{slash}IO22-Pad18)*%
X117560000Y-125520000D03*
%TO.P,A1,17,SDA/IO23*%
%TO.N,unconnected-(A1-SDA{slash}IO23-Pad17)*%
X115020000Y-125520000D03*
%TO.P,A1,16,IO21*%
%TO.N,unconnected-(A1-IO21-Pad16)*%
X115020000Y-105800000D03*
%TO.P,A1,15,TX/IO17*%
%TO.N,unconnected-(A1-TX{slash}IO17-Pad15)*%
X117560000Y-105800000D03*
%TO.P,A1,14,RX/IO16*%
%TO.N,/DATA_LV*%
X120100000Y-105800000D03*
%TO.P,A1,13,MISO/IO19*%
%TO.N,unconnected-(A1-MISO{slash}IO19-Pad13)*%
X122640000Y-105800000D03*
%TO.P,A1,12,MOSI/IO18*%
%TO.N,unconnected-(A1-MOSI{slash}IO18-Pad12)*%
X125180000Y-105800000D03*
%TO.P,A1,11,SCK/IO5*%
%TO.N,unconnected-(A1-SCK{slash}IO5-Pad11)*%
X127720000Y-105800000D03*
%TO.P,A1,10,IO4/A5*%
%TO.N,unconnected-(A1-IO4{slash}A5-Pad10)*%
X130260000Y-105800000D03*
%TO.P,A1,9,IO36/A4*%
%TO.N,unconnected-(A1-IO36{slash}A4-Pad9)*%
X132800000Y-105800000D03*
%TO.P,A1,8,I39/A3*%
%TO.N,unconnected-(A1-I39{slash}A3-Pad8)*%
X135340000Y-105800000D03*
%TO.P,A1,7,I34/A2*%
%TO.N,unconnected-(A1-I34{slash}A2-Pad7)*%
X137880000Y-105800000D03*
%TO.P,A1,6,DAC1/A1*%
%TO.N,unconnected-(A1-DAC1{slash}A1-Pad6)*%
X140420000Y-105800000D03*
%TO.P,A1,5,DAC2/A0*%
%TO.N,unconnected-(A1-DAC2{slash}A0-Pad5)*%
X142960000Y-105800000D03*
%TO.P,A1,4,GND*%
%TO.N,GND*%
X145500000Y-105800000D03*
%TO.P,A1,3,NC*%
%TO.N,unconnected-(A1-NC-Pad3)*%
X148040000Y-105800000D03*
%TO.P,A1,2,3V3*%
%TO.N,unconnected-(A1-3V3-Pad2)*%
X150580000Y-105800000D03*
D24*
%TO.P,A1,1,~{RESET}*%
%TO.N,unconnected-(A1-~{RESET}-Pad1)*%
X153120000Y-105800000D03*
%TD*%
D14*
%TO.P,C4,1*%
%TO.N,+5V*%
X120000000Y-94000000D03*
%TO.P,C4,2*%
%TO.N,GND*%
X120000000Y-96500000D03*
%TD*%
%TO.P,R12,1*%
%TO.N,Net-(R11-Pad2)*%
X105700000Y-91015000D03*
D15*
%TO.P,R12,2*%
%TO.N,Net-(R12-Pad2)*%
X105700000Y-93555000D03*
%TD*%
%TO.P,R2,2*%
%TO.N,GND*%
X107000000Y-120690000D03*
D14*
%TO.P,R2,1*%
%TO.N,Net-(R2-Pad1)*%
X107000000Y-128310000D03*
%TD*%
D25*
%TO.P,TR1,1*%
%TO.N,GND*%
X97112500Y-129787500D03*
D22*
%TO.P,TR1,2*%
%TO.N,Net-(R2-Pad1)*%
X97112500Y-117987500D03*
%TD*%
D15*
%TO.P,R11,2*%
%TO.N,Net-(R11-Pad2)*%
X105700000Y-88290000D03*
D14*
%TO.P,R11,1*%
%TO.N,Net-(R11-Pad1)*%
X105700000Y-85750000D03*
%TD*%
%TO.P,R10,1*%
%TO.N,/DATA_HV*%
X127810000Y-109500000D03*
D15*
%TO.P,R10,2*%
%TO.N,/DATA_LV*%
X120190000Y-109500000D03*
%TD*%
D26*
%TO.P,D1,1,K*%
%TO.N,+5V*%
X110690000Y-87000000D03*
D27*
%TO.P,D1,2,A*%
%TO.N,Net-(D1-A)*%
X118310000Y-87000000D03*
%TD*%
D20*
%TO.P,C3,1*%
%TO.N,GND*%
X107000000Y-105750000D03*
%TO.P,C3,2*%
%TO.N,IN*%
X107000000Y-108250000D03*
%TD*%
D14*
%TO.P,R9,1*%
%TO.N,Net-(R7-Pad2)*%
X104000000Y-105690000D03*
D15*
%TO.P,R9,2*%
%TO.N,VP*%
X104000000Y-113310000D03*
%TD*%
D14*
%TO.P,R4,1*%
%TO.N,GND*%
X107000000Y-118310000D03*
D15*
%TO.P,R4,2*%
%TO.N,IN*%
X107000000Y-110690000D03*
%TD*%
D20*
%TO.P,C6,1*%
%TO.N,VP*%
X104000000Y-116000000D03*
%TO.P,C6,2*%
%TO.N,GND*%
X104000000Y-118500000D03*
%TD*%
D12*
%TO.P,J2,1,Pin_1*%
%TO.N,AC_N*%
X97114900Y-73546200D03*
D13*
%TO.P,J2,2,Pin_2*%
%TO.N,RELAY_OUT*%
X102114900Y-73546200D03*
%TD*%
D14*
%TO.P,R5,1*%
%TO.N,RELAY_OUT*%
X105700000Y-80400000D03*
D15*
%TO.P,R5,2*%
%TO.N,Net-(R11-Pad1)*%
X105700000Y-82940000D03*
%TD*%
D28*
%TO.P,TR2,1,1*%
%TO.N,Net-(R14-Pad2)*%
X93300000Y-96350000D03*
D29*
%TO.P,TR2,2,2*%
%TO.N,Net-(R12-Pad2)*%
X100500000Y-96350000D03*
%TO.P,TR2,3,3*%
%TO.N,GND*%
X93300000Y-112650000D03*
%TO.P,TR2,4,4*%
%TO.N,Net-(R7-Pad2)*%
X100500000Y-112650000D03*
%TD*%
D14*
%TO.P,R3,1*%
%TO.N,Net-(R2-Pad1)*%
X104000000Y-128810000D03*
D15*
%TO.P,R3,2*%
%TO.N,IP*%
X104000000Y-121190000D03*
%TD*%
D30*
%TO.N,Net-(Q1-B)*%
X119141700Y-90500000D02*
X122411700Y-87230000D01*
X122411700Y-87230000D02*
X125020000Y-87230000D01*
D31*
%TO.N,AC_N*%
X97100000Y-62095000D02*
X97100000Y-73531300D01*
X97100000Y-73531300D02*
X97114900Y-73546200D01*
D30*
%TO.N,+5V*%
X120000000Y-92000000D02*
X125000000Y-92000000D01*
X125792500Y-99792500D02*
X132157500Y-99792500D01*
X120000000Y-94000000D02*
X125792500Y-99792500D01*
X111891700Y-87000000D02*
X116891700Y-92000000D01*
X110690000Y-87000000D02*
X111891700Y-87000000D01*
X120000000Y-94000000D02*
X120000000Y-92000000D01*
X116891700Y-92000000D02*
X120000000Y-92000000D01*
%TO.N,Net-(D1-A)*%
X119511700Y-87000000D02*
X120781700Y-85730000D01*
X120781700Y-85730000D02*
X123640000Y-85730000D01*
X118310000Y-87000000D02*
X119511700Y-87000000D01*
D31*
%TO.N,AC_H*%
X125400000Y-55000000D02*
X125400000Y-60000000D01*
X118000000Y-60000000D02*
X111000000Y-67000000D01*
X125400000Y-60000000D02*
X118000000Y-60000000D01*
%TO.N,RELAY_OUT*%
X102195000Y-73546200D02*
X102114900Y-73546200D01*
X113546200Y-73546200D02*
X102194900Y-73546200D01*
X117000000Y-81200000D02*
X117000000Y-77000000D01*
X117000000Y-77000000D02*
X113546200Y-73546200D01*
D30*
%TO.N,Net-(Q1-B)*%
X118040000Y-90500000D02*
X119141700Y-90500000D01*
%TO.N,Net-(R2-Pad1)*%
X104000000Y-128310000D02*
X107000000Y-128310000D01*
%TO.N,/DATA_HV*%
X127810000Y-109500000D02*
X130190000Y-109500000D01*
%TO.N,Net-(R12-Pad2)*%
X103295000Y-93555000D02*
X105700000Y-93555000D01*
X100500000Y-96350000D02*
X103295000Y-93555000D01*
D31*
%TO.N,Net-(J1-Pin_1)*%
X102100000Y-62095000D02*
X105505000Y-62095000D01*
X105505000Y-62095000D02*
X107600000Y-60000000D01*
X107600000Y-60000000D02*
X107600000Y-55000000D01*
%TD*%
%TA.AperFunction,Conductor*%
%TO.N,GND*%
G36*
X158942539Y-45520185D02*
G01*
X158988294Y-45572989D01*
X158999500Y-45624500D01*
X158999500Y-133375500D01*
X158979815Y-133442539D01*
X158927011Y-133488294D01*
X158875500Y-133499500D01*
X91124500Y-133499500D01*
X91057461Y-133479815D01*
X91011706Y-133427011D01*
X91000500Y-133375500D01*
X91000500Y-128639655D01*
X95512500Y-128639655D01*
X95512500Y-129537500D01*
X96564018Y-129537500D01*
X96553389Y-129555909D01*
X96512500Y-129708509D01*
X96512500Y-129866491D01*
X96553389Y-130019091D01*
X96564018Y-130037500D01*
X95512500Y-130037500D01*
X95512500Y-130935344D01*
X95518901Y-130994872D01*
X95518903Y-130994879D01*
X95569145Y-131129586D01*
X95569149Y-131129593D01*
X95655309Y-131244687D01*
X95655312Y-131244690D01*
X95770406Y-131330850D01*
X95770413Y-131330854D01*
X95905120Y-131381096D01*
X95905127Y-131381098D01*
X95964655Y-131387499D01*
X95964672Y-131387500D01*
X96862500Y-131387500D01*
X96862500Y-130335982D01*
X96880909Y-130346611D01*
X97033509Y-130387500D01*
X97191491Y-130387500D01*
X97344091Y-130346611D01*
X97362500Y-130335982D01*
X97362500Y-131387500D01*
X98260328Y-131387500D01*
X98260344Y-131387499D01*
X98319872Y-131381098D01*
X98319879Y-131381096D01*
X98454586Y-131330854D01*
X98454593Y-131330850D01*
X98569687Y-131244690D01*
X98569690Y-131244687D01*
X98655850Y-131129593D01*
X98655854Y-131129586D01*
X98706096Y-130994879D01*
X98706098Y-130994872D01*
X98712499Y-130935344D01*
X98712500Y-130935327D01*
X98712500Y-130037500D01*
X97660982Y-130037500D01*
X97671611Y-130019091D01*
X97712500Y-129866491D01*
X97712500Y-129708509D01*
X97671611Y-129555909D01*
X97660982Y-129537500D01*
X98712500Y-129537500D01*
X98712500Y-128809998D01*
X102694532Y-128809998D01*
X102694532Y-128810001D01*
X102714364Y-129036686D01*
X102714366Y-129036697D01*
X102773258Y-129256488D01*
X102773261Y-129256497D01*
X102869431Y-129462732D01*
X102869432Y-129462734D01*
X102999954Y-129649141D01*
X103160858Y-129810045D01*
X103160861Y-129810047D01*
X103347266Y-129940568D01*
X103553504Y-130036739D01*
X103773308Y-130095635D01*
X103935230Y-130109801D01*
X103999998Y-130115468D01*
X104000000Y-130115468D01*
X104000002Y-130115468D01*
X104056673Y-130110509D01*
X104226692Y-130095635D01*
X104446496Y-130036739D01*
X104652734Y-129940568D01*
X104839139Y-129810047D01*
X105000047Y-129649139D01*
X105130568Y-129462734D01*
X105226739Y-129256496D01*
X105285635Y-129036692D01*
X105286772Y-129023692D01*
X105312224Y-128958624D01*
X105368815Y-128917646D01*
X105410300Y-128910500D01*
X105768308Y-128910500D01*
X105835347Y-128930185D01*
X105869880Y-128963374D01*
X105921219Y-129036694D01*
X105999954Y-129149141D01*
X106160858Y-129310045D01*
X106160861Y-129310047D01*
X106347266Y-129440568D01*
X106553504Y-129536739D01*
X106773308Y-129595635D01*
X106935230Y-129609801D01*
X106999998Y-129615468D01*
X107000000Y-129615468D01*
X107000002Y-129615468D01*
X107056673Y-129610509D01*
X107226692Y-129595635D01*
X107446496Y-129536739D01*
X107652734Y-129440568D01*
X107755127Y-129368872D01*
X109999500Y-129368872D01*
X109999500Y-129631127D01*
X110023057Y-129810047D01*
X110033730Y-129891116D01*
X110093845Y-130115468D01*
X110101602Y-130144418D01*
X110101605Y-130144428D01*
X110201953Y-130386690D01*
X110201958Y-130386700D01*
X110333075Y-130613803D01*
X110492718Y-130821851D01*
X110492726Y-130821860D01*
X110678140Y-131007274D01*
X110678148Y-131007281D01*
X110886196Y-131166924D01*
X111113299Y-131298041D01*
X111113309Y-131298046D01*
X111329271Y-131387500D01*
X111355581Y-131398398D01*
X111608884Y-131466270D01*
X111868880Y-131500500D01*
X111868887Y-131500500D01*
X112131113Y-131500500D01*
X112131120Y-131500500D01*
X112391116Y-131466270D01*
X112644419Y-131398398D01*
X112886697Y-131298043D01*
X113113803Y-131166924D01*
X113321851Y-131007282D01*
X113321855Y-131007277D01*
X113321860Y-131007274D01*
X113507274Y-130821860D01*
X113507277Y-130821855D01*
X113507282Y-130821851D01*
X113666924Y-130613803D01*
X113798043Y-130386697D01*
X113898398Y-130144419D01*
X113966270Y-129891116D01*
X114000500Y-129631120D01*
X114000500Y-129368880D01*
X114000499Y-129368872D01*
X152999500Y-129368872D01*
X152999500Y-129631127D01*
X153023057Y-129810047D01*
X153033730Y-129891116D01*
X153093845Y-130115468D01*
X153101602Y-130144418D01*
X153101605Y-130144428D01*
X153201953Y-130386690D01*
X153201958Y-130386700D01*
X153333075Y-130613803D01*
X153492718Y-130821851D01*
X153492726Y-130821860D01*
X153678140Y-131007274D01*
X153678148Y-131007281D01*
X153886196Y-131166924D01*
X154113299Y-131298041D01*
X154113309Y-131298046D01*
X154329271Y-131387500D01*
X154355581Y-131398398D01*
X154608884Y-131466270D01*
X154868880Y-131500500D01*
X154868887Y-131500500D01*
X155131113Y-131500500D01*
X155131120Y-131500500D01*
X155391116Y-131466270D01*
X155644419Y-131398398D01*
X155886697Y-131298043D01*
X156113803Y-131166924D01*
X156321851Y-131007282D01*
X156321855Y-131007277D01*
X156321860Y-131007274D01*
X156507274Y-130821860D01*
X156507277Y-130821855D01*
X156507282Y-130821851D01*
X156666924Y-130613803D01*
X156798043Y-130386697D01*
X156898398Y-130144419D01*
X156966270Y-129891116D01*
X157000500Y-129631120D01*
X157000500Y-129368880D01*
X156966270Y-129108884D01*
X156898398Y-128855581D01*
X156857356Y-128756496D01*
X156798046Y-128613309D01*
X156798041Y-128613299D01*
X156666924Y-128386196D01*
X156544424Y-128226554D01*
X156507282Y-128178149D01*
X156507281Y-128178148D01*
X156507274Y-128178140D01*
X156321860Y-127992726D01*
X156321851Y-127992718D01*
X156113803Y-127833075D01*
X155886700Y-127701958D01*
X155886690Y-127701953D01*
X155644428Y-127601605D01*
X155644421Y-127601603D01*
X155644419Y-127601602D01*
X155391116Y-127533730D01*
X155333339Y-127526123D01*
X155131127Y-127499500D01*
X155131120Y-127499500D01*
X154868880Y-127499500D01*
X154868872Y-127499500D01*
X154637772Y-127529926D01*
X154608884Y-127533730D01*
X154424042Y-127583258D01*
X154355581Y-127601602D01*
X154355571Y-127601605D01*
X154113309Y-127701953D01*
X154113299Y-127701958D01*
X153886196Y-127833075D01*
X153678148Y-127992718D01*
X153492718Y-128178148D01*
X153333075Y-128386196D01*
X153201958Y-128613299D01*
X153201953Y-128613309D01*
X153101605Y-128855571D01*
X153101602Y-128855581D01*
X153053073Y-129036697D01*
X153033730Y-129108885D01*
X152999500Y-129368872D01*
X114000499Y-129368872D01*
X113966270Y-129108884D01*
X113898398Y-128855581D01*
X113857356Y-128756496D01*
X113798046Y-128613309D01*
X113798041Y-128613299D01*
X113666924Y-128386196D01*
X113544424Y-128226554D01*
X113507282Y-128178149D01*
X113507281Y-128178148D01*
X113507274Y-128178140D01*
X113321860Y-127992726D01*
X113321851Y-127992718D01*
X113113803Y-127833075D01*
X112886700Y-127701958D01*
X112886690Y-127701953D01*
X112644428Y-127601605D01*
X112644421Y-127601603D01*
X112644419Y-127601602D01*
X112391116Y-127533730D01*
X112333339Y-127526123D01*
X112131127Y-127499500D01*
X112131120Y-127499500D01*
X111868880Y-127499500D01*
X111868872Y-127499500D01*
X111637772Y-127529926D01*
X111608884Y-127533730D01*
X111424042Y-127583258D01*
X111355581Y-127601602D01*
X111355571Y-127601605D01*
X111113309Y-127701953D01*
X111113299Y-127701958D01*
X110886196Y-127833075D01*
X110678148Y-127992718D01*
X110492718Y-128178148D01*
X110333075Y-128386196D01*
X110201958Y-128613299D01*
X110201953Y-128613309D01*
X110101605Y-128855571D01*
X110101602Y-128855581D01*
X110053073Y-129036697D01*
X110033730Y-129108885D01*
X109999500Y-129368872D01*
X107755127Y-129368872D01*
X107839139Y-129310047D01*
X108000047Y-129149139D01*
X108130568Y-128962734D01*
X108226739Y-128756496D01*
X108285635Y-128536692D01*
X108305468Y-128310000D01*
X108285635Y-128083308D01*
X108226739Y-127863504D01*
X108130568Y-127657266D01*
X108032839Y-127517693D01*
X108000045Y-127470858D01*
X107839141Y-127309954D01*
X107652734Y-127179432D01*
X107652732Y-127179431D01*
X107446497Y-127083261D01*
X107446488Y-127083258D01*
X107226697Y-127024366D01*
X107226693Y-127024365D01*
X107226692Y-127024365D01*
X107226691Y-127024364D01*
X107226686Y-127024364D01*
X107000002Y-127004532D01*
X106999998Y-127004532D01*
X106773313Y-127024364D01*
X106773302Y-127024366D01*
X106553511Y-127083258D01*
X106553502Y-127083261D01*
X106347267Y-127179431D01*
X106347265Y-127179432D01*
X106160858Y-127309954D01*
X105999954Y-127470858D01*
X105955932Y-127533730D01*
X105869881Y-127656624D01*
X105815307Y-127700248D01*
X105768308Y-127709500D01*
X104734772Y-127709500D01*
X104667733Y-127689815D01*
X104663649Y-127687075D01*
X104652734Y-127679432D01*
X104652732Y-127679431D01*
X104446497Y-127583261D01*
X104446488Y-127583258D01*
X104226697Y-127524366D01*
X104226693Y-127524365D01*
X104226692Y-127524365D01*
X104226691Y-127524364D01*
X104226686Y-127524364D01*
X104000002Y-127504532D01*
X103999998Y-127504532D01*
X103773313Y-127524364D01*
X103773302Y-127524366D01*
X103553511Y-127583258D01*
X103553502Y-127583261D01*
X103347267Y-127679431D01*
X103347265Y-127679432D01*
X103160858Y-127809954D01*
X102999954Y-127970858D01*
X102869432Y-128157265D01*
X102869431Y-128157267D01*
X102773261Y-128363502D01*
X102773258Y-128363511D01*
X102714366Y-128583302D01*
X102714364Y-128583313D01*
X102694532Y-128809998D01*
X98712500Y-128809998D01*
X98712500Y-128639672D01*
X98712499Y-128639655D01*
X98706098Y-128580127D01*
X98706096Y-128580120D01*
X98655854Y-128445413D01*
X98655850Y-128445406D01*
X98569690Y-128330312D01*
X98569687Y-128330309D01*
X98454593Y-128244149D01*
X98454586Y-128244145D01*
X98319879Y-128193903D01*
X98319872Y-128193901D01*
X98260344Y-128187500D01*
X97362500Y-128187500D01*
X97362500Y-129239017D01*
X97344091Y-129228389D01*
X97191491Y-129187500D01*
X97033509Y-129187500D01*
X96880909Y-129228389D01*
X96862500Y-129239017D01*
X96862500Y-128187500D01*
X95964655Y-128187500D01*
X95905127Y-128193901D01*
X95905120Y-128193903D01*
X95770413Y-128244145D01*
X95770406Y-128244149D01*
X95655312Y-128330309D01*
X95655309Y-128330312D01*
X95569149Y-128445406D01*
X95569145Y-128445413D01*
X95518903Y-128580120D01*
X95518901Y-128580127D01*
X95512500Y-128639655D01*
X91000500Y-128639655D01*
X91000500Y-126118543D01*
X114019499Y-126118543D01*
X114057947Y-126311829D01*
X114057950Y-126311839D01*
X114133364Y-126493907D01*
X114133371Y-126493920D01*
X114242860Y-126657781D01*
X114242863Y-126657785D01*
X114382214Y-126797136D01*
X114382218Y-126797139D01*
X114546079Y-126906628D01*
X114546092Y-126906635D01*
X114728160Y-126982049D01*
X114728165Y-126982051D01*
X114728169Y-126982051D01*
X114728170Y-126982052D01*
X114921456Y-127020500D01*
X114921459Y-127020500D01*
X115118543Y-127020500D01*
X115248582Y-126994632D01*
X115311835Y-126982051D01*
X115493914Y-126906632D01*
X115657782Y-126797139D01*
X115797139Y-126657782D01*
X115906632Y-126493914D01*
X115982051Y-126311835D01*
X116020500Y-126118543D01*
X116559499Y-126118543D01*
X116597947Y-126311829D01*
X116597950Y-126311839D01*
X116673364Y-126493907D01*
X116673371Y-126493920D01*
X116782860Y-126657781D01*
X116782863Y-126657785D01*
X116922214Y-126797136D01*
X116922218Y-126797139D01*
X117086079Y-126906628D01*
X117086092Y-126906635D01*
X117268160Y-126982049D01*
X117268165Y-126982051D01*
X117268169Y-126982051D01*
X117268170Y-126982052D01*
X117461456Y-127020500D01*
X117461459Y-127020500D01*
X117658543Y-127020500D01*
X117788582Y-126994632D01*
X117851835Y-126982051D01*
X118033914Y-126906632D01*
X118197782Y-126797139D01*
X118337139Y-126657782D01*
X118446632Y-126493914D01*
X118522051Y-126311835D01*
X118560500Y-126118543D01*
X119099499Y-126118543D01*
X119137947Y-126311829D01*
X119137950Y-126311839D01*
X119213364Y-126493907D01*
X119213371Y-126493920D01*
X119322860Y-126657781D01*
X119322863Y-126657785D01*
X119462214Y-126797136D01*
X119462218Y-126797139D01*
X119626079Y-126906628D01*
X119626092Y-126906635D01*
X119808160Y-126982049D01*
X119808165Y-126982051D01*
X119808169Y-126982051D01*
X119808170Y-126982052D01*
X120001456Y-127020500D01*
X120001459Y-127020500D01*
X120198543Y-127020500D01*
X120328582Y-126994632D01*
X120391835Y-126982051D01*
X120573914Y-126906632D01*
X120737782Y-126797139D01*
X120877139Y-126657782D01*
X120986632Y-126493914D01*
X121062051Y-126311835D01*
X121100500Y-126118543D01*
X121639499Y-126118543D01*
X121677947Y-126311829D01*
X121677950Y-126311839D01*
X121753364Y-126493907D01*
X121753371Y-126493920D01*
X121862860Y-126657781D01*
X121862863Y-126657785D01*
X122002214Y-126797136D01*
X122002218Y-126797139D01*
X122166079Y-126906628D01*
X122166092Y-126906635D01*
X122348160Y-126982049D01*
X122348165Y-126982051D01*
X122348169Y-126982051D01*
X122348170Y-126982052D01*
X122541456Y-127020500D01*
X122541459Y-127020500D01*
X122738543Y-127020500D01*
X122868582Y-126994632D01*
X122931835Y-126982051D01*
X123113914Y-126906632D01*
X123277782Y-126797139D01*
X123417139Y-126657782D01*
X123526632Y-126493914D01*
X123602051Y-126311835D01*
X123640500Y-126118543D01*
X124179499Y-126118543D01*
X124217947Y-126311829D01*
X124217950Y-126311839D01*
X124293364Y-126493907D01*
X124293371Y-126493920D01*
X124402860Y-126657781D01*
X124402863Y-126657785D01*
X124542214Y-126797136D01*
X124542218Y-126797139D01*
X124706079Y-126906628D01*
X124706092Y-126906635D01*
X124888160Y-126982049D01*
X124888165Y-126982051D01*
X124888169Y-126982051D01*
X124888170Y-126982052D01*
X125081456Y-127020500D01*
X125081459Y-127020500D01*
X125278543Y-127020500D01*
X125408582Y-126994632D01*
X125471835Y-126982051D01*
X125653914Y-126906632D01*
X125817782Y-126797139D01*
X125957139Y-126657782D01*
X126066632Y-126493914D01*
X126142051Y-126311835D01*
X126180500Y-126118543D01*
X126719499Y-126118543D01*
X126757947Y-126311829D01*
X126757950Y-126311839D01*
X126833364Y-126493907D01*
X126833371Y-126493920D01*
X126942860Y-126657781D01*
X126942863Y-126657785D01*
X127082214Y-126797136D01*
X127082218Y-126797139D01*
X127246079Y-126906628D01*
X127246092Y-126906635D01*
X127428160Y-126982049D01*
X127428165Y-126982051D01*
X127428169Y-126982051D01*
X127428170Y-126982052D01*
X127621456Y-127020500D01*
X127621459Y-127020500D01*
X127818543Y-127020500D01*
X127948582Y-126994632D01*
X128011835Y-126982051D01*
X128193914Y-126906632D01*
X128357782Y-126797139D01*
X128497139Y-126657782D01*
X128606632Y-126493914D01*
X128682051Y-126311835D01*
X128720500Y-126118543D01*
X129259499Y-126118543D01*
X129297947Y-126311829D01*
X129297950Y-126311839D01*
X129373364Y-126493907D01*
X129373371Y-126493920D01*
X129482860Y-126657781D01*
X129482863Y-126657785D01*
X129622214Y-126797136D01*
X129622218Y-126797139D01*
X129786079Y-126906628D01*
X129786092Y-126906635D01*
X129968160Y-126982049D01*
X129968165Y-126982051D01*
X129968169Y-126982051D01*
X129968170Y-126982052D01*
X130161456Y-127020500D01*
X130161459Y-127020500D01*
X130358543Y-127020500D01*
X130488582Y-126994632D01*
X130551835Y-126982051D01*
X130733914Y-126906632D01*
X130897782Y-126797139D01*
X131037139Y-126657782D01*
X131146632Y-126493914D01*
X131222051Y-126311835D01*
X131260500Y-126118543D01*
X131799499Y-126118543D01*
X131837947Y-126311829D01*
X131837950Y-126311839D01*
X131913364Y-126493907D01*
X131913371Y-126493920D01*
X132022860Y-126657781D01*
X132022863Y-126657785D01*
X132162214Y-126797136D01*
X132162218Y-126797139D01*
X132326079Y-126906628D01*
X132326092Y-126906635D01*
X132508160Y-126982049D01*
X132508165Y-126982051D01*
X132508169Y-126982051D01*
X132508170Y-126982052D01*
X132701456Y-127020500D01*
X132701459Y-127020500D01*
X132898543Y-127020500D01*
X133028582Y-126994632D01*
X133091835Y-126982051D01*
X133273914Y-126906632D01*
X133437782Y-126797139D01*
X133577139Y-126657782D01*
X133686632Y-126493914D01*
X133762051Y-126311835D01*
X133800500Y-126118543D01*
X134339499Y-126118543D01*
X134377947Y-126311829D01*
X134377950Y-126311839D01*
X134453364Y-126493907D01*
X134453371Y-126493920D01*
X134562860Y-126657781D01*
X134562863Y-126657785D01*
X134702214Y-126797136D01*
X134702218Y-126797139D01*
X134866079Y-126906628D01*
X134866092Y-126906635D01*
X135048160Y-126982049D01*
X135048165Y-126982051D01*
X135048169Y-126982051D01*
X135048170Y-126982052D01*
X135241456Y-127020500D01*
X135241459Y-127020500D01*
X135438543Y-127020500D01*
X135568582Y-126994632D01*
X135631835Y-126982051D01*
X135813914Y-126906632D01*
X135977782Y-126797139D01*
X136117139Y-126657782D01*
X136226632Y-126493914D01*
X136302051Y-126311835D01*
X136340500Y-126118543D01*
X136879499Y-126118543D01*
X136917947Y-126311829D01*
X136917950Y-126311839D01*
X136993364Y-126493907D01*
X136993371Y-126493920D01*
X137102860Y-126657781D01*
X137102863Y-126657785D01*
X137242214Y-126797136D01*
X137242218Y-126797139D01*
X137406079Y-126906628D01*
X137406092Y-126906635D01*
X137588160Y-126982049D01*
X137588165Y-126982051D01*
X137588169Y-126982051D01*
X137588170Y-126982052D01*
X137781456Y-127020500D01*
X137781459Y-127020500D01*
X137978543Y-127020500D01*
X138108582Y-126994632D01*
X138171835Y-126982051D01*
X138353914Y-126906632D01*
X138517782Y-126797139D01*
X138657139Y-126657782D01*
X138766632Y-126493914D01*
X138842051Y-126311835D01*
X138880500Y-126118543D01*
X139419499Y-126118543D01*
X139457947Y-126311829D01*
X139457950Y-126311839D01*
X139533364Y-126493907D01*
X139533371Y-126493920D01*
X139642860Y-126657781D01*
X139642863Y-126657785D01*
X139782214Y-126797136D01*
X139782218Y-126797139D01*
X139946079Y-126906628D01*
X139946092Y-126906635D01*
X140128160Y-126982049D01*
X140128165Y-126982051D01*
X140128169Y-126982051D01*
X140128170Y-126982052D01*
X140321456Y-127020500D01*
X140321459Y-127020500D01*
X140518543Y-127020500D01*
X140648582Y-126994632D01*
X140711835Y-126982051D01*
X140893914Y-126906632D01*
X141057782Y-126797139D01*
X141197139Y-126657782D01*
X141306632Y-126493914D01*
X141382051Y-126311835D01*
X141420500Y-126118543D01*
X141959499Y-126118543D01*
X141997947Y-126311829D01*
X141997950Y-126311839D01*
X142073364Y-126493907D01*
X142073371Y-126493920D01*
X142182860Y-126657781D01*
X142182863Y-126657785D01*
X142322214Y-126797136D01*
X142322218Y-126797139D01*
X142486079Y-126906628D01*
X142486092Y-126906635D01*
X142668160Y-126982049D01*
X142668165Y-126982051D01*
X142668169Y-126982051D01*
X142668170Y-126982052D01*
X142861456Y-127020500D01*
X142861459Y-127020500D01*
X143058543Y-127020500D01*
X143188582Y-126994632D01*
X143251835Y-126982051D01*
X143433914Y-126906632D01*
X143597782Y-126797139D01*
X143737139Y-126657782D01*
X143846632Y-126493914D01*
X143922051Y-126311835D01*
X143960500Y-126118541D01*
X143960500Y-124921459D01*
X143960500Y-124921456D01*
X143922052Y-124728170D01*
X143922051Y-124728169D01*
X143922051Y-124728165D01*
X143922049Y-124728160D01*
X143846635Y-124546092D01*
X143846628Y-124546079D01*
X143737139Y-124382218D01*
X143737136Y-124382214D01*
X143597785Y-124242863D01*
X143597781Y-124242860D01*
X143433920Y-124133371D01*
X143433907Y-124133364D01*
X143251839Y-124057950D01*
X143251829Y-124057947D01*
X143058543Y-124019500D01*
X143058541Y-124019500D01*
X142861459Y-124019500D01*
X142861457Y-124019500D01*
X142668170Y-124057947D01*
X142668160Y-124057950D01*
X142486092Y-124133364D01*
X142486079Y-124133371D01*
X142322218Y-124242860D01*
X142322214Y-124242863D01*
X142182863Y-124382214D01*
X142182860Y-124382218D01*
X142073371Y-124546079D01*
X142073364Y-124546092D01*
X141997950Y-124728160D01*
X141997947Y-124728170D01*
X141959500Y-124921456D01*
X141959500Y-124921459D01*
X141959500Y-126118541D01*
X141959500Y-126118543D01*
X141959499Y-126118543D01*
X141420500Y-126118543D01*
X141420500Y-126118541D01*
X141420500Y-124921459D01*
X141420500Y-124921456D01*
X141382052Y-124728170D01*
X141382051Y-124728169D01*
X141382051Y-124728165D01*
X141382049Y-124728160D01*
X141306635Y-124546092D01*
X141306628Y-124546079D01*
X141197139Y-124382218D01*
X141197136Y-124382214D01*
X141057785Y-124242863D01*
X141057781Y-124242860D01*
X140893920Y-124133371D01*
X140893907Y-124133364D01*
X140711839Y-124057950D01*
X140711829Y-124057947D01*
X140518543Y-124019500D01*
X140518541Y-124019500D01*
X140321459Y-124019500D01*
X140321457Y-124019500D01*
X140128170Y-124057947D01*
X140128160Y-124057950D01*
X139946092Y-124133364D01*
X139946079Y-124133371D01*
X139782218Y-124242860D01*
X139782214Y-124242863D01*
X139642863Y-124382214D01*
X139642860Y-124382218D01*
X139533371Y-124546079D01*
X139533364Y-124546092D01*
X139457950Y-124728160D01*
X139457947Y-124728170D01*
X139419500Y-124921456D01*
X139419500Y-124921459D01*
X139419500Y-126118541D01*
X139419500Y-126118543D01*
X139419499Y-126118543D01*
X138880500Y-126118543D01*
X138880500Y-126118541D01*
X138880500Y-124921459D01*
X138880500Y-124921456D01*
X138842052Y-124728170D01*
X138842051Y-124728169D01*
X138842051Y-124728165D01*
X138842049Y-124728160D01*
X138766635Y-124546092D01*
X138766628Y-124546079D01*
X138657139Y-124382218D01*
X138657136Y-124382214D01*
X138517785Y-124242863D01*
X138517781Y-124242860D01*
X138353920Y-124133371D01*
X138353907Y-124133364D01*
X138171839Y-124057950D01*
X138171829Y-124057947D01*
X137978543Y-124019500D01*
X137978541Y-124019500D01*
X137781459Y-124019500D01*
X137781457Y-124019500D01*
X137588170Y-124057947D01*
X137588160Y-124057950D01*
X137406092Y-124133364D01*
X137406079Y-124133371D01*
X137242218Y-124242860D01*
X137242214Y-124242863D01*
X137102863Y-124382214D01*
X137102860Y-124382218D01*
X136993371Y-124546079D01*
X136993364Y-124546092D01*
X136917950Y-124728160D01*
X136917947Y-124728170D01*
X136879500Y-124921456D01*
X136879500Y-124921459D01*
X136879500Y-126118541D01*
X136879500Y-126118543D01*
X136879499Y-126118543D01*
X136340500Y-126118543D01*
X136340500Y-126118541D01*
X136340500Y-124921459D01*
X136340500Y-124921456D01*
X136302052Y-124728170D01*
X136302051Y-124728169D01*
X136302051Y-124728165D01*
X136302049Y-124728160D01*
X136226635Y-124546092D01*
X136226628Y-124546079D01*
X136117139Y-124382218D01*
X136117136Y-124382214D01*
X135977785Y-124242863D01*
X135977781Y-124242860D01*
X135813920Y-124133371D01*
X135813907Y-124133364D01*
X135631839Y-124057950D01*
X135631829Y-124057947D01*
X135438543Y-124019500D01*
X135438541Y-124019500D01*
X135241459Y-124019500D01*
X135241457Y-124019500D01*
X135048170Y-124057947D01*
X135048160Y-124057950D01*
X134866092Y-124133364D01*
X134866079Y-124133371D01*
X134702218Y-124242860D01*
X134702214Y-124242863D01*
X134562863Y-124382214D01*
X134562860Y-124382218D01*
X134453371Y-124546079D01*
X134453364Y-124546092D01*
X134377950Y-124728160D01*
X134377947Y-124728170D01*
X134339500Y-124921456D01*
X134339500Y-124921459D01*
X134339500Y-126118541D01*
X134339500Y-126118543D01*
X134339499Y-126118543D01*
X133800500Y-126118543D01*
X133800500Y-126118541D01*
X133800500Y-124921459D01*
X133800500Y-124921456D01*
X133762052Y-124728170D01*
X133762051Y-124728169D01*
X133762051Y-124728165D01*
X133762049Y-124728160D01*
X133686635Y-124546092D01*
X133686628Y-124546079D01*
X133577139Y-124382218D01*
X133577136Y-124382214D01*
X133437785Y-124242863D01*
X133437781Y-124242860D01*
X133273920Y-124133371D01*
X133273907Y-124133364D01*
X133091839Y-124057950D01*
X133091829Y-124057947D01*
X132898543Y-124019500D01*
X132898541Y-124019500D01*
X132701459Y-124019500D01*
X132701457Y-124019500D01*
X132508170Y-124057947D01*
X132508160Y-124057950D01*
X132326092Y-124133364D01*
X132326079Y-124133371D01*
X132162218Y-124242860D01*
X132162214Y-124242863D01*
X132022863Y-124382214D01*
X132022860Y-124382218D01*
X131913371Y-124546079D01*
X131913364Y-124546092D01*
X131837950Y-124728160D01*
X131837947Y-124728170D01*
X131799500Y-124921456D01*
X131799500Y-124921459D01*
X131799500Y-126118541D01*
X131799500Y-126118543D01*
X131799499Y-126118543D01*
X131260500Y-126118543D01*
X131260500Y-126118541D01*
X131260500Y-124921459D01*
X131260500Y-124921456D01*
X131222052Y-124728170D01*
X131222051Y-124728169D01*
X131222051Y-124728165D01*
X131222049Y-124728160D01*
X131146635Y-124546092D01*
X131146628Y-124546079D01*
X131037139Y-124382218D01*
X131037136Y-124382214D01*
X130897785Y-124242863D01*
X130897781Y-124242860D01*
X130733920Y-124133371D01*
X130733907Y-124133364D01*
X130551839Y-124057950D01*
X130551829Y-124057947D01*
X130358543Y-124019500D01*
X130358541Y-124019500D01*
X130161459Y-124019500D01*
X130161457Y-124019500D01*
X129968170Y-124057947D01*
X129968160Y-124057950D01*
X129786092Y-124133364D01*
X129786079Y-124133371D01*
X129622218Y-124242860D01*
X129622214Y-124242863D01*
X129482863Y-124382214D01*
X129482860Y-124382218D01*
X129373371Y-124546079D01*
X129373364Y-124546092D01*
X129297950Y-124728160D01*
X129297947Y-124728170D01*
X129259500Y-124921456D01*
X129259500Y-124921459D01*
X129259500Y-126118541D01*
X129259500Y-126118543D01*
X129259499Y-126118543D01*
X128720500Y-126118543D01*
X128720500Y-126118541D01*
X128720500Y-124921459D01*
X128720500Y-124921456D01*
X128682052Y-124728170D01*
X128682051Y-124728169D01*
X128682051Y-124728165D01*
X128682049Y-124728160D01*
X128606635Y-124546092D01*
X128606628Y-124546079D01*
X128497139Y-124382218D01*
X128497136Y-124382214D01*
X128357785Y-124242863D01*
X128357781Y-124242860D01*
X128193920Y-124133371D01*
X128193907Y-124133364D01*
X128011839Y-124057950D01*
X128011829Y-124057947D01*
X127818543Y-124019500D01*
X127818541Y-124019500D01*
X127621459Y-124019500D01*
X127621457Y-124019500D01*
X127428170Y-124057947D01*
X127428160Y-124057950D01*
X127246092Y-124133364D01*
X127246079Y-124133371D01*
X127082218Y-124242860D01*
X127082214Y-124242863D01*
X126942863Y-124382214D01*
X126942860Y-124382218D01*
X126833371Y-124546079D01*
X126833364Y-124546092D01*
X126757950Y-124728160D01*
X126757947Y-124728170D01*
X126719500Y-124921456D01*
X126719500Y-124921459D01*
X126719500Y-126118541D01*
X126719500Y-126118543D01*
X126719499Y-126118543D01*
X126180500Y-126118543D01*
X126180500Y-126118541D01*
X126180500Y-124921459D01*
X126180500Y-124921456D01*
X126142052Y-124728170D01*
X126142051Y-124728169D01*
X126142051Y-124728165D01*
X126142049Y-124728160D01*
X126066635Y-124546092D01*
X126066628Y-124546079D01*
X125957139Y-124382218D01*
X125957136Y-124382214D01*
X125817785Y-124242863D01*
X125817781Y-124242860D01*
X125653920Y-124133371D01*
X125653907Y-124133364D01*
X125471839Y-124057950D01*
X125471829Y-124057947D01*
X125278543Y-124019500D01*
X125278541Y-124019500D01*
X125081459Y-124019500D01*
X125081457Y-124019500D01*
X124888170Y-124057947D01*
X124888160Y-124057950D01*
X124706092Y-124133364D01*
X124706079Y-124133371D01*
X124542218Y-124242860D01*
X124542214Y-124242863D01*
X124402863Y-124382214D01*
X124402860Y-124382218D01*
X124293371Y-124546079D01*
X124293364Y-124546092D01*
X124217950Y-124728160D01*
X124217947Y-124728170D01*
X124179500Y-124921456D01*
X124179500Y-124921459D01*
X124179500Y-126118541D01*
X124179500Y-126118543D01*
X124179499Y-126118543D01*
X123640500Y-126118543D01*
X123640500Y-126118541D01*
X123640500Y-124921459D01*
X123640500Y-124921456D01*
X123602052Y-124728170D01*
X123602051Y-124728169D01*
X123602051Y-124728165D01*
X123602049Y-124728160D01*
X123526635Y-124546092D01*
X123526628Y-124546079D01*
X123417139Y-124382218D01*
X123417136Y-124382214D01*
X123277785Y-124242863D01*
X123277781Y-124242860D01*
X123113920Y-124133371D01*
X123113907Y-124133364D01*
X122931839Y-124057950D01*
X122931829Y-124057947D01*
X122738543Y-124019500D01*
X122738541Y-124019500D01*
X122541459Y-124019500D01*
X122541457Y-124019500D01*
X122348170Y-124057947D01*
X122348160Y-124057950D01*
X122166092Y-124133364D01*
X122166079Y-124133371D01*
X122002218Y-124242860D01*
X122002214Y-124242863D01*
X121862863Y-124382214D01*
X121862860Y-124382218D01*
X121753371Y-124546079D01*
X121753364Y-124546092D01*
X121677950Y-124728160D01*
X121677947Y-124728170D01*
X121639500Y-124921456D01*
X121639500Y-124921459D01*
X121639500Y-126118541D01*
X121639500Y-126118543D01*
X121639499Y-126118543D01*
X121100500Y-126118543D01*
X121100500Y-126118541D01*
X121100500Y-124921459D01*
X121100500Y-124921456D01*
X121062052Y-124728170D01*
X121062051Y-124728169D01*
X121062051Y-124728165D01*
X121062049Y-124728160D01*
X120986635Y-124546092D01*
X120986628Y-124546079D01*
X120877139Y-124382218D01*
X120877136Y-124382214D01*
X120737785Y-124242863D01*
X120737781Y-124242860D01*
X120573920Y-124133371D01*
X120573907Y-124133364D01*
X120391839Y-124057950D01*
X120391829Y-124057947D01*
X120198543Y-124019500D01*
X120198541Y-124019500D01*
X120001459Y-124019500D01*
X120001457Y-124019500D01*
X119808170Y-124057947D01*
X119808160Y-124057950D01*
X119626092Y-124133364D01*
X119626079Y-124133371D01*
X119462218Y-124242860D01*
X119462214Y-124242863D01*
X119322863Y-124382214D01*
X119322860Y-124382218D01*
X119213371Y-124546079D01*
X119213364Y-124546092D01*
X119137950Y-124728160D01*
X119137947Y-124728170D01*
X119099500Y-124921456D01*
X119099500Y-124921459D01*
X119099500Y-126118541D01*
X119099500Y-126118543D01*
X119099499Y-126118543D01*
X118560500Y-126118543D01*
X118560500Y-126118541D01*
X118560500Y-124921459D01*
X118560500Y-124921456D01*
X118522052Y-124728170D01*
X118522051Y-124728169D01*
X118522051Y-124728165D01*
X118522049Y-124728160D01*
X118446635Y-124546092D01*
X118446628Y-124546079D01*
X118337139Y-124382218D01*
X118337136Y-124382214D01*
X118197785Y-124242863D01*
X118197781Y-124242860D01*
X118033920Y-124133371D01*
X118033907Y-124133364D01*
X117851839Y-124057950D01*
X117851829Y-124057947D01*
X117658543Y-124019500D01*
X117658541Y-124019500D01*
X117461459Y-124019500D01*
X117461457Y-124019500D01*
X117268170Y-124057947D01*
X117268160Y-124057950D01*
X117086092Y-124133364D01*
X117086079Y-124133371D01*
X116922218Y-124242860D01*
X116922214Y-124242863D01*
X116782863Y-124382214D01*
X116782860Y-124382218D01*
X116673371Y-124546079D01*
X116673364Y-124546092D01*
X116597950Y-124728160D01*
X116597947Y-124728170D01*
X116559500Y-124921456D01*
X116559500Y-124921459D01*
X116559500Y-126118541D01*
X116559500Y-126118543D01*
X116559499Y-126118543D01*
X116020500Y-126118543D01*
X116020500Y-126118541D01*
X116020500Y-124921459D01*
X116020500Y-124921456D01*
X115982052Y-124728170D01*
X115982051Y-124728169D01*
X115982051Y-124728165D01*
X115982049Y-124728160D01*
X115906635Y-124546092D01*
X115906628Y-124546079D01*
X115797139Y-124382218D01*
X115797136Y-124382214D01*
X115657785Y-124242863D01*
X115657781Y-124242860D01*
X115493920Y-124133371D01*
X115493907Y-124133364D01*
X115311839Y-124057950D01*
X115311829Y-124057947D01*
X115118543Y-124019500D01*
X115118541Y-124019500D01*
X114921459Y-124019500D01*
X114921457Y-124019500D01*
X114728170Y-124057947D01*
X114728160Y-124057950D01*
X114546092Y-124133364D01*
X114546079Y-124133371D01*
X114382218Y-124242860D01*
X114382214Y-124242863D01*
X114242863Y-124382214D01*
X114242860Y-124382218D01*
X114133371Y-124546079D01*
X114133364Y-124546092D01*
X114057950Y-124728160D01*
X114057947Y-124728170D01*
X114019500Y-124921456D01*
X114019500Y-124921459D01*
X114019500Y-126118541D01*
X114019500Y-126118543D01*
X114019499Y-126118543D01*
X91000500Y-126118543D01*
X91000500Y-121189998D01*
X102694532Y-121189998D01*
X102694532Y-121190001D01*
X102714364Y-121416686D01*
X102714366Y-121416697D01*
X102773258Y-121636488D01*
X102773261Y-121636497D01*
X102869431Y-121842732D01*
X102869432Y-121842734D01*
X102999954Y-122029141D01*
X103160858Y-122190045D01*
X103160861Y-122190047D01*
X103347266Y-122320568D01*
X103553504Y-122416739D01*
X103773308Y-122475635D01*
X103935230Y-122489801D01*
X103999998Y-122495468D01*
X104000000Y-122495468D01*
X104000002Y-122495468D01*
X104056673Y-122490509D01*
X104226692Y-122475635D01*
X104446496Y-122416739D01*
X104652734Y-122320568D01*
X104839139Y-122190047D01*
X105000047Y-122029139D01*
X105130568Y-121842734D01*
X105226739Y-121636496D01*
X105285635Y-121416692D01*
X105305468Y-121190000D01*
X105285635Y-120963308D01*
X105226739Y-120743504D01*
X105130568Y-120537266D01*
X105000047Y-120350861D01*
X105000045Y-120350858D01*
X104839141Y-120189954D01*
X104652734Y-120059432D01*
X104652732Y-120059431D01*
X104446497Y-119963261D01*
X104446488Y-119963258D01*
X104257400Y-119912593D01*
X104197739Y-119876228D01*
X104167210Y-119813381D01*
X104175505Y-119744006D01*
X104219990Y-119690128D01*
X104266709Y-119670929D01*
X104329804Y-119659135D01*
X104537177Y-119578798D01*
X104537178Y-119578797D01*
X104653327Y-119506880D01*
X104000001Y-118853554D01*
X104000000Y-118853554D01*
X103346671Y-119506880D01*
X103462823Y-119578798D01*
X103462824Y-119578799D01*
X103670195Y-119659135D01*
X103733290Y-119670929D01*
X103795571Y-119702597D01*
X103830845Y-119762909D01*
X103827912Y-119832717D01*
X103787703Y-119889857D01*
X103742599Y-119912593D01*
X103553511Y-119963258D01*
X103553502Y-119963261D01*
X103347267Y-120059431D01*
X103347265Y-120059432D01*
X103160858Y-120189954D01*
X102999954Y-120350858D01*
X102869432Y-120537265D01*
X102869431Y-120537267D01*
X102773261Y-120743502D01*
X102773258Y-120743511D01*
X102714366Y-120963302D01*
X102714364Y-120963313D01*
X102694532Y-121189998D01*
X91000500Y-121189998D01*
X91000500Y-117987500D01*
X95507051Y-117987500D01*
X95526817Y-118238651D01*
X95585626Y-118483610D01*
X95682033Y-118716359D01*
X95813660Y-118931153D01*
X95813661Y-118931156D01*
X95813664Y-118931159D01*
X95977276Y-119122724D01*
X96015425Y-119155306D01*
X96168843Y-119286338D01*
X96168846Y-119286339D01*
X96383640Y-119417966D01*
X96598299Y-119506880D01*
X96616389Y-119514373D01*
X96861352Y-119573183D01*
X97112500Y-119592949D01*
X97363648Y-119573183D01*
X97608611Y-119514373D01*
X97841359Y-119417966D01*
X98056159Y-119286336D01*
X98247724Y-119122724D01*
X98411336Y-118931159D01*
X98542966Y-118716359D01*
X98632585Y-118499999D01*
X102794859Y-118499999D01*
X102794859Y-118500000D01*
X102815378Y-118721439D01*
X102876240Y-118935350D01*
X102975364Y-119134419D01*
X102975366Y-119134421D01*
X102991138Y-119155306D01*
X103646446Y-118500000D01*
X103646446Y-118499999D01*
X103600369Y-118453922D01*
X103650000Y-118453922D01*
X103650000Y-118546078D01*
X103673852Y-118635095D01*
X103719930Y-118714905D01*
X103785095Y-118780070D01*
X103864905Y-118826148D01*
X103953922Y-118850000D01*
X104046078Y-118850000D01*
X104135095Y-118826148D01*
X104214905Y-118780070D01*
X104280070Y-118714905D01*
X104326148Y-118635095D01*
X104350000Y-118546078D01*
X104350000Y-118499999D01*
X104353554Y-118499999D01*
X104353554Y-118500000D01*
X105008860Y-119155306D01*
X105008861Y-119155306D01*
X105024631Y-119134425D01*
X105024632Y-119134422D01*
X105123759Y-118935350D01*
X105184621Y-118721439D01*
X105205141Y-118500000D01*
X105205141Y-118499999D01*
X105187534Y-118309997D01*
X105695034Y-118309997D01*
X105695034Y-118310002D01*
X105714858Y-118536599D01*
X105714860Y-118536610D01*
X105773730Y-118756317D01*
X105773735Y-118756331D01*
X105869863Y-118962478D01*
X105920974Y-119035472D01*
X106600000Y-118356446D01*
X106600000Y-118362661D01*
X106627259Y-118464394D01*
X106679920Y-118555606D01*
X106754394Y-118630080D01*
X106845606Y-118682741D01*
X106947339Y-118710000D01*
X106953553Y-118710000D01*
X106274527Y-119389024D01*
X106287951Y-119398424D01*
X106331575Y-119453001D01*
X106338768Y-119522500D01*
X106307246Y-119584854D01*
X106287952Y-119601573D01*
X106161180Y-119690341D01*
X106000342Y-119851179D01*
X105869865Y-120037517D01*
X105773734Y-120243673D01*
X105773730Y-120243682D01*
X105721127Y-120439999D01*
X105721128Y-120440000D01*
X106684314Y-120440000D01*
X106679920Y-120444394D01*
X106627259Y-120535606D01*
X106600000Y-120637339D01*
X106600000Y-120742661D01*
X106627259Y-120844394D01*
X106679920Y-120935606D01*
X106684314Y-120940000D01*
X105721128Y-120940000D01*
X105773730Y-121136317D01*
X105773734Y-121136326D01*
X105869865Y-121342482D01*
X106000342Y-121528820D01*
X106161179Y-121689657D01*
X106347517Y-121820134D01*
X106553673Y-121916265D01*
X106553682Y-121916269D01*
X106749999Y-121968872D01*
X106750000Y-121968871D01*
X106750000Y-121005686D01*
X106754394Y-121010080D01*
X106845606Y-121062741D01*
X106947339Y-121090000D01*
X107052661Y-121090000D01*
X107154394Y-121062741D01*
X107245606Y-121010080D01*
X107250000Y-121005686D01*
X107250000Y-121968872D01*
X107446317Y-121916269D01*
X107446326Y-121916265D01*
X107652482Y-121820134D01*
X107838820Y-121689657D01*
X107999657Y-121528820D01*
X108130134Y-121342482D01*
X108226265Y-121136326D01*
X108226269Y-121136317D01*
X108278872Y-120940000D01*
X107315686Y-120940000D01*
X107320080Y-120935606D01*
X107372741Y-120844394D01*
X107400000Y-120742661D01*
X107400000Y-120637339D01*
X107372741Y-120535606D01*
X107320080Y-120444394D01*
X107315686Y-120440000D01*
X108278872Y-120440000D01*
X108278872Y-120439999D01*
X108226269Y-120243682D01*
X108226265Y-120243673D01*
X108130134Y-120037517D01*
X107999657Y-119851179D01*
X107838820Y-119690342D01*
X107712047Y-119601574D01*
X107668422Y-119546997D01*
X107661230Y-119477498D01*
X107692752Y-119415144D01*
X107712047Y-119398424D01*
X107725471Y-119389024D01*
X107046447Y-118710000D01*
X107052661Y-118710000D01*
X107154394Y-118682741D01*
X107245606Y-118630080D01*
X107320080Y-118555606D01*
X107372741Y-118464394D01*
X107400000Y-118362661D01*
X107400000Y-118356447D01*
X108079024Y-119035471D01*
X108130136Y-118962478D01*
X108226264Y-118756331D01*
X108226269Y-118756317D01*
X108285139Y-118536610D01*
X108285141Y-118536599D01*
X108304966Y-118310002D01*
X108304966Y-118309997D01*
X108285141Y-118083400D01*
X108285139Y-118083389D01*
X108226269Y-117863682D01*
X108226264Y-117863668D01*
X108130136Y-117657521D01*
X108130132Y-117657513D01*
X108079025Y-117584526D01*
X107400000Y-118263551D01*
X107400000Y-118257339D01*
X107372741Y-118155606D01*
X107320080Y-118064394D01*
X107245606Y-117989920D01*
X107154394Y-117937259D01*
X107052661Y-117910000D01*
X107046445Y-117910000D01*
X107725472Y-117230974D01*
X107652478Y-117179863D01*
X107446331Y-117083735D01*
X107446317Y-117083730D01*
X107226610Y-117024860D01*
X107226599Y-117024858D01*
X107000002Y-117005034D01*
X106999998Y-117005034D01*
X106773400Y-117024858D01*
X106773389Y-117024860D01*
X106553682Y-117083730D01*
X106553673Y-117083734D01*
X106347516Y-117179866D01*
X106347512Y-117179868D01*
X106274526Y-117230973D01*
X106274526Y-117230974D01*
X106953553Y-117910000D01*
X106947339Y-117910000D01*
X106845606Y-117937259D01*
X106754394Y-117989920D01*
X106679920Y-118064394D01*
X106627259Y-118155606D01*
X106600000Y-118257339D01*
X106600000Y-118263552D01*
X105920974Y-117584526D01*
X105920973Y-117584526D01*
X105869868Y-117657512D01*
X105869866Y-117657516D01*
X105773734Y-117863673D01*
X105773730Y-117863682D01*
X105714860Y-118083389D01*
X105714858Y-118083400D01*
X105695034Y-118309997D01*
X105187534Y-118309997D01*
X105184621Y-118278560D01*
X105123759Y-118064649D01*
X105024633Y-117865577D01*
X105024631Y-117865574D01*
X105008860Y-117844691D01*
X104353554Y-118499999D01*
X104350000Y-118499999D01*
X104350000Y-118453922D01*
X104326148Y-118364905D01*
X104280070Y-118285095D01*
X104214905Y-118219930D01*
X104135095Y-118173852D01*
X104046078Y-118150000D01*
X103953922Y-118150000D01*
X103864905Y-118173852D01*
X103785095Y-118219930D01*
X103719930Y-118285095D01*
X103673852Y-118364905D01*
X103650000Y-118453922D01*
X103600369Y-118453922D01*
X102991138Y-117844691D01*
X102991137Y-117844691D01*
X102975369Y-117865571D01*
X102876240Y-118064649D01*
X102815378Y-118278560D01*
X102794859Y-118499999D01*
X98632585Y-118499999D01*
X98639373Y-118483611D01*
X98698183Y-118238648D01*
X98717949Y-117987500D01*
X98698183Y-117736352D01*
X98639373Y-117491389D01*
X98610298Y-117421196D01*
X98542966Y-117258640D01*
X98411339Y-117043846D01*
X98411338Y-117043843D01*
X98341542Y-116962123D01*
X98247724Y-116852276D01*
X98121071Y-116744104D01*
X98056156Y-116688661D01*
X98056153Y-116688660D01*
X97841359Y-116557033D01*
X97608610Y-116460626D01*
X97363651Y-116401817D01*
X97112500Y-116382051D01*
X96861348Y-116401817D01*
X96616389Y-116460626D01*
X96383640Y-116557033D01*
X96168846Y-116688660D01*
X96168843Y-116688661D01*
X95977276Y-116852276D01*
X95813661Y-117043843D01*
X95813660Y-117043846D01*
X95682033Y-117258640D01*
X95585626Y-117491389D01*
X95526817Y-117736348D01*
X95507051Y-117987500D01*
X91000500Y-117987500D01*
X91000500Y-112649999D01*
X92033179Y-112649999D01*
X92033179Y-112650000D01*
X92052424Y-112869976D01*
X92052426Y-112869986D01*
X92109575Y-113083270D01*
X92109580Y-113083284D01*
X92202898Y-113283405D01*
X92202901Y-113283411D01*
X92248258Y-113348187D01*
X92248258Y-113348188D01*
X92919000Y-112677446D01*
X92919000Y-112700160D01*
X92944964Y-112797061D01*
X92995124Y-112883940D01*
X93066060Y-112954876D01*
X93152939Y-113005036D01*
X93249840Y-113031000D01*
X93272553Y-113031000D01*
X92601810Y-113701740D01*
X92666590Y-113747099D01*
X92666592Y-113747100D01*
X92866715Y-113840419D01*
X92866729Y-113840424D01*
X93080013Y-113897573D01*
X93080023Y-113897575D01*
X93299999Y-113916821D01*
X93300001Y-113916821D01*
X93519976Y-113897575D01*
X93519986Y-113897573D01*
X93733270Y-113840424D01*
X93733284Y-113840419D01*
X93933407Y-113747100D01*
X93933417Y-113747094D01*
X93998188Y-113701741D01*
X93327448Y-113031000D01*
X93350160Y-113031000D01*
X93447061Y-113005036D01*
X93533940Y-112954876D01*
X93604876Y-112883940D01*
X93655036Y-112797061D01*
X93681000Y-112700160D01*
X93681000Y-112677447D01*
X94351741Y-113348188D01*
X94397094Y-113283417D01*
X94397100Y-113283407D01*
X94490419Y-113083284D01*
X94490424Y-113083270D01*
X94547573Y-112869986D01*
X94547575Y-112869976D01*
X94566821Y-112650000D01*
X94566821Y-112649999D01*
X94566821Y-112649997D01*
X99232677Y-112649997D01*
X99232677Y-112650002D01*
X99251929Y-112870062D01*
X99251930Y-112870070D01*
X99309104Y-113083445D01*
X99309105Y-113083447D01*
X99309106Y-113083450D01*
X99402346Y-113283405D01*
X99402466Y-113283662D01*
X99402468Y-113283666D01*
X99529170Y-113464615D01*
X99529175Y-113464621D01*
X99685378Y-113620824D01*
X99685384Y-113620829D01*
X99866333Y-113747531D01*
X99866335Y-113747532D01*
X99866338Y-113747534D01*
X100066550Y-113840894D01*
X100279932Y-113898070D01*
X100437123Y-113911822D01*
X100499998Y-113917323D01*
X100500000Y-113917323D01*
X100500002Y-113917323D01*
X100555017Y-113912509D01*
X100720068Y-113898070D01*
X100933450Y-113840894D01*
X101133662Y-113747534D01*
X101314620Y-113620826D01*
X101470826Y-113464620D01*
X101579093Y-113309998D01*
X102694532Y-113309998D01*
X102694532Y-113310001D01*
X102714364Y-113536686D01*
X102714366Y-113536697D01*
X102773258Y-113756488D01*
X102773261Y-113756497D01*
X102869431Y-113962732D01*
X102869432Y-113962734D01*
X102999954Y-114149141D01*
X103160858Y-114310045D01*
X103160861Y-114310047D01*
X103347266Y-114440568D01*
X103553504Y-114536739D01*
X103741482Y-114587107D01*
X103801143Y-114623472D01*
X103831672Y-114686319D01*
X103823377Y-114755694D01*
X103778892Y-114809572D01*
X103732175Y-114828770D01*
X103670071Y-114840379D01*
X103670062Y-114840381D01*
X103670060Y-114840382D01*
X103538864Y-114891207D01*
X103462601Y-114920752D01*
X103462595Y-114920754D01*
X103273439Y-115037874D01*
X103273437Y-115037876D01*
X103109020Y-115187761D01*
X102974943Y-115365308D01*
X102974938Y-115365316D01*
X102875775Y-115564461D01*
X102875769Y-115564476D01*
X102814885Y-115778462D01*
X102814884Y-115778464D01*
X102794357Y-115999999D01*
X102794357Y-116000000D01*
X102814884Y-116221535D01*
X102814885Y-116221537D01*
X102875769Y-116435523D01*
X102875775Y-116435538D01*
X102974938Y-116634683D01*
X102974943Y-116634691D01*
X103109020Y-116812238D01*
X103273437Y-116962123D01*
X103273439Y-116962125D01*
X103462595Y-117079245D01*
X103462597Y-117079246D01*
X103462599Y-117079247D01*
X103605587Y-117134641D01*
X103660988Y-117177213D01*
X103684579Y-117242979D01*
X103668868Y-117311060D01*
X103618844Y-117359839D01*
X103605587Y-117365893D01*
X103462833Y-117421196D01*
X103462818Y-117421204D01*
X103346672Y-117493117D01*
X103346671Y-117493118D01*
X104000000Y-118146446D01*
X104000001Y-118146446D01*
X104653327Y-117493118D01*
X104653326Y-117493117D01*
X104537181Y-117421203D01*
X104537175Y-117421200D01*
X104394412Y-117365894D01*
X104339010Y-117323321D01*
X104315420Y-117257554D01*
X104331131Y-117189474D01*
X104381155Y-117140695D01*
X104394398Y-117134646D01*
X104537401Y-117079247D01*
X104726562Y-116962124D01*
X104890981Y-116812236D01*
X105025058Y-116634689D01*
X105124229Y-116435528D01*
X105185115Y-116221536D01*
X105205643Y-116000000D01*
X105185115Y-115778464D01*
X105124229Y-115564472D01*
X105124224Y-115564461D01*
X105025061Y-115365316D01*
X105025056Y-115365308D01*
X104890979Y-115187761D01*
X104726562Y-115037876D01*
X104726560Y-115037874D01*
X104537404Y-114920754D01*
X104537398Y-114920752D01*
X104329940Y-114840382D01*
X104267822Y-114828770D01*
X104205544Y-114797102D01*
X104170271Y-114736790D01*
X104173205Y-114666982D01*
X104213414Y-114609842D01*
X104258514Y-114587108D01*
X104446496Y-114536739D01*
X104652734Y-114440568D01*
X104839139Y-114310047D01*
X105000047Y-114149139D01*
X105130568Y-113962734D01*
X105226739Y-113756496D01*
X105285635Y-113536692D01*
X105305468Y-113310000D01*
X105303141Y-113283407D01*
X105299801Y-113245230D01*
X105285635Y-113083308D01*
X105226739Y-112863504D01*
X105130568Y-112657266D01*
X105000047Y-112470861D01*
X105000045Y-112470858D01*
X104839141Y-112309954D01*
X104652734Y-112179432D01*
X104652732Y-112179431D01*
X104446497Y-112083261D01*
X104446488Y-112083258D01*
X104226697Y-112024366D01*
X104226693Y-112024365D01*
X104226692Y-112024365D01*
X104226691Y-112024364D01*
X104226686Y-112024364D01*
X104000002Y-112004532D01*
X103999998Y-112004532D01*
X103773313Y-112024364D01*
X103773302Y-112024366D01*
X103553511Y-112083258D01*
X103553502Y-112083261D01*
X103347267Y-112179431D01*
X103347265Y-112179432D01*
X103160858Y-112309954D01*
X102999954Y-112470858D01*
X102869432Y-112657265D01*
X102869431Y-112657267D01*
X102773261Y-112863502D01*
X102773258Y-112863511D01*
X102714366Y-113083302D01*
X102714364Y-113083313D01*
X102694532Y-113309998D01*
X101579093Y-113309998D01*
X101597534Y-113283662D01*
X101690894Y-113083450D01*
X101748070Y-112870068D01*
X101766687Y-112657266D01*
X101767323Y-112650002D01*
X101767323Y-112649997D01*
X101754457Y-112502939D01*
X101748070Y-112429932D01*
X101690894Y-112216550D01*
X101597534Y-112016339D01*
X101470826Y-111835380D01*
X101314620Y-111679174D01*
X101314616Y-111679171D01*
X101314615Y-111679170D01*
X101133666Y-111552468D01*
X101133662Y-111552466D01*
X101083637Y-111529139D01*
X100933450Y-111459106D01*
X100933447Y-111459105D01*
X100933445Y-111459104D01*
X100720070Y-111401930D01*
X100720062Y-111401929D01*
X100500002Y-111382677D01*
X100499998Y-111382677D01*
X100279937Y-111401929D01*
X100279929Y-111401930D01*
X100066554Y-111459104D01*
X100066548Y-111459107D01*
X99866340Y-111552465D01*
X99866338Y-111552466D01*
X99685377Y-111679175D01*
X99529175Y-111835377D01*
X99402466Y-112016338D01*
X99402465Y-112016340D01*
X99309107Y-112216548D01*
X99309104Y-112216554D01*
X99251930Y-112429929D01*
X99251929Y-112429937D01*
X99232677Y-112649997D01*
X94566821Y-112649997D01*
X94547575Y-112430023D01*
X94547573Y-112430013D01*
X94490424Y-112216729D01*
X94490420Y-112216720D01*
X94397096Y-112016586D01*
X94351741Y-111951811D01*
X94351740Y-111951810D01*
X93681000Y-112622551D01*
X93681000Y-112599840D01*
X93655036Y-112502939D01*
X93604876Y-112416060D01*
X93533940Y-112345124D01*
X93447061Y-112294964D01*
X93350160Y-112269000D01*
X93327447Y-112269000D01*
X93998188Y-111598258D01*
X93933411Y-111552901D01*
X93933405Y-111552898D01*
X93733284Y-111459580D01*
X93733270Y-111459575D01*
X93519986Y-111402426D01*
X93519976Y-111402424D01*
X93300001Y-111383179D01*
X93299999Y-111383179D01*
X93080023Y-111402424D01*
X93080013Y-111402426D01*
X92866729Y-111459575D01*
X92866720Y-111459579D01*
X92666590Y-111552901D01*
X92601811Y-111598258D01*
X93272554Y-112269000D01*
X93249840Y-112269000D01*
X93152939Y-112294964D01*
X93066060Y-112345124D01*
X92995124Y-112416060D01*
X92944964Y-112502939D01*
X92919000Y-112599840D01*
X92919000Y-112622553D01*
X92248258Y-111951811D01*
X92202901Y-112016590D01*
X92109579Y-112216720D01*
X92109575Y-112216729D01*
X92052426Y-112430013D01*
X92052424Y-112430023D01*
X92033179Y-112649999D01*
X91000500Y-112649999D01*
X91000500Y-110689998D01*
X105694532Y-110689998D01*
X105694532Y-110690001D01*
X105714364Y-110916686D01*
X105714366Y-110916697D01*
X105773258Y-111136488D01*
X105773261Y-111136497D01*
X105869431Y-111342732D01*
X105869432Y-111342734D01*
X105999954Y-111529141D01*
X106160858Y-111690045D01*
X106160861Y-111690047D01*
X106347266Y-111820568D01*
X106553504Y-111916739D01*
X106773308Y-111975635D01*
X106935230Y-111989801D01*
X106999998Y-111995468D01*
X107000000Y-111995468D01*
X107000002Y-111995468D01*
X107056673Y-111990509D01*
X107226692Y-111975635D01*
X107446496Y-111916739D01*
X107652734Y-111820568D01*
X107839139Y-111690047D01*
X108000047Y-111529139D01*
X108130568Y-111342734D01*
X108226739Y-111136496D01*
X108285635Y-110916692D01*
X108305468Y-110690000D01*
X108285635Y-110463308D01*
X108226739Y-110243504D01*
X108130568Y-110037266D01*
X108000047Y-109850861D01*
X108000045Y-109850858D01*
X107839141Y-109689954D01*
X107652734Y-109559432D01*
X107652732Y-109559431D01*
X107638214Y-109552661D01*
X107582886Y-109526861D01*
X107552377Y-109499998D01*
X118884532Y-109499998D01*
X118884532Y-109500001D01*
X118904364Y-109726686D01*
X118904366Y-109726697D01*
X118963258Y-109946488D01*
X118963261Y-109946497D01*
X119059431Y-110152732D01*
X119059432Y-110152734D01*
X119189954Y-110339141D01*
X119350858Y-110500045D01*
X119350861Y-110500047D01*
X119537266Y-110630568D01*
X119743504Y-110726739D01*
X119963308Y-110785635D01*
X120125230Y-110799801D01*
X120189998Y-110805468D01*
X120190000Y-110805468D01*
X120190002Y-110805468D01*
X120246673Y-110800509D01*
X120416692Y-110785635D01*
X120636496Y-110726739D01*
X120842734Y-110630568D01*
X121029139Y-110500047D01*
X121190047Y-110339139D01*
X121320568Y-110152734D01*
X121416739Y-109946496D01*
X121475635Y-109726692D01*
X121495468Y-109500000D01*
X121495468Y-109499998D01*
X126504532Y-109499998D01*
X126504532Y-109500001D01*
X126524364Y-109726686D01*
X126524366Y-109726697D01*
X126583258Y-109946488D01*
X126583261Y-109946497D01*
X126679431Y-110152732D01*
X126679432Y-110152734D01*
X126809954Y-110339141D01*
X126970858Y-110500045D01*
X126970861Y-110500047D01*
X127157266Y-110630568D01*
X127363504Y-110726739D01*
X127583308Y-110785635D01*
X127745230Y-110799801D01*
X127809998Y-110805468D01*
X127810000Y-110805468D01*
X127810002Y-110805468D01*
X127866673Y-110800509D01*
X128036692Y-110785635D01*
X128256496Y-110726739D01*
X128462734Y-110630568D01*
X128649139Y-110500047D01*
X128810047Y-110339139D01*
X128898426Y-110212919D01*
X128953001Y-110169295D01*
X129022499Y-110162101D01*
X129084854Y-110193623D01*
X129101570Y-110212915D01*
X129181816Y-110327518D01*
X129189955Y-110339142D01*
X129350858Y-110500045D01*
X129350861Y-110500047D01*
X129537266Y-110630568D01*
X129743504Y-110726739D01*
X129963308Y-110785635D01*
X130125230Y-110799801D01*
X130189998Y-110805468D01*
X130190000Y-110805468D01*
X130190002Y-110805468D01*
X130246673Y-110800509D01*
X130416692Y-110785635D01*
X130636496Y-110726739D01*
X130842734Y-110630568D01*
X131029139Y-110500047D01*
X131190047Y-110339139D01*
X131320568Y-110152734D01*
X131416739Y-109946496D01*
X131475635Y-109726692D01*
X131495468Y-109500000D01*
X131475635Y-109273308D01*
X131469389Y-109249999D01*
X136531127Y-109249999D01*
X136531128Y-109250000D01*
X137494314Y-109250000D01*
X137489920Y-109254394D01*
X137437259Y-109345606D01*
X137410000Y-109447339D01*
X137410000Y-109552661D01*
X137437259Y-109654394D01*
X137489920Y-109745606D01*
X137494314Y-109750000D01*
X136531128Y-109750000D01*
X136583730Y-109946317D01*
X136583734Y-109946326D01*
X136679865Y-110152482D01*
X136810342Y-110338820D01*
X136971179Y-110499657D01*
X137157517Y-110630134D01*
X137363673Y-110726265D01*
X137363682Y-110726269D01*
X137559999Y-110778872D01*
X137560000Y-110778871D01*
X137560000Y-109815686D01*
X137564394Y-109820080D01*
X137655606Y-109872741D01*
X137757339Y-109900000D01*
X137862661Y-109900000D01*
X137964394Y-109872741D01*
X138055606Y-109820080D01*
X138060000Y-109815686D01*
X138060000Y-110778872D01*
X138256317Y-110726269D01*
X138256326Y-110726265D01*
X138462482Y-110630134D01*
X138648820Y-110499657D01*
X138809657Y-110338820D01*
X138940134Y-110152482D01*
X139036265Y-109946326D01*
X139036269Y-109946317D01*
X139088872Y-109750000D01*
X138125686Y-109750000D01*
X138130080Y-109745606D01*
X138182741Y-109654394D01*
X138210000Y-109552661D01*
X138210000Y-109447339D01*
X138182741Y-109345606D01*
X138130080Y-109254394D01*
X138125686Y-109250000D01*
X139088872Y-109250000D01*
X139088872Y-109249999D01*
X139036269Y-109053682D01*
X139036265Y-109053673D01*
X138940134Y-108847517D01*
X138809657Y-108661179D01*
X138648820Y-108500342D01*
X138462482Y-108369865D01*
X138256328Y-108273734D01*
X138060000Y-108221127D01*
X138060000Y-109184314D01*
X138055606Y-109179920D01*
X137964394Y-109127259D01*
X137862661Y-109100000D01*
X137757339Y-109100000D01*
X137655606Y-109127259D01*
X137564394Y-109179920D01*
X137560000Y-109184314D01*
X137560000Y-108221127D01*
X137363671Y-108273734D01*
X137157517Y-108369865D01*
X136971179Y-108500342D01*
X136810342Y-108661179D01*
X136679865Y-108847517D01*
X136583734Y-109053673D01*
X136583730Y-109053682D01*
X136531127Y-109249999D01*
X131469389Y-109249999D01*
X131416739Y-109053504D01*
X131320568Y-108847266D01*
X131190047Y-108660861D01*
X131190045Y-108660858D01*
X131029141Y-108499954D01*
X130842734Y-108369432D01*
X130842732Y-108369431D01*
X130636497Y-108273261D01*
X130636488Y-108273258D01*
X130416697Y-108214366D01*
X130416693Y-108214365D01*
X130416692Y-108214365D01*
X130416691Y-108214364D01*
X130416686Y-108214364D01*
X130190002Y-108194532D01*
X130189998Y-108194532D01*
X129963313Y-108214364D01*
X129963302Y-108214366D01*
X129743511Y-108273258D01*
X129743502Y-108273261D01*
X129537267Y-108369431D01*
X129537265Y-108369432D01*
X129350858Y-108499954D01*
X129189954Y-108660858D01*
X129101575Y-108787079D01*
X129046999Y-108830704D01*
X128977500Y-108837898D01*
X128915145Y-108806376D01*
X128898425Y-108787079D01*
X128810045Y-108660858D01*
X128649141Y-108499954D01*
X128462734Y-108369432D01*
X128462732Y-108369431D01*
X128256497Y-108273261D01*
X128256488Y-108273258D01*
X128036697Y-108214366D01*
X128036693Y-108214365D01*
X128036692Y-108214365D01*
X128036691Y-108214364D01*
X128036686Y-108214364D01*
X127810002Y-108194532D01*
X127809998Y-108194532D01*
X127583313Y-108214364D01*
X127583302Y-108214366D01*
X127363511Y-108273258D01*
X127363502Y-108273261D01*
X127157267Y-108369431D01*
X127157265Y-108369432D01*
X126970858Y-108499954D01*
X126809954Y-108660858D01*
X126679432Y-108847265D01*
X126679431Y-108847267D01*
X126583261Y-109053502D01*
X126583258Y-109053511D01*
X126524366Y-109273302D01*
X126524364Y-109273313D01*
X126504532Y-109499998D01*
X121495468Y-109499998D01*
X121475635Y-109273308D01*
X121416739Y-109053504D01*
X121320568Y-108847266D01*
X121190047Y-108660861D01*
X121190045Y-108660858D01*
X121029141Y-108499954D01*
X120842734Y-108369432D01*
X120842732Y-108369431D01*
X120636497Y-108273261D01*
X120636488Y-108273258D01*
X120416697Y-108214366D01*
X120416693Y-108214365D01*
X120416692Y-108214365D01*
X120416691Y-108214364D01*
X120416686Y-108214364D01*
X120190002Y-108194532D01*
X120189998Y-108194532D01*
X119963313Y-108214364D01*
X119963302Y-108214366D01*
X119743511Y-108273258D01*
X119743502Y-108273261D01*
X119537267Y-108369431D01*
X119537265Y-108369432D01*
X119350858Y-108499954D01*
X119189954Y-108660858D01*
X119059432Y-108847265D01*
X119059431Y-108847267D01*
X118963261Y-109053502D01*
X118963258Y-109053511D01*
X118904366Y-109273302D01*
X118904364Y-109273313D01*
X118884532Y-109499998D01*
X107552377Y-109499998D01*
X107530448Y-109480690D01*
X107511296Y-109413496D01*
X107531512Y-109346615D01*
X107570013Y-109309053D01*
X107726562Y-109212124D01*
X107890981Y-109062236D01*
X108025058Y-108884689D01*
X108124229Y-108685528D01*
X108185115Y-108471536D01*
X108205643Y-108250000D01*
X108185115Y-108028464D01*
X108124229Y-107814472D01*
X108124224Y-107814461D01*
X108025061Y-107615316D01*
X108025056Y-107615308D01*
X107890979Y-107437761D01*
X107726562Y-107287876D01*
X107726560Y-107287874D01*
X107537404Y-107170754D01*
X107537398Y-107170751D01*
X107437225Y-107131944D01*
X107394411Y-107115358D01*
X107339011Y-107072786D01*
X107315420Y-107007019D01*
X107331131Y-106938939D01*
X107381155Y-106890160D01*
X107394413Y-106884105D01*
X107537174Y-106828799D01*
X107537178Y-106828797D01*
X107653327Y-106756880D01*
X107000001Y-106103554D01*
X107000000Y-106103554D01*
X106346671Y-106756880D01*
X106462824Y-106828798D01*
X106605587Y-106884105D01*
X106660988Y-106926678D01*
X106684579Y-106992445D01*
X106668868Y-107060525D01*
X106618844Y-107109304D01*
X106605587Y-107115359D01*
X106462601Y-107170751D01*
X106462595Y-107170754D01*
X106273439Y-107287874D01*
X106273437Y-107287876D01*
X106109020Y-107437761D01*
X105974943Y-107615308D01*
X105974938Y-107615316D01*
X105875775Y-107814461D01*
X105875769Y-107814476D01*
X105814885Y-108028462D01*
X105814884Y-108028464D01*
X105794357Y-108249999D01*
X105794357Y-108250000D01*
X105814884Y-108471535D01*
X105814885Y-108471537D01*
X105875769Y-108685523D01*
X105875775Y-108685538D01*
X105974938Y-108884683D01*
X105974943Y-108884691D01*
X106109020Y-109062238D01*
X106273437Y-109212123D01*
X106273439Y-109212125D01*
X106429984Y-109309053D01*
X106476620Y-109361081D01*
X106487724Y-109430062D01*
X106459771Y-109494097D01*
X106417112Y-109526862D01*
X106347267Y-109559431D01*
X106347265Y-109559432D01*
X106160858Y-109689954D01*
X105999954Y-109850858D01*
X105869432Y-110037265D01*
X105869431Y-110037267D01*
X105773261Y-110243502D01*
X105773258Y-110243511D01*
X105714366Y-110463302D01*
X105714364Y-110463313D01*
X105694532Y-110689998D01*
X91000500Y-110689998D01*
X91000500Y-103559998D01*
X102694532Y-103559998D01*
X102694532Y-103560001D01*
X102714364Y-103786686D01*
X102714366Y-103786697D01*
X102773258Y-104006488D01*
X102773261Y-104006497D01*
X102869431Y-104212732D01*
X102869432Y-104212734D01*
X102999954Y-104399141D01*
X103138132Y-104537319D01*
X103171617Y-104598642D01*
X103166633Y-104668334D01*
X103138132Y-104712681D01*
X102999954Y-104850858D01*
X102869432Y-105037265D01*
X102869431Y-105037267D01*
X102773261Y-105243502D01*
X102773258Y-105243511D01*
X102714366Y-105463302D01*
X102714364Y-105463313D01*
X102694532Y-105689998D01*
X102694532Y-105690001D01*
X102714364Y-105916686D01*
X102714366Y-105916697D01*
X102773258Y-106136488D01*
X102773261Y-106136497D01*
X102869431Y-106342732D01*
X102869432Y-106342734D01*
X102999954Y-106529141D01*
X103160858Y-106690045D01*
X103160861Y-106690047D01*
X103347266Y-106820568D01*
X103553504Y-106916739D01*
X103773308Y-106975635D01*
X103935230Y-106989801D01*
X103999998Y-106995468D01*
X104000000Y-106995468D01*
X104000002Y-106995468D01*
X104056673Y-106990509D01*
X104226692Y-106975635D01*
X104446496Y-106916739D01*
X104652734Y-106820568D01*
X104839139Y-106690047D01*
X105000047Y-106529139D01*
X105130568Y-106342734D01*
X105226739Y-106136496D01*
X105285635Y-105916692D01*
X105300219Y-105749999D01*
X105794859Y-105749999D01*
X105794859Y-105750000D01*
X105815378Y-105971439D01*
X105876240Y-106185350D01*
X105975364Y-106384419D01*
X105975366Y-106384421D01*
X105991138Y-106405306D01*
X106646446Y-105750000D01*
X106646446Y-105749999D01*
X106600369Y-105703922D01*
X106650000Y-105703922D01*
X106650000Y-105796078D01*
X106673852Y-105885095D01*
X106719930Y-105964905D01*
X106785095Y-106030070D01*
X106864905Y-106076148D01*
X106953922Y-106100000D01*
X107046078Y-106100000D01*
X107135095Y-106076148D01*
X107214905Y-106030070D01*
X107280070Y-105964905D01*
X107326148Y-105885095D01*
X107350000Y-105796078D01*
X107350000Y-105749999D01*
X107353554Y-105749999D01*
X107353554Y-105750000D01*
X108008860Y-106405306D01*
X108008861Y-106405306D01*
X108013969Y-106398543D01*
X114019499Y-106398543D01*
X114057947Y-106591829D01*
X114057950Y-106591839D01*
X114133364Y-106773907D01*
X114133371Y-106773920D01*
X114242860Y-106937781D01*
X114242863Y-106937785D01*
X114382214Y-107077136D01*
X114382218Y-107077139D01*
X114546079Y-107186628D01*
X114546092Y-107186635D01*
X114705814Y-107252793D01*
X114728165Y-107262051D01*
X114728169Y-107262051D01*
X114728170Y-107262052D01*
X114921456Y-107300500D01*
X114921459Y-107300500D01*
X115118543Y-107300500D01*
X115248582Y-107274632D01*
X115311835Y-107262051D01*
X115493914Y-107186632D01*
X115657782Y-107077139D01*
X115797139Y-106937782D01*
X115906632Y-106773914D01*
X115982051Y-106591835D01*
X116018034Y-106410938D01*
X116020500Y-106398543D01*
X116559499Y-106398543D01*
X116597947Y-106591829D01*
X116597950Y-106591839D01*
X116673364Y-106773907D01*
X116673371Y-106773920D01*
X116782860Y-106937781D01*
X116782863Y-106937785D01*
X116922214Y-107077136D01*
X116922218Y-107077139D01*
X117086079Y-107186628D01*
X117086092Y-107186635D01*
X117245814Y-107252793D01*
X117268165Y-107262051D01*
X117268169Y-107262051D01*
X117268170Y-107262052D01*
X117461456Y-107300500D01*
X117461459Y-107300500D01*
X117658543Y-107300500D01*
X117788582Y-107274632D01*
X117851835Y-107262051D01*
X118033914Y-107186632D01*
X118197782Y-107077139D01*
X118337139Y-106937782D01*
X118446632Y-106773914D01*
X118522051Y-106591835D01*
X118558034Y-106410938D01*
X118560500Y-106398543D01*
X119099499Y-106398543D01*
X119137947Y-106591829D01*
X119137950Y-106591839D01*
X119213364Y-106773907D01*
X119213371Y-106773920D01*
X119322860Y-106937781D01*
X119322863Y-106937785D01*
X119462214Y-107077136D01*
X119462218Y-107077139D01*
X119626079Y-107186628D01*
X119626092Y-107186635D01*
X119785814Y-107252793D01*
X119808165Y-107262051D01*
X119808169Y-107262051D01*
X119808170Y-107262052D01*
X120001456Y-107300500D01*
X120001459Y-107300500D01*
X120198543Y-107300500D01*
X120328582Y-107274632D01*
X120391835Y-107262051D01*
X120573914Y-107186632D01*
X120737782Y-107077139D01*
X120877139Y-106937782D01*
X120986632Y-106773914D01*
X121062051Y-106591835D01*
X121098034Y-106410938D01*
X121100500Y-106398543D01*
X121639499Y-106398543D01*
X121677947Y-106591829D01*
X121677950Y-106591839D01*
X121753364Y-106773907D01*
X121753371Y-106773920D01*
X121862860Y-106937781D01*
X121862863Y-106937785D01*
X122002214Y-107077136D01*
X122002218Y-107077139D01*
X122166079Y-107186628D01*
X122166092Y-107186635D01*
X122325814Y-107252793D01*
X122348165Y-107262051D01*
X122348169Y-107262051D01*
X122348170Y-107262052D01*
X122541456Y-107300500D01*
X122541459Y-107300500D01*
X122738543Y-107300500D01*
X122868582Y-107274632D01*
X122931835Y-107262051D01*
X123113914Y-107186632D01*
X123277782Y-107077139D01*
X123417139Y-106937782D01*
X123526632Y-106773914D01*
X123602051Y-106591835D01*
X123638034Y-106410938D01*
X123640500Y-106398543D01*
X124179499Y-106398543D01*
X124217947Y-106591829D01*
X124217950Y-106591839D01*
X124293364Y-106773907D01*
X124293371Y-106773920D01*
X124402860Y-106937781D01*
X124402863Y-106937785D01*
X124542214Y-107077136D01*
X124542218Y-107077139D01*
X124706079Y-107186628D01*
X124706092Y-107186635D01*
X124865814Y-107252793D01*
X124888165Y-107262051D01*
X124888169Y-107262051D01*
X124888170Y-107262052D01*
X125081456Y-107300500D01*
X125081459Y-107300500D01*
X125278543Y-107300500D01*
X125408582Y-107274632D01*
X125471835Y-107262051D01*
X125653914Y-107186632D01*
X125817782Y-107077139D01*
X125957139Y-106937782D01*
X126066632Y-106773914D01*
X126142051Y-106591835D01*
X126178034Y-106410938D01*
X126180500Y-106398543D01*
X126719499Y-106398543D01*
X126757947Y-106591829D01*
X126757950Y-106591839D01*
X126833364Y-106773907D01*
X126833371Y-106773920D01*
X126942860Y-106937781D01*
X126942863Y-106937785D01*
X127082214Y-107077136D01*
X127082218Y-107077139D01*
X127246079Y-107186628D01*
X127246092Y-107186635D01*
X127405814Y-107252793D01*
X127428165Y-107262051D01*
X127428169Y-107262051D01*
X127428170Y-107262052D01*
X127621456Y-107300500D01*
X127621459Y-107300500D01*
X127818543Y-107300500D01*
X127948582Y-107274632D01*
X128011835Y-107262051D01*
X128193914Y-107186632D01*
X128357782Y-107077139D01*
X128497139Y-106937782D01*
X128606632Y-106773914D01*
X128682051Y-106591835D01*
X128718034Y-106410938D01*
X128720500Y-106398543D01*
X129259499Y-106398543D01*
X129297947Y-106591829D01*
X129297950Y-106591839D01*
X129373364Y-106773907D01*
X129373371Y-106773920D01*
X129482860Y-106937781D01*
X129482863Y-106937785D01*
X129622214Y-107077136D01*
X129622218Y-107077139D01*
X129786079Y-107186628D01*
X129786092Y-107186635D01*
X129945814Y-107252793D01*
X129968165Y-107262051D01*
X129968169Y-107262051D01*
X129968170Y-107262052D01*
X130161456Y-107300500D01*
X130161459Y-107300500D01*
X130358543Y-107300500D01*
X130488582Y-107274632D01*
X130551835Y-107262051D01*
X130733914Y-107186632D01*
X130897782Y-107077139D01*
X131037139Y-106937782D01*
X131146632Y-106773914D01*
X131222051Y-106591835D01*
X131258034Y-106410938D01*
X131260500Y-106398543D01*
X131799499Y-106398543D01*
X131837947Y-106591829D01*
X131837950Y-106591839D01*
X131913364Y-106773907D01*
X131913371Y-106773920D01*
X132022860Y-106937781D01*
X132022863Y-106937785D01*
X132162214Y-107077136D01*
X132162218Y-107077139D01*
X132326079Y-107186628D01*
X132326092Y-107186635D01*
X132485814Y-107252793D01*
X132508165Y-107262051D01*
X132508169Y-107262051D01*
X132508170Y-107262052D01*
X132701456Y-107300500D01*
X132701459Y-107300500D01*
X132898543Y-107300500D01*
X133028582Y-107274632D01*
X133091835Y-107262051D01*
X133273914Y-107186632D01*
X133437782Y-107077139D01*
X133577139Y-106937782D01*
X133686632Y-106773914D01*
X133762051Y-106591835D01*
X133798034Y-106410938D01*
X133800500Y-106398543D01*
X134339499Y-106398543D01*
X134377947Y-106591829D01*
X134377950Y-106591839D01*
X134453364Y-106773907D01*
X134453371Y-106773920D01*
X134562860Y-106937781D01*
X134562863Y-106937785D01*
X134702214Y-107077136D01*
X134702218Y-107077139D01*
X134866079Y-107186628D01*
X134866092Y-107186635D01*
X135025814Y-107252793D01*
X135048165Y-107262051D01*
X135048169Y-107262051D01*
X135048170Y-107262052D01*
X135241456Y-107300500D01*
X135241459Y-107300500D01*
X135438543Y-107300500D01*
X135568582Y-107274632D01*
X135631835Y-107262051D01*
X135813914Y-107186632D01*
X135977782Y-107077139D01*
X136117139Y-106937782D01*
X136226632Y-106773914D01*
X136302051Y-106591835D01*
X136338034Y-106410938D01*
X136340500Y-106398543D01*
X136879499Y-106398543D01*
X136917947Y-106591829D01*
X136917950Y-106591839D01*
X136993364Y-106773907D01*
X136993371Y-106773920D01*
X137102860Y-106937781D01*
X137102863Y-106937785D01*
X137242214Y-107077136D01*
X137242218Y-107077139D01*
X137406079Y-107186628D01*
X137406092Y-107186635D01*
X137565814Y-107252793D01*
X137588165Y-107262051D01*
X137588169Y-107262051D01*
X137588170Y-107262052D01*
X137781456Y-107300500D01*
X137781459Y-107300500D01*
X137978543Y-107300500D01*
X138108582Y-107274632D01*
X138171835Y-107262051D01*
X138353914Y-107186632D01*
X138517782Y-107077139D01*
X138657139Y-106937782D01*
X138766632Y-106773914D01*
X138842051Y-106591835D01*
X138878034Y-106410938D01*
X138880500Y-106398543D01*
X139419499Y-106398543D01*
X139457947Y-106591829D01*
X139457950Y-106591839D01*
X139533364Y-106773907D01*
X139533371Y-106773920D01*
X139642860Y-106937781D01*
X139642863Y-106937785D01*
X139782214Y-107077136D01*
X139782218Y-107077139D01*
X139946079Y-107186628D01*
X139946092Y-107186635D01*
X140105814Y-107252793D01*
X140128165Y-107262051D01*
X140128169Y-107262051D01*
X140128170Y-107262052D01*
X140321456Y-107300500D01*
X140321459Y-107300500D01*
X140518543Y-107300500D01*
X140648582Y-107274632D01*
X140711835Y-107262051D01*
X140893914Y-107186632D01*
X141057782Y-107077139D01*
X141197139Y-106937782D01*
X141306632Y-106773914D01*
X141382051Y-106591835D01*
X141418034Y-106410938D01*
X141420500Y-106398543D01*
X141959499Y-106398543D01*
X141997947Y-106591829D01*
X141997950Y-106591839D01*
X142073364Y-106773907D01*
X142073371Y-106773920D01*
X142182860Y-106937781D01*
X142182863Y-106937785D01*
X142322214Y-107077136D01*
X142322218Y-107077139D01*
X142486079Y-107186628D01*
X142486092Y-107186635D01*
X142645814Y-107252793D01*
X142668165Y-107262051D01*
X142668169Y-107262051D01*
X142668170Y-107262052D01*
X142861456Y-107300500D01*
X142861459Y-107300500D01*
X143058543Y-107300500D01*
X143188582Y-107274632D01*
X143251835Y-107262051D01*
X143433914Y-107186632D01*
X143597782Y-107077139D01*
X143737139Y-106937782D01*
X143846632Y-106773914D01*
X143922051Y-106591835D01*
X143958034Y-106410937D01*
X143990419Y-106349027D01*
X144051134Y-106314453D01*
X144120904Y-106318192D01*
X144177576Y-106359059D01*
X144202124Y-106415731D01*
X144232009Y-106604417D01*
X144295244Y-106799031D01*
X144388140Y-106981349D01*
X144508417Y-107146894D01*
X144508417Y-107146895D01*
X144653104Y-107291582D01*
X144818650Y-107411859D01*
X145000968Y-107504754D01*
X145195578Y-107567988D01*
X145250000Y-107576607D01*
X145250000Y-105933012D01*
X145307007Y-105965925D01*
X145434174Y-106000000D01*
X145565826Y-106000000D01*
X145692993Y-105965925D01*
X145750000Y-105933012D01*
X145750000Y-107576606D01*
X145804421Y-107567988D01*
X145999031Y-107504754D01*
X146181349Y-107411859D01*
X146346894Y-107291582D01*
X146346895Y-107291582D01*
X146491582Y-107146895D01*
X146491582Y-107146894D01*
X146611859Y-106981349D01*
X146704755Y-106799031D01*
X146767990Y-106604417D01*
X146797875Y-106415731D01*
X146827804Y-106352596D01*
X146887116Y-106315665D01*
X146956978Y-106316663D01*
X147015211Y-106355273D01*
X147041965Y-106410937D01*
X147077947Y-106591829D01*
X147077950Y-106591839D01*
X147153364Y-106773907D01*
X147153371Y-106773920D01*
X147262860Y-106937781D01*
X147262863Y-106937785D01*
X147402214Y-107077136D01*
X147402218Y-107077139D01*
X147566079Y-107186628D01*
X147566092Y-107186635D01*
X147725814Y-107252793D01*
X147748165Y-107262051D01*
X147748169Y-107262051D01*
X147748170Y-107262052D01*
X147941456Y-107300500D01*
X147941459Y-107300500D01*
X148138543Y-107300500D01*
X148268582Y-107274632D01*
X148331835Y-107262051D01*
X148513914Y-107186632D01*
X148677782Y-107077139D01*
X148817139Y-106937782D01*
X148926632Y-106773914D01*
X149002051Y-106591835D01*
X149038034Y-106410938D01*
X149040500Y-106398543D01*
X149579499Y-106398543D01*
X149617947Y-106591829D01*
X149617950Y-106591839D01*
X149693364Y-106773907D01*
X149693371Y-106773920D01*
X149802860Y-106937781D01*
X149802863Y-106937785D01*
X149942214Y-107077136D01*
X149942218Y-107077139D01*
X150106079Y-107186628D01*
X150106092Y-107186635D01*
X150265814Y-107252793D01*
X150288165Y-107262051D01*
X150288169Y-107262051D01*
X150288170Y-107262052D01*
X150481456Y-107300500D01*
X150481459Y-107300500D01*
X150678543Y-107300500D01*
X150808582Y-107274632D01*
X150871835Y-107262051D01*
X151053914Y-107186632D01*
X151217782Y-107077139D01*
X151357139Y-106937782D01*
X151466632Y-106773914D01*
X151542051Y-106591835D01*
X151578034Y-106410938D01*
X151580500Y-106398543D01*
X151580500Y-105201456D01*
X151542052Y-105008170D01*
X151542051Y-105008169D01*
X151542051Y-105008165D01*
X151536839Y-104995581D01*
X151466635Y-104826092D01*
X151466628Y-104826079D01*
X151379531Y-104695730D01*
X152119500Y-104695730D01*
X152119500Y-106904269D01*
X152122353Y-106934699D01*
X152122353Y-106934701D01*
X152162524Y-107049500D01*
X152167207Y-107062882D01*
X152247850Y-107172150D01*
X152357118Y-107252793D01*
X152383576Y-107262051D01*
X152485299Y-107297646D01*
X152515730Y-107300500D01*
X152515734Y-107300500D01*
X153724270Y-107300500D01*
X153754699Y-107297646D01*
X153754701Y-107297646D01*
X153818790Y-107275219D01*
X153882882Y-107252793D01*
X153992150Y-107172150D01*
X154072793Y-107062882D01*
X154103323Y-106975633D01*
X154117646Y-106934701D01*
X154117646Y-106934699D01*
X154120500Y-106904269D01*
X154120500Y-104695730D01*
X154117646Y-104665300D01*
X154117646Y-104665298D01*
X154080816Y-104560047D01*
X154072793Y-104537118D01*
X153992150Y-104427850D01*
X153882882Y-104347207D01*
X153882880Y-104347206D01*
X153754700Y-104302353D01*
X153724270Y-104299500D01*
X153724266Y-104299500D01*
X152515734Y-104299500D01*
X152515730Y-104299500D01*
X152485300Y-104302353D01*
X152485298Y-104302353D01*
X152357119Y-104347206D01*
X152357117Y-104347207D01*
X152247850Y-104427850D01*
X152167207Y-104537117D01*
X152167206Y-104537119D01*
X152122353Y-104665298D01*
X152122353Y-104665300D01*
X152119500Y-104695730D01*
X151379531Y-104695730D01*
X151357139Y-104662218D01*
X151357136Y-104662214D01*
X151217785Y-104522863D01*
X151217781Y-104522860D01*
X151053920Y-104413371D01*
X151053907Y-104413364D01*
X150871839Y-104337950D01*
X150871829Y-104337947D01*
X150678543Y-104299500D01*
X150678541Y-104299500D01*
X150481459Y-104299500D01*
X150481457Y-104299500D01*
X150288170Y-104337947D01*
X150288160Y-104337950D01*
X150106092Y-104413364D01*
X150106079Y-104413371D01*
X149942218Y-104522860D01*
X149942214Y-104522863D01*
X149802863Y-104662214D01*
X149802860Y-104662218D01*
X149693371Y-104826079D01*
X149693364Y-104826092D01*
X149617950Y-105008160D01*
X149617947Y-105008170D01*
X149579500Y-105201456D01*
X149579500Y-105201459D01*
X149579500Y-106398541D01*
X149579500Y-106398543D01*
X149579499Y-106398543D01*
X149040500Y-106398543D01*
X149040500Y-105201456D01*
X149002052Y-105008170D01*
X149002051Y-105008169D01*
X149002051Y-105008165D01*
X148996839Y-104995581D01*
X148926635Y-104826092D01*
X148926628Y-104826079D01*
X148817139Y-104662218D01*
X148817136Y-104662214D01*
X148677785Y-104522863D01*
X148677781Y-104522860D01*
X148513920Y-104413371D01*
X148513907Y-104413364D01*
X148331839Y-104337950D01*
X148331829Y-104337947D01*
X148138543Y-104299500D01*
X148138541Y-104299500D01*
X147941459Y-104299500D01*
X147941457Y-104299500D01*
X147748170Y-104337947D01*
X147748160Y-104337950D01*
X147566092Y-104413364D01*
X147566079Y-104413371D01*
X147402218Y-104522860D01*
X147402214Y-104522863D01*
X147262863Y-104662214D01*
X147262860Y-104662218D01*
X147153371Y-104826079D01*
X147153364Y-104826092D01*
X147077950Y-105008160D01*
X147077947Y-105008170D01*
X147041965Y-105189062D01*
X147009580Y-105250973D01*
X146948864Y-105285547D01*
X146879094Y-105281806D01*
X146822423Y-105240940D01*
X146797875Y-105184268D01*
X146767990Y-104995582D01*
X146704755Y-104800968D01*
X146611859Y-104618650D01*
X146491582Y-104453105D01*
X146491582Y-104453104D01*
X146346895Y-104308417D01*
X146181349Y-104188140D01*
X145999029Y-104095244D01*
X145804413Y-104032009D01*
X145750000Y-104023390D01*
X145750000Y-105066988D01*
X145692993Y-105034075D01*
X145565826Y-105000000D01*
X145434174Y-105000000D01*
X145307007Y-105034075D01*
X145250000Y-105066988D01*
X145250000Y-104023390D01*
X145195586Y-104032009D01*
X145000970Y-104095244D01*
X144818650Y-104188140D01*
X144653105Y-104308417D01*
X144653104Y-104308417D01*
X144508417Y-104453104D01*
X144508417Y-104453105D01*
X144388140Y-104618650D01*
X144295244Y-104800968D01*
X144232010Y-104995581D01*
X144202124Y-105184269D01*
X144172194Y-105247403D01*
X144112883Y-105284334D01*
X144043020Y-105283336D01*
X143984788Y-105244726D01*
X143958034Y-105189061D01*
X143927840Y-105037267D01*
X143922051Y-105008165D01*
X143916839Y-104995581D01*
X143846635Y-104826092D01*
X143846628Y-104826079D01*
X143737139Y-104662218D01*
X143737136Y-104662214D01*
X143597785Y-104522863D01*
X143597781Y-104522860D01*
X143433920Y-104413371D01*
X143433907Y-104413364D01*
X143251839Y-104337950D01*
X143251829Y-104337947D01*
X143058543Y-104299500D01*
X143058541Y-104299500D01*
X142861459Y-104299500D01*
X142861457Y-104299500D01*
X142668170Y-104337947D01*
X142668160Y-104337950D01*
X142486092Y-104413364D01*
X142486079Y-104413371D01*
X142322218Y-104522860D01*
X142322214Y-104522863D01*
X142182863Y-104662214D01*
X142182860Y-104662218D01*
X142073371Y-104826079D01*
X142073364Y-104826092D01*
X141997950Y-105008160D01*
X141997947Y-105008170D01*
X141959500Y-105201456D01*
X141959500Y-105201459D01*
X141959500Y-106398541D01*
X141959500Y-106398543D01*
X141959499Y-106398543D01*
X141420500Y-106398543D01*
X141420500Y-105201456D01*
X141382052Y-105008170D01*
X141382051Y-105008169D01*
X141382051Y-105008165D01*
X141376839Y-104995581D01*
X141306635Y-104826092D01*
X141306628Y-104826079D01*
X141197139Y-104662218D01*
X141197136Y-104662214D01*
X141057785Y-104522863D01*
X141057781Y-104522860D01*
X140893920Y-104413371D01*
X140893907Y-104413364D01*
X140711839Y-104337950D01*
X140711829Y-104337947D01*
X140518543Y-104299500D01*
X140518541Y-104299500D01*
X140321459Y-104299500D01*
X140321457Y-104299500D01*
X140128170Y-104337947D01*
X140128160Y-104337950D01*
X139946092Y-104413364D01*
X139946079Y-104413371D01*
X139782218Y-104522860D01*
X139782214Y-104522863D01*
X139642863Y-104662214D01*
X139642860Y-104662218D01*
X139533371Y-104826079D01*
X139533364Y-104826092D01*
X139457950Y-105008160D01*
X139457947Y-105008170D01*
X139419500Y-105201456D01*
X139419500Y-105201459D01*
X139419500Y-106398541D01*
X139419500Y-106398543D01*
X139419499Y-106398543D01*
X138880500Y-106398543D01*
X138880500Y-105201456D01*
X138842052Y-105008170D01*
X138842051Y-105008169D01*
X138842051Y-105008165D01*
X138836839Y-104995581D01*
X138766635Y-104826092D01*
X138766628Y-104826079D01*
X138657139Y-104662218D01*
X138657136Y-104662214D01*
X138517785Y-104522863D01*
X138517781Y-104522860D01*
X138353920Y-104413371D01*
X138353907Y-104413364D01*
X138171839Y-104337950D01*
X138171829Y-104337947D01*
X137978543Y-104299500D01*
X137978541Y-104299500D01*
X137781459Y-104299500D01*
X137781457Y-104299500D01*
X137588170Y-104337947D01*
X137588160Y-104337950D01*
X137406092Y-104413364D01*
X137406079Y-104413371D01*
X137242218Y-104522860D01*
X137242214Y-104522863D01*
X137102863Y-104662214D01*
X137102860Y-104662218D01*
X136993371Y-104826079D01*
X136993364Y-104826092D01*
X136917950Y-105008160D01*
X136917947Y-105008170D01*
X136879500Y-105201456D01*
X136879500Y-105201459D01*
X136879500Y-106398541D01*
X136879500Y-106398543D01*
X136879499Y-106398543D01*
X136340500Y-106398543D01*
X136340500Y-105201456D01*
X136302052Y-105008170D01*
X136302051Y-105008169D01*
X136302051Y-105008165D01*
X136296839Y-104995581D01*
X136226635Y-104826092D01*
X136226628Y-104826079D01*
X136117139Y-104662218D01*
X136117136Y-104662214D01*
X135977785Y-104522863D01*
X135977781Y-104522860D01*
X135813920Y-104413371D01*
X135813907Y-104413364D01*
X135631839Y-104337950D01*
X135631829Y-104337947D01*
X135438543Y-104299500D01*
X135438541Y-104299500D01*
X135241459Y-104299500D01*
X135241457Y-104299500D01*
X135048170Y-104337947D01*
X135048160Y-104337950D01*
X134866092Y-104413364D01*
X134866079Y-104413371D01*
X134702218Y-104522860D01*
X134702214Y-104522863D01*
X134562863Y-104662214D01*
X134562860Y-104662218D01*
X134453371Y-104826079D01*
X134453364Y-104826092D01*
X134377950Y-105008160D01*
X134377947Y-105008170D01*
X134339500Y-105201456D01*
X134339500Y-105201459D01*
X134339500Y-106398541D01*
X134339500Y-106398543D01*
X134339499Y-106398543D01*
X133800500Y-106398543D01*
X133800500Y-105201456D01*
X133762052Y-105008170D01*
X133762051Y-105008169D01*
X133762051Y-105008165D01*
X133756839Y-104995581D01*
X133686635Y-104826092D01*
X133686628Y-104826079D01*
X133577139Y-104662218D01*
X133577136Y-104662214D01*
X133437785Y-104522863D01*
X133437781Y-104522860D01*
X133273920Y-104413371D01*
X133273907Y-104413364D01*
X133091839Y-104337950D01*
X133091829Y-104337947D01*
X132898543Y-104299500D01*
X132898541Y-104299500D01*
X132701459Y-104299500D01*
X132701457Y-104299500D01*
X132508170Y-104337947D01*
X132508160Y-104337950D01*
X132326092Y-104413364D01*
X132326079Y-104413371D01*
X132162218Y-104522860D01*
X132162214Y-104522863D01*
X132022863Y-104662214D01*
X132022860Y-104662218D01*
X131913371Y-104826079D01*
X131913364Y-104826092D01*
X131837950Y-105008160D01*
X131837947Y-105008170D01*
X131799500Y-105201456D01*
X131799500Y-105201459D01*
X131799500Y-106398541D01*
X131799500Y-106398543D01*
X131799499Y-106398543D01*
X131260500Y-106398543D01*
X131260500Y-105201456D01*
X131222052Y-105008170D01*
X131222051Y-105008169D01*
X131222051Y-105008165D01*
X131216839Y-104995581D01*
X131146635Y-104826092D01*
X131146628Y-104826079D01*
X131037139Y-104662218D01*
X131037136Y-104662214D01*
X130897785Y-104522863D01*
X130897781Y-104522860D01*
X130733920Y-104413371D01*
X130733907Y-104413364D01*
X130551839Y-104337950D01*
X130551829Y-104337947D01*
X130358543Y-104299500D01*
X130358541Y-104299500D01*
X130161459Y-104299500D01*
X130161457Y-104299500D01*
X129968170Y-104337947D01*
X129968160Y-104337950D01*
X129786092Y-104413364D01*
X129786079Y-104413371D01*
X129622218Y-104522860D01*
X129622214Y-104522863D01*
X129482863Y-104662214D01*
X129482860Y-104662218D01*
X129373371Y-104826079D01*
X129373364Y-104826092D01*
X129297950Y-105008160D01*
X129297947Y-105008170D01*
X129259500Y-105201456D01*
X129259500Y-105201459D01*
X129259500Y-106398541D01*
X129259500Y-106398543D01*
X129259499Y-106398543D01*
X128720500Y-106398543D01*
X128720500Y-105201456D01*
X128682052Y-105008170D01*
X128682051Y-105008169D01*
X128682051Y-105008165D01*
X128676839Y-104995581D01*
X128606635Y-104826092D01*
X128606628Y-104826079D01*
X128497139Y-104662218D01*
X128497136Y-104662214D01*
X128357785Y-104522863D01*
X128357781Y-104522860D01*
X128193920Y-104413371D01*
X128193907Y-104413364D01*
X128011839Y-104337950D01*
X128011829Y-104337947D01*
X127818543Y-104299500D01*
X127818541Y-104299500D01*
X127621459Y-104299500D01*
X127621457Y-104299500D01*
X127428170Y-104337947D01*
X127428160Y-104337950D01*
X127246092Y-104413364D01*
X127246079Y-104413371D01*
X127082218Y-104522860D01*
X127082214Y-104522863D01*
X126942863Y-104662214D01*
X126942860Y-104662218D01*
X126833371Y-104826079D01*
X126833364Y-104826092D01*
X126757950Y-105008160D01*
X126757947Y-105008170D01*
X126719500Y-105201456D01*
X126719500Y-105201459D01*
X126719500Y-106398541D01*
X126719500Y-106398543D01*
X126719499Y-106398543D01*
X126180500Y-106398543D01*
X126180500Y-105201456D01*
X126142052Y-105008170D01*
X126142051Y-105008169D01*
X126142051Y-105008165D01*
X126136839Y-104995581D01*
X126066635Y-104826092D01*
X126066628Y-104826079D01*
X125957139Y-104662218D01*
X125957136Y-104662214D01*
X125817785Y-104522863D01*
X125817781Y-104522860D01*
X125653920Y-104413371D01*
X125653907Y-104413364D01*
X125471839Y-104337950D01*
X125471829Y-104337947D01*
X125278543Y-104299500D01*
X125278541Y-104299500D01*
X125081459Y-104299500D01*
X125081457Y-104299500D01*
X124888170Y-104337947D01*
X124888160Y-104337950D01*
X124706092Y-104413364D01*
X124706079Y-104413371D01*
X124542218Y-104522860D01*
X124542214Y-104522863D01*
X124402863Y-104662214D01*
X124402860Y-104662218D01*
X124293371Y-104826079D01*
X124293364Y-104826092D01*
X124217950Y-105008160D01*
X124217947Y-105008170D01*
X124179500Y-105201456D01*
X124179500Y-105201459D01*
X124179500Y-106398541D01*
X124179500Y-106398543D01*
X124179499Y-106398543D01*
X123640500Y-106398543D01*
X123640500Y-105201456D01*
X123602052Y-105008170D01*
X123602051Y-105008169D01*
X123602051Y-105008165D01*
X123596839Y-104995581D01*
X123526635Y-104826092D01*
X123526628Y-104826079D01*
X123417139Y-104662218D01*
X123417136Y-104662214D01*
X123277785Y-104522863D01*
X123277781Y-104522860D01*
X123113920Y-104413371D01*
X123113907Y-104413364D01*
X122931839Y-104337950D01*
X122931829Y-104337947D01*
X122738543Y-104299500D01*
X122738541Y-104299500D01*
X122541459Y-104299500D01*
X122541457Y-104299500D01*
X122348170Y-104337947D01*
X122348160Y-104337950D01*
X122166092Y-104413364D01*
X122166079Y-104413371D01*
X122002218Y-104522860D01*
X122002214Y-104522863D01*
X121862863Y-104662214D01*
X121862860Y-104662218D01*
X121753371Y-104826079D01*
X121753364Y-104826092D01*
X121677950Y-105008160D01*
X121677947Y-105008170D01*
X121639500Y-105201456D01*
X121639500Y-105201459D01*
X121639500Y-106398541D01*
X121639500Y-106398543D01*
X121639499Y-106398543D01*
X121100500Y-106398543D01*
X121100500Y-105201456D01*
X121062052Y-105008170D01*
X121062051Y-105008169D01*
X121062051Y-105008165D01*
X121056839Y-104995581D01*
X120986635Y-104826092D01*
X120986628Y-104826079D01*
X120877139Y-104662218D01*
X120877136Y-104662214D01*
X120737785Y-104522863D01*
X120737781Y-104522860D01*
X120573920Y-104413371D01*
X120573907Y-104413364D01*
X120391839Y-104337950D01*
X120391829Y-104337947D01*
X120198543Y-104299500D01*
X120198541Y-104299500D01*
X120001459Y-104299500D01*
X120001457Y-104299500D01*
X119808170Y-104337947D01*
X119808160Y-104337950D01*
X119626092Y-104413364D01*
X119626079Y-104413371D01*
X119462218Y-104522860D01*
X119462214Y-104522863D01*
X119322863Y-104662214D01*
X119322860Y-104662218D01*
X119213371Y-104826079D01*
X119213364Y-104826092D01*
X119137950Y-105008160D01*
X119137947Y-105008170D01*
X119099500Y-105201456D01*
X119099500Y-105201459D01*
X119099500Y-106398541D01*
X119099500Y-106398543D01*
X119099499Y-106398543D01*
X118560500Y-106398543D01*
X118560500Y-105201456D01*
X118522052Y-105008170D01*
X118522051Y-105008169D01*
X118522051Y-105008165D01*
X118516839Y-104995581D01*
X118446635Y-104826092D01*
X118446628Y-104826079D01*
X118337139Y-104662218D01*
X118337136Y-104662214D01*
X118197785Y-104522863D01*
X118197781Y-104522860D01*
X118033920Y-104413371D01*
X118033907Y-104413364D01*
X117851839Y-104337950D01*
X117851829Y-104337947D01*
X117658543Y-104299500D01*
X117658541Y-104299500D01*
X117461459Y-104299500D01*
X117461457Y-104299500D01*
X117268170Y-104337947D01*
X117268160Y-104337950D01*
X117086092Y-104413364D01*
X117086079Y-104413371D01*
X116922218Y-104522860D01*
X116922214Y-104522863D01*
X116782863Y-104662214D01*
X116782860Y-104662218D01*
X116673371Y-104826079D01*
X116673364Y-104826092D01*
X116597950Y-105008160D01*
X116597947Y-105008170D01*
X116559500Y-105201456D01*
X116559500Y-105201459D01*
X116559500Y-106398541D01*
X116559500Y-106398543D01*
X116559499Y-106398543D01*
X116020500Y-106398543D01*
X116020500Y-105201456D01*
X115982052Y-105008170D01*
X115982051Y-105008169D01*
X115982051Y-105008165D01*
X115976839Y-104995581D01*
X115906635Y-104826092D01*
X115906628Y-104826079D01*
X115797139Y-104662218D01*
X115797136Y-104662214D01*
X115657785Y-104522863D01*
X115657781Y-104522860D01*
X115493920Y-104413371D01*
X115493907Y-104413364D01*
X115311839Y-104337950D01*
X115311829Y-104337947D01*
X115118543Y-104299500D01*
X115118541Y-104299500D01*
X114921459Y-104299500D01*
X114921457Y-104299500D01*
X114728170Y-104337947D01*
X114728160Y-104337950D01*
X114546092Y-104413364D01*
X114546079Y-104413371D01*
X114382218Y-104522860D01*
X114382214Y-104522863D01*
X114242863Y-104662214D01*
X114242860Y-104662218D01*
X114133371Y-104826079D01*
X114133364Y-104826092D01*
X114057950Y-105008160D01*
X114057947Y-105008170D01*
X114019500Y-105201456D01*
X114019500Y-105201459D01*
X114019500Y-106398541D01*
X114019500Y-106398543D01*
X114019499Y-106398543D01*
X108013969Y-106398543D01*
X108024631Y-106384425D01*
X108024632Y-106384422D01*
X108123759Y-106185350D01*
X108184621Y-105971439D01*
X108205141Y-105750000D01*
X108205141Y-105749999D01*
X108184621Y-105528560D01*
X108123759Y-105314649D01*
X108024633Y-105115577D01*
X108024631Y-105115574D01*
X108008860Y-105094691D01*
X107353554Y-105749999D01*
X107350000Y-105749999D01*
X107350000Y-105703922D01*
X107326148Y-105614905D01*
X107280070Y-105535095D01*
X107214905Y-105469930D01*
X107135095Y-105423852D01*
X107046078Y-105400000D01*
X106953922Y-105400000D01*
X106864905Y-105423852D01*
X106785095Y-105469930D01*
X106719930Y-105535095D01*
X106673852Y-105614905D01*
X106650000Y-105703922D01*
X106600369Y-105703922D01*
X105991138Y-105094691D01*
X105991137Y-105094691D01*
X105975369Y-105115571D01*
X105876240Y-105314649D01*
X105815378Y-105528560D01*
X105794859Y-105749999D01*
X105300219Y-105749999D01*
X105305468Y-105690000D01*
X105285635Y-105463308D01*
X105227784Y-105247403D01*
X105226741Y-105243511D01*
X105226738Y-105243502D01*
X105207133Y-105201459D01*
X105130568Y-105037266D01*
X105000047Y-104850861D01*
X105000045Y-104850858D01*
X104892305Y-104743118D01*
X106346671Y-104743118D01*
X107000000Y-105396446D01*
X107000001Y-105396446D01*
X107653327Y-104743118D01*
X107653326Y-104743117D01*
X107537181Y-104671203D01*
X107537175Y-104671200D01*
X107329804Y-104590865D01*
X107111193Y-104550000D01*
X106888807Y-104550000D01*
X106670195Y-104590865D01*
X106462824Y-104671200D01*
X106462818Y-104671204D01*
X106346672Y-104743117D01*
X106346671Y-104743118D01*
X104892305Y-104743118D01*
X104861868Y-104712681D01*
X104828383Y-104651358D01*
X104833367Y-104581666D01*
X104861868Y-104537319D01*
X105000045Y-104399141D01*
X105000047Y-104399139D01*
X105130568Y-104212734D01*
X105226739Y-104006496D01*
X105285635Y-103786692D01*
X105305468Y-103560000D01*
X105285635Y-103333308D01*
X105226739Y-103113504D01*
X105173810Y-102999999D01*
X105794357Y-102999999D01*
X105794357Y-103000000D01*
X105814884Y-103221535D01*
X105814885Y-103221537D01*
X105875769Y-103435523D01*
X105875775Y-103435538D01*
X105974938Y-103634683D01*
X105974943Y-103634691D01*
X106109020Y-103812238D01*
X106273437Y-103962123D01*
X106273439Y-103962125D01*
X106462595Y-104079245D01*
X106462596Y-104079245D01*
X106462599Y-104079247D01*
X106670060Y-104159618D01*
X106888757Y-104200500D01*
X106888759Y-104200500D01*
X107111241Y-104200500D01*
X107111243Y-104200500D01*
X107329940Y-104159618D01*
X107537401Y-104079247D01*
X107726562Y-103962124D01*
X107890981Y-103812236D01*
X108025058Y-103634689D01*
X108124229Y-103435528D01*
X108185115Y-103221536D01*
X108205643Y-103000000D01*
X108185115Y-102778464D01*
X108124229Y-102564472D01*
X108124224Y-102564461D01*
X108025061Y-102365316D01*
X108025056Y-102365308D01*
X107890979Y-102187761D01*
X107726562Y-102037876D01*
X107726560Y-102037874D01*
X107537404Y-101920754D01*
X107537398Y-101920751D01*
X107437225Y-101881944D01*
X107394411Y-101865358D01*
X107339011Y-101822786D01*
X107315420Y-101757019D01*
X107331131Y-101688939D01*
X107381155Y-101640160D01*
X107394413Y-101634105D01*
X107537174Y-101578799D01*
X107537178Y-101578797D01*
X107653327Y-101506880D01*
X107000001Y-100853554D01*
X107000000Y-100853554D01*
X106346671Y-101506880D01*
X106462824Y-101578798D01*
X106605587Y-101634105D01*
X106660988Y-101676678D01*
X106684579Y-101742445D01*
X106668868Y-101810525D01*
X106618844Y-101859304D01*
X106605587Y-101865359D01*
X106462601Y-101920751D01*
X106462595Y-101920754D01*
X106273439Y-102037874D01*
X106273437Y-102037876D01*
X106109020Y-102187761D01*
X105974943Y-102365308D01*
X105974938Y-102365316D01*
X105875775Y-102564461D01*
X105875769Y-102564476D01*
X105814885Y-102778462D01*
X105814884Y-102778464D01*
X105794357Y-102999999D01*
X105173810Y-102999999D01*
X105130568Y-102907266D01*
X105000047Y-102720861D01*
X105000045Y-102720858D01*
X104839141Y-102559954D01*
X104652734Y-102429432D01*
X104652732Y-102429431D01*
X104446497Y-102333261D01*
X104446488Y-102333258D01*
X104226697Y-102274366D01*
X104226693Y-102274365D01*
X104226692Y-102274365D01*
X104226691Y-102274364D01*
X104226686Y-102274364D01*
X104000002Y-102254532D01*
X103999998Y-102254532D01*
X103773313Y-102274364D01*
X103773302Y-102274366D01*
X103553511Y-102333258D01*
X103553502Y-102333261D01*
X103347267Y-102429431D01*
X103347265Y-102429432D01*
X103160858Y-102559954D01*
X102999954Y-102720858D01*
X102869432Y-102907265D01*
X102869431Y-102907267D01*
X102773261Y-103113502D01*
X102773258Y-103113511D01*
X102714366Y-103333302D01*
X102714364Y-103333313D01*
X102694532Y-103559998D01*
X91000500Y-103559998D01*
X91000500Y-100499999D01*
X105794859Y-100499999D01*
X105794859Y-100500000D01*
X105815378Y-100721439D01*
X105876240Y-100935350D01*
X105975364Y-101134419D01*
X105975366Y-101134421D01*
X105991138Y-101155306D01*
X106646446Y-100500000D01*
X106646446Y-100499999D01*
X106600369Y-100453922D01*
X106650000Y-100453922D01*
X106650000Y-100546078D01*
X106673852Y-100635095D01*
X106719930Y-100714905D01*
X106785095Y-100780070D01*
X106864905Y-100826148D01*
X106953922Y-100850000D01*
X107046078Y-100850000D01*
X107135095Y-100826148D01*
X107214905Y-100780070D01*
X107280070Y-100714905D01*
X107326148Y-100635095D01*
X107350000Y-100546078D01*
X107350000Y-100499999D01*
X107353554Y-100499999D01*
X107353554Y-100500000D01*
X108008860Y-101155306D01*
X108008861Y-101155306D01*
X108024631Y-101134425D01*
X108024632Y-101134422D01*
X108123759Y-100935350D01*
X108184621Y-100721439D01*
X108205141Y-100500000D01*
X108205141Y-100499999D01*
X108184621Y-100278560D01*
X108123759Y-100064649D01*
X108024633Y-99865577D01*
X108024631Y-99865574D01*
X108008860Y-99844691D01*
X107353554Y-100499999D01*
X107350000Y-100499999D01*
X107350000Y-100453922D01*
X107326148Y-100364905D01*
X107280070Y-100285095D01*
X107214905Y-100219930D01*
X107135095Y-100173852D01*
X107046078Y-100150000D01*
X106953922Y-100150000D01*
X106864905Y-100173852D01*
X106785095Y-100219930D01*
X106719930Y-100285095D01*
X106673852Y-100364905D01*
X106650000Y-100453922D01*
X106600369Y-100453922D01*
X105991138Y-99844691D01*
X105991137Y-99844691D01*
X105975369Y-99865571D01*
X105876240Y-100064649D01*
X105815378Y-100278560D01*
X105794859Y-100499999D01*
X91000500Y-100499999D01*
X91000500Y-99493118D01*
X106346671Y-99493118D01*
X107000000Y-100146446D01*
X107000001Y-100146446D01*
X107653327Y-99493118D01*
X107653326Y-99493117D01*
X107537181Y-99421203D01*
X107537175Y-99421200D01*
X107329804Y-99340865D01*
X107111193Y-99300000D01*
X106888807Y-99300000D01*
X106670195Y-99340865D01*
X106462824Y-99421200D01*
X106462818Y-99421204D01*
X106346672Y-99493117D01*
X106346671Y-99493118D01*
X91000500Y-99493118D01*
X91000500Y-91154998D01*
X91794532Y-91154998D01*
X91794532Y-91155001D01*
X91814364Y-91381686D01*
X91814366Y-91381697D01*
X91873258Y-91601488D01*
X91873261Y-91601497D01*
X91969431Y-91807732D01*
X91969432Y-91807734D01*
X92099954Y-91994141D01*
X92260858Y-92155045D01*
X92260861Y-92155047D01*
X92447266Y-92285568D01*
X92505275Y-92312618D01*
X92557714Y-92358791D01*
X92576866Y-92425984D01*
X92556650Y-92492865D01*
X92505275Y-92537382D01*
X92447267Y-92564431D01*
X92447265Y-92564432D01*
X92260858Y-92694954D01*
X92099954Y-92855858D01*
X91969432Y-93042265D01*
X91969431Y-93042267D01*
X91873261Y-93248502D01*
X91873258Y-93248511D01*
X91814366Y-93468302D01*
X91814364Y-93468313D01*
X91794532Y-93694998D01*
X91794532Y-93695001D01*
X91814364Y-93921686D01*
X91814366Y-93921697D01*
X91873258Y-94141488D01*
X91873261Y-94141497D01*
X91969431Y-94347732D01*
X91969432Y-94347734D01*
X92099954Y-94534141D01*
X92260858Y-94695045D01*
X92260861Y-94695047D01*
X92447266Y-94825568D01*
X92508397Y-94854074D01*
X92560835Y-94900245D01*
X92579987Y-94967439D01*
X92559771Y-95034320D01*
X92506606Y-95079654D01*
X92469246Y-95089744D01*
X92430520Y-95093907D01*
X92295671Y-95144202D01*
X92295664Y-95144206D01*
X92180455Y-95230452D01*
X92180452Y-95230455D01*
X92094206Y-95345664D01*
X92094202Y-95345671D01*
X92043908Y-95480517D01*
X92037501Y-95540116D01*
X92037501Y-95540123D01*
X92037500Y-95540135D01*
X92037500Y-97159870D01*
X92037501Y-97159876D01*
X92043908Y-97219483D01*
X92094202Y-97354328D01*
X92094206Y-97354335D01*
X92180452Y-97469544D01*
X92180455Y-97469547D01*
X92295664Y-97555793D01*
X92295671Y-97555797D01*
X92430517Y-97606091D01*
X92430516Y-97606091D01*
X92437444Y-97606835D01*
X92490127Y-97612500D01*
X94109872Y-97612499D01*
X94169483Y-97606091D01*
X94304331Y-97555796D01*
X94419546Y-97469546D01*
X94505796Y-97354331D01*
X94556091Y-97219483D01*
X94562500Y-97159873D01*
X94562499Y-96349997D01*
X99232677Y-96349997D01*
X99232677Y-96350002D01*
X99251929Y-96570062D01*
X99251930Y-96570070D01*
X99309104Y-96783445D01*
X99309105Y-96783447D01*
X99309106Y-96783450D01*
X99350743Y-96872741D01*
X99402466Y-96983662D01*
X99402468Y-96983666D01*
X99529170Y-97164615D01*
X99529175Y-97164621D01*
X99685378Y-97320824D01*
X99685384Y-97320829D01*
X99866333Y-97447531D01*
X99866335Y-97447532D01*
X99866338Y-97447534D01*
X100066550Y-97540894D01*
X100279932Y-97598070D01*
X100437123Y-97611822D01*
X100499998Y-97617323D01*
X100500000Y-97617323D01*
X100500002Y-97617323D01*
X100555151Y-97612498D01*
X100720068Y-97598070D01*
X100933450Y-97540894D01*
X101133662Y-97447534D01*
X101314620Y-97320826D01*
X101470826Y-97164620D01*
X101597534Y-96983662D01*
X101690894Y-96783450D01*
X101748070Y-96570068D01*
X101767323Y-96350000D01*
X101767252Y-96349194D01*
X101762385Y-96293553D01*
X101748070Y-96129932D01*
X101740050Y-96100000D01*
X101728821Y-96058095D01*
X101730482Y-95988245D01*
X101759890Y-95939997D01*
X102695034Y-95939997D01*
X102695034Y-95940002D01*
X102714858Y-96166599D01*
X102714860Y-96166610D01*
X102773730Y-96386317D01*
X102773735Y-96386331D01*
X102869863Y-96592478D01*
X102920974Y-96665472D01*
X103600000Y-95986446D01*
X103600000Y-95992661D01*
X103627259Y-96094394D01*
X103679920Y-96185606D01*
X103754394Y-96260080D01*
X103845606Y-96312741D01*
X103947339Y-96340000D01*
X103953553Y-96340000D01*
X103274526Y-97019025D01*
X103347513Y-97070132D01*
X103347521Y-97070136D01*
X103553668Y-97166264D01*
X103553682Y-97166269D01*
X103773389Y-97225139D01*
X103773400Y-97225141D01*
X103999998Y-97244966D01*
X104000002Y-97244966D01*
X104226599Y-97225141D01*
X104226610Y-97225139D01*
X104446317Y-97166269D01*
X104446331Y-97166264D01*
X104652478Y-97070136D01*
X104725471Y-97019024D01*
X104046447Y-96340000D01*
X104052661Y-96340000D01*
X104154394Y-96312741D01*
X104245606Y-96260080D01*
X104320080Y-96185606D01*
X104372741Y-96094394D01*
X104400000Y-95992661D01*
X104400000Y-95986447D01*
X105079024Y-96665471D01*
X105130136Y-96592478D01*
X105226264Y-96386331D01*
X105226269Y-96386317D01*
X105285139Y-96166610D01*
X105285141Y-96166599D01*
X105304966Y-95940002D01*
X105304966Y-95939997D01*
X105285141Y-95713400D01*
X105285139Y-95713389D01*
X105226269Y-95493682D01*
X105226264Y-95493668D01*
X105130136Y-95287521D01*
X105130132Y-95287513D01*
X105079025Y-95214526D01*
X104400000Y-95893551D01*
X104400000Y-95887339D01*
X104372741Y-95785606D01*
X104320080Y-95694394D01*
X104245606Y-95619920D01*
X104154394Y-95567259D01*
X104052661Y-95540000D01*
X104046445Y-95540000D01*
X104725472Y-94860974D01*
X104652478Y-94809863D01*
X104446331Y-94713735D01*
X104446317Y-94713730D01*
X104226610Y-94654860D01*
X104226599Y-94654858D01*
X104000002Y-94635034D01*
X103999998Y-94635034D01*
X103773400Y-94654858D01*
X103773389Y-94654860D01*
X103553682Y-94713730D01*
X103553673Y-94713734D01*
X103347516Y-94809866D01*
X103347512Y-94809868D01*
X103274526Y-94860973D01*
X103274526Y-94860974D01*
X103953553Y-95540000D01*
X103947339Y-95540000D01*
X103845606Y-95567259D01*
X103754394Y-95619920D01*
X103679920Y-95694394D01*
X103627259Y-95785606D01*
X103600000Y-95887339D01*
X103600000Y-95893552D01*
X102920974Y-95214526D01*
X102920973Y-95214526D01*
X102869868Y-95287512D01*
X102869866Y-95287516D01*
X102773734Y-95493673D01*
X102773730Y-95493682D01*
X102714860Y-95713389D01*
X102714858Y-95713400D01*
X102695034Y-95939997D01*
X101759890Y-95939997D01*
X101760912Y-95938321D01*
X103507416Y-94191819D01*
X103568739Y-94158334D01*
X103595097Y-94155500D01*
X104468308Y-94155500D01*
X104535347Y-94175185D01*
X104569880Y-94208374D01*
X104648097Y-94320080D01*
X104699954Y-94394141D01*
X104860858Y-94555045D01*
X104860861Y-94555047D01*
X105047266Y-94685568D01*
X105253504Y-94781739D01*
X105473308Y-94840635D01*
X105626905Y-94854073D01*
X105699998Y-94860468D01*
X105700000Y-94860468D01*
X105700002Y-94860468D01*
X105773095Y-94854073D01*
X105926692Y-94840635D01*
X106146496Y-94781739D01*
X106352734Y-94685568D01*
X106539139Y-94555047D01*
X106700047Y-94394139D01*
X106830568Y-94207734D01*
X106926739Y-94001496D01*
X106985635Y-93781692D01*
X107005468Y-93555000D01*
X107005351Y-93553668D01*
X106987315Y-93347512D01*
X106985635Y-93328308D01*
X106926739Y-93108504D01*
X106830568Y-92902266D01*
X106700047Y-92715861D01*
X106700045Y-92715858D01*
X106539141Y-92554954D01*
X106352734Y-92424432D01*
X106352728Y-92424429D01*
X106294725Y-92397382D01*
X106242285Y-92351210D01*
X106223133Y-92284017D01*
X106243348Y-92217135D01*
X106294725Y-92172618D01*
X106352734Y-92145568D01*
X106539139Y-92015047D01*
X106700047Y-91854139D01*
X106830568Y-91667734D01*
X106926739Y-91461496D01*
X106985635Y-91241692D01*
X107005468Y-91015000D01*
X106985635Y-90788308D01*
X106926739Y-90568504D01*
X106894794Y-90499998D01*
X109114532Y-90499998D01*
X109114532Y-90500001D01*
X109134364Y-90726686D01*
X109134366Y-90726697D01*
X109193258Y-90946488D01*
X109193261Y-90946497D01*
X109289431Y-91152732D01*
X109289432Y-91152734D01*
X109419954Y-91339141D01*
X109580858Y-91500045D01*
X109580861Y-91500047D01*
X109767266Y-91630568D01*
X109973504Y-91726739D01*
X110193308Y-91785635D01*
X110355230Y-91799801D01*
X110419998Y-91805468D01*
X110420000Y-91805468D01*
X110420002Y-91805468D01*
X110476673Y-91800509D01*
X110646692Y-91785635D01*
X110866496Y-91726739D01*
X111072734Y-91630568D01*
X111259139Y-91500047D01*
X111420047Y-91339139D01*
X111550568Y-91152734D01*
X111646739Y-90946496D01*
X111705635Y-90726692D01*
X111725468Y-90500000D01*
X111705635Y-90273308D01*
X111646739Y-90053504D01*
X111550568Y-89847266D01*
X111420047Y-89660861D01*
X111420045Y-89660858D01*
X111259141Y-89499954D01*
X111072734Y-89369432D01*
X111072732Y-89369431D01*
X110866497Y-89273261D01*
X110866488Y-89273258D01*
X110646697Y-89214366D01*
X110646693Y-89214365D01*
X110646692Y-89214365D01*
X110646691Y-89214364D01*
X110646686Y-89214364D01*
X110420002Y-89194532D01*
X110419998Y-89194532D01*
X110193313Y-89214364D01*
X110193302Y-89214366D01*
X109973511Y-89273258D01*
X109973502Y-89273261D01*
X109767267Y-89369431D01*
X109767265Y-89369432D01*
X109580858Y-89499954D01*
X109419954Y-89660858D01*
X109289432Y-89847265D01*
X109289431Y-89847267D01*
X109193261Y-90053502D01*
X109193258Y-90053511D01*
X109134366Y-90273302D01*
X109134364Y-90273313D01*
X109114532Y-90499998D01*
X106894794Y-90499998D01*
X106830568Y-90362266D01*
X106700047Y-90175861D01*
X106700045Y-90175858D01*
X106539141Y-90014954D01*
X106352734Y-89884432D01*
X106352732Y-89884431D01*
X106146497Y-89788261D01*
X106146488Y-89788258D01*
X106086836Y-89772275D01*
X106027175Y-89735910D01*
X105996646Y-89673063D01*
X106004941Y-89603688D01*
X106049426Y-89549810D01*
X106086836Y-89532725D01*
X106123790Y-89522822D01*
X106146496Y-89516739D01*
X106352734Y-89420568D01*
X106539139Y-89290047D01*
X106700047Y-89129139D01*
X106830568Y-88942734D01*
X106926739Y-88736496D01*
X106985635Y-88516692D01*
X107005468Y-88290000D01*
X107002628Y-88257544D01*
X106992549Y-88142335D01*
X106985635Y-88063308D01*
X106926739Y-87843504D01*
X106830568Y-87637266D01*
X106700047Y-87450861D01*
X106700045Y-87450858D01*
X106539141Y-87289954D01*
X106352734Y-87159432D01*
X106352728Y-87159429D01*
X106294725Y-87132382D01*
X106242285Y-87086210D01*
X106223133Y-87019017D01*
X106243348Y-86952135D01*
X106294725Y-86907618D01*
X106352734Y-86880568D01*
X106539139Y-86750047D01*
X106700047Y-86589139D01*
X106830568Y-86402734D01*
X106926739Y-86196496D01*
X106965420Y-86052135D01*
X109289500Y-86052135D01*
X109289500Y-87947870D01*
X109289501Y-87947876D01*
X109295908Y-88007483D01*
X109346202Y-88142328D01*
X109346206Y-88142335D01*
X109432452Y-88257544D01*
X109432455Y-88257547D01*
X109547664Y-88343793D01*
X109547671Y-88343797D01*
X109682517Y-88394091D01*
X109682516Y-88394091D01*
X109689444Y-88394835D01*
X109742127Y-88400500D01*
X111637872Y-88400499D01*
X111697483Y-88394091D01*
X111832331Y-88343796D01*
X111947546Y-88257546D01*
X112012683Y-88170534D01*
X112068616Y-88128664D01*
X112138308Y-88123680D01*
X112199630Y-88157165D01*
X116406839Y-92364374D01*
X116406849Y-92364385D01*
X116411179Y-92368715D01*
X116411180Y-92368716D01*
X116522984Y-92480520D01*
X116544367Y-92492865D01*
X116609795Y-92530639D01*
X116609797Y-92530641D01*
X116647851Y-92552611D01*
X116659915Y-92559577D01*
X116812643Y-92600501D01*
X116812646Y-92600501D01*
X116978353Y-92600501D01*
X116978369Y-92600500D01*
X119275500Y-92600500D01*
X119342539Y-92620185D01*
X119388294Y-92672989D01*
X119399500Y-92724500D01*
X119399500Y-92768306D01*
X119379815Y-92835345D01*
X119346623Y-92869881D01*
X119160859Y-92999953D01*
X118999954Y-93160858D01*
X118869432Y-93347265D01*
X118869431Y-93347267D01*
X118773261Y-93553502D01*
X118773258Y-93553511D01*
X118714366Y-93773302D01*
X118714364Y-93773313D01*
X118694532Y-93999998D01*
X118694532Y-94000001D01*
X118714364Y-94226686D01*
X118714366Y-94226697D01*
X118773258Y-94446488D01*
X118773261Y-94446497D01*
X118869431Y-94652732D01*
X118869432Y-94652734D01*
X118999954Y-94839141D01*
X119160858Y-95000045D01*
X119160861Y-95000047D01*
X119347266Y-95130568D01*
X119362975Y-95137893D01*
X119415414Y-95184064D01*
X119434567Y-95251257D01*
X119414352Y-95318138D01*
X119362979Y-95362656D01*
X119347514Y-95369867D01*
X119347512Y-95369868D01*
X119274526Y-95420973D01*
X119274526Y-95420974D01*
X119953554Y-96100000D01*
X119947339Y-96100000D01*
X119845606Y-96127259D01*
X119754394Y-96179920D01*
X119679920Y-96254394D01*
X119627259Y-96345606D01*
X119600000Y-96447339D01*
X119600000Y-96453552D01*
X118920974Y-95774526D01*
X118920973Y-95774526D01*
X118869868Y-95847512D01*
X118869866Y-95847516D01*
X118773734Y-96053673D01*
X118773730Y-96053682D01*
X118714860Y-96273389D01*
X118714858Y-96273400D01*
X118695034Y-96499997D01*
X118695034Y-96500002D01*
X118714858Y-96726599D01*
X118714860Y-96726610D01*
X118773730Y-96946317D01*
X118773735Y-96946331D01*
X118869863Y-97152478D01*
X118920974Y-97225472D01*
X119600000Y-96546446D01*
X119600000Y-96552661D01*
X119627259Y-96654394D01*
X119679920Y-96745606D01*
X119754394Y-96820080D01*
X119845606Y-96872741D01*
X119947339Y-96900000D01*
X119953553Y-96900000D01*
X119274526Y-97579025D01*
X119347513Y-97630132D01*
X119347521Y-97630136D01*
X119553668Y-97726264D01*
X119553682Y-97726269D01*
X119773389Y-97785139D01*
X119773400Y-97785141D01*
X119999998Y-97804966D01*
X120000002Y-97804966D01*
X120226599Y-97785141D01*
X120226610Y-97785139D01*
X120446317Y-97726269D01*
X120446331Y-97726264D01*
X120652478Y-97630136D01*
X120725471Y-97579024D01*
X120046447Y-96900000D01*
X120052661Y-96900000D01*
X120154394Y-96872741D01*
X120245606Y-96820080D01*
X120320080Y-96745606D01*
X120372741Y-96654394D01*
X120400000Y-96552661D01*
X120400000Y-96546446D01*
X121079024Y-97225471D01*
X121130136Y-97152478D01*
X121226264Y-96946331D01*
X121226269Y-96946317D01*
X121285139Y-96726610D01*
X121285141Y-96726599D01*
X121304966Y-96500002D01*
X121304966Y-96500001D01*
X121301504Y-96460438D01*
X121315270Y-96391938D01*
X121363884Y-96341754D01*
X121431912Y-96325820D01*
X121497756Y-96349194D01*
X121512713Y-96361948D01*
X125307639Y-100156874D01*
X125307649Y-100156885D01*
X125311979Y-100161215D01*
X125311980Y-100161216D01*
X125423784Y-100273020D01*
X125465992Y-100297388D01*
X125510595Y-100323139D01*
X125510597Y-100323141D01*
X125548651Y-100345111D01*
X125560715Y-100352077D01*
X125713443Y-100393000D01*
X125871557Y-100393000D01*
X130553432Y-100393000D01*
X130620471Y-100412685D01*
X130663916Y-100460703D01*
X130724157Y-100578933D01*
X130862983Y-100770010D01*
X131029990Y-100937017D01*
X131221067Y-101075843D01*
X131320491Y-101126502D01*
X131431503Y-101183066D01*
X131431505Y-101183066D01*
X131431508Y-101183068D01*
X131551912Y-101222189D01*
X131656131Y-101256053D01*
X131889403Y-101293000D01*
X131889408Y-101293000D01*
X132425597Y-101293000D01*
X132658868Y-101256053D01*
X132660370Y-101255565D01*
X132883492Y-101183068D01*
X133093933Y-101075843D01*
X133285010Y-100937017D01*
X133452017Y-100770010D01*
X133590843Y-100578933D01*
X133698068Y-100368492D01*
X133771053Y-100143868D01*
X133796675Y-99982098D01*
X133808000Y-99910597D01*
X133808000Y-99674402D01*
X133787108Y-99542500D01*
X153128398Y-99542500D01*
X154157499Y-99542500D01*
X154132479Y-99602902D01*
X154107500Y-99728481D01*
X154107500Y-99856519D01*
X154132479Y-99982098D01*
X154157499Y-100042500D01*
X153128398Y-100042500D01*
X153144434Y-100143747D01*
X153217397Y-100368302D01*
X153324585Y-100578671D01*
X153463366Y-100769686D01*
X153630313Y-100936633D01*
X153821328Y-101075414D01*
X154031697Y-101182602D01*
X154256252Y-101255565D01*
X154256251Y-101255565D01*
X154489448Y-101292500D01*
X154507500Y-101292500D01*
X154507500Y-100392501D01*
X154567902Y-100417521D01*
X154693481Y-100442500D01*
X154821519Y-100442500D01*
X154947098Y-100417521D01*
X155007500Y-100392501D01*
X155007500Y-101292500D01*
X155025552Y-101292500D01*
X155258747Y-101255565D01*
X155483302Y-101182602D01*
X155693671Y-101075414D01*
X155884686Y-100936633D01*
X156051633Y-100769686D01*
X156190414Y-100578671D01*
X156297602Y-100368302D01*
X156370565Y-100143747D01*
X156386602Y-100042500D01*
X155357501Y-100042500D01*
X155382521Y-99982098D01*
X155407500Y-99856519D01*
X155407500Y-99728481D01*
X155382521Y-99602902D01*
X155357501Y-99542500D01*
X156386602Y-99542500D01*
X156370565Y-99441252D01*
X156297602Y-99216697D01*
X156190414Y-99006328D01*
X156051633Y-98815313D01*
X155884686Y-98648366D01*
X155693671Y-98509585D01*
X155483302Y-98402397D01*
X155258747Y-98329434D01*
X155258748Y-98329434D01*
X155025552Y-98292500D01*
X155007500Y-98292500D01*
X155007500Y-99192498D01*
X154947098Y-99167479D01*
X154821519Y-99142500D01*
X154693481Y-99142500D01*
X154567902Y-99167479D01*
X154507500Y-99192498D01*
X154507500Y-98292500D01*
X154489448Y-98292500D01*
X154256252Y-98329434D01*
X154031697Y-98402397D01*
X153821328Y-98509585D01*
X153630313Y-98648366D01*
X153463366Y-98815313D01*
X153324585Y-99006328D01*
X153217397Y-99216697D01*
X153144434Y-99441252D01*
X153128398Y-99542500D01*
X133787108Y-99542500D01*
X133771053Y-99441131D01*
X133698066Y-99216503D01*
X133641502Y-99105491D01*
X133590843Y-99006067D01*
X133452017Y-98814990D01*
X133285010Y-98647983D01*
X133093933Y-98509157D01*
X132883496Y-98401933D01*
X132658868Y-98328946D01*
X132425597Y-98292000D01*
X132425592Y-98292000D01*
X131889408Y-98292000D01*
X131889403Y-98292000D01*
X131656131Y-98328946D01*
X131431503Y-98401933D01*
X131221066Y-98509157D01*
X131112050Y-98588362D01*
X131029990Y-98647983D01*
X131029988Y-98647985D01*
X131029987Y-98647985D01*
X130862985Y-98814987D01*
X130862985Y-98814988D01*
X130862983Y-98814990D01*
X130803362Y-98897050D01*
X130724157Y-99006066D01*
X130663917Y-99124295D01*
X130615942Y-99175091D01*
X130553432Y-99192000D01*
X126092597Y-99192000D01*
X126025558Y-99172315D01*
X126004916Y-99155681D01*
X121291941Y-94442706D01*
X121258456Y-94381383D01*
X121259847Y-94322931D01*
X121260611Y-94320080D01*
X121285635Y-94226692D01*
X121305468Y-94000000D01*
X121285635Y-93773308D01*
X121226739Y-93553504D01*
X121130568Y-93347266D01*
X121000047Y-93160861D01*
X121000045Y-93160858D01*
X120839140Y-92999953D01*
X120653377Y-92869881D01*
X120609752Y-92815304D01*
X120600500Y-92768306D01*
X120600500Y-92724500D01*
X120620185Y-92657461D01*
X120672989Y-92611706D01*
X120724500Y-92600500D01*
X123768308Y-92600500D01*
X123835347Y-92620185D01*
X123869880Y-92653374D01*
X123913634Y-92715861D01*
X123999954Y-92839141D01*
X124160858Y-93000045D01*
X124160861Y-93000047D01*
X124347266Y-93130568D01*
X124553504Y-93226739D01*
X124553506Y-93226739D01*
X124553513Y-93226742D01*
X124558003Y-93227945D01*
X124613592Y-93260039D01*
X124953554Y-93600000D01*
X124947339Y-93600000D01*
X124845606Y-93627259D01*
X124754394Y-93679920D01*
X124679920Y-93754394D01*
X124627259Y-93845606D01*
X124600000Y-93947339D01*
X124600000Y-93953552D01*
X123920974Y-93274526D01*
X123920973Y-93274526D01*
X123869868Y-93347512D01*
X123869866Y-93347516D01*
X123773734Y-93553673D01*
X123773730Y-93553682D01*
X123714860Y-93773389D01*
X123714858Y-93773400D01*
X123695034Y-93999997D01*
X123695034Y-94000002D01*
X123714858Y-94226599D01*
X123714860Y-94226610D01*
X123773730Y-94446317D01*
X123773735Y-94446331D01*
X123869863Y-94652478D01*
X123920974Y-94725472D01*
X124600000Y-94046446D01*
X124600000Y-94052661D01*
X124627259Y-94154394D01*
X124679920Y-94245606D01*
X124754394Y-94320080D01*
X124845606Y-94372741D01*
X124947339Y-94400000D01*
X124953553Y-94400000D01*
X124274526Y-95079025D01*
X124347513Y-95130132D01*
X124347521Y-95130136D01*
X124553668Y-95226264D01*
X124553682Y-95226269D01*
X124773389Y-95285139D01*
X124773400Y-95285141D01*
X124999998Y-95304966D01*
X125000002Y-95304966D01*
X125226599Y-95285141D01*
X125226610Y-95285139D01*
X125446317Y-95226269D01*
X125446331Y-95226264D01*
X125652478Y-95130136D01*
X125725471Y-95079024D01*
X125046447Y-94400000D01*
X125052661Y-94400000D01*
X125154394Y-94372741D01*
X125245606Y-94320080D01*
X125320080Y-94245606D01*
X125372741Y-94154394D01*
X125400000Y-94052661D01*
X125400000Y-94046447D01*
X126079024Y-94725471D01*
X126130136Y-94652478D01*
X126226264Y-94446331D01*
X126226269Y-94446317D01*
X126285139Y-94226610D01*
X126285141Y-94226599D01*
X126304966Y-94000002D01*
X126304966Y-93999997D01*
X126285141Y-93773400D01*
X126285139Y-93773389D01*
X126226269Y-93553682D01*
X126226264Y-93553668D01*
X126130136Y-93347521D01*
X126130132Y-93347513D01*
X126079025Y-93274526D01*
X125400000Y-93953551D01*
X125400000Y-93947339D01*
X125372741Y-93845606D01*
X125320080Y-93754394D01*
X125245606Y-93679920D01*
X125154394Y-93627259D01*
X125052661Y-93600000D01*
X125046447Y-93600000D01*
X125386407Y-93260039D01*
X125441996Y-93227945D01*
X125443833Y-93227452D01*
X125446496Y-93226739D01*
X125652734Y-93130568D01*
X125839139Y-93000047D01*
X126000047Y-92839139D01*
X126130568Y-92652734D01*
X126226739Y-92446496D01*
X126285635Y-92226692D01*
X126305468Y-92000000D01*
X126304955Y-91994141D01*
X126288647Y-91807734D01*
X126285635Y-91773308D01*
X126226739Y-91553504D01*
X126130568Y-91347266D01*
X126000047Y-91160861D01*
X126000045Y-91160858D01*
X125839141Y-90999954D01*
X125652734Y-90869432D01*
X125652732Y-90869431D01*
X125446497Y-90773261D01*
X125446488Y-90773258D01*
X125226697Y-90714366D01*
X125226693Y-90714365D01*
X125226692Y-90714365D01*
X125226691Y-90714364D01*
X125226686Y-90714364D01*
X125000002Y-90694532D01*
X124999998Y-90694532D01*
X124773313Y-90714364D01*
X124773302Y-90714366D01*
X124553511Y-90773258D01*
X124553502Y-90773261D01*
X124347267Y-90869431D01*
X124347265Y-90869432D01*
X124160858Y-90999954D01*
X123999954Y-91160858D01*
X123932039Y-91257853D01*
X123869881Y-91346624D01*
X123815307Y-91390248D01*
X123768308Y-91399500D01*
X119235982Y-91399500D01*
X119168943Y-91379815D01*
X119123188Y-91327011D01*
X119113244Y-91257853D01*
X119134406Y-91204378D01*
X119170568Y-91152734D01*
X119170578Y-91152711D01*
X119171372Y-91151339D01*
X119171890Y-91150844D01*
X119173673Y-91148299D01*
X119174184Y-91148657D01*
X119221935Y-91103120D01*
X119246660Y-91093560D01*
X119373485Y-91059577D01*
X119450694Y-91015000D01*
X119450698Y-91014998D01*
X119510409Y-90980524D01*
X119510408Y-90980524D01*
X119510416Y-90980520D01*
X119622220Y-90868716D01*
X119622220Y-90868714D01*
X119632424Y-90858511D01*
X119632427Y-90858506D01*
X122440808Y-88050126D01*
X122502129Y-88016643D01*
X122571821Y-88021627D01*
X122627754Y-88063499D01*
X122652171Y-88128963D01*
X122647754Y-88171742D01*
X122614737Y-88287785D01*
X122595073Y-88499999D01*
X122595073Y-88500000D01*
X122614737Y-88712216D01*
X122614738Y-88712219D01*
X122673058Y-88917196D01*
X122673066Y-88917216D01*
X122768061Y-89107992D01*
X122768062Y-89107993D01*
X122776834Y-89119610D01*
X123375000Y-88521444D01*
X123375000Y-88549370D01*
X123400556Y-88644745D01*
X123449925Y-88730255D01*
X123519745Y-88800075D01*
X123605255Y-88849444D01*
X123700630Y-88875000D01*
X123728553Y-88875000D01*
X123132991Y-89470559D01*
X123235204Y-89533847D01*
X123235208Y-89533849D01*
X123433936Y-89610836D01*
X123433941Y-89610837D01*
X123643439Y-89650000D01*
X123856561Y-89650000D01*
X124066058Y-89610837D01*
X124066063Y-89610836D01*
X124264791Y-89533849D01*
X124264798Y-89533846D01*
X124367006Y-89470560D01*
X124367006Y-89470559D01*
X123771448Y-88875000D01*
X123799370Y-88875000D01*
X123894745Y-88849444D01*
X123980255Y-88800075D01*
X124050075Y-88730255D01*
X124099444Y-88644745D01*
X124125000Y-88549370D01*
X124125000Y-88521447D01*
X124723163Y-89119610D01*
X124731935Y-89107996D01*
X124731938Y-89107991D01*
X124826935Y-88917211D01*
X124826941Y-88917196D01*
X124885261Y-88712219D01*
X124885262Y-88712216D01*
X124905456Y-88494292D01*
X124907859Y-88494514D01*
X124924612Y-88437461D01*
X124977416Y-88391706D01*
X125028927Y-88380500D01*
X125126608Y-88380500D01*
X125126610Y-88380500D01*
X125336198Y-88341321D01*
X125535019Y-88264298D01*
X125716302Y-88152052D01*
X125873872Y-88008407D01*
X126002366Y-87838255D01*
X126002367Y-87838253D01*
X126097403Y-87647394D01*
X126097403Y-87647393D01*
X126097405Y-87647389D01*
X126155756Y-87442310D01*
X126175429Y-87230000D01*
X126155756Y-87017690D01*
X126097405Y-86812611D01*
X126097403Y-86812606D01*
X126097403Y-86812605D01*
X126002367Y-86621746D01*
X125873872Y-86451593D01*
X125851923Y-86431584D01*
X125716302Y-86307948D01*
X125535019Y-86195702D01*
X125535017Y-86195701D01*
X125364102Y-86129489D01*
X125336198Y-86118679D01*
X125126610Y-86079500D01*
X125024499Y-86079500D01*
X124957460Y-86059815D01*
X124911705Y-86007011D01*
X124900499Y-85955500D01*
X124900499Y-85262129D01*
X124900498Y-85262123D01*
X124894091Y-85202516D01*
X124843797Y-85067671D01*
X124843793Y-85067664D01*
X124757547Y-84952455D01*
X124757544Y-84952452D01*
X124642335Y-84866206D01*
X124642328Y-84866202D01*
X124507482Y-84815908D01*
X124507483Y-84815908D01*
X124447883Y-84809501D01*
X124447881Y-84809500D01*
X124447873Y-84809500D01*
X124447864Y-84809500D01*
X123052129Y-84809500D01*
X123052123Y-84809501D01*
X122992516Y-84815908D01*
X122857671Y-84866202D01*
X122857664Y-84866206D01*
X122742455Y-84952452D01*
X122742452Y-84952455D01*
X122650888Y-85074769D01*
X122649155Y-85073471D01*
X122608298Y-85114331D01*
X122548869Y-85129500D01*
X120860757Y-85129500D01*
X120702642Y-85129500D01*
X120549915Y-85170423D01*
X120549914Y-85170423D01*
X120549912Y-85170424D01*
X120549909Y-85170425D01*
X120499796Y-85199359D01*
X120499795Y-85199360D01*
X120456389Y-85224420D01*
X120412985Y-85249479D01*
X120412982Y-85249481D01*
X120301178Y-85361286D01*
X119561475Y-86100988D01*
X119500152Y-86134473D01*
X119430460Y-86129489D01*
X119382564Y-86097290D01*
X119368405Y-86081909D01*
X119261784Y-85966087D01*
X119261779Y-85966083D01*
X119261777Y-85966081D01*
X119078634Y-85823535D01*
X119078628Y-85823531D01*
X118874504Y-85713064D01*
X118874495Y-85713061D01*
X118654984Y-85637702D01*
X118464450Y-85605908D01*
X118426049Y-85599500D01*
X118193951Y-85599500D01*
X118155550Y-85605908D01*
X117965015Y-85637702D01*
X117745504Y-85713061D01*
X117745495Y-85713064D01*
X117541371Y-85823531D01*
X117541365Y-85823535D01*
X117358222Y-85966081D01*
X117358219Y-85966084D01*
X117358216Y-85966086D01*
X117358216Y-85966087D01*
X117333886Y-85992517D01*
X117201016Y-86136852D01*
X117074075Y-86331151D01*
X116980842Y-86543699D01*
X116923866Y-86768691D01*
X116923864Y-86768702D01*
X116904700Y-86999993D01*
X116904700Y-87000006D01*
X116923864Y-87231297D01*
X116923866Y-87231308D01*
X116980842Y-87456300D01*
X117074075Y-87668848D01*
X117201016Y-87863147D01*
X117201019Y-87863151D01*
X117201021Y-87863153D01*
X117358216Y-88033913D01*
X117358219Y-88033915D01*
X117358222Y-88033918D01*
X117541365Y-88176464D01*
X117541371Y-88176468D01*
X117541374Y-88176470D01*
X117745497Y-88286936D01*
X117859487Y-88326068D01*
X117965015Y-88362297D01*
X117965017Y-88362297D01*
X117965019Y-88362298D01*
X118193951Y-88400500D01*
X118193952Y-88400500D01*
X118426048Y-88400500D01*
X118426049Y-88400500D01*
X118654981Y-88362298D01*
X118874503Y-88286936D01*
X119078626Y-88176470D01*
X119086252Y-88170535D01*
X119146451Y-88123680D01*
X119261784Y-88033913D01*
X119418979Y-87863153D01*
X119545924Y-87668849D01*
X119549997Y-87659562D01*
X119594951Y-87606075D01*
X119631456Y-87589595D01*
X119743485Y-87559577D01*
X119793604Y-87530639D01*
X119880416Y-87480520D01*
X119992220Y-87368716D01*
X119992220Y-87368714D01*
X120002428Y-87358507D01*
X120002429Y-87358504D01*
X120994116Y-86366819D01*
X121055439Y-86333334D01*
X121081797Y-86330500D01*
X122475501Y-86330500D01*
X122542540Y-86350185D01*
X122588295Y-86402989D01*
X122599501Y-86454500D01*
X122599501Y-86505500D01*
X122579816Y-86572539D01*
X122527012Y-86618294D01*
X122475501Y-86629500D01*
X122332640Y-86629500D01*
X122293287Y-86640044D01*
X122293288Y-86640045D01*
X122179914Y-86670423D01*
X122179909Y-86670426D01*
X122042990Y-86749475D01*
X122042982Y-86749481D01*
X121931178Y-86861286D01*
X119173506Y-89618957D01*
X119112183Y-89652442D01*
X119042491Y-89647458D01*
X118998144Y-89618957D01*
X118879141Y-89499954D01*
X118692734Y-89369432D01*
X118692732Y-89369431D01*
X118486497Y-89273261D01*
X118486488Y-89273258D01*
X118266697Y-89214366D01*
X118266693Y-89214365D01*
X118266692Y-89214365D01*
X118266691Y-89214364D01*
X118266686Y-89214364D01*
X118040002Y-89194532D01*
X118039998Y-89194532D01*
X117813313Y-89214364D01*
X117813302Y-89214366D01*
X117593511Y-89273258D01*
X117593502Y-89273261D01*
X117387267Y-89369431D01*
X117387265Y-89369432D01*
X117200858Y-89499954D01*
X117039954Y-89660858D01*
X116909432Y-89847265D01*
X116909431Y-89847267D01*
X116813261Y-90053502D01*
X116813258Y-90053511D01*
X116754366Y-90273302D01*
X116754364Y-90273313D01*
X116734532Y-90499998D01*
X116734532Y-90500002D01*
X116752163Y-90701531D01*
X116738396Y-90770031D01*
X116689781Y-90820214D01*
X116621752Y-90836147D01*
X116555909Y-90812771D01*
X116540954Y-90800019D01*
X112379290Y-86638355D01*
X112379288Y-86638352D01*
X112260417Y-86519481D01*
X112260416Y-86519480D01*
X112173604Y-86469360D01*
X112173604Y-86469358D01*
X112173599Y-86469357D01*
X112162047Y-86462687D01*
X112152495Y-86457172D01*
X112104281Y-86406602D01*
X112090499Y-86349787D01*
X112090499Y-86052129D01*
X112090498Y-86052123D01*
X112090497Y-86052116D01*
X112084091Y-85992517D01*
X112078186Y-85976686D01*
X112033797Y-85857671D01*
X112033793Y-85857664D01*
X111947547Y-85742455D01*
X111947544Y-85742452D01*
X111832335Y-85656206D01*
X111832328Y-85656202D01*
X111697482Y-85605908D01*
X111697483Y-85605908D01*
X111637883Y-85599501D01*
X111637881Y-85599500D01*
X111637873Y-85599500D01*
X111637864Y-85599500D01*
X109742129Y-85599500D01*
X109742123Y-85599501D01*
X109682516Y-85605908D01*
X109547671Y-85656202D01*
X109547664Y-85656206D01*
X109432455Y-85742452D01*
X109432452Y-85742455D01*
X109346206Y-85857664D01*
X109346202Y-85857671D01*
X109295908Y-85992517D01*
X109289501Y-86052116D01*
X109289501Y-86052123D01*
X109289500Y-86052135D01*
X106965420Y-86052135D01*
X106985635Y-85976692D01*
X107005468Y-85750000D01*
X106985635Y-85523308D01*
X106926739Y-85303504D01*
X106830568Y-85097266D01*
X106700047Y-84910861D01*
X106700045Y-84910858D01*
X106539141Y-84749954D01*
X106352734Y-84619432D01*
X106352732Y-84619431D01*
X106146497Y-84523261D01*
X106146488Y-84523258D01*
X105976422Y-84477690D01*
X105928220Y-84464774D01*
X105868560Y-84428410D01*
X105838031Y-84365563D01*
X105846326Y-84296188D01*
X105890811Y-84242310D01*
X105928219Y-84225225D01*
X106146496Y-84166739D01*
X106352734Y-84070568D01*
X106539139Y-83940047D01*
X106700047Y-83779139D01*
X106830568Y-83592734D01*
X106926739Y-83386496D01*
X106985635Y-83166692D01*
X107005468Y-82940000D01*
X106985635Y-82713308D01*
X106926739Y-82493504D01*
X106830568Y-82287266D01*
X106700047Y-82100861D01*
X106700045Y-82100858D01*
X106539141Y-81939954D01*
X106379989Y-81828516D01*
X106336364Y-81773940D01*
X106329170Y-81704441D01*
X106360692Y-81642086D01*
X106392092Y-81617887D01*
X106468626Y-81576470D01*
X106651784Y-81433913D01*
X106808979Y-81263153D01*
X106935924Y-81068849D01*
X107029157Y-80856300D01*
X107086134Y-80631305D01*
X107086869Y-80622433D01*
X107105300Y-80400006D01*
X107105300Y-80399993D01*
X107086135Y-80168702D01*
X107086133Y-80168691D01*
X107029157Y-79943699D01*
X106935924Y-79731151D01*
X106808983Y-79536852D01*
X106808980Y-79536849D01*
X106808979Y-79536847D01*
X106651784Y-79366087D01*
X106651779Y-79366083D01*
X106651777Y-79366081D01*
X106502630Y-79249995D01*
X109294592Y-79249995D01*
X109294592Y-79250004D01*
X109314196Y-79511620D01*
X109314197Y-79511625D01*
X109372576Y-79767402D01*
X109372578Y-79767411D01*
X109372580Y-79767416D01*
X109468432Y-80011643D01*
X109599614Y-80238857D01*
X109697182Y-80361203D01*
X109763198Y-80443985D01*
X109944753Y-80612441D01*
X109955521Y-80622433D01*
X110172296Y-80770228D01*
X110172301Y-80770230D01*
X110172302Y-80770231D01*
X110172303Y-80770232D01*
X110297843Y-80830688D01*
X110408673Y-80884061D01*
X110408674Y-80884061D01*
X110408677Y-80884063D01*
X110659385Y-80961396D01*
X110918818Y-81000500D01*
X111181182Y-81000500D01*
X111440615Y-80961396D01*
X111691323Y-80884063D01*
X111927704Y-80770228D01*
X112144479Y-80622433D01*
X112336805Y-80443981D01*
X112500386Y-80238857D01*
X112631568Y-80011643D01*
X112727420Y-79767416D01*
X112785802Y-79511630D01*
X112785803Y-79511620D01*
X112805408Y-79250004D01*
X112805408Y-79249995D01*
X112785803Y-78988379D01*
X112785802Y-78988374D01*
X112785802Y-78988370D01*
X112727420Y-78732584D01*
X112631568Y-78488357D01*
X112500386Y-78261143D01*
X112336805Y-78056019D01*
X112336804Y-78056018D01*
X112336801Y-78056014D01*
X112144479Y-77877567D01*
X111927704Y-77729772D01*
X111927700Y-77729770D01*
X111927697Y-77729768D01*
X111927696Y-77729767D01*
X111691325Y-77615938D01*
X111691327Y-77615938D01*
X111440623Y-77538606D01*
X111440619Y-77538605D01*
X111440615Y-77538604D01*
X111315823Y-77519794D01*
X111181187Y-77499500D01*
X111181182Y-77499500D01*
X110918818Y-77499500D01*
X110918812Y-77499500D01*
X110757247Y-77523853D01*
X110659385Y-77538604D01*
X110659382Y-77538605D01*
X110659376Y-77538606D01*
X110408673Y-77615938D01*
X110172303Y-77729767D01*
X110172302Y-77729768D01*
X109955520Y-77877567D01*
X109763198Y-78056014D01*
X109599614Y-78261143D01*
X109468432Y-78488356D01*
X109372582Y-78732578D01*
X109372576Y-78732597D01*
X109314197Y-78988374D01*
X109314196Y-78988379D01*
X109294592Y-79249995D01*
X106502630Y-79249995D01*
X106468634Y-79223535D01*
X106468628Y-79223531D01*
X106264504Y-79113064D01*
X106264495Y-79113061D01*
X106044984Y-79037702D01*
X105873282Y-79009050D01*
X105816049Y-78999500D01*
X105583951Y-78999500D01*
X105538164Y-79007140D01*
X105355015Y-79037702D01*
X105135504Y-79113061D01*
X105135495Y-79113064D01*
X104931371Y-79223531D01*
X104931365Y-79223535D01*
X104748222Y-79366081D01*
X104748219Y-79366084D01*
X104591016Y-79536852D01*
X104464075Y-79731151D01*
X104370842Y-79943699D01*
X104313866Y-80168691D01*
X104313864Y-80168702D01*
X104294700Y-80399993D01*
X104294700Y-80400006D01*
X104313864Y-80631297D01*
X104313866Y-80631308D01*
X104370842Y-80856300D01*
X104464075Y-81068848D01*
X104591016Y-81263147D01*
X104591019Y-81263151D01*
X104591021Y-81263153D01*
X104748216Y-81433913D01*
X104748219Y-81433915D01*
X104748222Y-81433918D01*
X104931365Y-81576464D01*
X104931376Y-81576471D01*
X105007904Y-81617886D01*
X105057495Y-81667105D01*
X105072603Y-81735322D01*
X105048433Y-81800878D01*
X105020010Y-81828516D01*
X104860858Y-81939954D01*
X104699954Y-82100858D01*
X104569432Y-82287265D01*
X104569431Y-82287267D01*
X104473261Y-82493502D01*
X104473258Y-82493511D01*
X104414366Y-82713302D01*
X104414364Y-82713313D01*
X104394532Y-82939998D01*
X104394532Y-82940001D01*
X104414364Y-83166686D01*
X104414366Y-83166697D01*
X104473258Y-83386488D01*
X104473261Y-83386497D01*
X104569431Y-83592732D01*
X104569432Y-83592734D01*
X104699954Y-83779141D01*
X104860858Y-83940045D01*
X104860861Y-83940047D01*
X105047266Y-84070568D01*
X105253504Y-84166739D01*
X105253509Y-84166740D01*
X105253511Y-84166741D01*
X105471778Y-84225225D01*
X105531439Y-84261590D01*
X105561968Y-84324437D01*
X105553673Y-84393812D01*
X105509188Y-84447690D01*
X105471778Y-84464775D01*
X105253511Y-84523258D01*
X105253502Y-84523261D01*
X105047267Y-84619431D01*
X105047265Y-84619432D01*
X104860858Y-84749954D01*
X104699954Y-84910858D01*
X104569432Y-85097265D01*
X104569431Y-85097267D01*
X104473261Y-85303502D01*
X104473258Y-85303511D01*
X104414366Y-85523302D01*
X104414364Y-85523313D01*
X104394532Y-85749998D01*
X104394532Y-85750001D01*
X104414364Y-85976686D01*
X104414366Y-85976697D01*
X104473258Y-86196488D01*
X104473261Y-86196497D01*
X104569431Y-86402732D01*
X104569432Y-86402734D01*
X104699954Y-86589141D01*
X104860858Y-86750045D01*
X104860861Y-86750047D01*
X105047266Y-86880568D01*
X105105275Y-86907618D01*
X105157714Y-86953791D01*
X105176866Y-87020984D01*
X105156650Y-87087865D01*
X105105275Y-87132382D01*
X105047267Y-87159431D01*
X105047265Y-87159432D01*
X104860858Y-87289954D01*
X104699954Y-87450858D01*
X104569432Y-87637265D01*
X104569431Y-87637267D01*
X104473261Y-87843502D01*
X104473258Y-87843511D01*
X104414366Y-88063302D01*
X104414364Y-88063313D01*
X104394532Y-88289998D01*
X104394532Y-88290001D01*
X104414364Y-88516686D01*
X104414366Y-88516697D01*
X104473258Y-88736488D01*
X104473261Y-88736497D01*
X104569431Y-88942732D01*
X104569432Y-88942734D01*
X104699954Y-89129141D01*
X104860858Y-89290045D01*
X104860861Y-89290047D01*
X105047266Y-89420568D01*
X105253504Y-89516739D01*
X105267524Y-89520495D01*
X105313164Y-89532725D01*
X105372824Y-89569090D01*
X105403353Y-89631937D01*
X105395058Y-89701313D01*
X105350573Y-89755191D01*
X105313164Y-89772275D01*
X105253508Y-89788259D01*
X105253502Y-89788261D01*
X105047267Y-89884431D01*
X105047265Y-89884432D01*
X104860858Y-90014954D01*
X104699954Y-90175858D01*
X104569432Y-90362265D01*
X104569431Y-90362267D01*
X104473261Y-90568502D01*
X104473258Y-90568511D01*
X104414366Y-90788302D01*
X104414364Y-90788313D01*
X104394532Y-91014998D01*
X104394532Y-91015001D01*
X104414364Y-91241686D01*
X104414366Y-91241697D01*
X104473258Y-91461488D01*
X104473261Y-91461497D01*
X104569431Y-91667732D01*
X104569432Y-91667734D01*
X104699954Y-91854141D01*
X104860858Y-92015045D01*
X104860861Y-92015047D01*
X105047266Y-92145568D01*
X105067594Y-92155047D01*
X105105275Y-92172618D01*
X105157714Y-92218791D01*
X105176866Y-92285984D01*
X105156650Y-92352865D01*
X105105275Y-92397382D01*
X105047267Y-92424431D01*
X105047265Y-92424432D01*
X104860858Y-92554954D01*
X104699954Y-92715858D01*
X104630323Y-92815304D01*
X104569881Y-92901624D01*
X104515307Y-92945248D01*
X104468308Y-92954500D01*
X103381669Y-92954500D01*
X103381653Y-92954499D01*
X103374057Y-92954499D01*
X103215943Y-92954499D01*
X103108587Y-92983265D01*
X103063210Y-92995424D01*
X103063209Y-92995425D01*
X103013096Y-93024359D01*
X103013095Y-93024360D01*
X102982081Y-93042266D01*
X102926285Y-93074479D01*
X102926282Y-93074481D01*
X102814478Y-93186286D01*
X100911679Y-95089084D01*
X100850356Y-95122569D01*
X100791906Y-95121178D01*
X100720076Y-95101932D01*
X100720073Y-95101931D01*
X100720068Y-95101930D01*
X100720065Y-95101929D01*
X100720062Y-95101929D01*
X100500002Y-95082677D01*
X100499998Y-95082677D01*
X100279937Y-95101929D01*
X100279929Y-95101930D01*
X100066554Y-95159104D01*
X100066548Y-95159107D01*
X99866340Y-95252465D01*
X99866338Y-95252466D01*
X99685377Y-95379175D01*
X99529175Y-95535377D01*
X99402466Y-95716338D01*
X99402465Y-95716340D01*
X99309107Y-95916548D01*
X99309104Y-95916554D01*
X99251930Y-96129929D01*
X99251929Y-96129937D01*
X99232677Y-96349997D01*
X94562499Y-96349997D01*
X94562499Y-95540128D01*
X94556091Y-95480517D01*
X94514821Y-95369867D01*
X94505797Y-95345671D01*
X94505793Y-95345664D01*
X94419547Y-95230455D01*
X94419544Y-95230452D01*
X94304335Y-95144206D01*
X94304328Y-95144202D01*
X94169482Y-95093908D01*
X94169483Y-95093908D01*
X94109883Y-95087501D01*
X94109881Y-95087500D01*
X94109873Y-95087500D01*
X94109865Y-95087500D01*
X93750346Y-95087500D01*
X93683307Y-95067815D01*
X93637552Y-95015011D01*
X93627608Y-94945853D01*
X93656633Y-94882297D01*
X93697939Y-94851119D01*
X93752734Y-94825568D01*
X93939139Y-94695047D01*
X94100047Y-94534139D01*
X94230568Y-94347734D01*
X94326739Y-94141496D01*
X94385635Y-93921692D01*
X94405468Y-93695000D01*
X94385635Y-93468308D01*
X94326739Y-93248504D01*
X94230568Y-93042266D01*
X94109864Y-92869881D01*
X94100045Y-92855858D01*
X93939141Y-92694954D01*
X93752734Y-92564432D01*
X93752728Y-92564429D01*
X93694725Y-92537382D01*
X93642285Y-92491210D01*
X93623133Y-92424017D01*
X93643348Y-92357135D01*
X93694725Y-92312618D01*
X93752734Y-92285568D01*
X93939139Y-92155047D01*
X94100047Y-91994139D01*
X94230568Y-91807734D01*
X94326739Y-91601496D01*
X94385635Y-91381692D01*
X94404955Y-91160861D01*
X94405468Y-91155001D01*
X94405468Y-91154998D01*
X94399801Y-91090230D01*
X94385635Y-90928308D01*
X94331614Y-90726697D01*
X94326741Y-90708511D01*
X94326738Y-90708502D01*
X94320224Y-90694532D01*
X94230568Y-90502266D01*
X94100047Y-90315861D01*
X94100045Y-90315858D01*
X93939141Y-90154954D01*
X93752734Y-90024432D01*
X93752732Y-90024431D01*
X93546497Y-89928261D01*
X93546488Y-89928258D01*
X93326697Y-89869366D01*
X93326693Y-89869365D01*
X93326692Y-89869365D01*
X93326691Y-89869364D01*
X93326686Y-89869364D01*
X93100002Y-89849532D01*
X93099998Y-89849532D01*
X92873313Y-89869364D01*
X92873302Y-89869366D01*
X92653511Y-89928258D01*
X92653502Y-89928261D01*
X92447267Y-90024431D01*
X92447265Y-90024432D01*
X92260858Y-90154954D01*
X92099954Y-90315858D01*
X91969432Y-90502265D01*
X91969431Y-90502267D01*
X91873261Y-90708502D01*
X91873258Y-90708511D01*
X91814366Y-90928302D01*
X91814364Y-90928313D01*
X91794532Y-91154998D01*
X91000500Y-91154998D01*
X91000500Y-80459993D01*
X91694700Y-80459993D01*
X91694700Y-80460006D01*
X91713864Y-80691297D01*
X91713866Y-80691308D01*
X91770842Y-80916300D01*
X91864075Y-81128848D01*
X91991016Y-81323147D01*
X91991019Y-81323151D01*
X91991021Y-81323153D01*
X92148216Y-81493913D01*
X92148219Y-81493915D01*
X92148222Y-81493918D01*
X92331365Y-81636464D01*
X92331372Y-81636468D01*
X92331374Y-81636470D01*
X92407904Y-81677886D01*
X92457495Y-81727105D01*
X92472603Y-81795322D01*
X92448433Y-81860878D01*
X92420010Y-81888516D01*
X92260858Y-81999954D01*
X92099954Y-82160858D01*
X91969432Y-82347265D01*
X91969431Y-82347267D01*
X91873261Y-82553502D01*
X91873258Y-82553511D01*
X91814366Y-82773302D01*
X91814364Y-82773313D01*
X91794532Y-82999998D01*
X91794532Y-83000001D01*
X91814364Y-83226686D01*
X91814366Y-83226697D01*
X91873258Y-83446488D01*
X91873261Y-83446497D01*
X91969431Y-83652732D01*
X91969432Y-83652734D01*
X92099954Y-83839141D01*
X92260858Y-84000045D01*
X92260861Y-84000047D01*
X92447266Y-84130568D01*
X92653504Y-84226739D01*
X92653509Y-84226740D01*
X92653511Y-84226741D01*
X92759815Y-84255225D01*
X92819476Y-84291590D01*
X92850005Y-84354437D01*
X92841710Y-84423812D01*
X92797225Y-84477690D01*
X92759815Y-84494775D01*
X92653511Y-84523258D01*
X92653502Y-84523261D01*
X92447267Y-84619431D01*
X92447265Y-84619432D01*
X92260858Y-84749954D01*
X92099954Y-84910858D01*
X91969432Y-85097265D01*
X91969431Y-85097267D01*
X91873261Y-85303502D01*
X91873258Y-85303511D01*
X91814366Y-85523302D01*
X91814364Y-85523313D01*
X91794532Y-85749998D01*
X91794532Y-85750001D01*
X91814364Y-85976686D01*
X91814366Y-85976697D01*
X91873258Y-86196488D01*
X91873261Y-86196497D01*
X91969431Y-86402732D01*
X91969432Y-86402734D01*
X92099954Y-86589141D01*
X92260858Y-86750045D01*
X92260861Y-86750047D01*
X92447266Y-86880568D01*
X92505275Y-86907618D01*
X92557714Y-86953791D01*
X92576866Y-87020984D01*
X92556650Y-87087865D01*
X92505275Y-87132382D01*
X92447267Y-87159431D01*
X92447265Y-87159432D01*
X92260858Y-87289954D01*
X92099954Y-87450858D01*
X91969432Y-87637265D01*
X91969431Y-87637267D01*
X91873261Y-87843502D01*
X91873258Y-87843511D01*
X91814366Y-88063302D01*
X91814364Y-88063313D01*
X91794532Y-88289998D01*
X91794532Y-88290001D01*
X91814364Y-88516686D01*
X91814366Y-88516697D01*
X91873258Y-88736488D01*
X91873261Y-88736497D01*
X91969431Y-88942732D01*
X91969432Y-88942734D01*
X92099954Y-89129141D01*
X92260858Y-89290045D01*
X92260861Y-89290047D01*
X92447266Y-89420568D01*
X92653504Y-89516739D01*
X92873308Y-89575635D01*
X93035230Y-89589801D01*
X93099998Y-89595468D01*
X93100000Y-89595468D01*
X93100002Y-89595468D01*
X93156673Y-89590509D01*
X93326692Y-89575635D01*
X93546496Y-89516739D01*
X93752734Y-89420568D01*
X93939139Y-89290047D01*
X94100047Y-89129139D01*
X94230568Y-88942734D01*
X94326739Y-88736496D01*
X94385635Y-88516692D01*
X94405468Y-88290000D01*
X94402628Y-88257544D01*
X94392549Y-88142335D01*
X94385635Y-88063308D01*
X94326739Y-87843504D01*
X94230568Y-87637266D01*
X94100047Y-87450861D01*
X94100045Y-87450858D01*
X93939141Y-87289954D01*
X93752734Y-87159432D01*
X93752728Y-87159429D01*
X93694725Y-87132382D01*
X93642285Y-87086210D01*
X93623133Y-87019017D01*
X93643348Y-86952135D01*
X93694725Y-86907618D01*
X93752734Y-86880568D01*
X93939139Y-86750047D01*
X94100047Y-86589139D01*
X94230568Y-86402734D01*
X94326739Y-86196496D01*
X94385635Y-85976692D01*
X94405468Y-85750000D01*
X94385635Y-85523308D01*
X94326739Y-85303504D01*
X94230568Y-85097266D01*
X94100047Y-84910861D01*
X94100045Y-84910858D01*
X93939141Y-84749954D01*
X93752734Y-84619432D01*
X93752732Y-84619431D01*
X93546497Y-84523261D01*
X93546488Y-84523258D01*
X93440184Y-84494775D01*
X93380523Y-84458410D01*
X93349994Y-84395564D01*
X93358288Y-84326188D01*
X93402774Y-84272310D01*
X93440184Y-84255225D01*
X93488384Y-84242310D01*
X93546496Y-84226739D01*
X93752734Y-84130568D01*
X93939139Y-84000047D01*
X94100047Y-83839139D01*
X94230568Y-83652734D01*
X94326739Y-83446496D01*
X94385635Y-83226692D01*
X94405468Y-83000000D01*
X94400218Y-82939998D01*
X94385635Y-82773313D01*
X94385635Y-82773308D01*
X94326739Y-82553504D01*
X94230568Y-82347266D01*
X94100047Y-82160861D01*
X94100045Y-82160858D01*
X93939141Y-81999954D01*
X93779989Y-81888516D01*
X93736364Y-81833940D01*
X93729170Y-81764441D01*
X93760692Y-81702086D01*
X93792092Y-81677887D01*
X93868626Y-81636470D01*
X94051784Y-81493913D01*
X94208979Y-81323153D01*
X94335924Y-81128849D01*
X94429157Y-80916300D01*
X94486134Y-80691305D01*
X94491051Y-80631965D01*
X94505300Y-80460006D01*
X94505300Y-80459993D01*
X94486135Y-80228702D01*
X94486133Y-80228691D01*
X94429157Y-80003699D01*
X94335924Y-79791151D01*
X94208983Y-79596852D01*
X94208980Y-79596849D01*
X94208979Y-79596847D01*
X94051784Y-79426087D01*
X94051779Y-79426083D01*
X94051777Y-79426081D01*
X93868634Y-79283535D01*
X93868628Y-79283531D01*
X93664504Y-79173064D01*
X93664495Y-79173061D01*
X93444984Y-79097702D01*
X93273282Y-79069050D01*
X93216049Y-79059500D01*
X92983951Y-79059500D01*
X92938164Y-79067140D01*
X92755015Y-79097702D01*
X92535504Y-79173061D01*
X92535495Y-79173064D01*
X92331371Y-79283531D01*
X92331365Y-79283535D01*
X92148222Y-79426081D01*
X92148219Y-79426084D01*
X91991016Y-79596852D01*
X91864075Y-79791151D01*
X91770842Y-80003699D01*
X91713866Y-80228691D01*
X91713864Y-80228702D01*
X91694700Y-80459993D01*
X91000500Y-80459993D01*
X91000500Y-62094998D01*
X95194645Y-62094998D01*
X95194645Y-62095001D01*
X95214039Y-62366160D01*
X95214040Y-62366167D01*
X95271823Y-62631793D01*
X95271825Y-62631801D01*
X95366828Y-62886513D01*
X95366830Y-62886518D01*
X95427235Y-62997141D01*
X95484332Y-63101707D01*
X95499500Y-63161132D01*
X95499500Y-71670149D01*
X95479815Y-71737188D01*
X95450987Y-71768524D01*
X95386622Y-71817914D01*
X95386620Y-71817916D01*
X95386618Y-71817918D01*
X95309614Y-71918270D01*
X95290363Y-71943360D01*
X95229856Y-72089437D01*
X95229855Y-72089439D01*
X95214401Y-72206829D01*
X95214401Y-72206836D01*
X95214400Y-72206845D01*
X95214400Y-74885563D01*
X95229853Y-75002953D01*
X95229856Y-75002962D01*
X95290364Y-75149041D01*
X95386618Y-75274482D01*
X95512059Y-75370736D01*
X95658138Y-75431244D01*
X95775539Y-75446700D01*
X98454260Y-75446699D01*
X98454263Y-75446699D01*
X98571653Y-75431246D01*
X98571657Y-75431244D01*
X98571662Y-75431244D01*
X98717741Y-75370736D01*
X98843182Y-75274482D01*
X98939436Y-75149041D01*
X98999944Y-75002962D01*
X99015400Y-74885561D01*
X99015399Y-73546198D01*
X100209545Y-73546198D01*
X100209545Y-73546201D01*
X100228939Y-73817360D01*
X100228940Y-73817367D01*
X100286723Y-74082993D01*
X100286725Y-74083001D01*
X100363230Y-74288120D01*
X100381730Y-74337719D01*
X100512009Y-74576307D01*
X100512010Y-74576308D01*
X100512013Y-74576313D01*
X100674929Y-74793942D01*
X100674933Y-74793946D01*
X100674938Y-74793952D01*
X100867147Y-74986161D01*
X100867153Y-74986166D01*
X100867158Y-74986171D01*
X101084787Y-75149087D01*
X101084791Y-75149089D01*
X101084792Y-75149090D01*
X101323381Y-75279369D01*
X101323380Y-75279369D01*
X101323384Y-75279370D01*
X101323387Y-75279372D01*
X101578099Y-75374375D01*
X101843740Y-75432161D01*
X102095505Y-75450167D01*
X102114899Y-75451555D01*
X102114900Y-75451555D01*
X102114901Y-75451555D01*
X102133000Y-75450260D01*
X102386060Y-75432161D01*
X102651701Y-75374375D01*
X102906413Y-75279372D01*
X102906417Y-75279369D01*
X102906419Y-75279369D01*
X103121607Y-75161868D01*
X103181034Y-75146700D01*
X112831889Y-75146700D01*
X112898928Y-75166385D01*
X112919570Y-75183019D01*
X115363181Y-77626630D01*
X115396666Y-77687953D01*
X115399500Y-77714311D01*
X115399500Y-79787401D01*
X115379815Y-79854440D01*
X115369340Y-79867902D01*
X115369483Y-79868018D01*
X115366809Y-79871304D01*
X115201098Y-80106064D01*
X115068894Y-80361206D01*
X114972667Y-80631962D01*
X114972666Y-80631965D01*
X114914201Y-80913319D01*
X114894592Y-81200000D01*
X114914201Y-81486680D01*
X114972666Y-81768034D01*
X114972667Y-81768037D01*
X115068894Y-82038793D01*
X115068893Y-82038793D01*
X115201098Y-82293935D01*
X115366812Y-82528700D01*
X115451923Y-82619831D01*
X115562947Y-82738708D01*
X115785853Y-82920055D01*
X115917316Y-83000000D01*
X116031382Y-83069365D01*
X116218237Y-83150526D01*
X116294942Y-83183844D01*
X116571642Y-83261371D01*
X116821920Y-83295771D01*
X116856321Y-83300500D01*
X116856322Y-83300500D01*
X117143679Y-83300500D01*
X117174370Y-83296281D01*
X117428358Y-83261371D01*
X117705058Y-83183844D01*
X117818015Y-83134779D01*
X117968617Y-83069365D01*
X117968620Y-83069363D01*
X117968625Y-83069361D01*
X118214147Y-82920055D01*
X118437053Y-82738708D01*
X118633189Y-82528698D01*
X118798901Y-82293936D01*
X118931104Y-82038797D01*
X119027334Y-81768032D01*
X119085798Y-81486686D01*
X119105408Y-81200000D01*
X119085798Y-80913314D01*
X119027334Y-80631968D01*
X119027099Y-80631308D01*
X118931105Y-80361206D01*
X118931106Y-80361206D01*
X118798901Y-80106064D01*
X118726644Y-80003699D01*
X118633189Y-79871302D01*
X118633184Y-79871296D01*
X118630517Y-79868018D01*
X118631467Y-79867244D01*
X118602504Y-79809606D01*
X118600500Y-79787401D01*
X118600500Y-79249995D01*
X121294592Y-79249995D01*
X121294592Y-79250004D01*
X121314196Y-79511620D01*
X121314197Y-79511625D01*
X121372576Y-79767402D01*
X121372578Y-79767411D01*
X121372580Y-79767416D01*
X121468432Y-80011643D01*
X121599614Y-80238857D01*
X121697182Y-80361203D01*
X121763198Y-80443985D01*
X121944753Y-80612441D01*
X121955521Y-80622433D01*
X122172296Y-80770228D01*
X122172301Y-80770230D01*
X122172302Y-80770231D01*
X122172303Y-80770232D01*
X122297843Y-80830688D01*
X122408673Y-80884061D01*
X122408674Y-80884061D01*
X122408677Y-80884063D01*
X122659385Y-80961396D01*
X122918818Y-81000500D01*
X123181182Y-81000500D01*
X123440615Y-80961396D01*
X123691323Y-80884063D01*
X123927704Y-80770228D01*
X124144479Y-80622433D01*
X124336805Y-80443981D01*
X124500386Y-80238857D01*
X124631568Y-80011643D01*
X124727420Y-79767416D01*
X124785802Y-79511630D01*
X124785803Y-79511620D01*
X124805408Y-79250004D01*
X124805408Y-79249995D01*
X124785803Y-78988379D01*
X124785802Y-78988374D01*
X124785802Y-78988370D01*
X124727420Y-78732584D01*
X124631568Y-78488357D01*
X124500386Y-78261143D01*
X124336805Y-78056019D01*
X124336804Y-78056018D01*
X124336801Y-78056014D01*
X124144479Y-77877567D01*
X123927704Y-77729772D01*
X123927700Y-77729770D01*
X123927697Y-77729768D01*
X123927696Y-77729767D01*
X123691325Y-77615938D01*
X123691327Y-77615938D01*
X123440623Y-77538606D01*
X123440619Y-77538605D01*
X123440615Y-77538604D01*
X123315823Y-77519794D01*
X123181187Y-77499500D01*
X123181182Y-77499500D01*
X122918818Y-77499500D01*
X122918812Y-77499500D01*
X122757247Y-77523853D01*
X122659385Y-77538604D01*
X122659382Y-77538605D01*
X122659376Y-77538606D01*
X122408673Y-77615938D01*
X122172303Y-77729767D01*
X122172302Y-77729768D01*
X121955520Y-77877567D01*
X121763198Y-78056014D01*
X121599614Y-78261143D01*
X121468432Y-78488356D01*
X121372582Y-78732578D01*
X121372576Y-78732597D01*
X121314197Y-78988374D01*
X121314196Y-78988379D01*
X121294592Y-79249995D01*
X118600500Y-79249995D01*
X118600500Y-76874038D01*
X118561090Y-76625215D01*
X118483241Y-76385621D01*
X118483239Y-76385618D01*
X118483239Y-76385616D01*
X118441747Y-76304184D01*
X118368870Y-76161155D01*
X118349952Y-76135117D01*
X118220798Y-75957350D01*
X118220794Y-75957345D01*
X114588858Y-72325409D01*
X114588856Y-72325407D01*
X114547968Y-72295700D01*
X114385045Y-72177330D01*
X114314947Y-72141613D01*
X114160583Y-72062960D01*
X113920985Y-71985110D01*
X113672162Y-71945700D01*
X113672161Y-71945700D01*
X103181034Y-71945700D01*
X103121607Y-71930532D01*
X102906418Y-71813030D01*
X102906419Y-71813030D01*
X102856820Y-71794530D01*
X102651701Y-71718025D01*
X102651694Y-71718023D01*
X102651693Y-71718023D01*
X102386067Y-71660240D01*
X102386060Y-71660239D01*
X102114901Y-71640845D01*
X102114899Y-71640845D01*
X101843739Y-71660239D01*
X101843732Y-71660240D01*
X101578106Y-71718023D01*
X101578102Y-71718024D01*
X101578099Y-71718025D01*
X101450743Y-71765526D01*
X101323380Y-71813030D01*
X101084792Y-71943309D01*
X101084791Y-71943310D01*
X100867159Y-72106228D01*
X100867147Y-72106238D01*
X100674938Y-72298447D01*
X100674928Y-72298459D01*
X100512010Y-72516091D01*
X100512009Y-72516092D01*
X100381730Y-72754680D01*
X100334226Y-72882043D01*
X100286725Y-73009399D01*
X100286724Y-73009402D01*
X100286723Y-73009406D01*
X100228940Y-73275032D01*
X100228939Y-73275039D01*
X100209545Y-73546198D01*
X99015399Y-73546198D01*
X99015399Y-72206840D01*
X99015399Y-72206839D01*
X99015399Y-72206836D01*
X98999946Y-72089446D01*
X98999944Y-72089439D01*
X98999944Y-72089438D01*
X98939436Y-71943359D01*
X98843182Y-71817918D01*
X98749012Y-71745659D01*
X98707811Y-71689232D01*
X98700500Y-71647284D01*
X98700500Y-67000000D01*
X108894592Y-67000000D01*
X108914201Y-67286680D01*
X108972666Y-67568034D01*
X108972667Y-67568037D01*
X109068894Y-67838793D01*
X109068893Y-67838793D01*
X109201098Y-68093935D01*
X109366812Y-68328700D01*
X109399225Y-68363405D01*
X109562947Y-68538708D01*
X109596173Y-68565739D01*
X109785853Y-68720055D01*
X110031382Y-68869365D01*
X110218237Y-68950526D01*
X110294942Y-68983844D01*
X110571642Y-69061371D01*
X110821920Y-69095771D01*
X110856321Y-69100500D01*
X110856322Y-69100500D01*
X111143679Y-69100500D01*
X111174370Y-69096281D01*
X111428358Y-69061371D01*
X111705058Y-68983844D01*
X111818015Y-68934779D01*
X111968617Y-68869365D01*
X111968620Y-68869363D01*
X111968625Y-68869361D01*
X112214147Y-68720055D01*
X112437053Y-68538708D01*
X112633189Y-68328698D01*
X112798901Y-68093936D01*
X112931104Y-67838797D01*
X113027334Y-67568032D01*
X113085798Y-67286686D01*
X113090632Y-67216004D01*
X113114845Y-67150465D01*
X113126655Y-67136792D01*
X113213449Y-67049998D01*
X121044390Y-67049998D01*
X121044390Y-67050001D01*
X121064804Y-67335433D01*
X121125628Y-67615037D01*
X121225635Y-67883166D01*
X121362770Y-68134309D01*
X121362775Y-68134317D01*
X121534254Y-68363387D01*
X121534270Y-68363405D01*
X121736594Y-68565729D01*
X121736612Y-68565745D01*
X121965682Y-68737224D01*
X121965690Y-68737229D01*
X122216833Y-68874364D01*
X122216832Y-68874364D01*
X122216836Y-68874365D01*
X122216839Y-68874367D01*
X122484954Y-68974369D01*
X122484960Y-68974370D01*
X122484962Y-68974371D01*
X122764566Y-69035195D01*
X122764568Y-69035195D01*
X122764572Y-69035196D01*
X123018220Y-69053337D01*
X123049999Y-69055610D01*
X123050000Y-69055610D01*
X123050001Y-69055610D01*
X123078595Y-69053564D01*
X123335428Y-69035196D01*
X123615046Y-68974369D01*
X123883161Y-68874367D01*
X124134315Y-68737226D01*
X124363395Y-68565739D01*
X124565739Y-68363395D01*
X124737226Y-68134315D01*
X124874367Y-67883161D01*
X124974369Y-67615046D01*
X125035196Y-67335428D01*
X125055610Y-67050000D01*
X125035196Y-66764572D01*
X124974369Y-66484954D01*
X124874367Y-66216839D01*
X124843987Y-66161203D01*
X124737229Y-65965690D01*
X124737224Y-65965682D01*
X124565745Y-65736612D01*
X124565729Y-65736594D01*
X124363405Y-65534270D01*
X124363387Y-65534254D01*
X124134317Y-65362775D01*
X124134309Y-65362770D01*
X123883166Y-65225635D01*
X123883167Y-65225635D01*
X123775915Y-65185632D01*
X123615046Y-65125631D01*
X123615043Y-65125630D01*
X123615037Y-65125628D01*
X123335433Y-65064804D01*
X123050001Y-65044390D01*
X123049999Y-65044390D01*
X122764566Y-65064804D01*
X122484962Y-65125628D01*
X122216833Y-65225635D01*
X121965690Y-65362770D01*
X121965682Y-65362775D01*
X121736612Y-65534254D01*
X121736594Y-65534270D01*
X121534270Y-65736594D01*
X121534254Y-65736612D01*
X121362775Y-65965682D01*
X121362770Y-65965690D01*
X121225635Y-66216833D01*
X121125628Y-66484962D01*
X121064804Y-66764566D01*
X121044390Y-67049998D01*
X113213449Y-67049998D01*
X118626630Y-61636819D01*
X118687953Y-61603334D01*
X118714311Y-61600500D01*
X124800811Y-61600500D01*
X124837360Y-61606008D01*
X125020542Y-61662513D01*
X125272565Y-61700500D01*
X125527435Y-61700500D01*
X125779458Y-61662513D01*
X126023004Y-61587389D01*
X126252634Y-61476805D01*
X126463217Y-61333232D01*
X126650050Y-61159877D01*
X126808959Y-60960612D01*
X126936393Y-60739888D01*
X127029508Y-60502637D01*
X127086222Y-60254157D01*
X127105268Y-60000000D01*
X127086222Y-59745843D01*
X127029508Y-59497363D01*
X127009072Y-59445293D01*
X127000500Y-59399991D01*
X127000500Y-57166538D01*
X137807000Y-57166538D01*
X137807000Y-57418461D01*
X137846410Y-57667285D01*
X137924260Y-57906883D01*
X138038632Y-58131348D01*
X138186701Y-58335149D01*
X138186705Y-58335154D01*
X138364845Y-58513294D01*
X138364850Y-58513298D01*
X138527033Y-58631130D01*
X138568655Y-58661370D01*
X138685256Y-58720781D01*
X138793116Y-58775739D01*
X138793118Y-58775739D01*
X138793121Y-58775741D01*
X139032715Y-58853590D01*
X139281538Y-58893000D01*
X139281539Y-58893000D01*
X139833461Y-58893000D01*
X139833462Y-58893000D01*
X140082285Y-58853590D01*
X140321879Y-58775741D01*
X140546345Y-58661370D01*
X140750156Y-58513293D01*
X140928293Y-58335156D01*
X141076370Y-58131345D01*
X141190741Y-57906879D01*
X141268590Y-57667285D01*
X141308000Y-57418462D01*
X141308000Y-57166538D01*
X141268590Y-56917715D01*
X141190741Y-56678121D01*
X141190739Y-56678118D01*
X141190739Y-56678116D01*
X141149247Y-56596684D01*
X141076370Y-56453655D01*
X141057452Y-56427617D01*
X140930692Y-56253145D01*
X145607000Y-56253145D01*
X145607000Y-58331863D01*
X145622453Y-58449253D01*
X145622456Y-58449262D01*
X145648978Y-58513293D01*
X145682964Y-58595341D01*
X145779218Y-58720782D01*
X145904659Y-58817036D01*
X146050738Y-58877544D01*
X146168139Y-58893000D01*
X148546860Y-58892999D01*
X148546863Y-58892999D01*
X148664253Y-58877546D01*
X148664257Y-58877544D01*
X148664262Y-58877544D01*
X148810341Y-58817036D01*
X148935782Y-58720782D01*
X149032036Y-58595341D01*
X149092544Y-58449262D01*
X149108000Y-58331861D01*
X149107999Y-56253140D01*
X149107999Y-56253139D01*
X149107999Y-56253136D01*
X149092546Y-56135746D01*
X149092544Y-56135739D01*
X149092544Y-56135738D01*
X149032036Y-55989659D01*
X148935782Y-55864218D01*
X148810341Y-55767964D01*
X148669510Y-55709630D01*
X148664262Y-55707456D01*
X148664260Y-55707455D01*
X148546870Y-55692001D01*
X148546867Y-55692000D01*
X148546861Y-55692000D01*
X148546854Y-55692000D01*
X146168136Y-55692000D01*
X146050746Y-55707453D01*
X146050737Y-55707456D01*
X145904660Y-55767963D01*
X145779218Y-55864218D01*
X145682963Y-55989660D01*
X145622456Y-56135737D01*
X145622455Y-56135739D01*
X145607433Y-56249850D01*
X145607001Y-56253136D01*
X145607000Y-56253145D01*
X140930692Y-56253145D01*
X140928298Y-56249850D01*
X140928294Y-56249845D01*
X140750154Y-56071705D01*
X140750149Y-56071701D01*
X140546348Y-55923632D01*
X140546347Y-55923631D01*
X140546345Y-55923630D01*
X140476247Y-55887913D01*
X140321883Y-55809260D01*
X140082285Y-55731410D01*
X139833462Y-55692000D01*
X139281538Y-55692000D01*
X139170164Y-55709640D01*
X139032714Y-55731410D01*
X138793116Y-55809260D01*
X138568651Y-55923632D01*
X138364850Y-56071701D01*
X138364845Y-56071705D01*
X138186705Y-56249845D01*
X138186701Y-56249850D01*
X138038632Y-56453651D01*
X137924260Y-56678116D01*
X137846410Y-56917714D01*
X137807000Y-57166538D01*
X127000500Y-57166538D01*
X127000500Y-55600009D01*
X127009072Y-55554706D01*
X127029508Y-55502637D01*
X127086222Y-55254157D01*
X127105268Y-55000000D01*
X127086222Y-54745843D01*
X127029508Y-54497363D01*
X126936393Y-54260112D01*
X126808959Y-54039388D01*
X126650050Y-53840123D01*
X126463217Y-53666768D01*
X126252634Y-53523195D01*
X126252630Y-53523193D01*
X126252627Y-53523191D01*
X126252626Y-53523190D01*
X126023006Y-53412612D01*
X126023008Y-53412612D01*
X125779466Y-53337489D01*
X125779462Y-53337488D01*
X125779458Y-53337487D01*
X125658231Y-53319214D01*
X125527440Y-53299500D01*
X125527435Y-53299500D01*
X125272565Y-53299500D01*
X125272559Y-53299500D01*
X125115609Y-53323157D01*
X125020542Y-53337487D01*
X125020539Y-53337488D01*
X125020533Y-53337489D01*
X124776992Y-53412612D01*
X124547373Y-53523190D01*
X124547372Y-53523191D01*
X124336782Y-53666768D01*
X124149952Y-53840121D01*
X124149950Y-53840123D01*
X123991041Y-54039388D01*
X123863608Y-54260109D01*
X123770492Y-54497362D01*
X123770490Y-54497369D01*
X123713777Y-54745845D01*
X123694732Y-54999995D01*
X123694732Y-55000004D01*
X123713777Y-55254154D01*
X123770490Y-55502630D01*
X123770492Y-55502637D01*
X123790928Y-55554706D01*
X123799500Y-55600009D01*
X123799500Y-58275500D01*
X123779815Y-58342539D01*
X123727011Y-58388294D01*
X123675500Y-58399500D01*
X117874038Y-58399500D01*
X117749626Y-58419205D01*
X117625214Y-58438910D01*
X117385616Y-58516760D01*
X117161154Y-58631130D01*
X117119537Y-58661367D01*
X116962115Y-58775741D01*
X116962111Y-58775744D01*
X116957350Y-58779201D01*
X116957339Y-58779211D01*
X110863465Y-64873084D01*
X110802142Y-64906569D01*
X110792670Y-64908248D01*
X110571639Y-64938629D01*
X110371040Y-64994834D01*
X110294942Y-65016156D01*
X110294939Y-65016156D01*
X110294936Y-65016158D01*
X110294935Y-65016158D01*
X110031382Y-65130634D01*
X109785853Y-65279944D01*
X109562950Y-65461289D01*
X109366812Y-65671299D01*
X109201098Y-65906064D01*
X109068894Y-66161206D01*
X108972667Y-66431962D01*
X108972666Y-66431965D01*
X108914201Y-66713319D01*
X108894592Y-67000000D01*
X98700500Y-67000000D01*
X98700500Y-63161132D01*
X98715667Y-63101707D01*
X98833172Y-62886513D01*
X98928175Y-62631801D01*
X98985961Y-62366160D01*
X99005355Y-62095000D01*
X98985961Y-61823840D01*
X98928175Y-61558199D01*
X98833172Y-61303487D01*
X98833170Y-61303484D01*
X98833169Y-61303480D01*
X98702890Y-61064892D01*
X98702889Y-61064891D01*
X98702887Y-61064887D01*
X98539971Y-60847258D01*
X98539966Y-60847253D01*
X98539961Y-60847247D01*
X98448359Y-60755645D01*
X100199500Y-60755645D01*
X100199500Y-63434363D01*
X100214953Y-63551753D01*
X100214956Y-63551762D01*
X100275464Y-63697841D01*
X100371718Y-63823282D01*
X100497159Y-63919536D01*
X100643238Y-63980044D01*
X100760639Y-63995500D01*
X103439360Y-63995499D01*
X103439363Y-63995499D01*
X103556753Y-63980046D01*
X103556757Y-63980044D01*
X103556762Y-63980044D01*
X103702841Y-63919536D01*
X103828282Y-63823282D01*
X103889106Y-63744013D01*
X103945534Y-63702811D01*
X103987482Y-63695500D01*
X105630961Y-63695500D01*
X105630962Y-63695500D01*
X105879785Y-63656090D01*
X106119379Y-63578241D01*
X106343845Y-63463870D01*
X106547656Y-63315793D01*
X106725793Y-63137656D01*
X108126630Y-61736819D01*
X108187953Y-61703334D01*
X108214311Y-61700500D01*
X108221016Y-61700500D01*
X108256459Y-61698039D01*
X108309630Y-61694349D01*
X108309636Y-61694347D01*
X108309640Y-61694347D01*
X108517176Y-61645534D01*
X108517174Y-61645534D01*
X108517185Y-61645532D01*
X108712237Y-61559409D01*
X108888142Y-61438911D01*
X109038911Y-61288142D01*
X109159409Y-61112237D01*
X109245532Y-60917185D01*
X109261981Y-60847247D01*
X109294347Y-60709640D01*
X109294347Y-60709636D01*
X109294349Y-60709630D01*
X109300500Y-60621012D01*
X109300500Y-59378988D01*
X109294349Y-59290370D01*
X109294347Y-59290364D01*
X109294347Y-59290359D01*
X109245533Y-59082820D01*
X109245532Y-59082815D01*
X109211065Y-59004753D01*
X109200500Y-58954668D01*
X109200500Y-56045329D01*
X109211065Y-55995244D01*
X109245532Y-55917185D01*
X109280629Y-55767963D01*
X109294347Y-55709640D01*
X109294347Y-55709636D01*
X109294349Y-55709630D01*
X109300500Y-55621012D01*
X109300500Y-54378988D01*
X109294349Y-54290370D01*
X109294347Y-54290364D01*
X109294347Y-54290359D01*
X109245534Y-54082823D01*
X109245532Y-54082817D01*
X109245532Y-54082815D01*
X109159409Y-53887763D01*
X109038911Y-53711858D01*
X109038906Y-53711852D01*
X108888147Y-53561093D01*
X108888141Y-53561088D01*
X108712238Y-53440592D01*
X108712239Y-53440592D01*
X108712237Y-53440591D01*
X108517185Y-53354468D01*
X108517183Y-53354467D01*
X108517182Y-53354467D01*
X108517176Y-53354465D01*
X108309640Y-53305652D01*
X108309624Y-53305650D01*
X108221016Y-53299500D01*
X108221012Y-53299500D01*
X106978988Y-53299500D01*
X106978984Y-53299500D01*
X106890375Y-53305650D01*
X106890359Y-53305652D01*
X106682823Y-53354465D01*
X106682817Y-53354467D01*
X106487761Y-53440592D01*
X106311858Y-53561088D01*
X106311852Y-53561093D01*
X106161093Y-53711852D01*
X106161088Y-53711858D01*
X106040592Y-53887761D01*
X105954467Y-54082817D01*
X105954465Y-54082823D01*
X105905652Y-54290359D01*
X105905650Y-54290375D01*
X105899500Y-54378984D01*
X105899500Y-55621015D01*
X105905650Y-55709624D01*
X105905652Y-55709640D01*
X105954465Y-55917176D01*
X105954468Y-55917187D01*
X105975780Y-55965453D01*
X105988934Y-55995244D01*
X105999500Y-56045329D01*
X105999500Y-58954668D01*
X105988935Y-59004753D01*
X105954466Y-59082820D01*
X105905652Y-59290359D01*
X105905650Y-59290375D01*
X105899500Y-59378984D01*
X105899500Y-59385689D01*
X105879815Y-59452728D01*
X105863181Y-59473370D01*
X104878370Y-60458181D01*
X104817047Y-60491666D01*
X104790689Y-60494500D01*
X103987482Y-60494500D01*
X103920443Y-60474815D01*
X103889106Y-60445986D01*
X103828283Y-60366719D01*
X103828282Y-60366718D01*
X103702841Y-60270464D01*
X103663472Y-60254157D01*
X103556762Y-60209956D01*
X103556760Y-60209955D01*
X103439370Y-60194501D01*
X103439367Y-60194500D01*
X103439361Y-60194500D01*
X103439354Y-60194500D01*
X100760636Y-60194500D01*
X100643246Y-60209953D01*
X100643237Y-60209956D01*
X100497160Y-60270463D01*
X100371718Y-60366718D01*
X100275463Y-60492160D01*
X100214956Y-60638237D01*
X100214955Y-60638239D01*
X100199501Y-60755629D01*
X100199500Y-60755645D01*
X98448359Y-60755645D01*
X98347752Y-60655038D01*
X98347746Y-60655033D01*
X98347742Y-60655029D01*
X98130113Y-60492113D01*
X98130108Y-60492110D01*
X98130107Y-60492109D01*
X97891518Y-60361830D01*
X97891519Y-60361830D01*
X97841920Y-60343330D01*
X97636801Y-60266825D01*
X97636794Y-60266823D01*
X97636793Y-60266823D01*
X97371167Y-60209040D01*
X97371160Y-60209039D01*
X97100001Y-60189645D01*
X97099999Y-60189645D01*
X96828839Y-60209039D01*
X96828832Y-60209040D01*
X96563206Y-60266823D01*
X96563202Y-60266824D01*
X96563199Y-60266825D01*
X96435843Y-60314326D01*
X96308480Y-60361830D01*
X96069892Y-60492109D01*
X96069891Y-60492110D01*
X95852259Y-60655028D01*
X95852247Y-60655038D01*
X95660038Y-60847247D01*
X95660028Y-60847259D01*
X95497110Y-61064891D01*
X95497109Y-61064892D01*
X95366830Y-61303480D01*
X95319326Y-61430843D01*
X95271825Y-61558199D01*
X95271824Y-61558202D01*
X95271823Y-61558206D01*
X95214040Y-61823832D01*
X95214039Y-61823839D01*
X95194645Y-62094998D01*
X91000500Y-62094998D01*
X91000500Y-49868872D01*
X93249500Y-49868872D01*
X93249500Y-50131127D01*
X93276123Y-50333339D01*
X93283730Y-50391116D01*
X93343399Y-50613803D01*
X93351602Y-50644418D01*
X93351605Y-50644428D01*
X93451953Y-50886690D01*
X93451958Y-50886700D01*
X93583075Y-51113803D01*
X93742718Y-51321851D01*
X93742726Y-51321860D01*
X93928140Y-51507274D01*
X93928148Y-51507281D01*
X94136196Y-51666924D01*
X94363299Y-51798041D01*
X94363309Y-51798046D01*
X94605571Y-51898394D01*
X94605581Y-51898398D01*
X94858884Y-51966270D01*
X95118880Y-52000500D01*
X95118887Y-52000500D01*
X95381113Y-52000500D01*
X95381120Y-52000500D01*
X95641116Y-51966270D01*
X95894419Y-51898398D01*
X96136697Y-51798043D01*
X96363803Y-51666924D01*
X96571851Y-51507282D01*
X96571855Y-51507277D01*
X96571860Y-51507274D01*
X96757274Y-51321860D01*
X96757277Y-51321855D01*
X96757282Y-51321851D01*
X96916924Y-51113803D01*
X97048043Y-50886697D01*
X97148398Y-50644419D01*
X97216270Y-50391116D01*
X97250500Y-50131120D01*
X97250500Y-49868880D01*
X97216270Y-49608884D01*
X97151959Y-49368872D01*
X152999500Y-49368872D01*
X152999500Y-49631127D01*
X153026123Y-49833339D01*
X153033730Y-49891116D01*
X153101602Y-50144418D01*
X153101605Y-50144428D01*
X153201953Y-50386690D01*
X153201958Y-50386700D01*
X153333075Y-50613803D01*
X153492718Y-50821851D01*
X153492726Y-50821860D01*
X153678140Y-51007274D01*
X153678148Y-51007281D01*
X153886196Y-51166924D01*
X154113299Y-51298041D01*
X154113309Y-51298046D01*
X154355571Y-51398394D01*
X154355581Y-51398398D01*
X154608884Y-51466270D01*
X154868880Y-51500500D01*
X154868887Y-51500500D01*
X155131113Y-51500500D01*
X155131120Y-51500500D01*
X155391116Y-51466270D01*
X155644419Y-51398398D01*
X155829198Y-51321860D01*
X155886690Y-51298046D01*
X155886691Y-51298045D01*
X155886697Y-51298043D01*
X156113803Y-51166924D01*
X156321851Y-51007282D01*
X156321855Y-51007277D01*
X156321860Y-51007274D01*
X156507274Y-50821860D01*
X156507277Y-50821855D01*
X156507282Y-50821851D01*
X156666924Y-50613803D01*
X156798043Y-50386697D01*
X156898398Y-50144419D01*
X156966270Y-49891116D01*
X157000500Y-49631120D01*
X157000500Y-49368880D01*
X156966270Y-49108884D01*
X156898398Y-48855581D01*
X156898394Y-48855571D01*
X156798046Y-48613309D01*
X156798041Y-48613299D01*
X156666924Y-48386196D01*
X156525551Y-48201957D01*
X156507282Y-48178149D01*
X156507281Y-48178148D01*
X156507274Y-48178140D01*
X156321860Y-47992726D01*
X156321851Y-47992718D01*
X156113803Y-47833075D01*
X155886700Y-47701958D01*
X155886690Y-47701953D01*
X155644428Y-47601605D01*
X155644421Y-47601603D01*
X155644419Y-47601602D01*
X155391116Y-47533730D01*
X155333339Y-47526123D01*
X155131127Y-47499500D01*
X155131120Y-47499500D01*
X154868880Y-47499500D01*
X154868872Y-47499500D01*
X154637772Y-47529926D01*
X154608884Y-47533730D01*
X154355581Y-47601602D01*
X154355571Y-47601605D01*
X154113309Y-47701953D01*
X154113299Y-47701958D01*
X153886196Y-47833075D01*
X153678148Y-47992718D01*
X153492718Y-48178148D01*
X153333075Y-48386196D01*
X153201958Y-48613299D01*
X153201953Y-48613309D01*
X153101605Y-48855571D01*
X153101602Y-48855581D01*
X153033730Y-49108884D01*
X153029926Y-49137772D01*
X152999500Y-49368872D01*
X97151959Y-49368872D01*
X97148398Y-49355581D01*
X97148394Y-49355571D01*
X97048046Y-49113309D01*
X97048041Y-49113299D01*
X96916924Y-48886196D01*
X96757281Y-48678148D01*
X96757274Y-48678140D01*
X96571860Y-48492726D01*
X96571851Y-48492718D01*
X96363803Y-48333075D01*
X96136700Y-48201958D01*
X96136690Y-48201953D01*
X95894428Y-48101605D01*
X95894421Y-48101603D01*
X95894419Y-48101602D01*
X95641116Y-48033730D01*
X95583339Y-48026123D01*
X95381127Y-47999500D01*
X95381120Y-47999500D01*
X95118880Y-47999500D01*
X95118872Y-47999500D01*
X94887772Y-48029926D01*
X94858884Y-48033730D01*
X94605581Y-48101602D01*
X94605571Y-48101605D01*
X94363309Y-48201953D01*
X94363299Y-48201958D01*
X94136196Y-48333075D01*
X93928148Y-48492718D01*
X93742718Y-48678148D01*
X93583075Y-48886196D01*
X93451958Y-49113299D01*
X93451953Y-49113309D01*
X93351605Y-49355571D01*
X93351602Y-49355581D01*
X93283730Y-49608885D01*
X93249500Y-49868872D01*
X91000500Y-49868872D01*
X91000500Y-45624500D01*
X91020185Y-45557461D01*
X91072989Y-45511706D01*
X91124500Y-45500500D01*
X158875500Y-45500500D01*
X158942539Y-45520185D01*
G37*
%TD.AperFunction*%
%TD*%
M02*
