M48
; DRILL file {KiCad 8.0.7} date 2025-02-06T20:11:12-0800
; FORMAT={-:-/ absolute / inch / decimal}
; #@! TF.CreationDate,2025-02-06T20:11:12-08:00
; #@! TF.GenerationSoftware,Kicad,Pcbnew,8.0.7
; #@! TF.FileFunction,MixedPlating,1,2
FMAT,2
INCH
; #@! TA.AperFunction,Plated,PTH,ComponentDrill
T1C0.0276
; #@! TA.AperFunction,Plated,PTH,ComponentDrill
T2C0.0295
; #@! TA.AperFunction,Plated,PTH,ComponentDrill
T3C0.0300
; #@! TA.AperFunction,Plated,PTH,ComponentDrill
T4C0.0315
; #@! TA.AperFunction,Plated,PTH,ComponentDrill
T5C0.0354
; #@! TA.AperFunction,Plated,PTH,ComponentDrill
T6C0.0394
; #@! TA.AperFunction,Plated,PTH,ComponentDrill
T7C0.0461
; #@! TA.AperFunction,Plated,PTH,ComponentDrill
T8C0.0472
; #@! TA.AperFunction,Plated,PTH,ComponentDrill
T9C0.0512
; #@! TA.AperFunction,NonPlated,NPTH,ComponentDrill
T10C0.1378
%
G90
G05
T1
X4.0945Y-4.5669
X4.0945Y-4.6654
X4.2126Y-3.9567
X4.2126Y-4.0551
X4.2126Y-4.1634
X4.2126Y-4.2618
T2
X4.872Y-3.3843
X4.872Y-3.4843
X4.922Y-3.4343
T3
X3.6732Y-3.7933
X3.6732Y-4.435
X3.9567Y-3.7933
X3.9567Y-4.435
T4
X3.6654Y-3.1677
X3.6654Y-3.2677
X3.6654Y-3.376
X3.6654Y-3.476
X3.6654Y-3.5888
X3.6654Y-3.6888
X4.0945Y-3.7772
X4.0945Y-4.0772
X4.0945Y-4.161
X4.0945Y-4.461
X4.0945Y-4.7713
X4.0945Y-5.0713
X4.1614Y-3.1654
X4.1614Y-3.2654
X4.1614Y-3.376
X4.1614Y-3.476
X4.1614Y-3.5833
X4.1614Y-3.6833
X4.2126Y-4.3579
X4.2126Y-4.6579
X4.2126Y-4.7516
X4.2126Y-5.0516
X4.3472Y-3.563
X4.6472Y-3.563
X4.7244Y-3.7008
X4.7244Y-3.7992
X4.7319Y-4.311
X4.9213Y-3.622
X4.9213Y-3.7008
X5.0319Y-4.311
X5.1256Y-4.311
X5.4256Y-4.311
T5
X4.3579Y-3.4252
X4.6579Y-3.4252
T6
X4.372Y-3.1201
X4.5283Y-4.1535
X4.5283Y-4.9535
X4.6283Y-4.1535
X4.6283Y-4.9535
X4.7283Y-4.1535
X4.7283Y-4.9535
X4.8283Y-4.1535
X4.8283Y-4.9535
X4.8445Y-3.1201
X4.9283Y-4.1535
X4.9283Y-4.9535
X5.0283Y-4.1535
X5.0283Y-4.9535
X5.1283Y-4.1535
X5.1283Y-4.9535
X5.2283Y-4.1535
X5.2283Y-4.9535
X5.3283Y-4.1535
X5.3283Y-4.9535
X5.4283Y-4.1535
X5.4283Y-4.9535
X5.5283Y-4.1535
X5.5283Y-4.9535
X5.6283Y-4.1535
X5.6283Y-4.9535
X5.7283Y-4.1535
X5.8283Y-4.1535
X5.9283Y-4.1535
X6.0283Y-4.1535
T7
X4.2362Y-2.1654
X4.2362Y-2.3622
X4.937Y-2.1654
X4.937Y-2.3622
T8
X3.8233Y-4.6452
X3.8233Y-5.1097
T9
X3.8228Y-2.4447
X3.8234Y-2.8955
X4.0197Y-2.4447
X4.0203Y-2.8955
X4.3701Y-2.6378
X4.6063Y-3.1969
X4.8445Y-2.6398
X5.2031Y-3.9288
X5.4944Y-2.2556
X5.8015Y-2.2556
X6.0928Y-3.9288
T10
X3.75Y-1.9685
X4.4094Y-5.0984
X6.1024Y-1.9488
X6.1024Y-5.0984
M30
