%TF.GenerationSoftware,KiCad,Pcbnew,8.0.7*%
%TF.CreationDate,2025-02-06T20:11:24-08:00*%
%TF.ProjectId,Mains_monitor,4d61696e-735f-46d6-9f6e-69746f722e6b,rev?*%
%TF.SameCoordinates,Original*%
%TF.FileFunction,Legend,Top*%
%TF.FilePolarity,Positive*%
%FSLAX46Y46*%
G04 Gerber Fmt 4.6, Leading zero omitted, Abs format (unit mm)*
G04 Created by KiCad (PCBNEW 8.0.7) date 2025-02-06 20:11:24*
%MOMM*%
%LPD*%
G01*
G04 APERTURE LIST*
%ADD10C,0.100000*%
%ADD11C,0.150000*%
%ADD12C,0.120000*%
G04 APERTURE END LIST*
D10*
X92322480Y-68653884D02*
X93322480Y-68653884D01*
X93322480Y-68653884D02*
X92322480Y-69225312D01*
X92322480Y-69225312D02*
X93322480Y-69225312D01*
X92227242Y-69463408D02*
X92227242Y-70225312D01*
X92322480Y-70606265D02*
X92370100Y-70511027D01*
X92370100Y-70511027D02*
X92417719Y-70463408D01*
X92417719Y-70463408D02*
X92512957Y-70415789D01*
X92512957Y-70415789D02*
X92798671Y-70415789D01*
X92798671Y-70415789D02*
X92893909Y-70463408D01*
X92893909Y-70463408D02*
X92941528Y-70511027D01*
X92941528Y-70511027D02*
X92989147Y-70606265D01*
X92989147Y-70606265D02*
X92989147Y-70749122D01*
X92989147Y-70749122D02*
X92941528Y-70844360D01*
X92941528Y-70844360D02*
X92893909Y-70891979D01*
X92893909Y-70891979D02*
X92798671Y-70939598D01*
X92798671Y-70939598D02*
X92512957Y-70939598D01*
X92512957Y-70939598D02*
X92417719Y-70891979D01*
X92417719Y-70891979D02*
X92370100Y-70844360D01*
X92370100Y-70844360D02*
X92322480Y-70749122D01*
X92322480Y-70749122D02*
X92322480Y-70606265D01*
X92989147Y-71796741D02*
X92322480Y-71796741D01*
X92989147Y-71368170D02*
X92465338Y-71368170D01*
X92465338Y-71368170D02*
X92370100Y-71415789D01*
X92370100Y-71415789D02*
X92322480Y-71511027D01*
X92322480Y-71511027D02*
X92322480Y-71653884D01*
X92322480Y-71653884D02*
X92370100Y-71749122D01*
X92370100Y-71749122D02*
X92417719Y-71796741D01*
X92989147Y-72130075D02*
X92989147Y-72511027D01*
X93322480Y-72272932D02*
X92465338Y-72272932D01*
X92465338Y-72272932D02*
X92370100Y-72320551D01*
X92370100Y-72320551D02*
X92322480Y-72415789D01*
X92322480Y-72415789D02*
X92322480Y-72511027D01*
X95803884Y-55372419D02*
X95803884Y-54372419D01*
X95803884Y-54372419D02*
X96375312Y-55372419D01*
X96375312Y-55372419D02*
X96375312Y-54372419D01*
X96613408Y-55467657D02*
X97375312Y-55467657D01*
X97613408Y-55372419D02*
X97613408Y-54705752D01*
X97613408Y-54372419D02*
X97565789Y-54420038D01*
X97565789Y-54420038D02*
X97613408Y-54467657D01*
X97613408Y-54467657D02*
X97661027Y-54420038D01*
X97661027Y-54420038D02*
X97613408Y-54372419D01*
X97613408Y-54372419D02*
X97613408Y-54467657D01*
X98089598Y-54705752D02*
X98089598Y-55372419D01*
X98089598Y-54800990D02*
X98137217Y-54753371D01*
X98137217Y-54753371D02*
X98232455Y-54705752D01*
X98232455Y-54705752D02*
X98375312Y-54705752D01*
X98375312Y-54705752D02*
X98470550Y-54753371D01*
X98470550Y-54753371D02*
X98518169Y-54848609D01*
X98518169Y-54848609D02*
X98518169Y-55372419D01*
X105677580Y-68653884D02*
X106677580Y-68653884D01*
X106201390Y-68653884D02*
X106201390Y-69225312D01*
X105677580Y-69225312D02*
X106677580Y-69225312D01*
X105582342Y-69463408D02*
X105582342Y-70225312D01*
X105677580Y-70606265D02*
X105725200Y-70511027D01*
X105725200Y-70511027D02*
X105772819Y-70463408D01*
X105772819Y-70463408D02*
X105868057Y-70415789D01*
X105868057Y-70415789D02*
X106153771Y-70415789D01*
X106153771Y-70415789D02*
X106249009Y-70463408D01*
X106249009Y-70463408D02*
X106296628Y-70511027D01*
X106296628Y-70511027D02*
X106344247Y-70606265D01*
X106344247Y-70606265D02*
X106344247Y-70749122D01*
X106344247Y-70749122D02*
X106296628Y-70844360D01*
X106296628Y-70844360D02*
X106249009Y-70891979D01*
X106249009Y-70891979D02*
X106153771Y-70939598D01*
X106153771Y-70939598D02*
X105868057Y-70939598D01*
X105868057Y-70939598D02*
X105772819Y-70891979D01*
X105772819Y-70891979D02*
X105725200Y-70844360D01*
X105725200Y-70844360D02*
X105677580Y-70749122D01*
X105677580Y-70749122D02*
X105677580Y-70606265D01*
X106344247Y-71796741D02*
X105677580Y-71796741D01*
X106344247Y-71368170D02*
X105820438Y-71368170D01*
X105820438Y-71368170D02*
X105725200Y-71415789D01*
X105725200Y-71415789D02*
X105677580Y-71511027D01*
X105677580Y-71511027D02*
X105677580Y-71653884D01*
X105677580Y-71653884D02*
X105725200Y-71749122D01*
X105725200Y-71749122D02*
X105772819Y-71796741D01*
X106344247Y-72130075D02*
X106344247Y-72511027D01*
X106677580Y-72272932D02*
X105820438Y-72272932D01*
X105820438Y-72272932D02*
X105725200Y-72320551D01*
X105725200Y-72320551D02*
X105677580Y-72415789D01*
X105677580Y-72415789D02*
X105677580Y-72511027D01*
X101303884Y-55372419D02*
X101303884Y-54372419D01*
X101303884Y-54848609D02*
X101875312Y-54848609D01*
X101875312Y-55372419D02*
X101875312Y-54372419D01*
X102113408Y-55467657D02*
X102875312Y-55467657D01*
X103113408Y-55372419D02*
X103113408Y-54705752D01*
X103113408Y-54372419D02*
X103065789Y-54420038D01*
X103065789Y-54420038D02*
X103113408Y-54467657D01*
X103113408Y-54467657D02*
X103161027Y-54420038D01*
X103161027Y-54420038D02*
X103113408Y-54372419D01*
X103113408Y-54372419D02*
X103113408Y-54467657D01*
X103589598Y-54705752D02*
X103589598Y-55372419D01*
X103589598Y-54800990D02*
X103637217Y-54753371D01*
X103637217Y-54753371D02*
X103732455Y-54705752D01*
X103732455Y-54705752D02*
X103875312Y-54705752D01*
X103875312Y-54705752D02*
X103970550Y-54753371D01*
X103970550Y-54753371D02*
X104018169Y-54848609D01*
X104018169Y-54848609D02*
X104018169Y-55372419D01*
D11*
X127860057Y-87325238D02*
X127812438Y-87420476D01*
X127812438Y-87420476D02*
X127717200Y-87515714D01*
X127717200Y-87515714D02*
X127574342Y-87658571D01*
X127574342Y-87658571D02*
X127526723Y-87753809D01*
X127526723Y-87753809D02*
X127526723Y-87849047D01*
X127764819Y-87801428D02*
X127717200Y-87896666D01*
X127717200Y-87896666D02*
X127621961Y-87991904D01*
X127621961Y-87991904D02*
X127431485Y-88039523D01*
X127431485Y-88039523D02*
X127098152Y-88039523D01*
X127098152Y-88039523D02*
X126907676Y-87991904D01*
X126907676Y-87991904D02*
X126812438Y-87896666D01*
X126812438Y-87896666D02*
X126764819Y-87801428D01*
X126764819Y-87801428D02*
X126764819Y-87610952D01*
X126764819Y-87610952D02*
X126812438Y-87515714D01*
X126812438Y-87515714D02*
X126907676Y-87420476D01*
X126907676Y-87420476D02*
X127098152Y-87372857D01*
X127098152Y-87372857D02*
X127431485Y-87372857D01*
X127431485Y-87372857D02*
X127621961Y-87420476D01*
X127621961Y-87420476D02*
X127717200Y-87515714D01*
X127717200Y-87515714D02*
X127764819Y-87610952D01*
X127764819Y-87610952D02*
X127764819Y-87801428D01*
X127764819Y-86420476D02*
X127764819Y-86991904D01*
X127764819Y-86706190D02*
X126764819Y-86706190D01*
X126764819Y-86706190D02*
X126907676Y-86801428D01*
X126907676Y-86801428D02*
X127002914Y-86896666D01*
X127002914Y-86896666D02*
X127050533Y-86991904D01*
X99416666Y-65204819D02*
X99416666Y-65919104D01*
X99416666Y-65919104D02*
X99369047Y-66061961D01*
X99369047Y-66061961D02*
X99273809Y-66157200D01*
X99273809Y-66157200D02*
X99130952Y-66204819D01*
X99130952Y-66204819D02*
X99035714Y-66204819D01*
X100416666Y-66204819D02*
X99845238Y-66204819D01*
X100130952Y-66204819D02*
X100130952Y-65204819D01*
X100130952Y-65204819D02*
X100035714Y-65347676D01*
X100035714Y-65347676D02*
X99940476Y-65442914D01*
X99940476Y-65442914D02*
X99845238Y-65490533D01*
X95924819Y-87662857D02*
X95448628Y-87996190D01*
X95924819Y-88234285D02*
X94924819Y-88234285D01*
X94924819Y-88234285D02*
X94924819Y-87853333D01*
X94924819Y-87853333D02*
X94972438Y-87758095D01*
X94972438Y-87758095D02*
X95020057Y-87710476D01*
X95020057Y-87710476D02*
X95115295Y-87662857D01*
X95115295Y-87662857D02*
X95258152Y-87662857D01*
X95258152Y-87662857D02*
X95353390Y-87710476D01*
X95353390Y-87710476D02*
X95401009Y-87758095D01*
X95401009Y-87758095D02*
X95448628Y-87853333D01*
X95448628Y-87853333D02*
X95448628Y-88234285D01*
X95924819Y-86710476D02*
X95924819Y-87281904D01*
X95924819Y-86996190D02*
X94924819Y-86996190D01*
X94924819Y-86996190D02*
X95067676Y-87091428D01*
X95067676Y-87091428D02*
X95162914Y-87186666D01*
X95162914Y-87186666D02*
X95210533Y-87281904D01*
X94924819Y-86377142D02*
X94924819Y-85758095D01*
X94924819Y-85758095D02*
X95305771Y-86091428D01*
X95305771Y-86091428D02*
X95305771Y-85948571D01*
X95305771Y-85948571D02*
X95353390Y-85853333D01*
X95353390Y-85853333D02*
X95401009Y-85805714D01*
X95401009Y-85805714D02*
X95496247Y-85758095D01*
X95496247Y-85758095D02*
X95734342Y-85758095D01*
X95734342Y-85758095D02*
X95829580Y-85805714D01*
X95829580Y-85805714D02*
X95877200Y-85853333D01*
X95877200Y-85853333D02*
X95924819Y-85948571D01*
X95924819Y-85948571D02*
X95924819Y-86234285D01*
X95924819Y-86234285D02*
X95877200Y-86329523D01*
X95877200Y-86329523D02*
X95829580Y-86377142D01*
X95924819Y-81896666D02*
X95448628Y-82229999D01*
X95924819Y-82468094D02*
X94924819Y-82468094D01*
X94924819Y-82468094D02*
X94924819Y-82087142D01*
X94924819Y-82087142D02*
X94972438Y-81991904D01*
X94972438Y-81991904D02*
X95020057Y-81944285D01*
X95020057Y-81944285D02*
X95115295Y-81896666D01*
X95115295Y-81896666D02*
X95258152Y-81896666D01*
X95258152Y-81896666D02*
X95353390Y-81944285D01*
X95353390Y-81944285D02*
X95401009Y-81991904D01*
X95401009Y-81991904D02*
X95448628Y-82087142D01*
X95448628Y-82087142D02*
X95448628Y-82468094D01*
X94924819Y-81039523D02*
X94924819Y-81229999D01*
X94924819Y-81229999D02*
X94972438Y-81325237D01*
X94972438Y-81325237D02*
X95020057Y-81372856D01*
X95020057Y-81372856D02*
X95162914Y-81468094D01*
X95162914Y-81468094D02*
X95353390Y-81515713D01*
X95353390Y-81515713D02*
X95734342Y-81515713D01*
X95734342Y-81515713D02*
X95829580Y-81468094D01*
X95829580Y-81468094D02*
X95877200Y-81420475D01*
X95877200Y-81420475D02*
X95924819Y-81325237D01*
X95924819Y-81325237D02*
X95924819Y-81134761D01*
X95924819Y-81134761D02*
X95877200Y-81039523D01*
X95877200Y-81039523D02*
X95829580Y-80991904D01*
X95829580Y-80991904D02*
X95734342Y-80944285D01*
X95734342Y-80944285D02*
X95496247Y-80944285D01*
X95496247Y-80944285D02*
X95401009Y-80991904D01*
X95401009Y-80991904D02*
X95353390Y-81039523D01*
X95353390Y-81039523D02*
X95305771Y-81134761D01*
X95305771Y-81134761D02*
X95305771Y-81325237D01*
X95305771Y-81325237D02*
X95353390Y-81420475D01*
X95353390Y-81420475D02*
X95401009Y-81468094D01*
X95401009Y-81468094D02*
X95496247Y-81515713D01*
X142285714Y-53204819D02*
X142285714Y-52204819D01*
X142285714Y-52204819D02*
X142666666Y-52204819D01*
X142666666Y-52204819D02*
X142761904Y-52252438D01*
X142761904Y-52252438D02*
X142809523Y-52300057D01*
X142809523Y-52300057D02*
X142857142Y-52395295D01*
X142857142Y-52395295D02*
X142857142Y-52538152D01*
X142857142Y-52538152D02*
X142809523Y-52633390D01*
X142809523Y-52633390D02*
X142761904Y-52681009D01*
X142761904Y-52681009D02*
X142666666Y-52728628D01*
X142666666Y-52728628D02*
X142285714Y-52728628D01*
X143238095Y-53157200D02*
X143380952Y-53204819D01*
X143380952Y-53204819D02*
X143619047Y-53204819D01*
X143619047Y-53204819D02*
X143714285Y-53157200D01*
X143714285Y-53157200D02*
X143761904Y-53109580D01*
X143761904Y-53109580D02*
X143809523Y-53014342D01*
X143809523Y-53014342D02*
X143809523Y-52919104D01*
X143809523Y-52919104D02*
X143761904Y-52823866D01*
X143761904Y-52823866D02*
X143714285Y-52776247D01*
X143714285Y-52776247D02*
X143619047Y-52728628D01*
X143619047Y-52728628D02*
X143428571Y-52681009D01*
X143428571Y-52681009D02*
X143333333Y-52633390D01*
X143333333Y-52633390D02*
X143285714Y-52585771D01*
X143285714Y-52585771D02*
X143238095Y-52490533D01*
X143238095Y-52490533D02*
X143238095Y-52395295D01*
X143238095Y-52395295D02*
X143285714Y-52300057D01*
X143285714Y-52300057D02*
X143333333Y-52252438D01*
X143333333Y-52252438D02*
X143428571Y-52204819D01*
X143428571Y-52204819D02*
X143666666Y-52204819D01*
X143666666Y-52204819D02*
X143809523Y-52252438D01*
X144761904Y-53204819D02*
X144190476Y-53204819D01*
X144476190Y-53204819D02*
X144476190Y-52204819D01*
X144476190Y-52204819D02*
X144380952Y-52347676D01*
X144380952Y-52347676D02*
X144285714Y-52442914D01*
X144285714Y-52442914D02*
X144190476Y-52490533D01*
X126654819Y-74838094D02*
X125654819Y-74838094D01*
X126654819Y-74266666D02*
X126083390Y-74695237D01*
X125654819Y-74266666D02*
X126226247Y-74838094D01*
X126654819Y-73314285D02*
X126654819Y-73885713D01*
X126654819Y-73599999D02*
X125654819Y-73599999D01*
X125654819Y-73599999D02*
X125797676Y-73695237D01*
X125797676Y-73695237D02*
X125892914Y-73790475D01*
X125892914Y-73790475D02*
X125940533Y-73885713D01*
X127359580Y-96666666D02*
X127407200Y-96714285D01*
X127407200Y-96714285D02*
X127454819Y-96857142D01*
X127454819Y-96857142D02*
X127454819Y-96952380D01*
X127454819Y-96952380D02*
X127407200Y-97095237D01*
X127407200Y-97095237D02*
X127311961Y-97190475D01*
X127311961Y-97190475D02*
X127216723Y-97238094D01*
X127216723Y-97238094D02*
X127026247Y-97285713D01*
X127026247Y-97285713D02*
X126883390Y-97285713D01*
X126883390Y-97285713D02*
X126692914Y-97238094D01*
X126692914Y-97238094D02*
X126597676Y-97190475D01*
X126597676Y-97190475D02*
X126502438Y-97095237D01*
X126502438Y-97095237D02*
X126454819Y-96952380D01*
X126454819Y-96952380D02*
X126454819Y-96857142D01*
X126454819Y-96857142D02*
X126502438Y-96714285D01*
X126502438Y-96714285D02*
X126550057Y-96666666D01*
X126454819Y-95761904D02*
X126454819Y-96238094D01*
X126454819Y-96238094D02*
X126931009Y-96285713D01*
X126931009Y-96285713D02*
X126883390Y-96238094D01*
X126883390Y-96238094D02*
X126835771Y-96142856D01*
X126835771Y-96142856D02*
X126835771Y-95904761D01*
X126835771Y-95904761D02*
X126883390Y-95809523D01*
X126883390Y-95809523D02*
X126931009Y-95761904D01*
X126931009Y-95761904D02*
X127026247Y-95714285D01*
X127026247Y-95714285D02*
X127264342Y-95714285D01*
X127264342Y-95714285D02*
X127359580Y-95761904D01*
X127359580Y-95761904D02*
X127407200Y-95809523D01*
X127407200Y-95809523D02*
X127454819Y-95904761D01*
X127454819Y-95904761D02*
X127454819Y-96142856D01*
X127454819Y-96142856D02*
X127407200Y-96238094D01*
X127407200Y-96238094D02*
X127359580Y-96285713D01*
X107359580Y-98416666D02*
X107407200Y-98464285D01*
X107407200Y-98464285D02*
X107454819Y-98607142D01*
X107454819Y-98607142D02*
X107454819Y-98702380D01*
X107454819Y-98702380D02*
X107407200Y-98845237D01*
X107407200Y-98845237D02*
X107311961Y-98940475D01*
X107311961Y-98940475D02*
X107216723Y-98988094D01*
X107216723Y-98988094D02*
X107026247Y-99035713D01*
X107026247Y-99035713D02*
X106883390Y-99035713D01*
X106883390Y-99035713D02*
X106692914Y-98988094D01*
X106692914Y-98988094D02*
X106597676Y-98940475D01*
X106597676Y-98940475D02*
X106502438Y-98845237D01*
X106502438Y-98845237D02*
X106454819Y-98702380D01*
X106454819Y-98702380D02*
X106454819Y-98607142D01*
X106454819Y-98607142D02*
X106502438Y-98464285D01*
X106502438Y-98464285D02*
X106550057Y-98416666D01*
X106550057Y-98035713D02*
X106502438Y-97988094D01*
X106502438Y-97988094D02*
X106454819Y-97892856D01*
X106454819Y-97892856D02*
X106454819Y-97654761D01*
X106454819Y-97654761D02*
X106502438Y-97559523D01*
X106502438Y-97559523D02*
X106550057Y-97511904D01*
X106550057Y-97511904D02*
X106645295Y-97464285D01*
X106645295Y-97464285D02*
X106740533Y-97464285D01*
X106740533Y-97464285D02*
X106883390Y-97511904D01*
X106883390Y-97511904D02*
X107454819Y-98083332D01*
X107454819Y-98083332D02*
X107454819Y-97464285D01*
X131583333Y-112204819D02*
X131250000Y-111728628D01*
X131011905Y-112204819D02*
X131011905Y-111204819D01*
X131011905Y-111204819D02*
X131392857Y-111204819D01*
X131392857Y-111204819D02*
X131488095Y-111252438D01*
X131488095Y-111252438D02*
X131535714Y-111300057D01*
X131535714Y-111300057D02*
X131583333Y-111395295D01*
X131583333Y-111395295D02*
X131583333Y-111538152D01*
X131583333Y-111538152D02*
X131535714Y-111633390D01*
X131535714Y-111633390D02*
X131488095Y-111681009D01*
X131488095Y-111681009D02*
X131392857Y-111728628D01*
X131392857Y-111728628D02*
X131011905Y-111728628D01*
X132154762Y-111633390D02*
X132059524Y-111585771D01*
X132059524Y-111585771D02*
X132011905Y-111538152D01*
X132011905Y-111538152D02*
X131964286Y-111442914D01*
X131964286Y-111442914D02*
X131964286Y-111395295D01*
X131964286Y-111395295D02*
X132011905Y-111300057D01*
X132011905Y-111300057D02*
X132059524Y-111252438D01*
X132059524Y-111252438D02*
X132154762Y-111204819D01*
X132154762Y-111204819D02*
X132345238Y-111204819D01*
X132345238Y-111204819D02*
X132440476Y-111252438D01*
X132440476Y-111252438D02*
X132488095Y-111300057D01*
X132488095Y-111300057D02*
X132535714Y-111395295D01*
X132535714Y-111395295D02*
X132535714Y-111442914D01*
X132535714Y-111442914D02*
X132488095Y-111538152D01*
X132488095Y-111538152D02*
X132440476Y-111585771D01*
X132440476Y-111585771D02*
X132345238Y-111633390D01*
X132345238Y-111633390D02*
X132154762Y-111633390D01*
X132154762Y-111633390D02*
X132059524Y-111681009D01*
X132059524Y-111681009D02*
X132011905Y-111728628D01*
X132011905Y-111728628D02*
X131964286Y-111823866D01*
X131964286Y-111823866D02*
X131964286Y-112014342D01*
X131964286Y-112014342D02*
X132011905Y-112109580D01*
X132011905Y-112109580D02*
X132059524Y-112157200D01*
X132059524Y-112157200D02*
X132154762Y-112204819D01*
X132154762Y-112204819D02*
X132345238Y-112204819D01*
X132345238Y-112204819D02*
X132440476Y-112157200D01*
X132440476Y-112157200D02*
X132488095Y-112109580D01*
X132488095Y-112109580D02*
X132535714Y-112014342D01*
X132535714Y-112014342D02*
X132535714Y-111823866D01*
X132535714Y-111823866D02*
X132488095Y-111728628D01*
X132488095Y-111728628D02*
X132440476Y-111681009D01*
X132440476Y-111681009D02*
X132345238Y-111633390D01*
X114083333Y-93454819D02*
X113750000Y-92978628D01*
X113511905Y-93454819D02*
X113511905Y-92454819D01*
X113511905Y-92454819D02*
X113892857Y-92454819D01*
X113892857Y-92454819D02*
X113988095Y-92502438D01*
X113988095Y-92502438D02*
X114035714Y-92550057D01*
X114035714Y-92550057D02*
X114083333Y-92645295D01*
X114083333Y-92645295D02*
X114083333Y-92788152D01*
X114083333Y-92788152D02*
X114035714Y-92883390D01*
X114035714Y-92883390D02*
X113988095Y-92931009D01*
X113988095Y-92931009D02*
X113892857Y-92978628D01*
X113892857Y-92978628D02*
X113511905Y-92978628D01*
X115035714Y-93454819D02*
X114464286Y-93454819D01*
X114750000Y-93454819D02*
X114750000Y-92454819D01*
X114750000Y-92454819D02*
X114654762Y-92597676D01*
X114654762Y-92597676D02*
X114559524Y-92692914D01*
X114559524Y-92692914D02*
X114464286Y-92740533D01*
X104454819Y-99916666D02*
X103978628Y-100249999D01*
X104454819Y-100488094D02*
X103454819Y-100488094D01*
X103454819Y-100488094D02*
X103454819Y-100107142D01*
X103454819Y-100107142D02*
X103502438Y-100011904D01*
X103502438Y-100011904D02*
X103550057Y-99964285D01*
X103550057Y-99964285D02*
X103645295Y-99916666D01*
X103645295Y-99916666D02*
X103788152Y-99916666D01*
X103788152Y-99916666D02*
X103883390Y-99964285D01*
X103883390Y-99964285D02*
X103931009Y-100011904D01*
X103931009Y-100011904D02*
X103978628Y-100107142D01*
X103978628Y-100107142D02*
X103978628Y-100488094D01*
X103454819Y-99583332D02*
X103454819Y-98916666D01*
X103454819Y-98916666D02*
X104454819Y-99345237D01*
X116166666Y-52931009D02*
X115833333Y-52931009D01*
X115833333Y-53454819D02*
X115833333Y-52454819D01*
X115833333Y-52454819D02*
X116309523Y-52454819D01*
X117214285Y-53454819D02*
X116642857Y-53454819D01*
X116928571Y-53454819D02*
X116928571Y-52454819D01*
X116928571Y-52454819D02*
X116833333Y-52597676D01*
X116833333Y-52597676D02*
X116738095Y-52692914D01*
X116738095Y-52692914D02*
X116642857Y-52740533D01*
X95924819Y-93067857D02*
X95448628Y-93401190D01*
X95924819Y-93639285D02*
X94924819Y-93639285D01*
X94924819Y-93639285D02*
X94924819Y-93258333D01*
X94924819Y-93258333D02*
X94972438Y-93163095D01*
X94972438Y-93163095D02*
X95020057Y-93115476D01*
X95020057Y-93115476D02*
X95115295Y-93067857D01*
X95115295Y-93067857D02*
X95258152Y-93067857D01*
X95258152Y-93067857D02*
X95353390Y-93115476D01*
X95353390Y-93115476D02*
X95401009Y-93163095D01*
X95401009Y-93163095D02*
X95448628Y-93258333D01*
X95448628Y-93258333D02*
X95448628Y-93639285D01*
X95924819Y-92115476D02*
X95924819Y-92686904D01*
X95924819Y-92401190D02*
X94924819Y-92401190D01*
X94924819Y-92401190D02*
X95067676Y-92496428D01*
X95067676Y-92496428D02*
X95162914Y-92591666D01*
X95162914Y-92591666D02*
X95210533Y-92686904D01*
X95258152Y-91258333D02*
X95924819Y-91258333D01*
X94877200Y-91496428D02*
X95591485Y-91734523D01*
X95591485Y-91734523D02*
X95591485Y-91115476D01*
X155919104Y-116214285D02*
X155919104Y-115738095D01*
X156204819Y-116309523D02*
X155204819Y-115976190D01*
X155204819Y-115976190D02*
X156204819Y-115642857D01*
X156204819Y-114785714D02*
X156204819Y-115357142D01*
X156204819Y-115071428D02*
X155204819Y-115071428D01*
X155204819Y-115071428D02*
X155347676Y-115166666D01*
X155347676Y-115166666D02*
X155442914Y-115261904D01*
X155442914Y-115261904D02*
X155490533Y-115357142D01*
X122409580Y-95416666D02*
X122457200Y-95464285D01*
X122457200Y-95464285D02*
X122504819Y-95607142D01*
X122504819Y-95607142D02*
X122504819Y-95702380D01*
X122504819Y-95702380D02*
X122457200Y-95845237D01*
X122457200Y-95845237D02*
X122361961Y-95940475D01*
X122361961Y-95940475D02*
X122266723Y-95988094D01*
X122266723Y-95988094D02*
X122076247Y-96035713D01*
X122076247Y-96035713D02*
X121933390Y-96035713D01*
X121933390Y-96035713D02*
X121742914Y-95988094D01*
X121742914Y-95988094D02*
X121647676Y-95940475D01*
X121647676Y-95940475D02*
X121552438Y-95845237D01*
X121552438Y-95845237D02*
X121504819Y-95702380D01*
X121504819Y-95702380D02*
X121504819Y-95607142D01*
X121504819Y-95607142D02*
X121552438Y-95464285D01*
X121552438Y-95464285D02*
X121600057Y-95416666D01*
X121838152Y-94559523D02*
X122504819Y-94559523D01*
X121457200Y-94797618D02*
X122171485Y-95035713D01*
X122171485Y-95035713D02*
X122171485Y-94416666D01*
X108524819Y-92927857D02*
X108048628Y-93261190D01*
X108524819Y-93499285D02*
X107524819Y-93499285D01*
X107524819Y-93499285D02*
X107524819Y-93118333D01*
X107524819Y-93118333D02*
X107572438Y-93023095D01*
X107572438Y-93023095D02*
X107620057Y-92975476D01*
X107620057Y-92975476D02*
X107715295Y-92927857D01*
X107715295Y-92927857D02*
X107858152Y-92927857D01*
X107858152Y-92927857D02*
X107953390Y-92975476D01*
X107953390Y-92975476D02*
X108001009Y-93023095D01*
X108001009Y-93023095D02*
X108048628Y-93118333D01*
X108048628Y-93118333D02*
X108048628Y-93499285D01*
X108524819Y-91975476D02*
X108524819Y-92546904D01*
X108524819Y-92261190D02*
X107524819Y-92261190D01*
X107524819Y-92261190D02*
X107667676Y-92356428D01*
X107667676Y-92356428D02*
X107762914Y-92451666D01*
X107762914Y-92451666D02*
X107810533Y-92546904D01*
X107620057Y-91594523D02*
X107572438Y-91546904D01*
X107572438Y-91546904D02*
X107524819Y-91451666D01*
X107524819Y-91451666D02*
X107524819Y-91213571D01*
X107524819Y-91213571D02*
X107572438Y-91118333D01*
X107572438Y-91118333D02*
X107620057Y-91070714D01*
X107620057Y-91070714D02*
X107715295Y-91023095D01*
X107715295Y-91023095D02*
X107810533Y-91023095D01*
X107810533Y-91023095D02*
X107953390Y-91070714D01*
X107953390Y-91070714D02*
X108524819Y-91642142D01*
X108524819Y-91642142D02*
X108524819Y-91023095D01*
X107454819Y-124666666D02*
X106978628Y-124999999D01*
X107454819Y-125238094D02*
X106454819Y-125238094D01*
X106454819Y-125238094D02*
X106454819Y-124857142D01*
X106454819Y-124857142D02*
X106502438Y-124761904D01*
X106502438Y-124761904D02*
X106550057Y-124714285D01*
X106550057Y-124714285D02*
X106645295Y-124666666D01*
X106645295Y-124666666D02*
X106788152Y-124666666D01*
X106788152Y-124666666D02*
X106883390Y-124714285D01*
X106883390Y-124714285D02*
X106931009Y-124761904D01*
X106931009Y-124761904D02*
X106978628Y-124857142D01*
X106978628Y-124857142D02*
X106978628Y-125238094D01*
X106550057Y-124285713D02*
X106502438Y-124238094D01*
X106502438Y-124238094D02*
X106454819Y-124142856D01*
X106454819Y-124142856D02*
X106454819Y-123904761D01*
X106454819Y-123904761D02*
X106502438Y-123809523D01*
X106502438Y-123809523D02*
X106550057Y-123761904D01*
X106550057Y-123761904D02*
X106645295Y-123714285D01*
X106645295Y-123714285D02*
X106740533Y-123714285D01*
X106740533Y-123714285D02*
X106883390Y-123761904D01*
X106883390Y-123761904D02*
X107454819Y-124333332D01*
X107454819Y-124333332D02*
X107454819Y-123714285D01*
X93067319Y-125249404D02*
X93067319Y-124677976D01*
X94067319Y-124963690D02*
X93067319Y-124963690D01*
X94067319Y-123773214D02*
X93591128Y-124106547D01*
X94067319Y-124344642D02*
X93067319Y-124344642D01*
X93067319Y-124344642D02*
X93067319Y-123963690D01*
X93067319Y-123963690D02*
X93114938Y-123868452D01*
X93114938Y-123868452D02*
X93162557Y-123820833D01*
X93162557Y-123820833D02*
X93257795Y-123773214D01*
X93257795Y-123773214D02*
X93400652Y-123773214D01*
X93400652Y-123773214D02*
X93495890Y-123820833D01*
X93495890Y-123820833D02*
X93543509Y-123868452D01*
X93543509Y-123868452D02*
X93591128Y-123963690D01*
X93591128Y-123963690D02*
X93591128Y-124344642D01*
X94067319Y-122820833D02*
X94067319Y-123392261D01*
X94067319Y-123106547D02*
X93067319Y-123106547D01*
X93067319Y-123106547D02*
X93210176Y-123201785D01*
X93210176Y-123201785D02*
X93305414Y-123297023D01*
X93305414Y-123297023D02*
X93353033Y-123392261D01*
X108524819Y-87662857D02*
X108048628Y-87996190D01*
X108524819Y-88234285D02*
X107524819Y-88234285D01*
X107524819Y-88234285D02*
X107524819Y-87853333D01*
X107524819Y-87853333D02*
X107572438Y-87758095D01*
X107572438Y-87758095D02*
X107620057Y-87710476D01*
X107620057Y-87710476D02*
X107715295Y-87662857D01*
X107715295Y-87662857D02*
X107858152Y-87662857D01*
X107858152Y-87662857D02*
X107953390Y-87710476D01*
X107953390Y-87710476D02*
X108001009Y-87758095D01*
X108001009Y-87758095D02*
X108048628Y-87853333D01*
X108048628Y-87853333D02*
X108048628Y-88234285D01*
X108524819Y-86710476D02*
X108524819Y-87281904D01*
X108524819Y-86996190D02*
X107524819Y-86996190D01*
X107524819Y-86996190D02*
X107667676Y-87091428D01*
X107667676Y-87091428D02*
X107762914Y-87186666D01*
X107762914Y-87186666D02*
X107810533Y-87281904D01*
X108524819Y-85758095D02*
X108524819Y-86329523D01*
X108524819Y-86043809D02*
X107524819Y-86043809D01*
X107524819Y-86043809D02*
X107667676Y-86139047D01*
X107667676Y-86139047D02*
X107762914Y-86234285D01*
X107762914Y-86234285D02*
X107810533Y-86329523D01*
X123357142Y-112324819D02*
X123023809Y-111848628D01*
X122785714Y-112324819D02*
X122785714Y-111324819D01*
X122785714Y-111324819D02*
X123166666Y-111324819D01*
X123166666Y-111324819D02*
X123261904Y-111372438D01*
X123261904Y-111372438D02*
X123309523Y-111420057D01*
X123309523Y-111420057D02*
X123357142Y-111515295D01*
X123357142Y-111515295D02*
X123357142Y-111658152D01*
X123357142Y-111658152D02*
X123309523Y-111753390D01*
X123309523Y-111753390D02*
X123261904Y-111801009D01*
X123261904Y-111801009D02*
X123166666Y-111848628D01*
X123166666Y-111848628D02*
X122785714Y-111848628D01*
X124309523Y-112324819D02*
X123738095Y-112324819D01*
X124023809Y-112324819D02*
X124023809Y-111324819D01*
X124023809Y-111324819D02*
X123928571Y-111467676D01*
X123928571Y-111467676D02*
X123833333Y-111562914D01*
X123833333Y-111562914D02*
X123738095Y-111610533D01*
X124928571Y-111324819D02*
X125023809Y-111324819D01*
X125023809Y-111324819D02*
X125119047Y-111372438D01*
X125119047Y-111372438D02*
X125166666Y-111420057D01*
X125166666Y-111420057D02*
X125214285Y-111515295D01*
X125214285Y-111515295D02*
X125261904Y-111705771D01*
X125261904Y-111705771D02*
X125261904Y-111943866D01*
X125261904Y-111943866D02*
X125214285Y-112134342D01*
X125214285Y-112134342D02*
X125166666Y-112229580D01*
X125166666Y-112229580D02*
X125119047Y-112277200D01*
X125119047Y-112277200D02*
X125023809Y-112324819D01*
X125023809Y-112324819D02*
X124928571Y-112324819D01*
X124928571Y-112324819D02*
X124833333Y-112277200D01*
X124833333Y-112277200D02*
X124785714Y-112229580D01*
X124785714Y-112229580D02*
X124738095Y-112134342D01*
X124738095Y-112134342D02*
X124690476Y-111943866D01*
X124690476Y-111943866D02*
X124690476Y-111705771D01*
X124690476Y-111705771D02*
X124738095Y-111515295D01*
X124738095Y-111515295D02*
X124785714Y-111420057D01*
X124785714Y-111420057D02*
X124833333Y-111372438D01*
X124833333Y-111372438D02*
X124928571Y-111324819D01*
X113761905Y-84954819D02*
X113761905Y-83954819D01*
X113761905Y-83954819D02*
X114000000Y-83954819D01*
X114000000Y-83954819D02*
X114142857Y-84002438D01*
X114142857Y-84002438D02*
X114238095Y-84097676D01*
X114238095Y-84097676D02*
X114285714Y-84192914D01*
X114285714Y-84192914D02*
X114333333Y-84383390D01*
X114333333Y-84383390D02*
X114333333Y-84526247D01*
X114333333Y-84526247D02*
X114285714Y-84716723D01*
X114285714Y-84716723D02*
X114238095Y-84811961D01*
X114238095Y-84811961D02*
X114142857Y-84907200D01*
X114142857Y-84907200D02*
X114000000Y-84954819D01*
X114000000Y-84954819D02*
X113761905Y-84954819D01*
X115285714Y-84954819D02*
X114714286Y-84954819D01*
X115000000Y-84954819D02*
X115000000Y-83954819D01*
X115000000Y-83954819D02*
X114904762Y-84097676D01*
X114904762Y-84097676D02*
X114809524Y-84192914D01*
X114809524Y-84192914D02*
X114714286Y-84240533D01*
X110428095Y-85554819D02*
X110428095Y-84554819D01*
X110999523Y-85554819D02*
X110570952Y-84983390D01*
X110999523Y-84554819D02*
X110428095Y-85126247D01*
X110359580Y-107416666D02*
X110407200Y-107464285D01*
X110407200Y-107464285D02*
X110454819Y-107607142D01*
X110454819Y-107607142D02*
X110454819Y-107702380D01*
X110454819Y-107702380D02*
X110407200Y-107845237D01*
X110407200Y-107845237D02*
X110311961Y-107940475D01*
X110311961Y-107940475D02*
X110216723Y-107988094D01*
X110216723Y-107988094D02*
X110026247Y-108035713D01*
X110026247Y-108035713D02*
X109883390Y-108035713D01*
X109883390Y-108035713D02*
X109692914Y-107988094D01*
X109692914Y-107988094D02*
X109597676Y-107940475D01*
X109597676Y-107940475D02*
X109502438Y-107845237D01*
X109502438Y-107845237D02*
X109454819Y-107702380D01*
X109454819Y-107702380D02*
X109454819Y-107607142D01*
X109454819Y-107607142D02*
X109502438Y-107464285D01*
X109502438Y-107464285D02*
X109550057Y-107416666D01*
X109454819Y-107083332D02*
X109454819Y-106464285D01*
X109454819Y-106464285D02*
X109835771Y-106797618D01*
X109835771Y-106797618D02*
X109835771Y-106654761D01*
X109835771Y-106654761D02*
X109883390Y-106559523D01*
X109883390Y-106559523D02*
X109931009Y-106511904D01*
X109931009Y-106511904D02*
X110026247Y-106464285D01*
X110026247Y-106464285D02*
X110264342Y-106464285D01*
X110264342Y-106464285D02*
X110359580Y-106511904D01*
X110359580Y-106511904D02*
X110407200Y-106559523D01*
X110407200Y-106559523D02*
X110454819Y-106654761D01*
X110454819Y-106654761D02*
X110454819Y-106940475D01*
X110454819Y-106940475D02*
X110407200Y-107035713D01*
X110407200Y-107035713D02*
X110359580Y-107083332D01*
X114063095Y-109879819D02*
X114063095Y-110689342D01*
X114063095Y-110689342D02*
X114110714Y-110784580D01*
X114110714Y-110784580D02*
X114158333Y-110832200D01*
X114158333Y-110832200D02*
X114253571Y-110879819D01*
X114253571Y-110879819D02*
X114444047Y-110879819D01*
X114444047Y-110879819D02*
X114539285Y-110832200D01*
X114539285Y-110832200D02*
X114586904Y-110784580D01*
X114586904Y-110784580D02*
X114634523Y-110689342D01*
X114634523Y-110689342D02*
X114634523Y-109879819D01*
X115634523Y-110879819D02*
X115063095Y-110879819D01*
X115348809Y-110879819D02*
X115348809Y-109879819D01*
X115348809Y-109879819D02*
X115253571Y-110022676D01*
X115253571Y-110022676D02*
X115158333Y-110117914D01*
X115158333Y-110117914D02*
X115063095Y-110165533D01*
X104454819Y-109666666D02*
X103978628Y-109999999D01*
X104454819Y-110238094D02*
X103454819Y-110238094D01*
X103454819Y-110238094D02*
X103454819Y-109857142D01*
X103454819Y-109857142D02*
X103502438Y-109761904D01*
X103502438Y-109761904D02*
X103550057Y-109714285D01*
X103550057Y-109714285D02*
X103645295Y-109666666D01*
X103645295Y-109666666D02*
X103788152Y-109666666D01*
X103788152Y-109666666D02*
X103883390Y-109714285D01*
X103883390Y-109714285D02*
X103931009Y-109761904D01*
X103931009Y-109761904D02*
X103978628Y-109857142D01*
X103978628Y-109857142D02*
X103978628Y-110238094D01*
X104454819Y-109190475D02*
X104454819Y-108999999D01*
X104454819Y-108999999D02*
X104407200Y-108904761D01*
X104407200Y-108904761D02*
X104359580Y-108857142D01*
X104359580Y-108857142D02*
X104216723Y-108761904D01*
X104216723Y-108761904D02*
X104026247Y-108714285D01*
X104026247Y-108714285D02*
X103645295Y-108714285D01*
X103645295Y-108714285D02*
X103550057Y-108761904D01*
X103550057Y-108761904D02*
X103502438Y-108809523D01*
X103502438Y-108809523D02*
X103454819Y-108904761D01*
X103454819Y-108904761D02*
X103454819Y-109095237D01*
X103454819Y-109095237D02*
X103502438Y-109190475D01*
X103502438Y-109190475D02*
X103550057Y-109238094D01*
X103550057Y-109238094D02*
X103645295Y-109285713D01*
X103645295Y-109285713D02*
X103883390Y-109285713D01*
X103883390Y-109285713D02*
X103978628Y-109238094D01*
X103978628Y-109238094D02*
X104026247Y-109190475D01*
X104026247Y-109190475D02*
X104073866Y-109095237D01*
X104073866Y-109095237D02*
X104073866Y-108904761D01*
X104073866Y-108904761D02*
X104026247Y-108809523D01*
X104026247Y-108809523D02*
X103978628Y-108761904D01*
X103978628Y-108761904D02*
X103883390Y-108714285D01*
X107454819Y-114666666D02*
X106978628Y-114999999D01*
X107454819Y-115238094D02*
X106454819Y-115238094D01*
X106454819Y-115238094D02*
X106454819Y-114857142D01*
X106454819Y-114857142D02*
X106502438Y-114761904D01*
X106502438Y-114761904D02*
X106550057Y-114714285D01*
X106550057Y-114714285D02*
X106645295Y-114666666D01*
X106645295Y-114666666D02*
X106788152Y-114666666D01*
X106788152Y-114666666D02*
X106883390Y-114714285D01*
X106883390Y-114714285D02*
X106931009Y-114761904D01*
X106931009Y-114761904D02*
X106978628Y-114857142D01*
X106978628Y-114857142D02*
X106978628Y-115238094D01*
X106788152Y-113809523D02*
X107454819Y-113809523D01*
X106407200Y-114047618D02*
X107121485Y-114285713D01*
X107121485Y-114285713D02*
X107121485Y-113666666D01*
X101859580Y-117666666D02*
X101907200Y-117714285D01*
X101907200Y-117714285D02*
X101954819Y-117857142D01*
X101954819Y-117857142D02*
X101954819Y-117952380D01*
X101954819Y-117952380D02*
X101907200Y-118095237D01*
X101907200Y-118095237D02*
X101811961Y-118190475D01*
X101811961Y-118190475D02*
X101716723Y-118238094D01*
X101716723Y-118238094D02*
X101526247Y-118285713D01*
X101526247Y-118285713D02*
X101383390Y-118285713D01*
X101383390Y-118285713D02*
X101192914Y-118238094D01*
X101192914Y-118238094D02*
X101097676Y-118190475D01*
X101097676Y-118190475D02*
X101002438Y-118095237D01*
X101002438Y-118095237D02*
X100954819Y-117952380D01*
X100954819Y-117952380D02*
X100954819Y-117857142D01*
X100954819Y-117857142D02*
X101002438Y-117714285D01*
X101002438Y-117714285D02*
X101050057Y-117666666D01*
X100954819Y-116809523D02*
X100954819Y-116999999D01*
X100954819Y-116999999D02*
X101002438Y-117095237D01*
X101002438Y-117095237D02*
X101050057Y-117142856D01*
X101050057Y-117142856D02*
X101192914Y-117238094D01*
X101192914Y-117238094D02*
X101383390Y-117285713D01*
X101383390Y-117285713D02*
X101764342Y-117285713D01*
X101764342Y-117285713D02*
X101859580Y-117238094D01*
X101859580Y-117238094D02*
X101907200Y-117190475D01*
X101907200Y-117190475D02*
X101954819Y-117095237D01*
X101954819Y-117095237D02*
X101954819Y-116904761D01*
X101954819Y-116904761D02*
X101907200Y-116809523D01*
X101907200Y-116809523D02*
X101859580Y-116761904D01*
X101859580Y-116761904D02*
X101764342Y-116714285D01*
X101764342Y-116714285D02*
X101526247Y-116714285D01*
X101526247Y-116714285D02*
X101431009Y-116761904D01*
X101431009Y-116761904D02*
X101383390Y-116809523D01*
X101383390Y-116809523D02*
X101335771Y-116904761D01*
X101335771Y-116904761D02*
X101335771Y-117095237D01*
X101335771Y-117095237D02*
X101383390Y-117190475D01*
X101383390Y-117190475D02*
X101431009Y-117238094D01*
X101431009Y-117238094D02*
X101526247Y-117285713D01*
X99281566Y-69204819D02*
X99281566Y-69919104D01*
X99281566Y-69919104D02*
X99233947Y-70061961D01*
X99233947Y-70061961D02*
X99138709Y-70157200D01*
X99138709Y-70157200D02*
X98995852Y-70204819D01*
X98995852Y-70204819D02*
X98900614Y-70204819D01*
X99710138Y-69300057D02*
X99757757Y-69252438D01*
X99757757Y-69252438D02*
X99852995Y-69204819D01*
X99852995Y-69204819D02*
X100091090Y-69204819D01*
X100091090Y-69204819D02*
X100186328Y-69252438D01*
X100186328Y-69252438D02*
X100233947Y-69300057D01*
X100233947Y-69300057D02*
X100281566Y-69395295D01*
X100281566Y-69395295D02*
X100281566Y-69490533D01*
X100281566Y-69490533D02*
X100233947Y-69633390D01*
X100233947Y-69633390D02*
X99662519Y-70204819D01*
X99662519Y-70204819D02*
X100281566Y-70204819D01*
X108524819Y-81836666D02*
X108048628Y-82169999D01*
X108524819Y-82408094D02*
X107524819Y-82408094D01*
X107524819Y-82408094D02*
X107524819Y-82027142D01*
X107524819Y-82027142D02*
X107572438Y-81931904D01*
X107572438Y-81931904D02*
X107620057Y-81884285D01*
X107620057Y-81884285D02*
X107715295Y-81836666D01*
X107715295Y-81836666D02*
X107858152Y-81836666D01*
X107858152Y-81836666D02*
X107953390Y-81884285D01*
X107953390Y-81884285D02*
X108001009Y-81931904D01*
X108001009Y-81931904D02*
X108048628Y-82027142D01*
X108048628Y-82027142D02*
X108048628Y-82408094D01*
X107524819Y-80931904D02*
X107524819Y-81408094D01*
X107524819Y-81408094D02*
X108001009Y-81455713D01*
X108001009Y-81455713D02*
X107953390Y-81408094D01*
X107953390Y-81408094D02*
X107905771Y-81312856D01*
X107905771Y-81312856D02*
X107905771Y-81074761D01*
X107905771Y-81074761D02*
X107953390Y-80979523D01*
X107953390Y-80979523D02*
X108001009Y-80931904D01*
X108001009Y-80931904D02*
X108096247Y-80884285D01*
X108096247Y-80884285D02*
X108334342Y-80884285D01*
X108334342Y-80884285D02*
X108429580Y-80931904D01*
X108429580Y-80931904D02*
X108477200Y-80979523D01*
X108477200Y-80979523D02*
X108524819Y-81074761D01*
X108524819Y-81074761D02*
X108524819Y-81312856D01*
X108524819Y-81312856D02*
X108477200Y-81408094D01*
X108477200Y-81408094D02*
X108429580Y-81455713D01*
D10*
X99238095Y-93207419D02*
X99809523Y-93207419D01*
X99523809Y-94207419D02*
X99523809Y-93207419D01*
X100714285Y-94207419D02*
X100380952Y-93731228D01*
X100142857Y-94207419D02*
X100142857Y-93207419D01*
X100142857Y-93207419D02*
X100523809Y-93207419D01*
X100523809Y-93207419D02*
X100619047Y-93255038D01*
X100619047Y-93255038D02*
X100666666Y-93302657D01*
X100666666Y-93302657D02*
X100714285Y-93397895D01*
X100714285Y-93397895D02*
X100714285Y-93540752D01*
X100714285Y-93540752D02*
X100666666Y-93635990D01*
X100666666Y-93635990D02*
X100619047Y-93683609D01*
X100619047Y-93683609D02*
X100523809Y-93731228D01*
X100523809Y-93731228D02*
X100142857Y-93731228D01*
X101095238Y-93302657D02*
X101142857Y-93255038D01*
X101142857Y-93255038D02*
X101238095Y-93207419D01*
X101238095Y-93207419D02*
X101476190Y-93207419D01*
X101476190Y-93207419D02*
X101571428Y-93255038D01*
X101571428Y-93255038D02*
X101619047Y-93302657D01*
X101619047Y-93302657D02*
X101666666Y-93397895D01*
X101666666Y-93397895D02*
X101666666Y-93493133D01*
X101666666Y-93493133D02*
X101619047Y-93635990D01*
X101619047Y-93635990D02*
X101047619Y-94207419D01*
X101047619Y-94207419D02*
X101666666Y-94207419D01*
D11*
X148738095Y-130454819D02*
X148738095Y-129454819D01*
X148738095Y-129931009D02*
X149309523Y-129931009D01*
X149309523Y-130454819D02*
X149309523Y-129454819D01*
X150214285Y-129788152D02*
X150214285Y-130454819D01*
X149976190Y-129407200D02*
X149738095Y-130121485D01*
X149738095Y-130121485D02*
X150357142Y-130121485D01*
X104454819Y-125166666D02*
X103978628Y-125499999D01*
X104454819Y-125738094D02*
X103454819Y-125738094D01*
X103454819Y-125738094D02*
X103454819Y-125357142D01*
X103454819Y-125357142D02*
X103502438Y-125261904D01*
X103502438Y-125261904D02*
X103550057Y-125214285D01*
X103550057Y-125214285D02*
X103645295Y-125166666D01*
X103645295Y-125166666D02*
X103788152Y-125166666D01*
X103788152Y-125166666D02*
X103883390Y-125214285D01*
X103883390Y-125214285D02*
X103931009Y-125261904D01*
X103931009Y-125261904D02*
X103978628Y-125357142D01*
X103978628Y-125357142D02*
X103978628Y-125738094D01*
X103454819Y-124833332D02*
X103454819Y-124214285D01*
X103454819Y-124214285D02*
X103835771Y-124547618D01*
X103835771Y-124547618D02*
X103835771Y-124404761D01*
X103835771Y-124404761D02*
X103883390Y-124309523D01*
X103883390Y-124309523D02*
X103931009Y-124261904D01*
X103931009Y-124261904D02*
X104026247Y-124214285D01*
X104026247Y-124214285D02*
X104264342Y-124214285D01*
X104264342Y-124214285D02*
X104359580Y-124261904D01*
X104359580Y-124261904D02*
X104407200Y-124309523D01*
X104407200Y-124309523D02*
X104454819Y-124404761D01*
X104454819Y-124404761D02*
X104454819Y-124690475D01*
X104454819Y-124690475D02*
X104407200Y-124785713D01*
X104407200Y-124785713D02*
X104359580Y-124833332D01*
D12*
%TO.C,Q1*%
X121900000Y-85430000D02*
X121900000Y-89030000D01*
X121911522Y-85391522D02*
G75*
G02*
X126350001Y-87230000I1838478J-1838478D01*
G01*
X126350000Y-87230000D02*
G75*
G02*
X121911522Y-89068478I-2600000J0D01*
G01*
%TO.C,J1*%
X94540000Y-67356000D02*
X94540000Y-57435000D01*
X95825000Y-63164000D02*
X95872000Y-63118000D01*
X96030000Y-63370000D02*
X96065000Y-63334000D01*
X98134000Y-60856000D02*
X98169000Y-60821000D01*
X98327000Y-61072000D02*
X98374000Y-61026000D01*
X104660000Y-57435000D02*
X94540000Y-57435000D01*
X104660000Y-57995000D02*
X94540000Y-57995000D01*
X104660000Y-59495000D02*
X94540000Y-59495000D01*
X104660000Y-64396000D02*
X94540000Y-64396000D01*
X104660000Y-67356000D02*
X94540000Y-67356000D01*
X104660000Y-67356000D02*
X104660000Y-57435000D01*
X104900000Y-57195000D02*
X104400000Y-57195000D01*
X104900000Y-57935000D02*
X104900000Y-57195000D01*
X100564573Y-62778042D02*
G75*
G02*
X100565000Y-61411000I1535427J683042D01*
G01*
X101416682Y-60560244D02*
G75*
G02*
X102100000Y-60415000I683318J-1534756D01*
G01*
X102071195Y-60414747D02*
G75*
G02*
X102784000Y-60560000I28806J-1680254D01*
G01*
X102783042Y-63630427D02*
G75*
G02*
X101416000Y-63630000I-683041J1535420D01*
G01*
X103635427Y-61411958D02*
G75*
G02*
X103635000Y-62779000I-1535420J-683041D01*
G01*
X98780000Y-62095000D02*
G75*
G02*
X95420000Y-62095000I-1680000J0D01*
G01*
X95420000Y-62095000D02*
G75*
G02*
X98780000Y-62095000I1680000J0D01*
G01*
%TO.C,R13*%
X93100000Y-87120000D02*
X93100000Y-87190000D01*
X94470000Y-85750000D02*
G75*
G02*
X91730000Y-85750000I-1370000J0D01*
G01*
X91730000Y-85750000D02*
G75*
G02*
X94470000Y-85750000I1370000J0D01*
G01*
%TO.C,R6*%
X93100000Y-81830000D02*
X93100000Y-81900000D01*
X94470000Y-80460000D02*
G75*
G02*
X91730000Y-80460000I-1370000J0D01*
G01*
X91730000Y-80460000D02*
G75*
G02*
X94470000Y-80460000I1370000J0D01*
G01*
%TO.C,PS1*%
X159007500Y-53492500D02*
X159007500Y-56492500D01*
X158767500Y-103352500D02*
X128147500Y-103352500D01*
X158767500Y-53732500D02*
X158767500Y-103352500D01*
X158767500Y-53732500D02*
X128147500Y-53732500D01*
X156007500Y-53492500D02*
X159007500Y-53492500D01*
X128147500Y-53732500D02*
X128147500Y-103352500D01*
%TO.C,K1*%
X109200000Y-62800000D02*
X124800000Y-62800000D01*
X109200000Y-82600000D02*
X109200000Y-62800000D01*
X109200000Y-82600000D02*
X115800000Y-82600000D01*
X111050000Y-75150000D02*
X111050000Y-77650000D01*
X111050000Y-75150000D02*
X115250000Y-75150000D01*
X112800000Y-67050000D02*
X115300000Y-67050000D01*
X115250000Y-73150000D02*
X118850000Y-73150000D01*
X115250000Y-77150000D02*
X115250000Y-73150000D01*
X117050000Y-70250000D02*
X114550000Y-65650000D01*
X117050000Y-71750000D02*
X117050000Y-70250000D01*
X117050000Y-71750000D02*
X120650000Y-71750000D01*
X117050000Y-78550000D02*
X117050000Y-79350000D01*
X117050000Y-78550000D02*
X120650000Y-78550000D01*
X118200000Y-82600000D02*
X124800000Y-82600000D01*
X118850000Y-73150000D02*
X115250000Y-77150000D01*
X118850000Y-73150000D02*
X118850000Y-77150000D01*
X118850000Y-75150000D02*
X123050000Y-75150000D01*
X118850000Y-77150000D02*
X115250000Y-77150000D01*
X120650000Y-71750000D02*
X120650000Y-78550000D01*
X121200000Y-67050000D02*
X118750000Y-67050000D01*
X123050000Y-77650000D02*
X123050000Y-75150000D01*
X124800000Y-62800000D02*
X124800000Y-82600000D01*
%TO.C,C5*%
X127620000Y-93000000D02*
G75*
G02*
X122380000Y-93000000I-2620000J0D01*
G01*
X122380000Y-93000000D02*
G75*
G02*
X127620000Y-93000000I2620000J0D01*
G01*
%TO.C,C2*%
X105880000Y-99330000D02*
X108120000Y-99330000D01*
X105880000Y-104170000D02*
X105880000Y-99330000D01*
X105880000Y-104170000D02*
X108120000Y-104170000D01*
X108120000Y-104170000D02*
X108120000Y-99330000D01*
%TO.C,R8*%
X130730000Y-108130000D02*
X137270000Y-108130000D01*
X130730000Y-108460000D02*
X130730000Y-108130000D01*
X130730000Y-110540000D02*
X130730000Y-110870000D01*
X130730000Y-110870000D02*
X137270000Y-110870000D01*
X137270000Y-108130000D02*
X137270000Y-108460000D01*
X137270000Y-110870000D02*
X137270000Y-110540000D01*
%TO.C,R1*%
X110960000Y-89130000D02*
X117500000Y-89130000D01*
X110960000Y-89460000D02*
X110960000Y-89130000D01*
X110960000Y-91540000D02*
X110960000Y-91870000D01*
X110960000Y-91870000D02*
X117500000Y-91870000D01*
X117500000Y-89130000D02*
X117500000Y-89460000D01*
X117500000Y-91870000D02*
X117500000Y-91540000D01*
%TO.C,R7*%
X102630000Y-96480000D02*
X102630000Y-103020000D01*
X102630000Y-103020000D02*
X102960000Y-103020000D01*
X102960000Y-96480000D02*
X102630000Y-96480000D01*
X105040000Y-96480000D02*
X105370000Y-96480000D01*
X105370000Y-96480000D02*
X105370000Y-103020000D01*
X105370000Y-103020000D02*
X105040000Y-103020000D01*
%TO.C,F1*%
X105530000Y-60040000D02*
X105530000Y-54960000D01*
X106300000Y-54960000D02*
X105530000Y-54960000D01*
X106300000Y-60040000D02*
X105530000Y-60040000D01*
X110530000Y-54960000D02*
X108900000Y-54960000D01*
X110530000Y-54960000D02*
X110530000Y-60040000D01*
X110530000Y-60040000D02*
X108900000Y-60040000D01*
X122470000Y-54960000D02*
X122470000Y-60040000D01*
X122470000Y-55000000D02*
X110530000Y-55000000D01*
X122470000Y-60000000D02*
X110530000Y-60000000D01*
X124100000Y-54960000D02*
X122470000Y-54960000D01*
X124100000Y-60040000D02*
X122470000Y-60040000D01*
X126700000Y-54960000D02*
X127470000Y-54960000D01*
X126700000Y-60040000D02*
X127470000Y-60040000D01*
X127470000Y-54960000D02*
X127470000Y-60040000D01*
%TO.C,R14*%
X93100000Y-92525000D02*
X93100000Y-92595000D01*
X94470000Y-91155000D02*
G75*
G02*
X91730000Y-91155000I-1370000J0D01*
G01*
X91730000Y-91155000D02*
G75*
G02*
X94470000Y-91155000I1370000J0D01*
G01*
%TO.C,A1*%
X159580000Y-124550000D02*
G75*
G02*
X156930000Y-127200000I-2650000J0D01*
G01*
X156930000Y-104120000D02*
G75*
G02*
X159580000Y-106770000I0J-2650000D01*
G01*
X111210000Y-127200000D02*
G75*
G02*
X108560000Y-124550000I0J2650000D01*
G01*
X108560000Y-106770000D02*
G75*
G02*
X111210000Y-104120000I2650000J0D01*
G01*
X159580000Y-124550000D02*
X159580000Y-106770000D01*
X156930000Y-127200000D02*
X111210000Y-127200000D01*
X156930000Y-104120000D02*
X111210000Y-104120000D01*
X152120000Y-103800000D02*
X154120000Y-103800000D01*
X108560000Y-124550000D02*
X108560000Y-106770000D01*
%TO.C,C4*%
X119080000Y-94621000D02*
X119080000Y-95879000D01*
X120920000Y-94621000D02*
X120920000Y-95879000D01*
%TO.C,R12*%
X105700000Y-92385000D02*
X105700000Y-92455000D01*
X107070000Y-91015000D02*
G75*
G02*
X104330000Y-91015000I-1370000J0D01*
G01*
X104330000Y-91015000D02*
G75*
G02*
X107070000Y-91015000I1370000J0D01*
G01*
%TO.C,R2*%
X108370000Y-127770000D02*
X108370000Y-121230000D01*
X108370000Y-121230000D02*
X108040000Y-121230000D01*
X108040000Y-127770000D02*
X108370000Y-127770000D01*
X105960000Y-127770000D02*
X105630000Y-127770000D01*
X105630000Y-127770000D02*
X105630000Y-121230000D01*
X105630000Y-121230000D02*
X105960000Y-121230000D01*
%TO.C,TR1*%
X91572500Y-133427500D02*
X91572500Y-132127500D01*
X92872500Y-133427500D02*
X91572500Y-133427500D01*
X91872500Y-133127500D02*
X102352500Y-133127500D01*
X102352500Y-114647500D01*
X91872500Y-114647500D01*
X91872500Y-133127500D01*
%TO.C,R11*%
X107070000Y-85750000D02*
G75*
G02*
X104330000Y-85750000I-1370000J0D01*
G01*
X104330000Y-85750000D02*
G75*
G02*
X107070000Y-85750000I1370000J0D01*
G01*
X105700000Y-87120000D02*
X105700000Y-87190000D01*
%TO.C,R10*%
X120730000Y-108130000D02*
X120730000Y-108460000D01*
X120730000Y-110870000D02*
X120730000Y-110540000D01*
X127270000Y-108130000D02*
X120730000Y-108130000D01*
X127270000Y-108460000D02*
X127270000Y-108130000D01*
X127270000Y-110540000D02*
X127270000Y-110870000D01*
X127270000Y-110870000D02*
X120730000Y-110870000D01*
%TO.C,D1*%
X111780000Y-85530000D02*
X117220000Y-85530000D01*
X111780000Y-85860000D02*
X111780000Y-85530000D01*
X111780000Y-88140000D02*
X111780000Y-88470000D01*
X111780000Y-88470000D02*
X117220000Y-88470000D01*
X112560000Y-85530000D02*
X112560000Y-88470000D01*
X112680000Y-85530000D02*
X112680000Y-88470000D01*
X112800000Y-85530000D02*
X112800000Y-88470000D01*
X117220000Y-85530000D02*
X117220000Y-85860000D01*
X117220000Y-88470000D02*
X117220000Y-88140000D01*
%TO.C,C3*%
X105880000Y-104580000D02*
X105880000Y-109420000D01*
X108120000Y-104580000D02*
X105880000Y-104580000D01*
X108120000Y-104580000D02*
X108120000Y-109420000D01*
X108120000Y-109420000D02*
X105880000Y-109420000D01*
%TO.C,U1*%
X114825000Y-111270000D02*
X112875000Y-111270000D01*
X114825000Y-111270000D02*
X116775000Y-111270000D01*
X114825000Y-116540000D02*
X112875000Y-116540000D01*
X114825000Y-116540000D02*
X116775000Y-116540000D01*
X112125000Y-111440000D02*
X111885000Y-111110000D01*
X112365000Y-111110000D01*
X112125000Y-111440000D01*
G36*
X112125000Y-111440000D02*
G01*
X111885000Y-111110000D01*
X112365000Y-111110000D01*
X112125000Y-111440000D01*
G37*
%TO.C,R9*%
X102630000Y-106230000D02*
X102630000Y-112770000D01*
X102630000Y-112770000D02*
X102960000Y-112770000D01*
X102960000Y-106230000D02*
X102630000Y-106230000D01*
X105040000Y-106230000D02*
X105370000Y-106230000D01*
X105370000Y-106230000D02*
X105370000Y-112770000D01*
X105370000Y-112770000D02*
X105040000Y-112770000D01*
%TO.C,R4*%
X105630000Y-111230000D02*
X105960000Y-111230000D01*
X105630000Y-117770000D02*
X105630000Y-111230000D01*
X105960000Y-117770000D02*
X105630000Y-117770000D01*
X108040000Y-117770000D02*
X108370000Y-117770000D01*
X108370000Y-111230000D02*
X108040000Y-111230000D01*
X108370000Y-117770000D02*
X108370000Y-111230000D01*
%TO.C,C6*%
X102880000Y-114830000D02*
X102880000Y-119670000D01*
X105120000Y-114830000D02*
X102880000Y-114830000D01*
X105120000Y-114830000D02*
X105120000Y-119670000D01*
X105120000Y-119670000D02*
X102880000Y-119670000D01*
%TO.C,J2*%
X94314900Y-77706200D02*
X94314900Y-78446200D01*
X94314900Y-78446200D02*
X94814900Y-78446200D01*
X94554900Y-68285200D02*
X94554900Y-78206200D01*
X94554900Y-68285200D02*
X104674900Y-68285200D01*
X94554900Y-71245200D02*
X104674900Y-71245200D01*
X94554900Y-76146200D02*
X104674900Y-76146200D01*
X94554900Y-77646200D02*
X104674900Y-77646200D01*
X94554900Y-78206200D02*
X104674900Y-78206200D01*
X100887900Y-74569200D02*
X100840900Y-74615200D01*
X101080900Y-74785200D02*
X101045900Y-74820200D01*
X103184900Y-72271200D02*
X103149900Y-72307200D01*
X103389900Y-72477200D02*
X103342900Y-72523200D01*
X104674900Y-68285200D02*
X104674900Y-78206200D01*
X95579473Y-74229242D02*
G75*
G02*
X95579900Y-72862200I1535420J683041D01*
G01*
X96431858Y-72010773D02*
G75*
G02*
X97798900Y-72011200I683041J-1535420D01*
G01*
X97143705Y-75226453D02*
G75*
G02*
X96430900Y-75081200I-28806J1680254D01*
G01*
X97798218Y-75080956D02*
G75*
G02*
X97114900Y-75226200I-683318J1534756D01*
G01*
X98650327Y-72863158D02*
G75*
G02*
X98649900Y-74230200I-1535427J-683042D01*
G01*
X103794900Y-73546200D02*
G75*
G02*
X100434900Y-73546200I-1680000J0D01*
G01*
X100434900Y-73546200D02*
G75*
G02*
X103794900Y-73546200I1680000J0D01*
G01*
%TO.C,R5*%
X105700000Y-81770000D02*
X105700000Y-81840000D01*
X107070000Y-80400000D02*
G75*
G02*
X104330000Y-80400000I-1370000J0D01*
G01*
X104330000Y-80400000D02*
G75*
G02*
X107070000Y-80400000I1370000J0D01*
G01*
D10*
%TO.C,TR2*%
X99400000Y-94500000D02*
X102400000Y-94500000D01*
X102400000Y-94500000D02*
X102400000Y-97500000D01*
X102010000Y-94890000D02*
X91790000Y-94890000D01*
X91790000Y-114110000D01*
X102010000Y-114110000D01*
X102010000Y-94890000D01*
D12*
%TO.C,R3*%
X102630000Y-121730000D02*
X102960000Y-121730000D01*
X102630000Y-128270000D02*
X102630000Y-121730000D01*
X102960000Y-128270000D02*
X102630000Y-128270000D01*
X105040000Y-128270000D02*
X105370000Y-128270000D01*
X105370000Y-121730000D02*
X105040000Y-121730000D01*
X105370000Y-128270000D02*
X105370000Y-121730000D01*
%TD*%
M02*
